<?xml version="1.0" encoding="UTF-8" standalone="no"?>
<svg
   xmlns:dc="http://purl.org/dc/elements/1.1/"
   xmlns:cc="http://creativecommons.org/ns#"
   xmlns:rdf="http://www.w3.org/1999/02/22-rdf-syntax-ns#"
   xmlns:svg="http://www.w3.org/2000/svg"
   xmlns="http://www.w3.org/2000/svg"
   xmlns:sodipodi="http://sodipodi.sourceforge.net/DTD/sodipodi-0.dtd"
   xmlns:inkscape="http://www.inkscape.org/namespaces/inkscape"
   version="1.1"
   x="0px"
   y="0px"
   viewBox="0 0 103.40767 70.95047"
   xml:space="preserve"
   id="svg12"
   sodipodi:docname="logo.svg"
   width="103.40767"
   height="70.95047"
   inkscape:version="0.92.2 (5c3e80d, 2017-08-06)"
   inkscape:export-filename="C:\Users\indrora\Sync\ntfod-2\logo.png"
   inkscape:export-xdpi="1999.8176"
   inkscape:export-ydpi="1999.8176"><metadata
     id="metadata18"><rdf:RDF><cc:Work
         rdf:about=""><dc:format>image/svg+xml</dc:format><dc:type
           rdf:resource="http://purl.org/dc/dcmitype/StillImage" /><dc:title></dc:title></cc:Work></rdf:RDF></metadata><defs
     id="defs16" /><sodipodi:namedview
     pagecolor="#ffffff"
     bordercolor="#666666"
     borderopacity="1"
     objecttolerance="10"
     gridtolerance="10"
     guidetolerance="10"
     inkscape:pageopacity="0"
     inkscape:pageshadow="2"
     inkscape:window-width="1920"
     inkscape:window-height="1057"
     id="namedview14"
     showgrid="false"
     fit-margin-top="0"
     fit-margin-left="0"
     fit-margin-right="0"
     fit-margin-bottom="0"
     inkscape:zoom="5.3400704"
     inkscape:cx="44.492384"
     inkscape:cy="38.159683"
     inkscape:window-x="-8"
     inkscape:window-y="-8"
     inkscape:window-maximized="1"
     inkscape:current-layer="svg12" /><path
     id="path62"
     style="font-style:normal;font-variant:normal;font-weight:bold;font-stretch:normal;font-size:11.31270027px;line-height:1.25;font-family:'Century Gothic';-inkscape-font-specification:'Century Gothic, Bold';font-variant-ligatures:normal;font-variant-caps:normal;font-variant-numeric:normal;font-feature-settings:normal;text-align:center;letter-spacing:0px;word-spacing:0px;writing-mode:lr-tb;text-anchor:middle;fill:#ff0000;fill-opacity:1;stroke:none;stroke-width:0.28281724"
     d="m 85.952531,70.79207 -0.933518,-0.933519 q 0.563425,-0.568949 0.563425,-1.032947 0,-0.254094 -0.110475,-0.397712 -0.104952,-0.143618 -0.265142,-0.143618 -0.121523,0 -0.226475,0.08838 -0.09943,0.09391 -0.276189,0.45295 l -0.276189,0.552378 q -0.430855,0.872757 -0.878281,1.19866 -0.447426,0.325903 -1.049518,0.325903 -0.800948,0 -1.336754,-0.591044 -0.535807,-0.585521 -0.535807,-1.574277 0,-1.31466 1.027423,-2.099036 l 1.010852,0.927995 q -0.309332,0.265141 -0.502664,0.618663 -0.187809,0.359046 -0.187809,0.635235 0,0.298284 0.143618,0.480568 0.143619,0.182285 0.331427,0.182285 0.347998,0 0.679425,-0.65733 l 0.254094,-0.508187 q 0.734663,-1.458278 1.839418,-1.458278 0.712568,0 1.215232,0.546854 0.508188,0.552378 0.508188,1.408564 0,0.58552 -0.259618,1.099232 -0.254094,0.519235 -0.734663,0.878281 z m 0.839615,-6.70587 v 1.502468 h -5.148163 q -1.524563,0 -2.242654,-0.613139 -0.972185,-0.823043 -0.972185,-2.480177 0,-0.883805 0.220951,-1.485897 0.220951,-0.602092 0.651806,-1.016375 0.425331,-0.414284 1.03847,-0.61314 v 1.662658 q -0.254093,0.220951 -0.38114,0.568949 -0.132571,0.347998 -0.132571,0.823043 0,0.607616 0.187808,0.977709 0.187809,0.370093 0.486093,0.519235 0.298284,0.154666 1.027423,0.154666 -0.397712,-0.397712 -0.574473,-0.83409 -0.171237,-0.436379 -0.171237,-0.988757 0,-1.209708 0.872757,-2.043798 0.872757,-0.834091 2.209512,-0.834091 1.430659,0 2.297892,0.883805 0.784377,0.800948 0.784377,1.911227 0,0.519236 -0.193333,0.977709 -0.187808,0.463998 -0.624187,0.927995 z m -1.253898,-1.563229 q 0,-0.712568 -0.480569,-1.176565 -0.475045,-0.463998 -1.19866,-0.463998 -0.751234,0 -1.231803,0.475045 -0.480569,0.475045 -0.480569,1.193137 0,0.70152 0.469522,1.154469 0.469521,0.458474 1.231802,0.458474 0.751234,0 1.220756,-0.458474 0.469521,-0.458473 0.469521,-1.182088 z m 1.408564,-7.302438 q 0,0.850662 -0.425331,1.596372 -0.425331,0.751234 -1.15447,1.171041 -0.729139,0.419808 -1.574277,0.419808 -0.850662,0 -1.590849,-0.425331 -0.740186,-0.419808 -1.159994,-1.148947 -0.414283,-0.729138 -0.414283,-1.607419 0,-1.292565 0.916947,-2.209512 0.922471,-0.911424 2.237131,-0.911424 1.408564,0 2.347606,1.032947 0.81752,0.9059 0.81752,2.082465 z m -1.419612,0.0221 q 0,-0.70152 -0.491616,-1.171041 -0.486093,-0.463998 -1.248374,-0.463998 -0.784377,0 -1.270469,0.458474 -0.486093,0.463997 -0.486093,1.171041 0,0.707044 0.491616,1.176565 0.491617,0.469521 1.264946,0.469521 0.773329,0 1.253898,-0.463997 0.486092,-0.458474 0.486092,-1.176565 z m 3.380553,-10.605662 v 1.833895 q 0,1.773133 -0.441902,2.634842 -0.436379,0.86171 -1.425135,1.419612 -0.988757,0.557901 -2.30894,0.557901 -0.939042,0 -1.728943,-0.314855 -0.784377,-0.309332 -1.303612,-0.86171 -0.519235,-0.546854 -0.718091,-1.187612 -0.198856,-0.640759 -0.198856,-2.22056 v -1.861513 z m -1.49142,1.541134 h -5.120544 v 0.718092 q 0,1.060565 0.243047,1.53561 0.243046,0.480569 0.817519,0.784377 0.574473,0.303808 1.414088,0.303808 1.292564,0 2.005131,-0.723615 0.640759,-0.651806 0.640759,-2.093513 z m 1.6958,-7.899003 v 1.502468 h -8.329859 v -1.502468 h 0.635234 q -0.419807,-0.441902 -0.607615,-0.889329 -0.182285,-0.441902 -0.182285,-0.961137 0,-1.165518 0.900376,-2.01618 0.9059,-0.850662 2.248178,-0.850662 1.391993,0 2.281321,0.823043 0.889329,0.823044 0.889329,1.999609 0,0.54133 -0.20438,1.016375 -0.20438,0.475045 -0.61314,0.878281 z m -3.557314,-1.585325 q 0,-0.70152 -0.49714,-1.165517 -0.491616,-0.463998 -1.264945,-0.463998 -0.778853,0 -1.281517,0.469521 -0.502664,0.475046 -0.502664,1.165518 0,0.712567 0.491616,1.182089 0.49714,0.469521 1.298088,0.469521 0.784377,0 1.27047,-0.469521 0.486092,-0.469522 0.486092,-1.187613 z m 3.557314,-5.733682 v 1.507991 h -8.329859 v -1.507991 z m 0,-5.335971 q 0,1.723419 -1.248374,2.960746 -1.248374,1.24285 -3.043602,1.24285 -1.778657,0 -3.01046,-1.226279 -1.231803,-1.220755 -1.231803,-2.966269 0,-1.828371 1.264945,-3.038079 1.264946,-1.209708 3.004936,-1.209708 1.165518,0 2.143227,0.563426 0.977709,0.563425 1.546658,1.546658 0.574473,0.988756 0.574473,2.126655 z m -1.513515,-0.01657 q 0,-1.126851 -0.784377,-1.894657 -0.784377,-0.767805 -1.994084,-0.767805 -1.347803,0 -2.132179,0.966661 -0.61314,0.751234 -0.61314,1.72342 0,1.099232 0.795424,1.872561 0.795425,0.773329 1.960942,0.773329 1.159994,0 1.960942,-0.778853 0.806472,-0.778853 0.806472,-1.894656 z M 86.792146,14.482661 v 1.292564 h -0.756758 q 0.447426,0.209904 0.679425,0.557902 0.231999,0.347998 0.231999,0.762281 0,0.292761 -0.154666,0.61314 l -1.298088,-0.469521 q 0.13257,-0.265142 0.13257,-0.436379 0,-0.347998 -0.430854,-0.591044 -0.430855,-0.237523 -1.690277,-0.237523 l -0.29276,0.0055 h -2.430463 v -1.496944 z m 0.154666,-4.071026 q 0,0.850662 -0.425331,1.596372 -0.425331,0.751234 -1.15447,1.171041 -0.729139,0.419808 -1.574277,0.419808 -0.850662,0 -1.590849,-0.425331 -0.740186,-0.419808 -1.159994,-1.148947 -0.414283,-0.729138 -0.414283,-1.607419 0,-1.2925647 0.916947,-2.2095121 0.922471,-0.9114236 2.237131,-0.9114236 1.408564,0 2.347606,1.0329468 0.81752,0.9058998 0.81752,2.0824649 z m -1.419612,0.0221 q 0,-0.70152 -0.491616,-1.1710412 -0.486093,-0.4639975 -1.248374,-0.4639975 -0.784377,0 -1.270469,0.4584737 -0.486093,0.4639975 -0.486093,1.171041 0,0.707044 0.491616,1.176565 0.491617,0.469522 1.264946,0.469522 0.773329,0 1.253898,-0.463998 Q 85.5272,11.151821 85.5272,10.43373 Z M 88.907753,2.3413931 V 6.373752 H 87.399762 V 3.87148 h -1.47485 V 6.373752 H 84.439016 V 3.87148 H 80.782274 V 2.3413931 Z M 100.09341,64.682769 99.159888,63.74925 q 0.563425,-0.568949 0.563425,-1.032947 0,-0.254094 -0.110475,-0.397712 -0.104952,-0.143618 -0.265142,-0.143618 -0.121523,0 -0.226475,0.08838 -0.09943,0.0939 -0.276188,0.45295 l -0.276189,0.552378 q -0.430855,0.872757 -0.878281,1.19866 -0.447427,0.325903 -1.049518,0.325903 -0.800949,0 -1.336755,-0.591044 -0.535807,-0.585521 -0.535807,-1.574277 0,-1.31466 1.027423,-2.099037 l 1.010852,0.927995 q -0.309332,0.265142 -0.502664,0.618664 -0.187809,0.359045 -0.187809,0.635234 0,0.298284 0.143619,0.480569 0.143618,0.182285 0.331426,0.182285 0.347999,0 0.679425,-0.65733 l 0.254094,-0.508188 q 0.734663,-1.458277 1.839419,-1.458277 0.712572,0 1.215232,0.546854 0.50819,0.552378 0.50819,1.408564 0,0.58552 -0.25962,1.099232 -0.25409,0.519235 -0.73466,0.878281 z m 3.1596,-10.230042 v 1.507992 h -4.800166 l 2.480176,2.220559 v 1.889133 l -2.883412,-2.585129 -3.126459,2.899984 v -1.872561 l 2.767414,-2.551986 h -2.767414 v -1.507992 z m -3.53522,-1.375422 -0.690473,-1.253898 q 0.370093,-0.353522 0.513712,-0.70152 0.143618,-0.342475 0.143618,-0.806472 0,-0.845138 -0.508188,-1.369897 -0.502664,-0.519236 -1.292564,-0.519236 -0.767805,0 -1.253898,0.502664 -0.486093,0.502664 -0.486093,1.320183 0,1.010852 0.690473,1.574278 l -0.811996,1.187612 q -1.253898,-0.966661 -1.253898,-2.728747 0,-1.585325 0.939043,-2.485701 0.939042,-0.894852 2.198464,-0.894852 0.872757,0 1.60742,0.436379 0.73466,0.436378 1.15447,1.215231 0.41981,0.784377 0.41981,1.751038 0,0.894853 -0.35905,1.60742 -0.35352,0.712568 -1.01085,1.165518 z m 3.68988,-8.009478 q 0,0.397712 -0.28723,0.679425 -0.28724,0.287236 -0.696,0.287236 -0.40323,0 -0.69047,-0.281713 -0.28171,-0.281712 -0.28171,-0.673901 0,-0.403236 0.28723,-0.690472 0.29276,-0.281713 0.70705,-0.281713 0.39771,0 0.67942,0.281713 0.28171,0.281713 0.28171,0.679425 z m -2.47465,-0.756758 v 1.513515 h -6.009871 v -1.513515 z m 0,-3.811409 v 1.292565 h -0.75676 q 0.44743,0.209903 0.67943,0.557902 0.232,0.347998 0.232,0.762281 0,0.29276 -0.15467,0.61314 l -1.298087,-0.469522 q 0.132571,-0.265141 0.132571,-0.436378 0,-0.347998 -0.430855,-0.591045 -0.430855,-0.237522 -1.690277,-0.237522 l -0.29276,0.0055 H 94.923149 V 40.49966 Z m 2.11561,-5.032162 v 4.490832 h -1.52456 v -1.480373 h -6.600921 v -1.568753 h 6.600921 v -1.441706 z m -2.11561,-12.251742 v 1.474849 l -3.419218,1.209707 3.419218,1.303612 V 28.1043 l -3.380552,1.275993 3.380552,1.209708 v 1.485897 l -6.009871,-2.192941 v -0.955614 l 3.424743,-1.281516 -3.424743,-1.320184 v -0.944566 z m -3.441313,-0.557903 v -4.844354 q -0.640759,0.104952 -1.0219,0.557902 -0.375617,0.458473 -0.375617,1.165517 0,0.845138 0.591045,1.452754 l -0.596568,1.270469 q -0.673902,-0.475045 -0.999805,-1.137898 -0.320379,-0.662854 -0.320379,-1.574277 0,-1.414088 0.889329,-2.303416 0.894852,-0.889329 2.23713,-0.889329 1.375422,0 2.281318,0.883805 0.91143,0.889328 0.91143,2.226083 0,1.419611 -0.91143,2.30894 -0.905896,0.889328 -2.397317,0.889328 z m 1.187612,-1.513515 q 0.502664,-0.149142 0.817519,-0.591045 0.314856,-0.436378 0.314856,-1.016375 0,-0.629711 -0.353522,-1.104756 -0.220951,-0.298284 -0.778853,-0.552378 z M 103.04863,8.4341218 v 1.4803729 l -5.34702,3.4855043 h 5.34702 v 1.546659 H 94.923149 V 13.460761 L 100.2536,9.98078 H 94.923149 V 8.4341218 Z M 53.800002,18.850473 a 2.2,2.2 0 0 1 -2.2,2.2 2.2,2.2 0 0 1 -2.2,-2.2 2.2,2.2 0 0 1 2.2,-2.2 2.2,2.2 0 0 1 2.2,2.2 z m 13.999998,-5 c 0,0 0,0 0,0 v 0 l -1.6,-9.2 c -0.2,-1.4 -0.9,-2.6 -2,-3.5 -1.1,-0.9 -2.5,-1.3 -3.9,-1.1 -1.4,0.2 -2.6,0.9 -3.5,2 -0.9,1.1 -1.2,2.5 -1.1,4 l 0.9,5.4 -25.4,-3.2 -0.3,4.6 c -0.5,4.8 1,9.6 4.1,13.3 2.3,2.8 5.3,4.8 8.7,5.8 l 0.5,3.1 H 15.5 l -6,-5.5 c 0.3,-0.6 0.5,-1.3 0.5,-2.1 0,-2.7 -2.2,-5 -5,-5 -2.8,0 -5,2.2 -5,5 0,2.8 2.2,5 5,5 0.9,0 1.8,-0.3 2.5,-0.7 l 5.7,5.2 5.4,33.7 h 11 l -2.9,-18.5 h 4.5 l 3.1,18.7 h 11.3 l -3,-18.7 h 4.6 l 3.1,18.8 h 11.3 l -3.2,-18.3 h 4.5 l 2.9,18.2 h 11.6 z m -9.1,-8.3 c -0.1,-0.6 0.1,-1.2 0.5,-1.7 0.4,-0.5 0.9,-0.8 1.5,-0.9 0.6,-0.1 1.2,0.1 1.7,0.5 0.5,0.4 0.8,0.9 0.9,1.6 l 1.3,7.3 -4.7,-0.6 z m -24.9,7.6 0.1,-1.6 5.9,0.7 c -0.2,1.2 -0.8,2.3 -1.8,3.1 -1.1,0.8 -2.4,1.2 -3.7,1 -0.1,0 -0.3,0 -0.4,0 -0.1,-1 -0.2,-2.1 -0.1,-3.2 z m -28.7,16.3 c -1.1,0 -2,-0.9 -2,-2 0,-1.1 0.9,-2 2,-2 1.1,0 2,0.9 2,2 0,1.1 -0.9,2 -2,2 z m 36.9,38.5 h -5.2 l -2.6,-15.7 h 5.2 z m -18.8,-18.7 2.9,18.5 h -4.9 l -4.7,-29.5 c 0.1,0 0.1,-0.1 0.2,-0.1 0,0 0,0 0,0 h 28.1 l 1.9,11.2 H 23.2 Z m 42.2,0.4 H 54.8 l 3.2,18.4 h -5.2 l -6,-35.4 c 0.2,0 0.3,0.1 0.5,0.1 0.2,0 0.3,0 0.5,0 3.8,0 10.5,-2.2 11.2,-10.6 0.1,-0.8 -0.5,-1.6 -1.4,-1.6 -0.8,-0.1 -1.6,0.5 -1.6,1.4 -0.7,8 -7.7,7.9 -8.5,7.9 -4,-0.4 -7.7,-2.3 -10.3,-5.4 -1.2,-1.5 -2.1,-3.1 -2.7,-4.9 0.1,0 0.3,0 0.4,0 1.8,0 3.5,-0.6 4.9,-1.7 1.6,-1.3 2.6,-3 3,-5 l 22.2,2.8 8.8,52.4 h -5.5 z"
     inkscape:export-xdpi="1999.8176"
     inkscape:export-ydpi="1999.8176" /></svg>