  0
SECTION
  2
HEADER
  9
$ACADVER
  1
AC1014
  9
$HANDSEED
  5
FFFF
  9
$MEASUREMENT
 70
     1
  0
ENDSEC
  0
SECTION
  2
TABLES
  0
TABLE
  2
VPORT
  5
8
330
0
100
AcDbSymbolTable
 70
     4
  0
VPORT
  5
2E
330
8
100
AcDbSymbolTableRecord
100
AcDbViewportTableRecord
  2
*ACTIVE
 70
     0
 10
0.0
 20
0.0
 11
1.0
 21
1.0
 12
210.0
 22
148.5
 13
0.0
 23
0.0
 14
10.0
 24
10.0
 15
10.0
 25
10.0
 16
0.0
 26
0.0
 36
1.0
 17
0.0
 27
0.0
 37
0.0
 40
341.0
 41
1.24
 42
50.0
 43
0.0
 44
0.0
 50
0.0
 51
0.0
 71
     0
 72
   100
 73
     1
 74
     3
 75
     0
 76
     0
 77
     0
 78
     0
  0
ENDTAB
  0
TABLE
  2
LTYPE
  5
5
330
0
100
AcDbSymbolTable
 70
     1
  0
LTYPE
  5
14
330
5
100
AcDbSymbolTableRecord
100
AcDbLinetypeTableRecord
  2
BYBLOCK
 70
     0
  3

 72
    65
 73
     0
 40
0.0
  0
LTYPE
  5
15
330
5
100
AcDbSymbolTableRecord
100
AcDbLinetypeTableRecord
  2
BYLAYER
 70
     0
  3

 72
    65
 73
     0
 40
0.0
  0
LTYPE
  5
16
330
5
100
AcDbSymbolTableRecord
100
AcDbLinetypeTableRecord
  2
CONTINUOUS
 70
     0
  3
Solid line
 72
    65
 73
     0
 40
0.0
  0
ENDTAB
  0
TABLE
  2
LAYER
  5
2
100
AcDbSymbolTable
 70
1
  0
LAYER
  5
50
100
AcDbSymbolTableRecord
100
AcDbLayerTableRecord
  2
0
 70
0
  6
CONTINUOUS
  0
ENDTAB
  0
TABLE
  2
STYLE
  5
3
330
0
100
AcDbSymbolTable
 70
     1
  0
STYLE
  5
11
330
3
100
AcDbSymbolTableRecord
100
AcDbTextStyleTableRecord
  2
STANDARD
 70
     0
 40
0.0
 41
1.0
 50
0.0
 71
     0
 42
2.5
  3
txt
  4

  0
ENDTAB
  0
TABLE
  2
VIEW
  5
6
330
0
100
AcDbSymbolTable
 70
     0
  0
ENDTAB
  0
TABLE
  2
UCS
  5
7
330
0
100
AcDbSymbolTable
 70
     0
  0
ENDTAB
  0
TABLE
  2
APPID
  5
9
330
0
100
AcDbSymbolTable
 70
     2
  0
APPID
  5
12
330
9
100
AcDbSymbolTableRecord
100
AcDbRegAppTableRecord
  2
ACAD
 70
     0
  0
ENDTAB
  0
TABLE
  2
DIMSTYLE
  5
A
330
0
100
AcDbSymbolTable
 70
     1
  0
DIMSTYLE
105
27
330
A
100
AcDbSymbolTableRecord
100
AcDbDimStyleTableRecord
  2
ISO-25
 70
     0
  3

  4

  5

  6

  7

 40
1.0
 41
2.5
 42
0.625
 43
3.75
 44
1.25
 45
0.0
 46
0.0
 47
0.0
 48
0.0
140
2.5
141
2.5
142
0.0
143
0.03937007874016
144
1.0
145
0.0
146
1.0
147
0.625
 71
     0
 72
     0
 73
     0
 74
     0
 75
     0
 76
     0
 77
     1
 78
     8
170
     0
171
     3
172
     1
173
     0
174
     0
175
     0
176
     0
177
     0
178
     0
270
     2
271
     2
272
     2
273
     2
274
     3
340
11
275
     0
280
     0
281
     0
282
     0
283
     0
284
     8
285
     0
286
     0
287
     3
288
     0
  0
ENDTAB
  0
TABLE
  2
BLOCK_RECORD
  5
1
330
0
100
AcDbSymbolTable
 70
     1
  0
BLOCK_RECORD
  5
1F
330
1
100
AcDbSymbolTableRecord
100
AcDbBlockTableRecord
  2
*MODEL_SPACE
  0
BLOCK_RECORD
  5
1B
330
1
100
AcDbSymbolTableRecord
100
AcDbBlockTableRecord
  2
*PAPER_SPACE
  0
ENDTAB
  0
ENDSEC
  0
SECTION
  2
BLOCKS
  0
BLOCK
  5
20
330
1F
100
AcDbEntity
  8
0
100
AcDbBlockBegin
  2
*MODEL_SPACE
 70
     0
 10
0.0
 20
0.0
 30
0.0
  3
*MODEL_SPACE
  1

  0
ENDBLK
  5
21
330
1F
100
AcDbEntity
  8
0
100
AcDbBlockEnd
  0
BLOCK
  5
1C
330
1B
100
AcDbEntity
 67
     1
  8
0
100
AcDbBlockBegin
  2
*PAPER_SPACE
  1

  0
ENDBLK
  5
1D
330
1B
100
AcDbEntity
 67
     1
  8
0
100
AcDbBlockEnd
  0
ENDSEC
  0
SECTION
  2
ENTITIES
  0
SPLINE
  5
100
100
AcDbEntity
  8
0
 62
7
100
AcDbSpline
 70
8
 71
3
 72
8
 73
4
 74
0
 40
0
 40
0
 40
0
 40
0
 40
1
 40
1
 40
1
 40
1
 10
22.494614
 20
0.288904
 30
0.0
 10
22.593996
 20
0.389260
 30
0.0
 10
22.643687
 20
0.480360
 30
0.0
 10
22.643687
 20
0.562204
 30
0.0
  0
SPLINE
  5
101
100
AcDbEntity
  8
0
 62
7
100
AcDbSpline
 70
8
 71
3
 72
8
 73
4
 74
0
 40
0
 40
0
 40
0
 40
0
 40
1
 40
1
 40
1
 40
1
 10
22.643687
 20
0.562204
 30
0.0
 10
22.643687
 20
0.607023
 30
0.0
 10
22.633943
 20
0.642099
 30
0.0
 10
22.614457
 20
0.667432
 30
0.0
  0
SPLINE
  5
102
100
AcDbEntity
  8
0
 62
7
100
AcDbSpline
 70
8
 71
3
 72
8
 73
4
 74
0
 40
0
 40
0
 40
0
 40
0
 40
1
 40
1
 40
1
 40
1
 10
22.614457
 20
0.667432
 30
0.0
 10
22.595945
 20
0.692765
 30
0.0
 10
22.572560
 20
0.705431
 30
0.0
 10
22.544305
 20
0.705431
 30
0.0
  0
SPLINE
  5
103
100
AcDbEntity
  8
0
 62
7
100
AcDbSpline
 70
8
 71
3
 72
8
 73
4
 74
0
 40
0
 40
0
 40
0
 40
0
 40
1
 40
1
 40
1
 40
1
 10
22.544305
 20
0.705431
 30
0.0
 10
22.522869
 20
0.705431
 30
0.0
 10
22.502896
 20
0.697636
 30
0.0
 10
22.484383
 20
0.682047
 30
0.0
  0
SPLINE
  5
104
100
AcDbEntity
  8
0
 62
7
100
AcDbSpline
 70
8
 71
3
 72
8
 73
4
 74
0
 40
0
 40
0
 40
0
 40
0
 40
1
 40
1
 40
1
 40
1
 10
22.484383
 20
0.682047
 30
0.0
 10
22.466845
 20
0.665482
 30
0.0
 10
22.442487
 20
0.625535
 30
0.0
 10
22.411308
 20
0.562204
 30
0.0
  0
LWPOLYLINE
  5
105
100
AcDbEntity
  8
0
 62
7
100
AcDbPolyline
 90
2
 70
0
 10
22.741607
 20
0.041910
 30
0.0
 10
22.494614
 20
0.288904
 30
0.0
  0
SPLINE
  5
106
100
AcDbEntity
  8
0
 62
7
100
AcDbSpline
 70
8
 71
3
 72
8
 73
4
 74
0
 40
0
 40
0
 40
0
 40
0
 40
1
 40
1
 40
1
 40
1
 10
22.338233
 20
0.416054
 30
0.0
 10
22.262235
 20
0.262109
 30
0.0
 10
22.184776
 20
0.156394
 30
0.0
 10
22.105855
 20
0.098909
 30
0.0
  0
SPLINE
  5
107
100
AcDbEntity
  8
0
 62
7
100
AcDbSpline
 70
8
 71
3
 72
8
 73
4
 74
0
 40
0
 40
0
 40
0
 40
0
 40
1
 40
1
 40
1
 40
1
 10
22.105855
 20
0.098909
 30
0.0
 10
22.026934
 20
0.041423
 30
0.0
 10
21.934372
 20
0.012680
 30
0.0
 10
21.828170
 20
0.012680
 30
0.0
  0
SPLINE
  5
108
100
AcDbEntity
  8
0
 62
7
100
AcDbSpline
 70
8
 71
3
 72
8
 73
4
 74
0
 40
0
 40
0
 40
0
 40
0
 40
1
 40
1
 40
1
 40
1
 10
21.828170
 20
0.012680
 30
0.0
 10
21.686891
 20
0.012680
 30
0.0
 10
21.568997
 20
0.064807
 30
0.0
 10
21.474487
 20
0.169061
 30
0.0
  0
SPLINE
  5
109
100
AcDbEntity
  8
0
 62
7
100
AcDbSpline
 70
8
 71
3
 72
8
 73
4
 74
0
 40
0
 40
0
 40
0
 40
0
 40
1
 40
1
 40
1
 40
1
 10
21.474487
 20
0.169061
 30
0.0
 10
21.379976
 20
0.272340
 30
0.0
 10
21.332721
 20
0.411182
 30
0.0
 10
21.332721
 20
0.585588
 30
0.0
  0
SPLINE
  5
10a
100
AcDbEntity
  8
0
 62
7
100
AcDbSpline
 70
8
 71
3
 72
8
 73
4
 74
0
 40
0
 40
0
 40
0
 40
0
 40
1
 40
1
 40
1
 40
1
 10
21.332721
 20
0.585588
 30
0.0
 10
21.332721
 20
0.817479
 30
0.0
 10
21.423334
 20
1.002603
 30
0.0
 10
21.604560
 20
1.140958
 30
0.0
  0
LWPOLYLINE
  5
10b
100
AcDbEntity
  8
0
 62
7
100
AcDbPolyline
 90
2
 70
0
 10
22.411308
 20
0.562204
 30
0.0
 10
22.338233
 20
0.416054
 30
0.0
  0
SPLINE
  5
10c
100
AcDbEntity
  8
0
 62
7
100
AcDbSpline
 70
8
 71
3
 72
8
 73
4
 74
0
 40
0
 40
0
 40
0
 40
0
 40
1
 40
1
 40
1
 40
1
 10
21.872015
 20
0.895426
 30
0.0
 10
21.817452
 20
0.848658
 30
0.0
 10
21.773120
 20
0.794095
 30
0.0
 10
21.739018
 20
0.731738
 30
0.0
  0
SPLINE
  5
10d
100
AcDbEntity
  8
0
 62
7
100
AcDbSpline
 70
8
 71
3
 72
8
 73
4
 74
0
 40
0
 40
0
 40
0
 40
0
 40
1
 40
1
 40
1
 40
1
 10
21.739018
 20
0.731738
 30
0.0
 10
21.705891
 20
0.668406
 30
0.0
 10
21.689327
 20
0.612382
 30
0.0
 10
21.689327
 20
0.563665
 30
0.0
  0
SPLINE
  5
10e
100
AcDbEntity
  8
0
 62
7
100
AcDbSpline
 70
8
 71
3
 72
8
 73
4
 74
0
 40
0
 40
0
 40
0
 40
0
 40
1
 40
1
 40
1
 40
1
 10
21.689327
 20
0.563665
 30
0.0
 10
21.689327
 20
0.511051
 30
0.0
 10
21.701994
 20
0.468668
 30
0.0
 10
21.727326
 20
0.436515
 30
0.0
  0
SPLINE
  5
10f
100
AcDbEntity
  8
0
 62
7
100
AcDbSpline
 70
8
 71
3
 72
8
 73
4
 74
0
 40
0
 40
0
 40
0
 40
0
 40
1
 40
1
 40
1
 40
1
 10
21.727326
 20
0.436515
 30
0.0
 10
21.752659
 20
0.404362
 30
0.0
 10
21.781889
 20
0.388286
 30
0.0
 10
21.815016
 20
0.388286
 30
0.0
  0
SPLINE
  5
110
100
AcDbEntity
  8
0
 62
7
100
AcDbSpline
 70
8
 71
3
 72
8
 73
4
 74
0
 40
0
 40
0
 40
0
 40
0
 40
1
 40
1
 40
1
 40
1
 10
21.815016
 20
0.388286
 30
0.0
 10
21.876399
 20
0.388286
 30
0.0
 10
21.936321
 20
0.446258
 30
0.0
 10
21.994781
 20
0.562204
 30
0.0
  0
LWPOLYLINE
  5
111
100
AcDbEntity
  8
0
 62
7
100
AcDbPolyline
 90
2
 70
0
 10
21.604560
 20
1.140958
 30
0.0
 10
21.872015
 20
0.895426
 30
0.0
  0
SPLINE
  5
112
100
AcDbEntity
  8
0
 62
7
100
AcDbSpline
 70
8
 71
3
 72
8
 73
4
 74
0
 40
0
 40
0
 40
0
 40
0
 40
1
 40
1
 40
1
 40
1
 10
22.062010
 20
0.696662
 30
0.0
 10
22.191596
 20
0.953886
 30
0.0
 10
22.353823
 20
1.082498
 30
0.0
 10
22.548689
 20
1.082498
 30
0.0
  0
SPLINE
  5
113
100
AcDbEntity
  8
0
 62
7
100
AcDbSpline
 70
8
 71
3
 72
8
 73
4
 74
0
 40
0
 40
0
 40
0
 40
0
 40
1
 40
1
 40
1
 40
1
 10
22.548689
 20
1.082498
 30
0.0
 10
22.674378
 20
1.082498
 30
0.0
 10
22.781555
 20
1.034269
 30
0.0
 10
22.870219
 20
0.937810
 30
0.0
  0
SPLINE
  5
114
100
AcDbEntity
  8
0
 62
7
100
AcDbSpline
 70
8
 71
3
 72
8
 73
4
 74
0
 40
0
 40
0
 40
0
 40
0
 40
1
 40
1
 40
1
 40
1
 10
22.870219
 20
0.937810
 30
0.0
 10
22.959858
 20
0.840376
 30
0.0
 10
23.004677
 20
0.716149
 30
0.0
 10
23.004677
 20
0.565127
 30
0.0
  0
SPLINE
  5
115
100
AcDbEntity
  8
0
 62
7
100
AcDbSpline
 70
8
 71
3
 72
8
 73
4
 74
0
 40
0
 40
0
 40
0
 40
0
 40
1
 40
1
 40
1
 40
1
 10
23.004677
 20
0.565127
 30
0.0
 10
23.004677
 20
0.461848
 30
0.0
 10
22.981780
 20
0.364902
 30
0.0
 10
22.935987
 20
0.274289
 30
0.0
  0
SPLINE
  5
116
100
AcDbEntity
  8
0
 62
7
100
AcDbSpline
 70
8
 71
3
 72
8
 73
4
 74
0
 40
0
 40
0
 40
0
 40
0
 40
1
 40
1
 40
1
 40
1
 10
22.935987
 20
0.274289
 30
0.0
 10
22.891167
 20
0.182701
 30
0.0
 10
22.826374
 20
0.105242
 30
0.0
 10
22.741607
 20
0.041910
 30
0.0
  0
LWPOLYLINE
  5
117
100
AcDbEntity
  8
0
 62
7
100
AcDbPolyline
 90
2
 70
0
 10
21.994781
 20
0.562204
 30
0.0
 10
22.062010
 20
0.696662
 30
0.0
  0
LWPOLYLINE
  5
118
100
AcDbEntity
  8
0
 62
7
100
AcDbPolyline
 90
1
 70
1
 10
22.741607
 20
0.041910
 30
0.0
  0
SPLINE
  5
119
100
AcDbEntity
  8
0
 62
7
100
AcDbSpline
 70
8
 71
3
 72
8
 73
4
 74
0
 40
0
 40
0
 40
0
 40
0
 40
1
 40
1
 40
1
 40
1
 10
21.601637
 20
1.418643
 30
0.0
 10
21.332721
 20
1.418643
 30
0.0
 10
21.134932
 20
1.472719
 30
0.0
 10
21.008268
 20
1.580870
 30
0.0
  0
SPLINE
  5
11a
100
AcDbEntity
  8
0
 62
7
100
AcDbSpline
 70
8
 71
3
 72
8
 73
4
 74
0
 40
0
 40
0
 40
0
 40
0
 40
1
 40
1
 40
1
 40
1
 10
21.008268
 20
1.580870
 30
0.0
 10
20.836786
 20
1.726045
 30
0.0
 10
20.751044
 20
1.944783
 30
0.0
 10
20.751044
 20
2.237083
 30
0.0
  0
SPLINE
  5
11b
100
AcDbEntity
  8
0
 62
7
100
AcDbSpline
 70
8
 71
3
 72
8
 73
4
 74
0
 40
0
 40
0
 40
0
 40
0
 40
1
 40
1
 40
1
 40
1
 10
20.751044
 20
2.237083
 30
0.0
 10
20.751044
 20
2.392977
 30
0.0
 10
20.770531
 20
2.524025
 30
0.0
 10
20.809504
 20
2.630227
 30
0.0
  0
SPLINE
  5
11c
100
AcDbEntity
  8
0
 62
7
100
AcDbSpline
 70
8
 71
3
 72
8
 73
4
 74
0
 40
0
 40
0
 40
0
 40
0
 40
1
 40
1
 40
1
 40
1
 10
20.809504
 20
2.630227
 30
0.0
 10
20.848478
 20
2.736429
 30
0.0
 10
20.905963
 20
2.826068
 30
0.0
 10
20.981961
 20
2.899143
 30
0.0
  0
SPLINE
  5
11d
100
AcDbEntity
  8
0
 62
7
100
AcDbSpline
 70
8
 71
3
 72
8
 73
4
 74
0
 40
0
 40
0
 40
0
 40
0
 40
1
 40
1
 40
1
 40
1
 10
20.981961
 20
2.899143
 30
0.0
 10
21.056985
 20
2.972218
 30
0.0
 10
21.148572
 20
3.026293
 30
0.0
 10
21.256723
 20
3.061369
 30
0.0
  0
LWPOLYLINE
  5
11e
100
AcDbEntity
  8
0
 62
7
100
AcDbPolyline
 90
3
 70
0
 10
22.963755
 20
1.816171
 30
0.0
 10
22.963755
 20
1.418643
 30
0.0
 10
21.601637
 20
1.418643
 30
0.0
  0
SPLINE
  5
11f
100
AcDbEntity
  8
0
 62
7
100
AcDbSpline
 70
8
 71
3
 72
8
 73
4
 74
0
 40
0
 40
0
 40
0
 40
0
 40
1
 40
1
 40
1
 40
1
 10
21.256723
 20
2.621458
 30
0.0
 10
21.211904
 20
2.582484
 30
0.0
 10
21.178290
 20
2.532306
 30
0.0
 10
21.155880
 20
2.470923
 30
0.0
  0
SPLINE
  5
120
100
AcDbEntity
  8
0
 62
7
100
AcDbSpline
 70
8
 71
3
 72
8
 73
4
 74
0
 40
0
 40
0
 40
0
 40
0
 40
1
 40
1
 40
1
 40
1
 10
21.155880
 20
2.470923
 30
0.0
 10
21.132496
 20
2.409540
 30
0.0
 10
21.120804
 20
2.336953
 30
0.0
 10
21.120804
 20
2.253160
 30
0.0
  0
SPLINE
  5
121
100
AcDbEntity
  8
0
 62
7
100
AcDbSpline
 70
8
 71
3
 72
8
 73
4
 74
0
 40
0
 40
0
 40
0
 40
0
 40
1
 40
1
 40
1
 40
1
 10
21.120804
 20
2.253160
 30
0.0
 10
21.120804
 20
2.145983
 30
0.0
 10
21.137367
 20
2.059755
 30
0.0
 10
21.170495
 20
1.994474
 30
0.0
  0
SPLINE
  5
122
100
AcDbEntity
  8
0
 62
7
100
AcDbSpline
 70
8
 71
3
 72
8
 73
4
 74
0
 40
0
 40
0
 40
0
 40
0
 40
1
 40
1
 40
1
 40
1
 10
21.170495
 20
1.994474
 30
0.0
 10
21.203622
 20
1.929194
 30
0.0
 10
21.246493
 20
1.883400
 30
0.0
 10
21.299107
 20
1.857093
 30
0.0
  0
SPLINE
  5
123
100
AcDbEntity
  8
0
 62
7
100
AcDbSpline
 70
8
 71
3
 72
8
 73
4
 74
0
 40
0
 40
0
 40
0
 40
0
 40
1
 40
1
 40
1
 40
1
 10
21.299107
 20
1.857093
 30
0.0
 10
21.351721
 20
1.829812
 30
0.0
 10
21.442334
 20
1.816171
 30
0.0
 10
21.570946
 20
1.816171
 30
0.0
  0
SPLINE
  5
124
100
AcDbEntity
  8
0
 62
7
100
AcDbSpline
 70
8
 71
3
 72
8
 73
4
 74
0
 40
0
 40
0
 40
0
 40
0
 40
1
 40
1
 40
1
 40
1
 10
21.570946
 20
1.816171
 30
0.0
 10
21.500794
 20
1.886323
 30
0.0
 10
21.450128
 20
1.959886
 30
0.0
 10
21.418950
 20
2.036858
 30
0.0
  0
SPLINE
  5
125
100
AcDbEntity
  8
0
 62
7
100
AcDbSpline
 70
8
 71
3
 72
8
 73
4
 74
0
 40
0
 40
0
 40
0
 40
0
 40
1
 40
1
 40
1
 40
1
 10
21.418950
 20
2.036858
 30
0.0
 10
21.388745
 20
2.113830
 30
0.0
 10
21.373643
 20
2.201033
 30
0.0
 10
21.373643
 20
2.298466
 30
0.0
  0
SPLINE
  5
126
100
AcDbEntity
  8
0
 62
7
100
AcDbSpline
 70
8
 71
3
 72
8
 73
4
 74
0
 40
0
 40
0
 40
0
 40
0
 40
1
 40
1
 40
1
 40
1
 10
21.373643
 20
2.298466
 30
0.0
 10
21.373643
 20
2.511845
 30
0.0
 10
21.450616
 20
2.692097
 30
0.0
 10
21.604560
 20
2.839221
 30
0.0
  0
SPLINE
  5
127
100
AcDbEntity
  8
0
 62
7
100
AcDbSpline
 70
8
 71
3
 72
8
 73
4
 74
0
 40
0
 40
0
 40
0
 40
0
 40
1
 40
1
 40
1
 40
1
 10
21.604560
 20
2.839221
 30
0.0
 10
21.758505
 20
2.986346
 30
0.0
 10
21.953372
 20
3.059908
 30
0.0
 10
22.189160
 20
3.059908
 30
0.0
  0
SPLINE
  5
128
100
AcDbEntity
  8
0
 62
7
100
AcDbSpline
 70
8
 71
3
 72
8
 73
4
 74
0
 40
0
 40
0
 40
0
 40
0
 40
1
 40
1
 40
1
 40
1
 10
22.189160
 20
3.059908
 30
0.0
 10
22.441513
 20
3.059908
 30
0.0
 10
22.644174
 20
2.981961
 30
0.0
 10
22.797144
 20
2.826068
 30
0.0
  0
SPLINE
  5
129
100
AcDbEntity
  8
0
 62
7
100
AcDbSpline
 70
8
 71
3
 72
8
 73
4
 74
0
 40
0
 40
0
 40
0
 40
0
 40
1
 40
1
 40
1
 40
1
 10
22.797144
 20
2.826068
 30
0.0
 10
22.935500
 20
2.684789
 30
0.0
 10
23.004677
 20
2.516230
 30
0.0
 10
23.004677
 20
2.320389
 30
0.0
  0
SPLINE
  5
12a
100
AcDbEntity
  8
0
 62
7
100
AcDbSpline
 70
8
 71
3
 72
8
 73
4
 74
0
 40
0
 40
0
 40
0
 40
0
 40
1
 40
1
 40
1
 40
1
 10
23.004677
 20
2.320389
 30
0.0
 10
23.004677
 20
2.228801
 30
0.0
 10
22.987626
 20
2.142573
 30
0.0
 10
22.953525
 20
2.061703
 30
0.0
  0
SPLINE
  5
12b
100
AcDbEntity
  8
0
 62
7
100
AcDbSpline
 70
8
 71
3
 72
8
 73
4
 74
0
 40
0
 40
0
 40
0
 40
0
 40
1
 40
1
 40
1
 40
1
 10
22.953525
 20
2.061703
 30
0.0
 10
22.920397
 20
1.979859
 30
0.0
 10
22.865348
 20
1.898015
 30
0.0
 10
22.788375
 20
1.816171
 30
0.0
  0
LWPOLYLINE
  5
12c
100
AcDbEntity
  8
0
 62
7
100
AcDbPolyline
 90
2
 70
0
 10
21.256723
 20
3.061369
 30
0.0
 10
21.256723
 20
2.621458
 30
0.0
  0
SPLINE
  5
12d
100
AcDbEntity
  8
0
 62
7
100
AcDbSpline
 70
8
 71
3
 72
8
 73
4
 74
0
 40
0
 40
0
 40
0
 40
0
 40
1
 40
1
 40
1
 40
1
 10
22.631995
 20
2.229776
 30
0.0
 10
22.631995
 20
2.355465
 30
0.0
 10
22.589611
 20
2.459231
 30
0.0
 10
22.504844
 20
2.541075
 30
0.0
  0
SPLINE
  5
12e
100
AcDbEntity
  8
0
 62
7
100
AcDbSpline
 70
8
 71
3
 72
8
 73
4
 74
0
 40
0
 40
0
 40
0
 40
0
 40
1
 40
1
 40
1
 40
1
 10
22.504844
 20
2.541075
 30
0.0
 10
22.421052
 20
2.622919
 30
0.0
 10
22.315336
 20
2.663841
 30
0.0
 10
22.187699
 20
2.663841
 30
0.0
  0
SPLINE
  5
12f
100
AcDbEntity
  8
0
 62
7
100
AcDbSpline
 70
8
 71
3
 72
8
 73
4
 74
0
 40
0
 40
0
 40
0
 40
0
 40
1
 40
1
 40
1
 40
1
 10
22.187699
 20
2.663841
 30
0.0
 10
22.055189
 20
2.663841
 30
0.0
 10
21.946551
 20
2.621945
 30
0.0
 10
21.861784
 20
2.538152
 30
0.0
  0
SPLINE
  5
130
100
AcDbEntity
  8
0
 62
7
100
AcDbSpline
 70
8
 71
3
 72
8
 73
4
 74
0
 40
0
 40
0
 40
0
 40
0
 40
1
 40
1
 40
1
 40
1
 10
21.861784
 20
2.538152
 30
0.0
 10
21.777017
 20
2.454360
 30
0.0
 10
21.734634
 20
2.349132
 30
0.0
 10
21.734634
 20
2.222468
 30
0.0
  0
SPLINE
  5
131
100
AcDbEntity
  8
0
 62
7
100
AcDbSpline
 70
8
 71
3
 72
8
 73
4
 74
0
 40
0
 40
0
 40
0
 40
0
 40
1
 40
1
 40
1
 40
1
 10
21.734634
 20
2.222468
 30
0.0
 10
21.734634
 20
2.098728
 30
0.0
 10
21.776043
 20
1.996910
 30
0.0
 10
21.858861
 20
1.917015
 30
0.0
  0
SPLINE
  5
132
100
AcDbEntity
  8
0
 62
7
100
AcDbSpline
 70
8
 71
3
 72
8
 73
4
 74
0
 40
0
 40
0
 40
0
 40
0
 40
1
 40
1
 40
1
 40
1
 10
21.858861
 20
1.917015
 30
0.0
 10
21.941680
 20
1.836145
 30
0.0
 10
22.050318
 20
1.795710
 30
0.0
 10
22.184776
 20
1.795710
 30
0.0
  0
SPLINE
  5
133
100
AcDbEntity
  8
0
 62
7
100
AcDbSpline
 70
8
 71
3
 72
8
 73
4
 74
0
 40
0
 40
0
 40
0
 40
0
 40
1
 40
1
 40
1
 40
1
 10
22.184776
 20
1.795710
 30
0.0
 10
22.317285
 20
1.795710
 30
0.0
 10
22.424949
 20
1.836145
 30
0.0
 10
22.507767
 20
1.917015
 30
0.0
  0
SPLINE
  5
134
100
AcDbEntity
  8
0
 62
7
100
AcDbSpline
 70
8
 71
3
 72
8
 73
4
 74
0
 40
0
 40
0
 40
0
 40
0
 40
1
 40
1
 40
1
 40
1
 10
22.507767
 20
1.917015
 30
0.0
 10
22.590586
 20
1.997885
 30
0.0
 10
22.631995
 20
2.102138
 30
0.0
 10
22.631995
 20
2.229776
 30
0.0
  0
LWPOLYLINE
  5
135
100
AcDbEntity
  8
0
 62
7
100
AcDbPolyline
 90
2
 70
0
 10
22.788375
 20
1.816171
 30
0.0
 10
22.963755
 20
1.816171
 30
0.0
  0
SPLINE
  5
136
100
AcDbEntity
  8
0
 62
7
100
AcDbSpline
 70
8
 71
3
 72
8
 73
4
 74
0
 40
0
 40
0
 40
0
 40
0
 40
1
 40
1
 40
1
 40
1
 10
23.004677
 20
4.161879
 30
0.0
 10
23.004677
 20
4.011832
 30
0.0
 10
22.967166
 20
3.871041
 30
0.0
 10
22.892142
 20
3.739506
 30
0.0
  0
SPLINE
  5
137
100
AcDbEntity
  8
0
 62
7
100
AcDbSpline
 70
8
 71
3
 72
8
 73
4
 74
0
 40
0
 40
0
 40
0
 40
0
 40
1
 40
1
 40
1
 40
1
 10
22.892142
 20
3.739506
 30
0.0
 10
22.817118
 20
3.606996
 30
0.0
 10
22.715300
 20
3.503717
 30
0.0
 10
22.586688
 20
3.429668
 30
0.0
  0
SPLINE
  5
138
100
AcDbEntity
  8
0
 62
7
100
AcDbSpline
 70
8
 71
3
 72
8
 73
4
 74
0
 40
0
 40
0
 40
0
 40
0
 40
1
 40
1
 40
1
 40
1
 10
22.586688
 20
3.429668
 30
0.0
 10
22.458076
 20
3.355618
 30
0.0
 10
22.319234
 20
3.318594
 30
0.0
 10
22.170161
 20
3.318594
 30
0.0
  0
SPLINE
  5
139
100
AcDbEntity
  8
0
 62
7
100
AcDbSpline
 70
8
 71
3
 72
8
 73
4
 74
0
 40
0
 40
0
 40
0
 40
0
 40
1
 40
1
 40
1
 40
1
 10
22.170161
 20
3.318594
 30
0.0
 10
22.020114
 20
3.318594
 30
0.0
 10
21.879810
 20
3.356105
 30
0.0
 10
21.749249
 20
3.431129
 30
0.0
  0
SPLINE
  5
13a
100
AcDbEntity
  8
0
 62
7
100
AcDbSpline
 70
8
 71
3
 72
8
 73
4
 74
0
 40
0
 40
0
 40
0
 40
0
 40
1
 40
1
 40
1
 40
1
 10
21.749249
 20
3.431129
 30
0.0
 10
21.618688
 20
3.505179
 30
0.0
 10
21.516383
 20
3.606509
 30
0.0
 10
21.442334
 20
3.735121
 30
0.0
  0
SPLINE
  5
13b
100
AcDbEntity
  8
0
 62
7
100
AcDbSpline
 70
8
 71
3
 72
8
 73
4
 74
0
 40
0
 40
0
 40
0
 40
0
 40
1
 40
1
 40
1
 40
1
 10
21.442334
 20
3.735121
 30
0.0
 10
21.369259
 20
3.863733
 30
0.0
 10
21.332721
 20
4.005499
 30
0.0
 10
21.332721
 20
4.160418
 30
0.0
  0
SPLINE
  5
13c
100
AcDbEntity
  8
0
 62
7
100
AcDbSpline
 70
8
 71
3
 72
8
 73
4
 74
0
 40
0
 40
0
 40
0
 40
0
 40
1
 40
1
 40
1
 40
1
 10
21.332721
 20
4.160418
 30
0.0
 10
21.332721
 20
4.388412
 30
0.0
 10
21.413591
 20
4.583278
 30
0.0
 10
21.575330
 20
4.745018
 30
0.0
  0
SPLINE
  5
13d
100
AcDbEntity
  8
0
 62
7
100
AcDbSpline
 70
8
 71
3
 72
8
 73
4
 74
0
 40
0
 40
0
 40
0
 40
0
 40
1
 40
1
 40
1
 40
1
 10
21.575330
 20
4.745018
 30
0.0
 10
21.738044
 20
4.905783
 30
0.0
 10
21.935346
 20
4.986165
 30
0.0
 10
22.167238
 20
4.986165
 30
0.0
  0
SPLINE
  5
13e
100
AcDbEntity
  8
0
 62
7
100
AcDbSpline
 70
8
 71
3
 72
8
 73
4
 74
0
 40
0
 40
0
 40
0
 40
0
 40
1
 40
1
 40
1
 40
1
 10
22.167238
 20
4.986165
 30
0.0
 10
22.415693
 20
4.986165
 30
0.0
 10
22.622739
 20
4.895065
 30
0.0
 10
22.788375
 20
4.712865
 30
0.0
  0
SPLINE
  5
13f
100
AcDbEntity
  8
0
 62
7
100
AcDbSpline
 70
8
 71
3
 72
8
 73
4
 74
0
 40
0
 40
0
 40
0
 40
0
 40
1
 40
1
 40
1
 40
1
 10
22.788375
 20
4.712865
 30
0.0
 10
22.932577
 20
4.553074
 30
0.0
 10
23.004677
 20
4.369412
 30
0.0
 10
23.004677
 20
4.161879
 30
0.0
  0
LWPOLYLINE
  5
140
100
AcDbEntity
  8
0
 62
7
100
AcDbPolyline
 90
1
 70
1
 10
22.631995
 20
2.229776
 30
0.0
  0
SPLINE
  5
141
100
AcDbEntity
  8
0
 62
7
100
AcDbSpline
 70
8
 71
3
 72
8
 73
4
 74
0
 40
0
 40
0
 40
0
 40
0
 40
1
 40
1
 40
1
 40
1
 10
22.629072
 20
4.156032
 30
0.0
 10
22.629072
 20
4.279772
 30
0.0
 10
22.585714
 20
4.383052
 30
0.0
 10
22.498998
 20
4.465870
 30
0.0
  0
SPLINE
  5
142
100
AcDbEntity
  8
0
 62
7
100
AcDbSpline
 70
8
 71
3
 72
8
 73
4
 74
0
 40
0
 40
0
 40
0
 40
0
 40
1
 40
1
 40
1
 40
1
 10
22.498998
 20
4.465870
 30
0.0
 10
22.413257
 20
4.547714
 30
0.0
 10
22.303157
 20
4.588636
 30
0.0
 10
22.168699
 20
4.588636
 30
0.0
  0
SPLINE
  5
143
100
AcDbEntity
  8
0
 62
7
100
AcDbSpline
 70
8
 71
3
 72
8
 73
4
 74
0
 40
0
 40
0
 40
0
 40
0
 40
1
 40
1
 40
1
 40
1
 10
22.168699
 20
4.588636
 30
0.0
 10
22.030344
 20
4.588636
 30
0.0
 10
21.918296
 20
4.548201
 30
0.0
 10
21.832554
 20
4.467331
 30
0.0
  0
SPLINE
  5
144
100
AcDbEntity
  8
0
 62
7
100
AcDbSpline
 70
8
 71
3
 72
8
 73
4
 74
0
 40
0
 40
0
 40
0
 40
0
 40
1
 40
1
 40
1
 40
1
 10
21.832554
 20
4.467331
 30
0.0
 10
21.746813
 20
4.385487
 30
0.0
 10
21.703942
 20
4.282208
 30
0.0
 10
21.703942
 20
4.157493
 30
0.0
  0
SPLINE
  5
145
100
AcDbEntity
  8
0
 62
7
100
AcDbSpline
 70
8
 71
3
 72
8
 73
4
 74
0
 40
0
 40
0
 40
0
 40
0
 40
1
 40
1
 40
1
 40
1
 10
21.703942
 20
4.157493
 30
0.0
 10
21.703942
 20
4.032779
 30
0.0
 10
21.747300
 20
3.929012
 30
0.0
 10
21.834016
 20
3.846194
 30
0.0
  0
SPLINE
  5
146
100
AcDbEntity
  8
0
 62
7
100
AcDbSpline
 70
8
 71
3
 72
8
 73
4
 74
0
 40
0
 40
0
 40
0
 40
0
 40
1
 40
1
 40
1
 40
1
 10
21.834016
 20
3.846194
 30
0.0
 10
21.920731
 20
3.763376
 30
0.0
 10
22.032293
 20
3.721967
 30
0.0
 10
22.168699
 20
3.721967
 30
0.0
  0
SPLINE
  5
147
100
AcDbEntity
  8
0
 62
7
100
AcDbSpline
 70
8
 71
3
 72
8
 73
4
 74
0
 40
0
 40
0
 40
0
 40
0
 40
1
 40
1
 40
1
 40
1
 10
22.168699
 20
3.721967
 30
0.0
 10
22.305106
 20
3.721967
 30
0.0
 10
22.415693
 20
3.762888
 30
0.0
 10
22.500460
 20
3.844732
 30
0.0
  0
SPLINE
  5
148
100
AcDbEntity
  8
0
 62
7
100
AcDbSpline
 70
8
 71
3
 72
8
 73
4
 74
0
 40
0
 40
0
 40
0
 40
0
 40
1
 40
1
 40
1
 40
1
 10
22.500460
 20
3.844732
 30
0.0
 10
22.586201
 20
3.925602
 30
0.0
 10
22.629072
 20
4.029369
 30
0.0
 10
22.629072
 20
4.156032
 30
0.0
  0
LWPOLYLINE
  5
149
100
AcDbEntity
  8
0
 62
7
100
AcDbPolyline
 90
1
 70
1
 10
23.004677
 20
4.161879
 30
0.0
  0
LWPOLYLINE
  5
14a
100
AcDbEntity
  8
0
 62
7
100
AcDbPolyline
 90
1
 70
1
 10
22.629072
 20
4.156032
 30
0.0
  0
SPLINE
  5
14b
100
AcDbEntity
  8
0
 62
7
100
AcDbSpline
 70
8
 71
3
 72
8
 73
4
 74
0
 40
0
 40
0
 40
0
 40
0
 40
1
 40
1
 40
1
 40
1
 10
23.523510
 20
6.476895
 30
0.0
 10
23.523510
 20
6.164134
 30
0.0
 10
23.484536
 20
5.931756
 30
0.0
 10
23.406590
 20
5.779760
 30
0.0
  0
SPLINE
  5
14c
100
AcDbEntity
  8
0
 62
7
100
AcDbSpline
 70
8
 71
3
 72
8
 73
4
 74
0
 40
0
 40
0
 40
0
 40
0
 40
1
 40
1
 40
1
 40
1
 10
23.406590
 20
5.779760
 30
0.0
 10
23.329617
 20
5.627764
 30
0.0
 10
23.203928
 20
5.502562
 30
0.0
 10
23.029523
 20
5.404154
 30
0.0
  0
SPLINE
  5
14d
100
AcDbEntity
  8
0
 62
7
100
AcDbSpline
 70
8
 71
3
 72
8
 73
4
 74
0
 40
0
 40
0
 40
0
 40
0
 40
1
 40
1
 40
1
 40
1
 10
23.029523
 20
5.404154
 30
0.0
 10
22.855117
 20
5.305747
 30
0.0
 10
22.651481
 20
5.256543
 30
0.0
 10
22.418616
 20
5.256543
 30
0.0
  0
SPLINE
  5
14e
100
AcDbEntity
  8
0
 62
7
100
AcDbSpline
 70
8
 71
3
 72
8
 73
4
 74
0
 40
0
 40
0
 40
0
 40
0
 40
1
 40
1
 40
1
 40
1
 10
22.418616
 20
5.256543
 30
0.0
 10
22.252979
 20
5.256543
 30
0.0
 10
22.100496
 20
5.284311
 30
0.0
 10
21.961166
 20
5.339848
 30
0.0
  0
SPLINE
  5
14f
100
AcDbEntity
  8
0
 62
7
100
AcDbSpline
 70
8
 71
3
 72
8
 73
4
 74
0
 40
0
 40
0
 40
0
 40
0
 40
1
 40
1
 40
1
 40
1
 10
21.961166
 20
5.339848
 30
0.0
 10
21.822811
 20
5.394411
 30
0.0
 10
21.707840
 20
5.470409
 30
0.0
 10
21.616252
 20
5.567842
 30
0.0
  0
SPLINE
  5
150
100
AcDbEntity
  8
0
 62
7
100
AcDbSpline
 70
8
 71
3
 72
8
 73
4
 74
0
 40
0
 40
0
 40
0
 40
0
 40
1
 40
1
 40
1
 40
1
 10
21.616252
 20
5.567842
 30
0.0
 10
21.524665
 20
5.664301
 30
0.0
 10
21.461333
 20
5.769042
 30
0.0
 10
21.426257
 20
5.882065
 30
0.0
  0
SPLINE
  5
151
100
AcDbEntity
  8
0
 62
7
100
AcDbSpline
 70
8
 71
3
 72
8
 73
4
 74
0
 40
0
 40
0
 40
0
 40
0
 40
1
 40
1
 40
1
 40
1
 10
21.426257
 20
5.882065
 30
0.0
 10
21.391181
 20
5.995088
 30
0.0
 10
21.373643
 20
6.190929
 30
0.0
 10
21.373643
 20
6.469588
 30
0.0
  0
LWPOLYLINE
  5
152
100
AcDbEntity
  8
0
 62
7
100
AcDbPolyline
 90
2
 70
0
 10
23.523510
 20
6.962113
 30
0.0
 10
23.523510
 20
6.476895
 30
0.0
  0
LWPOLYLINE
  5
153
100
AcDbEntity
  8
0
 62
7
100
AcDbPolyline
 90
3
 70
0
 10
21.373643
 20
6.469588
 30
0.0
 10
21.373643
 20
6.962113
 30
0.0
 10
23.523510
 20
6.962113
 30
0.0
  0
SPLINE
  5
154
100
AcDbEntity
  8
0
 62
7
100
AcDbSpline
 70
8
 71
3
 72
8
 73
4
 74
0
 40
0
 40
0
 40
0
 40
0
 40
1
 40
1
 40
1
 40
1
 10
21.774094
 20
6.364360
 30
0.0
 10
21.774094
 20
6.177288
 30
0.0
 10
21.795530
 20
6.041856
 30
0.0
 10
21.838400
 20
5.958063
 30
0.0
  0
SPLINE
  5
155
100
AcDbEntity
  8
0
 62
7
100
AcDbSpline
 70
8
 71
3
 72
8
 73
4
 74
0
 40
0
 40
0
 40
0
 40
0
 40
1
 40
1
 40
1
 40
1
 10
21.838400
 20
5.958063
 30
0.0
 10
21.881271
 20
5.873296
 30
0.0
 10
21.953372
 20
5.804118
 30
0.0
 10
22.054702
 20
5.750530
 30
0.0
  0
SPLINE
  5
156
100
AcDbEntity
  8
0
 62
7
100
AcDbSpline
 70
8
 71
3
 72
8
 73
4
 74
0
 40
0
 40
0
 40
0
 40
0
 40
1
 40
1
 40
1
 40
1
 10
22.054702
 20
5.750530
 30
0.0
 10
22.156033
 20
5.696941
 30
0.0
 10
22.280748
 20
5.670147
 30
0.0
 10
22.428846
 20
5.670147
 30
0.0
  0
SPLINE
  5
157
100
AcDbEntity
  8
0
 62
7
100
AcDbSpline
 70
8
 71
3
 72
8
 73
4
 74
0
 40
0
 40
0
 40
0
 40
0
 40
1
 40
1
 40
1
 40
1
 10
22.428846
 20
5.670147
 30
0.0
 10
22.656840
 20
5.670147
 30
0.0
 10
22.833682
 20
5.733966
 30
0.0
 10
22.959371
 20
5.861604
 30
0.0
  0
SPLINE
  5
158
100
AcDbEntity
  8
0
 62
7
100
AcDbSpline
 70
8
 71
3
 72
8
 73
4
 74
0
 40
0
 40
0
 40
0
 40
0
 40
1
 40
1
 40
1
 40
1
 10
22.959371
 20
5.861604
 30
0.0
 10
23.072393
 20
5.976575
 30
0.0
 10
23.128905
 20
6.161211
 30
0.0
 10
23.128905
 20
6.415512
 30
0.0
  0
LWPOLYLINE
  5
159
100
AcDbEntity
  8
0
 62
7
100
AcDbPolyline
 90
3
 70
0
 10
23.128905
 20
6.554355
 30
0.0
 10
21.774094
 20
6.554355
 30
0.0
 10
21.774094
 20
6.364360
 30
0.0
  0
LWPOLYLINE
  5
15a
100
AcDbEntity
  8
0
 62
7
100
AcDbPolyline
 90
2
 70
0
 10
23.128905
 20
6.415512
 30
0.0
 10
23.128905
 20
6.554355
 30
0.0
  0
SPLINE
  5
15b
100
AcDbEntity
  8
0
 62
7
100
AcDbSpline
 70
8
 71
3
 72
8
 73
4
 74
0
 40
0
 40
0
 40
0
 40
0
 40
1
 40
1
 40
1
 40
1
 10
21.541716
 20
8.644299
 30
0.0
 10
21.467666
 20
8.722246
 30
0.0
 10
21.414078
 20
8.800680
 30
0.0
 10
21.380951
 20
8.879601
 30
0.0
  0
SPLINE
  5
15c
100
AcDbEntity
  8
0
 62
7
100
AcDbSpline
 70
8
 71
3
 72
8
 73
4
 74
0
 40
0
 40
0
 40
0
 40
0
 40
1
 40
1
 40
1
 40
1
 10
21.380951
 20
8.879601
 30
0.0
 10
21.348798
 20
8.957548
 30
0.0
 10
21.332721
 20
9.042315
 30
0.0
 10
21.332721
 20
9.133902
 30
0.0
  0
SPLINE
  5
15d
100
AcDbEntity
  8
0
 62
7
100
AcDbSpline
 70
8
 71
3
 72
8
 73
4
 74
0
 40
0
 40
0
 40
0
 40
0
 40
1
 40
1
 40
1
 40
1
 10
21.332721
 20
9.133902
 30
0.0
 10
21.332721
 20
9.339486
 30
0.0
 10
21.412129
 20
9.517302
 30
0.0
 10
21.570946
 20
9.667350
 30
0.0
  0
SPLINE
  5
15e
100
AcDbEntity
  8
0
 62
7
100
AcDbSpline
 70
8
 71
3
 72
8
 73
4
 74
0
 40
0
 40
0
 40
0
 40
0
 40
1
 40
1
 40
1
 40
1
 10
21.570946
 20
9.667350
 30
0.0
 10
21.730736
 20
9.817397
 30
0.0
 10
21.929013
 20
9.892421
 30
0.0
 10
22.165776
 20
9.892421
 30
0.0
  0
SPLINE
  5
15f
100
AcDbEntity
  8
0
 62
7
100
AcDbSpline
 70
8
 71
3
 72
8
 73
4
 74
0
 40
0
 40
0
 40
0
 40
0
 40
1
 40
1
 40
1
 40
1
 10
22.165776
 20
9.892421
 30
0.0
 10
22.411308
 20
9.892421
 30
0.0
 10
22.612508
 20
9.819833
 30
0.0
 10
22.769376
 20
9.674657
 30
0.0
  0
SPLINE
  5
160
100
AcDbEntity
  8
0
 62
7
100
AcDbSpline
 70
8
 71
3
 72
8
 73
4
 74
0
 40
0
 40
0
 40
0
 40
0
 40
1
 40
1
 40
1
 40
1
 10
22.769376
 20
9.674657
 30
0.0
 10
22.926243
 20
9.529481
 30
0.0
 10
23.004677
 20
9.353127
 30
0.0
 10
23.004677
 20
9.145594
 30
0.0
  0
SPLINE
  5
161
100
AcDbEntity
  8
0
 62
7
100
AcDbSpline
 70
8
 71
3
 72
8
 73
4
 74
0
 40
0
 40
0
 40
0
 40
0
 40
1
 40
1
 40
1
 40
1
 10
23.004677
 20
9.145594
 30
0.0
 10
23.004677
 20
9.050109
 30
0.0
 10
22.986652
 20
8.960471
 30
0.0
 10
22.950602
 20
8.876678
 30
0.0
  0
SPLINE
  5
162
100
AcDbEntity
  8
0
 62
7
100
AcDbSpline
 70
8
 71
3
 72
8
 73
4
 74
0
 40
0
 40
0
 40
0
 40
0
 40
1
 40
1
 40
1
 40
1
 10
22.950602
 20
8.876678
 30
0.0
 10
22.914551
 20
8.792885
 30
0.0
 10
22.860476
 20
8.715426
 30
0.0
 10
22.788375
 20
8.644299
 30
0.0
  0
LWPOLYLINE
  5
163
100
AcDbEntity
  8
0
 62
7
100
AcDbPolyline
 90
5
 70
0
 10
23.577585
 20
8.644299
 30
0.0
 10
23.577585
 20
8.246771
 30
0.0
 10
21.373643
 20
8.246771
 30
0.0
 10
21.373643
 20
8.644299
 30
0.0
 10
21.541716
 20
8.644299
 30
0.0
  0
SPLINE
  5
164
100
AcDbEntity
  8
0
 62
7
100
AcDbSpline
 70
8
 71
3
 72
8
 73
4
 74
0
 40
0
 40
0
 40
0
 40
0
 40
1
 40
1
 40
1
 40
1
 10
22.636379
 20
9.063750
 30
0.0
 10
22.636379
 20
9.187490
 30
0.0
 10
22.592534
 20
9.290282
 30
0.0
 10
22.504844
 20
9.372126
 30
0.0
  0
SPLINE
  5
165
100
AcDbEntity
  8
0
 62
7
100
AcDbSpline
 70
8
 71
3
 72
8
 73
4
 74
0
 40
0
 40
0
 40
0
 40
0
 40
1
 40
1
 40
1
 40
1
 10
22.504844
 20
9.372126
 30
0.0
 10
22.418129
 20
9.453970
 30
0.0
 10
22.306568
 20
9.494893
 30
0.0
 10
22.170161
 20
9.494893
 30
0.0
  0
SPLINE
  5
166
100
AcDbEntity
  8
0
 62
7
100
AcDbSpline
 70
8
 71
3
 72
8
 73
4
 74
0
 40
0
 40
0
 40
0
 40
0
 40
1
 40
1
 40
1
 40
1
 10
22.170161
 20
9.494893
 30
0.0
 10
22.032780
 20
9.494893
 30
0.0
 10
21.919757
 20
9.453483
 30
0.0
 10
21.831093
 20
9.370665
 30
0.0
  0
SPLINE
  5
167
100
AcDbEntity
  8
0
 62
7
100
AcDbSpline
 70
8
 71
3
 72
8
 73
4
 74
0
 40
0
 40
0
 40
0
 40
0
 40
1
 40
1
 40
1
 40
1
 10
21.831093
 20
9.370665
 30
0.0
 10
21.742428
 20
9.286872
 30
0.0
 10
21.698096
 20
9.184080
 30
0.0
 10
21.698096
 20
9.062288
 30
0.0
  0
SPLINE
  5
168
100
AcDbEntity
  8
0
 62
7
100
AcDbSpline
 70
8
 71
3
 72
8
 73
4
 74
0
 40
0
 40
0
 40
0
 40
0
 40
1
 40
1
 40
1
 40
1
 10
21.698096
 20
9.062288
 30
0.0
 10
21.698096
 20
8.936600
 30
0.0
 10
21.741454
 20
8.832346
 30
0.0
 10
21.828170
 20
8.749527
 30
0.0
  0
SPLINE
  5
169
100
AcDbEntity
  8
0
 62
7
100
AcDbSpline
 70
8
 71
3
 72
8
 73
4
 74
0
 40
0
 40
0
 40
0
 40
0
 40
1
 40
1
 40
1
 40
1
 10
21.828170
 20
8.749527
 30
0.0
 10
21.915860
 20
8.666709
 30
0.0
 10
22.030344
 20
8.625300
 30
0.0
 10
22.171622
 20
8.625300
 30
0.0
  0
SPLINE
  5
16a
100
AcDbEntity
  8
0
 62
7
100
AcDbSpline
 70
8
 71
3
 72
8
 73
4
 74
0
 40
0
 40
0
 40
0
 40
0
 40
1
 40
1
 40
1
 40
1
 10
22.171622
 20
8.625300
 30
0.0
 10
22.309978
 20
8.625300
 30
0.0
 10
22.422026
 20
8.666709
 30
0.0
 10
22.507767
 20
8.749527
 30
0.0
  0
SPLINE
  5
16b
100
AcDbEntity
  8
0
 62
7
100
AcDbSpline
 70
8
 71
3
 72
8
 73
4
 74
0
 40
0
 40
0
 40
0
 40
0
 40
1
 40
1
 40
1
 40
1
 10
22.507767
 20
8.749527
 30
0.0
 10
22.593509
 20
8.832346
 30
0.0
 10
22.636379
 20
8.937087
 30
0.0
 10
22.636379
 20
9.063750
 30
0.0
  0
LWPOLYLINE
  5
16c
100
AcDbEntity
  8
0
 62
7
100
AcDbPolyline
 90
2
 70
0
 10
22.788375
 20
8.644299
 30
0.0
 10
23.577585
 20
8.644299
 30
0.0
  0
LWPOLYLINE
  5
16d
100
AcDbEntity
  8
0
 62
7
100
AcDbPolyline
 90
1
 70
1
 10
22.636379
 20
9.063750
 30
0.0
  0
SPLINE
  5
16e
100
AcDbEntity
  8
0
 62
7
100
AcDbSpline
 70
8
 71
3
 72
8
 73
4
 74
0
 40
0
 40
0
 40
0
 40
0
 40
1
 40
1
 40
1
 40
1
 10
23.577585
 20
11.992596
 30
0.0
 10
23.577585
 20
11.688604
 30
0.0
 10
23.467486
 20
11.427482
 30
0.0
 10
23.247286
 20
11.209232
 30
0.0
  0
SPLINE
  5
16f
100
AcDbEntity
  8
0
 62
7
100
AcDbSpline
 70
8
 71
3
 72
8
 73
4
 74
0
 40
0
 40
0
 40
0
 40
0
 40
1
 40
1
 40
1
 40
1
 10
23.247286
 20
11.209232
 30
0.0
 10
23.027087
 20
10.990007
 30
0.0
 10
22.758658
 20
10.880394
 30
0.0
 10
22.442000
 20
10.880394
 30
0.0
  0
SPLINE
  5
170
100
AcDbEntity
  8
0
 62
7
100
AcDbSpline
 70
8
 71
3
 72
8
 73
4
 74
0
 40
0
 40
0
 40
0
 40
0
 40
1
 40
1
 40
1
 40
1
 10
22.442000
 20
10.880394
 30
0.0
 10
22.128265
 20
10.880394
 30
0.0
 10
21.862759
 20
10.988545
 30
0.0
 10
21.645482
 20
11.204847
 30
0.0
  0
SPLINE
  5
171
100
AcDbEntity
  8
0
 62
7
100
AcDbSpline
 70
8
 71
3
 72
8
 73
4
 74
0
 40
0
 40
0
 40
0
 40
0
 40
1
 40
1
 40
1
 40
1
 10
21.645482
 20
11.204847
 30
0.0
 10
21.428206
 20
11.420175
 30
0.0
 10
21.319568
 20
11.681783
 30
0.0
 10
21.319568
 20
11.989673
 30
0.0
  0
SPLINE
  5
172
100
AcDbEntity
  8
0
 62
7
100
AcDbSpline
 70
8
 71
3
 72
8
 73
4
 74
0
 40
0
 40
0
 40
0
 40
0
 40
1
 40
1
 40
1
 40
1
 10
21.319568
 20
11.989673
 30
0.0
 10
21.319568
 20
12.312177
 30
0.0
 10
21.431129
 20
12.580119
 30
0.0
 10
21.654251
 20
12.793498
 30
0.0
  0
SPLINE
  5
173
100
AcDbEntity
  8
0
 62
7
100
AcDbSpline
 70
8
 71
3
 72
8
 73
4
 74
0
 40
0
 40
0
 40
0
 40
0
 40
1
 40
1
 40
1
 40
1
 10
21.654251
 20
12.793498
 30
0.0
 10
21.877374
 20
13.006877
 30
0.0
 10
22.142392
 20
13.113566
 30
0.0
 10
22.449307
 20
13.113566
 30
0.0
  0
SPLINE
  5
174
100
AcDbEntity
  8
0
 62
7
100
AcDbSpline
 70
8
 71
3
 72
8
 73
4
 74
0
 40
0
 40
0
 40
0
 40
0
 40
1
 40
1
 40
1
 40
1
 10
22.449307
 20
13.113566
 30
0.0
 10
22.654892
 20
13.113566
 30
0.0
 10
22.843912
 20
13.063875
 30
0.0
 10
23.016369
 20
12.964493
 30
0.0
  0
SPLINE
  5
175
100
AcDbEntity
  8
0
 62
7
100
AcDbSpline
 70
8
 71
3
 72
8
 73
4
 74
0
 40
0
 40
0
 40
0
 40
0
 40
1
 40
1
 40
1
 40
1
 10
23.016369
 20
12.964493
 30
0.0
 10
23.188826
 20
12.865111
 30
0.0
 10
23.325233
 20
12.728705
 30
0.0
 10
23.425589
 20
12.555273
 30
0.0
  0
SPLINE
  5
176
100
AcDbEntity
  8
0
 62
7
100
AcDbSpline
 70
8
 71
3
 72
8
 73
4
 74
0
 40
0
 40
0
 40
0
 40
0
 40
1
 40
1
 40
1
 40
1
 10
23.425589
 20
12.555273
 30
0.0
 10
23.526920
 20
12.380868
 30
0.0
 10
23.577585
 20
12.193308
 30
0.0
 10
23.577585
 20
11.992596
 30
0.0
  0
LWPOLYLINE
  5
177
100
AcDbEntity
  8
0
 62
7
100
AcDbPolyline
 90
4
 70
1
 10
23.577585
 20
10.580787
 30
0.0
 10
23.577585
 20
10.181797
 30
0.0
 10
21.373643
 20
10.181797
 30
0.0
 10
21.373643
 20
10.580787
 30
0.0
  0
SPLINE
  5
178
100
AcDbEntity
  8
0
 62
7
100
AcDbSpline
 70
8
 71
3
 72
8
 73
4
 74
0
 40
0
 40
0
 40
0
 40
0
 40
1
 40
1
 40
1
 40
1
 10
23.177134
 20
11.996980
 30
0.0
 10
23.177134
 20
12.195744
 30
0.0
 10
23.107957
 20
12.362842
 30
0.0
 10
22.969601
 20
12.498275
 30
0.0
  0
SPLINE
  5
179
100
AcDbEntity
  8
0
 62
7
100
AcDbSpline
 70
8
 71
3
 72
8
 73
4
 74
0
 40
0
 40
0
 40
0
 40
0
 40
1
 40
1
 40
1
 40
1
 10
22.969601
 20
12.498275
 30
0.0
 10
22.831246
 20
12.633707
 30
0.0
 10
22.655379
 20
12.701423
 30
0.0
 10
22.442000
 20
12.701423
 30
0.0
  0
SPLINE
  5
17a
100
AcDbEntity
  8
0
 62
7
100
AcDbSpline
 70
8
 71
3
 72
8
 73
4
 74
0
 40
0
 40
0
 40
0
 40
0
 40
1
 40
1
 40
1
 40
1
 10
22.442000
 20
12.701423
 30
0.0
 10
22.204262
 20
12.701423
 30
0.0
 10
22.016216
 20
12.616169
 30
0.0
 10
21.877861
 20
12.445661
 30
0.0
  0
SPLINE
  5
17b
100
AcDbEntity
  8
0
 62
7
100
AcDbSpline
 70
8
 71
3
 72
8
 73
4
 74
0
 40
0
 40
0
 40
0
 40
0
 40
1
 40
1
 40
1
 40
1
 10
21.877861
 20
12.445661
 30
0.0
 10
21.769710
 20
12.313151
 30
0.0
 10
21.715634
 20
12.161155
 30
0.0
 10
21.715634
 20
11.989672
 30
0.0
  0
SPLINE
  5
17c
100
AcDbEntity
  8
0
 62
7
100
AcDbSpline
 70
8
 71
3
 72
8
 73
4
 74
0
 40
0
 40
0
 40
0
 40
0
 40
1
 40
1
 40
1
 40
1
 10
21.715634
 20
11.989672
 30
0.0
 10
21.715634
 20
11.795780
 30
0.0
 10
21.785786
 20
11.630631
 30
0.0
 10
21.926090
 20
11.494224
 30
0.0
  0
SPLINE
  5
17d
100
AcDbEntity
  8
0
 62
7
100
AcDbSpline
 70
8
 71
3
 72
8
 73
4
 74
0
 40
0
 40
0
 40
0
 40
0
 40
1
 40
1
 40
1
 40
1
 10
21.926090
 20
11.494224
 30
0.0
 10
22.066394
 20
11.357817
 30
0.0
 10
22.239338
 20
11.289614
 30
0.0
 10
22.444923
 20
11.289614
 30
0.0
  0
SPLINE
  5
17e
100
AcDbEntity
  8
0
 62
7
100
AcDbSpline
 70
8
 71
3
 72
8
 73
4
 74
0
 40
0
 40
0
 40
0
 40
0
 40
1
 40
1
 40
1
 40
1
 10
22.444923
 20
11.289614
 30
0.0
 10
22.649533
 20
11.289614
 30
0.0
 10
22.822477
 20
11.358304
 30
0.0
 10
22.963755
 20
11.495685
 30
0.0
  0
SPLINE
  5
17f
100
AcDbEntity
  8
0
 62
7
100
AcDbSpline
 70
8
 71
3
 72
8
 73
4
 74
0
 40
0
 40
0
 40
0
 40
0
 40
1
 40
1
 40
1
 40
1
 10
22.963755
 20
11.495685
 30
0.0
 10
23.106008
 20
11.633066
 30
0.0
 10
23.177134
 20
11.800165
 30
0.0
 10
23.177134
 20
11.996980
 30
0.0
  0
LWPOLYLINE
  5
180
100
AcDbEntity
  8
0
 62
7
100
AcDbPolyline
 90
1
 70
1
 10
23.577585
 20
11.992596
 30
0.0
  0
LWPOLYLINE
  5
181
100
AcDbEntity
  8
0
 62
7
100
AcDbPolyline
 90
1
 70
1
 10
23.177134
 20
11.996980
 30
0.0
  0
SPLINE
  5
182
100
AcDbEntity
  8
0
 62
7
100
AcDbSpline
 70
8
 71
3
 72
8
 73
4
 74
0
 40
0
 40
0
 40
0
 40
0
 40
1
 40
1
 40
1
 40
1
 10
22.763530
 20
14.598450
 30
0.0
 10
22.842451
 20
14.561426
 30
0.0
 10
22.902372
 20
14.512222
 30
0.0
 10
22.943294
 20
14.450839
 30
0.0
  0
SPLINE
  5
183
100
AcDbEntity
  8
0
 62
7
100
AcDbSpline
 70
8
 71
3
 72
8
 73
4
 74
0
 40
0
 40
0
 40
0
 40
0
 40
1
 40
1
 40
1
 40
1
 10
22.943294
 20
14.450839
 30
0.0
 10
22.984216
 20
14.389456
 30
0.0
 10
23.004677
 20
14.322227
 30
0.0
 10
23.004677
 20
14.249152
 30
0.0
  0
SPLINE
  5
184
100
AcDbEntity
  8
0
 62
7
100
AcDbSpline
 70
8
 71
3
 72
8
 73
4
 74
0
 40
0
 40
0
 40
0
 40
0
 40
1
 40
1
 40
1
 40
1
 10
23.004677
 20
14.249152
 30
0.0
 10
23.004677
 20
14.197512
 30
0.0
 10
22.991037
 20
14.143436
 30
0.0
 10
22.963755
 20
14.086925
 30
0.0
  0
LWPOLYLINE
  5
185
100
AcDbEntity
  8
0
 62
7
100
AcDbPolyline
 90
3
 70
0
 10
22.963755
 20
14.940441
 30
0.0
 10
22.963755
 20
14.598450
 30
0.0
 10
22.763530
 20
14.598450
 30
0.0
  0
SPLINE
  5
186
100
AcDbEntity
  8
0
 62
7
100
AcDbSpline
 70
8
 71
3
 72
8
 73
4
 74
0
 40
0
 40
0
 40
0
 40
0
 40
1
 40
1
 40
1
 40
1
 10
22.620303
 20
14.211153
 30
0.0
 10
22.643687
 20
14.257921
 30
0.0
 10
22.655379
 20
14.296407
 30
0.0
 10
22.655379
 20
14.326611
 30
0.0
  0
SPLINE
  5
187
100
AcDbEntity
  8
0
 62
7
100
AcDbSpline
 70
8
 71
3
 72
8
 73
4
 74
0
 40
0
 40
0
 40
0
 40
0
 40
1
 40
1
 40
1
 40
1
 10
22.655379
 20
14.326611
 30
0.0
 10
22.655379
 20
14.387994
 30
0.0
 10
22.617380
 20
14.440121
 30
0.0
 10
22.541382
 20
14.482992
 30
0.0
  0
SPLINE
  5
188
100
AcDbEntity
  8
0
 62
7
100
AcDbSpline
 70
8
 71
3
 72
8
 73
4
 74
0
 40
0
 40
0
 40
0
 40
0
 40
1
 40
1
 40
1
 40
1
 10
22.541382
 20
14.482992
 30
0.0
 10
22.465384
 20
14.524888
 30
0.0
 10
22.316311
 20
14.545836
 30
0.0
 10
22.094163
 20
14.545836
 30
0.0
  0
LWPOLYLINE
  5
189
100
AcDbEntity
  8
0
 62
7
100
AcDbPolyline
 90
2
 70
0
 10
22.963755
 20
14.086925
 30
0.0
 10
22.620303
 20
14.211153
 30
0.0
  0
SPLINE
  5
18a
100
AcDbEntity
  8
0
 62
7
100
AcDbSpline
 70
8
 71
3
 72
8
 73
4
 74
0
 40
0
 40
0
 40
0
 40
0
 40
1
 40
1
 40
1
 40
1
 10
23.004677
 20
16.017567
 30
0.0
 10
23.004677
 20
15.867519
 30
0.0
 10
22.967166
 20
15.726728
 30
0.0
 10
22.892142
 20
15.595193
 30
0.0
  0
SPLINE
  5
18b
100
AcDbEntity
  8
0
 62
7
100
AcDbSpline
 70
8
 71
3
 72
8
 73
4
 74
0
 40
0
 40
0
 40
0
 40
0
 40
1
 40
1
 40
1
 40
1
 10
22.892142
 20
15.595193
 30
0.0
 10
22.817118
 20
15.462684
 30
0.0
 10
22.715300
 20
15.359405
 30
0.0
 10
22.586688
 20
15.285355
 30
0.0
  0
SPLINE
  5
18c
100
AcDbEntity
  8
0
 62
7
100
AcDbSpline
 70
8
 71
3
 72
8
 73
4
 74
0
 40
0
 40
0
 40
0
 40
0
 40
1
 40
1
 40
1
 40
1
 10
22.586688
 20
15.285355
 30
0.0
 10
22.458076
 20
15.211306
 30
0.0
 10
22.319234
 20
15.174281
 30
0.0
 10
22.170161
 20
15.174281
 30
0.0
  0
SPLINE
  5
18d
100
AcDbEntity
  8
0
 62
7
100
AcDbSpline
 70
8
 71
3
 72
8
 73
4
 74
0
 40
0
 40
0
 40
0
 40
0
 40
1
 40
1
 40
1
 40
1
 10
22.170161
 20
15.174281
 30
0.0
 10
22.020114
 20
15.174281
 30
0.0
 10
21.879810
 20
15.211793
 30
0.0
 10
21.749249
 20
15.286817
 30
0.0
  0
SPLINE
  5
18e
100
AcDbEntity
  8
0
 62
7
100
AcDbSpline
 70
8
 71
3
 72
8
 73
4
 74
0
 40
0
 40
0
 40
0
 40
0
 40
1
 40
1
 40
1
 40
1
 10
21.749249
 20
15.286817
 30
0.0
 10
21.618688
 20
15.360866
 30
0.0
 10
21.516383
 20
15.462197
 30
0.0
 10
21.442334
 20
15.590809
 30
0.0
  0
SPLINE
  5
18f
100
AcDbEntity
  8
0
 62
7
100
AcDbSpline
 70
8
 71
3
 72
8
 73
4
 74
0
 40
0
 40
0
 40
0
 40
0
 40
1
 40
1
 40
1
 40
1
 10
21.442334
 20
15.590809
 30
0.0
 10
21.369259
 20
15.719421
 30
0.0
 10
21.332721
 20
15.861186
 30
0.0
 10
21.332721
 20
16.016105
 30
0.0
  0
SPLINE
  5
190
100
AcDbEntity
  8
0
 62
7
100
AcDbSpline
 70
8
 71
3
 72
8
 73
4
 74
0
 40
0
 40
0
 40
0
 40
0
 40
1
 40
1
 40
1
 40
1
 10
21.332721
 20
16.016105
 30
0.0
 10
21.332721
 20
16.244099
 30
0.0
 10
21.413591
 20
16.438966
 30
0.0
 10
21.575330
 20
16.600705
 30
0.0
  0
SPLINE
  5
191
100
AcDbEntity
  8
0
 62
7
100
AcDbSpline
 70
8
 71
3
 72
8
 73
4
 74
0
 40
0
 40
0
 40
0
 40
0
 40
1
 40
1
 40
1
 40
1
 10
21.575330
 20
16.600705
 30
0.0
 10
21.738044
 20
16.761470
 30
0.0
 10
21.935346
 20
16.841853
 30
0.0
 10
22.167238
 20
16.841853
 30
0.0
  0
SPLINE
  5
192
100
AcDbEntity
  8
0
 62
7
100
AcDbSpline
 70
8
 71
3
 72
8
 73
4
 74
0
 40
0
 40
0
 40
0
 40
0
 40
1
 40
1
 40
1
 40
1
 10
22.167238
 20
16.841853
 30
0.0
 10
22.415693
 20
16.841853
 30
0.0
 10
22.622739
 20
16.750753
 30
0.0
 10
22.788375
 20
16.568552
 30
0.0
  0
SPLINE
  5
193
100
AcDbEntity
  8
0
 62
7
100
AcDbSpline
 70
8
 71
3
 72
8
 73
4
 74
0
 40
0
 40
0
 40
0
 40
0
 40
1
 40
1
 40
1
 40
1
 10
22.788375
 20
16.568552
 30
0.0
 10
22.932577
 20
16.408762
 30
0.0
 10
23.004677
 20
16.225100
 30
0.0
 10
23.004677
 20
16.017567
 30
0.0
  0
LWPOLYLINE
  5
194
100
AcDbEntity
  8
0
 62
7
100
AcDbPolyline
 90
5
 70
0
 10
22.094163
 20
14.545836
 30
0.0
 10
22.016703
 20
14.544381
 30
0.0
 10
21.373643
 20
14.544381
 30
0.0
 10
21.373643
 20
14.940447
 30
0.0
 10
22.963755
 20
14.940441
 30
0.0
  0
SPLINE
  5
195
100
AcDbEntity
  8
0
 62
7
100
AcDbSpline
 70
8
 71
3
 72
8
 73
4
 74
0
 40
0
 40
0
 40
0
 40
0
 40
1
 40
1
 40
1
 40
1
 10
22.629072
 20
16.011719
 30
0.0
 10
22.629072
 20
16.135460
 30
0.0
 10
22.585714
 20
16.238739
 30
0.0
 10
22.498998
 20
16.321557
 30
0.0
  0
SPLINE
  5
196
100
AcDbEntity
  8
0
 62
7
100
AcDbSpline
 70
8
 71
3
 72
8
 73
4
 74
0
 40
0
 40
0
 40
0
 40
0
 40
1
 40
1
 40
1
 40
1
 10
22.498998
 20
16.321557
 30
0.0
 10
22.413257
 20
16.403401
 30
0.0
 10
22.303157
 20
16.444323
 30
0.0
 10
22.168699
 20
16.444323
 30
0.0
  0
SPLINE
  5
197
100
AcDbEntity
  8
0
 62
7
100
AcDbSpline
 70
8
 71
3
 72
8
 73
4
 74
0
 40
0
 40
0
 40
0
 40
0
 40
1
 40
1
 40
1
 40
1
 10
22.168699
 20
16.444323
 30
0.0
 10
22.030344
 20
16.444323
 30
0.0
 10
21.918296
 20
16.403889
 30
0.0
 10
21.832554
 20
16.323019
 30
0.0
  0
SPLINE
  5
198
100
AcDbEntity
  8
0
 62
7
100
AcDbSpline
 70
8
 71
3
 72
8
 73
4
 74
0
 40
0
 40
0
 40
0
 40
0
 40
1
 40
1
 40
1
 40
1
 10
21.832554
 20
16.323019
 30
0.0
 10
21.746813
 20
16.241175
 30
0.0
 10
21.703942
 20
16.137896
 30
0.0
 10
21.703942
 20
16.013181
 30
0.0
  0
SPLINE
  5
199
100
AcDbEntity
  8
0
 62
7
100
AcDbSpline
 70
8
 71
3
 72
8
 73
4
 74
0
 40
0
 40
0
 40
0
 40
0
 40
1
 40
1
 40
1
 40
1
 10
21.703942
 20
16.013181
 30
0.0
 10
21.703942
 20
15.888466
 30
0.0
 10
21.747300
 20
15.784700
 30
0.0
 10
21.834016
 20
15.701882
 30
0.0
  0
SPLINE
  5
19a
100
AcDbEntity
  8
0
 62
7
100
AcDbSpline
 70
8
 71
3
 72
8
 73
4
 74
0
 40
0
 40
0
 40
0
 40
0
 40
1
 40
1
 40
1
 40
1
 10
21.834016
 20
15.701882
 30
0.0
 10
21.920731
 20
15.619063
 30
0.0
 10
22.032293
 20
15.577654
 30
0.0
 10
22.168699
 20
15.577654
 30
0.0
  0
SPLINE
  5
19b
100
AcDbEntity
  8
0
 62
7
100
AcDbSpline
 70
8
 71
3
 72
8
 73
4
 74
0
 40
0
 40
0
 40
0
 40
0
 40
1
 40
1
 40
1
 40
1
 10
22.168699
 20
15.577654
 30
0.0
 10
22.305106
 20
15.577654
 30
0.0
 10
22.415693
 20
15.618576
 30
0.0
 10
22.500460
 20
15.700420
 30
0.0
  0
SPLINE
  5
19c
100
AcDbEntity
  8
0
 62
7
100
AcDbSpline
 70
8
 71
3
 72
8
 73
4
 74
0
 40
0
 40
0
 40
0
 40
0
 40
1
 40
1
 40
1
 40
1
 10
22.500460
 20
15.700420
 30
0.0
 10
22.586201
 20
15.781291
 30
0.0
 10
22.629072
 20
15.885058
 30
0.0
 10
22.629072
 20
16.011721
 30
0.0
  0
LWPOLYLINE
  5
19d
100
AcDbEntity
  8
0
 62
7
100
AcDbPolyline
 90
1
 70
1
 10
23.004677
 20
16.017567
 30
0.0
  0
LWPOLYLINE
  5
19e
100
AcDbEntity
  8
0
 62
7
100
AcDbPolyline
 90
1
 70
1
 10
22.629072
 20
16.011721
 30
0.0
  0
LWPOLYLINE
  5
19f
100
AcDbEntity
  8
0
 62
7
100
AcDbPolyline
 90
10
 70
1
 10
23.523510
 20
18.152818
 30
0.0
 10
23.523510
 20
17.085923
 30
0.0
 10
23.124520
 20
17.085923
 30
0.0
 10
23.124520
 20
17.747983
 30
0.0
 10
22.734300
 20
17.747983
 30
0.0
 10
22.734300
 20
17.085923
 30
0.0
 10
22.341156
 20
17.085923
 30
0.0
 10
22.341156
 20
17.747983
 30
0.0
 10
21.373643
 20
17.747983
 30
0.0
 10
21.373643
 20
18.152818
 30
0.0
  0
SPLINE
  5
1a0
100
AcDbEntity
  8
0
 62
7
100
AcDbSpline
 70
8
 71
3
 72
8
 73
4
 74
0
 40
0
 40
0
 40
0
 40
0
 40
1
 40
1
 40
1
 40
1
 10
26.236054
 20
1.905323
 30
0.0
 10
26.335436
 20
2.005679
 30
0.0
 10
26.385127
 20
2.096779
 30
0.0
 10
26.385127
 20
2.178623
 30
0.0
  0
SPLINE
  5
1a1
100
AcDbEntity
  8
0
 62
7
100
AcDbSpline
 70
8
 71
3
 72
8
 73
4
 74
0
 40
0
 40
0
 40
0
 40
0
 40
1
 40
1
 40
1
 40
1
 10
26.385127
 20
2.178623
 30
0.0
 10
26.385127
 20
2.223443
 30
0.0
 10
26.375383
 20
2.258519
 30
0.0
 10
26.355897
 20
2.283851
 30
0.0
  0
SPLINE
  5
1a2
100
AcDbEntity
  8
0
 62
7
100
AcDbSpline
 70
8
 71
3
 72
8
 73
4
 74
0
 40
0
 40
0
 40
0
 40
0
 40
1
 40
1
 40
1
 40
1
 10
26.355897
 20
2.283851
 30
0.0
 10
26.337384
 20
2.309184
 30
0.0
 10
26.314000
 20
2.321850
 30
0.0
 10
26.285745
 20
2.321850
 30
0.0
  0
SPLINE
  5
1a3
100
AcDbEntity
  8
0
 62
7
100
AcDbSpline
 70
8
 71
3
 72
8
 73
4
 74
0
 40
0
 40
0
 40
0
 40
0
 40
1
 40
1
 40
1
 40
1
 10
26.285745
 20
2.321850
 30
0.0
 10
26.264309
 20
2.321850
 30
0.0
 10
26.244335
 20
2.314056
 30
0.0
 10
26.225823
 20
2.298466
 30
0.0
  0
SPLINE
  5
1a4
100
AcDbEntity
  8
0
 62
7
100
AcDbSpline
 70
8
 71
3
 72
8
 73
4
 74
0
 40
0
 40
0
 40
0
 40
0
 40
1
 40
1
 40
1
 40
1
 10
26.225823
 20
2.298466
 30
0.0
 10
26.208285
 20
2.281903
 30
0.0
 10
26.183926
 20
2.241956
 30
0.0
 10
26.152748
 20
2.178623
 30
0.0
  0
LWPOLYLINE
  5
1a5
100
AcDbEntity
  8
0
 62
7
100
AcDbPolyline
 90
2
 70
0
 10
26.483048
 20
1.658329
 30
0.0
 10
26.236054
 20
1.905323
 30
0.0
  0
SPLINE
  5
1a6
100
AcDbEntity
  8
0
 62
7
100
AcDbSpline
 70
8
 71
3
 72
8
 73
4
 74
0
 40
0
 40
0
 40
0
 40
0
 40
1
 40
1
 40
1
 40
1
 10
26.079673
 20
2.032473
 30
0.0
 10
26.003675
 20
1.878529
 30
0.0
 10
25.926216
 20
1.772814
 30
0.0
 10
25.847295
 20
1.715328
 30
0.0
  0
SPLINE
  5
1a7
100
AcDbEntity
  8
0
 62
7
100
AcDbSpline
 70
8
 71
3
 72
8
 73
4
 74
0
 40
0
 40
0
 40
0
 40
0
 40
1
 40
1
 40
1
 40
1
 10
25.847295
 20
1.715328
 30
0.0
 10
25.768374
 20
1.657842
 30
0.0
 10
25.675812
 20
1.629099
 30
0.0
 10
25.569610
 20
1.629099
 30
0.0
  0
SPLINE
  5
1a8
100
AcDbEntity
  8
0
 62
7
100
AcDbSpline
 70
8
 71
3
 72
8
 73
4
 74
0
 40
0
 40
0
 40
0
 40
0
 40
1
 40
1
 40
1
 40
1
 10
25.569610
 20
1.629099
 30
0.0
 10
25.428331
 20
1.629099
 30
0.0
 10
25.310437
 20
1.681226
 30
0.0
 10
25.215927
 20
1.785480
 30
0.0
  0
SPLINE
  5
1a9
100
AcDbEntity
  8
0
 62
7
100
AcDbSpline
 70
8
 71
3
 72
8
 73
4
 74
0
 40
0
 40
0
 40
0
 40
0
 40
1
 40
1
 40
1
 40
1
 10
25.215927
 20
1.785480
 30
0.0
 10
25.121416
 20
1.888759
 30
0.0
 10
25.074161
 20
2.027602
 30
0.0
 10
25.074161
 20
2.202007
 30
0.0
  0
SPLINE
  5
1aa
100
AcDbEntity
  8
0
 62
7
100
AcDbSpline
 70
8
 71
3
 72
8
 73
4
 74
0
 40
0
 40
0
 40
0
 40
0
 40
1
 40
1
 40
1
 40
1
 10
25.074161
 20
2.202007
 30
0.0
 10
25.074161
 20
2.433899
 30
0.0
 10
25.164774
 20
2.619022
 30
0.0
 10
25.346000
 20
2.757377
 30
0.0
  0
LWPOLYLINE
  5
1ab
100
AcDbEntity
  8
0
 62
7
100
AcDbPolyline
 90
2
 70
0
 10
26.152748
 20
2.178623
 30
0.0
 10
26.079673
 20
2.032473
 30
0.0
  0
SPLINE
  5
1ac
100
AcDbEntity
  8
0
 62
7
100
AcDbSpline
 70
8
 71
3
 72
8
 73
4
 74
0
 40
0
 40
0
 40
0
 40
0
 40
1
 40
1
 40
1
 40
1
 10
25.613455
 20
2.511845
 30
0.0
 10
25.558892
 20
2.465077
 30
0.0
 10
25.514560
 20
2.410515
 30
0.0
 10
25.480458
 20
2.348157
 30
0.0
  0
SPLINE
  5
1ad
100
AcDbEntity
  8
0
 62
7
100
AcDbSpline
 70
8
 71
3
 72
8
 73
4
 74
0
 40
0
 40
0
 40
0
 40
0
 40
1
 40
1
 40
1
 40
1
 10
25.480458
 20
2.348157
 30
0.0
 10
25.447331
 20
2.284826
 30
0.0
 10
25.430767
 20
2.228802
 30
0.0
 10
25.430767
 20
2.180085
 30
0.0
  0
SPLINE
  5
1ae
100
AcDbEntity
  8
0
 62
7
100
AcDbSpline
 70
8
 71
3
 72
8
 73
4
 74
0
 40
0
 40
0
 40
0
 40
0
 40
1
 40
1
 40
1
 40
1
 10
25.430767
 20
2.180085
 30
0.0
 10
25.430767
 20
2.127471
 30
0.0
 10
25.443433
 20
2.085087
 30
0.0
 10
25.468766
 20
2.052934
 30
0.0
  0
SPLINE
  5
1af
100
AcDbEntity
  8
0
 62
7
100
AcDbSpline
 70
8
 71
3
 72
8
 73
4
 74
0
 40
0
 40
0
 40
0
 40
0
 40
1
 40
1
 40
1
 40
1
 10
25.468766
 20
2.052934
 30
0.0
 10
25.494099
 20
2.020781
 30
0.0
 10
25.523329
 20
2.004705
 30
0.0
 10
25.556456
 20
2.004705
 30
0.0
  0
SPLINE
  5
1b0
100
AcDbEntity
  8
0
 62
7
100
AcDbSpline
 70
8
 71
3
 72
8
 73
4
 74
0
 40
0
 40
0
 40
0
 40
0
 40
1
 40
1
 40
1
 40
1
 10
25.556456
 20
2.004705
 30
0.0
 10
25.617839
 20
2.004705
 30
0.0
 10
25.677761
 20
2.062678
 30
0.0
 10
25.736221
 20
2.178623
 30
0.0
  0
LWPOLYLINE
  5
1b1
100
AcDbEntity
  8
0
 62
7
100
AcDbPolyline
 90
2
 70
0
 10
25.346000
 20
2.757377
 30
0.0
 10
25.613455
 20
2.511845
 30
0.0
  0
SPLINE
  5
1b2
100
AcDbEntity
  8
0
 62
7
100
AcDbSpline
 70
8
 71
3
 72
8
 73
4
 74
0
 40
0
 40
0
 40
0
 40
0
 40
1
 40
1
 40
1
 40
1
 10
25.803450
 20
2.313081
 30
0.0
 10
25.933036
 20
2.570305
 30
0.0
 10
26.095263
 20
2.698917
 30
0.0
 10
26.290129
 20
2.698917
 30
0.0
  0
SPLINE
  5
1b3
100
AcDbEntity
  8
0
 62
7
100
AcDbSpline
 70
8
 71
3
 72
8
 73
4
 74
0
 40
0
 40
0
 40
0
 40
0
 40
1
 40
1
 40
1
 40
1
 10
26.290129
 20
2.698917
 30
0.0
 10
26.415819
 20
2.698917
 30
0.0
 10
26.522996
 20
2.650688
 30
0.0
 10
26.611659
 20
2.554229
 30
0.0
  0
SPLINE
  5
1b4
100
AcDbEntity
  8
0
 62
7
100
AcDbSpline
 70
8
 71
3
 72
8
 73
4
 74
0
 40
0
 40
0
 40
0
 40
0
 40
1
 40
1
 40
1
 40
1
 10
26.611659
 20
2.554229
 30
0.0
 10
26.701298
 20
2.456795
 30
0.0
 10
26.746118
 20
2.332568
 30
0.0
 10
26.746118
 20
2.181546
 30
0.0
  0
SPLINE
  5
1b5
100
AcDbEntity
  8
0
 62
7
100
AcDbSpline
 70
8
 71
3
 72
8
 73
4
 74
0
 40
0
 40
0
 40
0
 40
0
 40
1
 40
1
 40
1
 40
1
 10
26.746118
 20
2.181546
 30
0.0
 10
26.746118
 20
2.078267
 30
0.0
 10
26.723221
 20
1.981321
 30
0.0
 10
26.677427
 20
1.890708
 30
0.0
  0
SPLINE
  5
1b6
100
AcDbEntity
  8
0
 62
7
100
AcDbSpline
 70
8
 71
3
 72
8
 73
4
 74
0
 40
0
 40
0
 40
0
 40
0
 40
1
 40
1
 40
1
 40
1
 10
26.677427
 20
1.890708
 30
0.0
 10
26.632608
 20
1.799120
 30
0.0
 10
26.567815
 20
1.721661
 30
0.0
 10
26.483048
 20
1.658329
 30
0.0
  0
LWPOLYLINE
  5
1b7
100
AcDbEntity
  8
0
 62
7
100
AcDbPolyline
 90
2
 70
0
 10
25.736221
 20
2.178623
 30
0.0
 10
25.803450
 20
2.313081
 30
0.0
  0
LWPOLYLINE
  5
1b8
100
AcDbEntity
  8
0
 62
7
100
AcDbPolyline
 90
1
 70
1
 10
26.483048
 20
1.658329
 30
0.0
  0
LWPOLYLINE
  5
1b9
100
AcDbEntity
  8
0
 62
7
100
AcDbPolyline
 90
11
 70
1
 10
27.319026
 20
4.365028
 30
0.0
 10
27.319026
 20
3.966038
 30
0.0
 10
26.048982
 20
3.966038
 30
0.0
 10
26.705195
 20
3.378515
 30
0.0
 10
26.705195
 20
2.878682
 30
0.0
 10
25.942292
 20
3.562664
 30
0.0
 10
25.115083
 20
2.795377
 30
0.0
 10
25.115083
 20
3.290825
 30
0.0
 10
25.847295
 20
3.966038
 30
0.0
 10
25.115083
 20
3.966038
 30
0.0
 10
25.115083
 20
4.365028
 30
0.0
  0
SPLINE
  5
1ba
100
AcDbEntity
  8
0
 62
7
100
AcDbSpline
 70
8
 71
3
 72
8
 73
4
 74
0
 40
0
 40
0
 40
0
 40
0
 40
1
 40
1
 40
1
 40
1
 10
26.200978
 20
5.060702
 30
0.0
 10
26.266258
 20
5.123059
 30
0.0
 10
26.311564
 20
5.184930
 30
0.0
 10
26.336897
 20
5.246313
 30
0.0
  0
SPLINE
  5
1bb
100
AcDbEntity
  8
0
 62
7
100
AcDbSpline
 70
8
 71
3
 72
8
 73
4
 74
0
 40
0
 40
0
 40
0
 40
0
 40
1
 40
1
 40
1
 40
1
 10
26.336897
 20
5.246313
 30
0.0
 10
26.362230
 20
5.306721
 30
0.0
 10
26.374896
 20
5.377848
 30
0.0
 10
26.374896
 20
5.459692
 30
0.0
  0
SPLINE
  5
1bc
100
AcDbEntity
  8
0
 62
7
100
AcDbSpline
 70
8
 71
3
 72
8
 73
4
 74
0
 40
0
 40
0
 40
0
 40
0
 40
1
 40
1
 40
1
 40
1
 10
26.374896
 20
5.459692
 30
0.0
 10
26.374896
 20
5.608765
 30
0.0
 10
26.330077
 20
5.729582
 30
0.0
 10
26.240438
 20
5.822144
 30
0.0
  0
SPLINE
  5
1bd
100
AcDbEntity
  8
0
 62
7
100
AcDbSpline
 70
8
 71
3
 72
8
 73
4
 74
0
 40
0
 40
0
 40
0
 40
0
 40
1
 40
1
 40
1
 40
1
 10
26.240438
 20
5.822144
 30
0.0
 10
26.151774
 20
5.913731
 30
0.0
 10
26.037777
 20
5.959525
 30
0.0
 10
25.898447
 20
5.959525
 30
0.0
  0
SPLINE
  5
1be
100
AcDbEntity
  8
0
 62
7
100
AcDbSpline
 70
8
 71
3
 72
8
 73
4
 74
0
 40
0
 40
0
 40
0
 40
0
 40
1
 40
1
 40
1
 40
1
 10
25.898447
 20
5.959525
 30
0.0
 10
25.763015
 20
5.959525
 30
0.0
 10
25.652428
 20
5.915193
 30
0.0
 10
25.566687
 20
5.826528
 30
0.0
  0
SPLINE
  5
1bf
100
AcDbEntity
  8
0
 62
7
100
AcDbSpline
 70
8
 71
3
 72
8
 73
4
 74
0
 40
0
 40
0
 40
0
 40
0
 40
1
 40
1
 40
1
 40
1
 10
25.566687
 20
5.826528
 30
0.0
 10
25.480945
 20
5.737864
 30
0.0
 10
25.438075
 20
5.621431
 30
0.0
 10
25.438075
 20
5.477230
 30
0.0
  0
SPLINE
  5
1c0
100
AcDbEntity
  8
0
 62
7
100
AcDbSpline
 70
8
 71
3
 72
8
 73
4
 74
0
 40
0
 40
0
 40
0
 40
0
 40
1
 40
1
 40
1
 40
1
 10
25.438075
 20
5.477230
 30
0.0
 10
25.438075
 20
5.298927
 30
0.0
 10
25.498970
 20
5.160084
 30
0.0
 10
25.620762
 20
5.060702
 30
0.0
  0
LWPOLYLINE
  5
1c1
100
AcDbEntity
  8
0
 62
7
100
AcDbPolyline
 90
2
 70
0
 10
26.383665
 20
4.728942
 30
0.0
 10
26.200978
 20
5.060702
 30
0.0
  0
SPLINE
  5
1c2
100
AcDbEntity
  8
0
 62
7
100
AcDbSpline
 70
8
 71
3
 72
8
 73
4
 74
0
 40
0
 40
0
 40
0
 40
0
 40
1
 40
1
 40
1
 40
1
 10
25.405922
 20
4.746480
 30
0.0
 10
25.184748
 20
4.916988
 30
0.0
 10
25.074161
 20
5.157648
 30
0.0
 10
25.074161
 20
5.468461
 30
0.0
  0
SPLINE
  5
1c3
100
AcDbEntity
  8
0
 62
7
100
AcDbSpline
 70
8
 71
3
 72
8
 73
4
 74
0
 40
0
 40
0
 40
0
 40
0
 40
1
 40
1
 40
1
 40
1
 10
25.074161
 20
5.468461
 30
0.0
 10
25.074161
 20
5.748094
 30
0.0
 10
25.156980
 20
5.967319
 30
0.0
 10
25.322616
 20
6.126136
 30
0.0
  0
SPLINE
  5
1c4
100
AcDbEntity
  8
0
 62
7
100
AcDbSpline
 70
8
 71
3
 72
8
 73
4
 74
0
 40
0
 40
0
 40
0
 40
0
 40
1
 40
1
 40
1
 40
1
 10
25.322616
 20
6.126136
 30
0.0
 10
25.488253
 20
6.283978
 30
0.0
 10
25.682145
 20
6.362899
 30
0.0
 10
25.904293
 20
6.362899
 30
0.0
  0
SPLINE
  5
1c5
100
AcDbEntity
  8
0
 62
7
100
AcDbSpline
 70
8
 71
3
 72
8
 73
4
 74
0
 40
0
 40
0
 40
0
 40
0
 40
1
 40
1
 40
1
 40
1
 10
25.904293
 20
6.362899
 30
0.0
 10
26.058238
 20
6.362899
 30
0.0
 10
26.200003
 20
6.324412
 30
0.0
 10
26.329590
 20
6.247440
 30
0.0
  0
SPLINE
  5
1c6
100
AcDbEntity
  8
0
 62
7
100
AcDbSpline
 70
8
 71
3
 72
8
 73
4
 74
0
 40
0
 40
0
 40
0
 40
0
 40
1
 40
1
 40
1
 40
1
 10
26.329590
 20
6.247440
 30
0.0
 10
26.459176
 20
6.170468
 30
0.0
 10
26.560993
 20
6.063291
 30
0.0
 10
26.635043
 20
5.925910
 30
0.0
  0
SPLINE
  5
1c7
100
AcDbEntity
  8
0
 62
7
100
AcDbSpline
 70
8
 71
3
 72
8
 73
4
 74
0
 40
0
 40
0
 40
0
 40
0
 40
1
 40
1
 40
1
 40
1
 10
26.635043
 20
5.925910
 30
0.0
 10
26.709093
 20
5.787555
 30
0.0
 10
26.746118
 20
5.633123
 30
0.0
 10
26.746118
 20
5.462615
 30
0.0
  0
SPLINE
  5
1c8
100
AcDbEntity
  8
0
 62
7
100
AcDbSpline
 70
8
 71
3
 72
8
 73
4
 74
0
 40
0
 40
0
 40
0
 40
0
 40
1
 40
1
 40
1
 40
1
 10
26.746118
 20
5.462615
 30
0.0
 10
26.746118
 20
5.304773
 30
0.0
 10
26.714452
 20
5.163007
 30
0.0
 10
26.651119
 20
5.037318
 30
0.0
  0
SPLINE
  5
1c9
100
AcDbEntity
  8
0
 62
7
100
AcDbSpline
 70
8
 71
3
 72
8
 73
4
 74
0
 40
0
 40
0
 40
0
 40
0
 40
1
 40
1
 40
1
 40
1
 10
26.651119
 20
5.037318
 30
0.0
 10
26.588762
 20
4.911629
 30
0.0
 10
26.499611
 20
4.808837
 30
0.0
 10
26.383665
 20
4.728942
 30
0.0
  0
LWPOLYLINE
  5
1ca
100
AcDbEntity
  8
0
 62
7
100
AcDbPolyline
 90
2
 70
0
 10
25.620762
 20
5.060702
 30
0.0
 10
25.405922
 20
4.746480
 30
0.0
  0
SPLINE
  5
1cb
100
AcDbEntity
  8
0
 62
7
100
AcDbSpline
 70
8
 71
3
 72
8
 73
4
 74
0
 40
0
 40
0
 40
0
 40
0
 40
1
 40
1
 40
1
 40
1
 10
27.359946
 20
6.848116
 30
0.0
 10
27.359946
 20
6.777964
 30
0.0
 10
27.334614
 20
6.718042
 30
0.0
 10
27.283950
 20
6.668351
 30
0.0
  0
SPLINE
  5
1cc
100
AcDbEntity
  8
0
 62
7
100
AcDbSpline
 70
8
 71
3
 72
8
 73
4
 74
0
 40
0
 40
0
 40
0
 40
0
 40
1
 40
1
 40
1
 40
1
 10
27.283950
 20
6.668351
 30
0.0
 10
27.233284
 20
6.617686
 30
0.0
 10
27.171900
 20
6.592354
 30
0.0
 10
27.099800
 20
6.592354
 30
0.0
  0
SPLINE
  5
1cd
100
AcDbEntity
  8
0
 62
7
100
AcDbSpline
 70
8
 71
3
 72
8
 73
4
 74
0
 40
0
 40
0
 40
0
 40
0
 40
1
 40
1
 40
1
 40
1
 10
27.099800
 20
6.592354
 30
0.0
 10
27.028674
 20
6.592354
 30
0.0
 10
26.967779
 20
6.617199
 30
0.0
 10
26.917113
 20
6.666890
 30
0.0
  0
SPLINE
  5
1ce
100
AcDbEntity
  8
0
 62
7
100
AcDbSpline
 70
8
 71
3
 72
8
 73
4
 74
0
 40
0
 40
0
 40
0
 40
0
 40
1
 40
1
 40
1
 40
1
 10
26.917113
 20
6.666890
 30
0.0
 10
26.867422
 20
6.716581
 30
0.0
 10
26.842577
 20
6.776015
 30
0.0
 10
26.842577
 20
6.845193
 30
0.0
  0
SPLINE
  5
1cf
100
AcDbEntity
  8
0
 62
7
100
AcDbSpline
 70
8
 71
3
 72
8
 73
4
 74
0
 40
0
 40
0
 40
0
 40
0
 40
1
 40
1
 40
1
 40
1
 10
26.842577
 20
6.845193
 30
0.0
 10
26.842577
 20
6.916319
 30
0.0
 10
26.867909
 20
6.977215
 30
0.0
 10
26.918573
 20
7.027880
 30
0.0
  0
SPLINE
  5
1d0
100
AcDbEntity
  8
0
 62
7
100
AcDbSpline
 70
8
 71
3
 72
8
 73
4
 74
0
 40
0
 40
0
 40
0
 40
0
 40
1
 40
1
 40
1
 40
1
 10
26.918573
 20
7.027880
 30
0.0
 10
26.970213
 20
7.077572
 30
0.0
 10
27.032571
 20
7.102417
 30
0.0
 10
27.105647
 20
7.102417
 30
0.0
  0
SPLINE
  5
1d1
100
AcDbEntity
  8
0
 62
7
100
AcDbSpline
 70
8
 71
3
 72
8
 73
4
 74
0
 40
0
 40
0
 40
0
 40
0
 40
1
 40
1
 40
1
 40
1
 10
27.105647
 20
7.102417
 30
0.0
 10
27.175799
 20
7.102417
 30
0.0
 10
27.235720
 20
7.077572
 30
0.0
 10
27.285410
 20
7.027880
 30
0.0
  0
SPLINE
  5
1d2
100
AcDbEntity
  8
0
 62
7
100
AcDbSpline
 70
8
 71
3
 72
8
 73
4
 74
0
 40
0
 40
0
 40
0
 40
0
 40
1
 40
1
 40
1
 40
1
 10
27.285410
 20
7.027880
 30
0.0
 10
27.335101
 20
6.978189
 30
0.0
 10
27.359946
 20
6.918268
 30
0.0
 10
27.359946
 20
6.848116
 30
0.0
  0
LWPOLYLINE
  5
1d3
100
AcDbEntity
  8
0
 62
7
100
AcDbPolyline
 90
1
 70
1
 10
26.383665
 20
4.728942
 30
0.0
  0
LWPOLYLINE
  5
1d4
100
AcDbEntity
  8
0
 62
7
100
AcDbPolyline
 90
1
 70
1
 10
27.359946
 20
6.848116
 30
0.0
  0
LWPOLYLINE
  5
1d5
100
AcDbEntity
  8
0
 62
7
100
AcDbPolyline
 90
4
 70
1
 10
26.705195
 20
7.048342
 30
0.0
 10
26.705195
 20
6.647891
 30
0.0
 10
25.115083
 20
6.647891
 30
0.0
 10
25.115083
 20
7.048342
 30
0.0
  0
SPLINE
  5
1d6
100
AcDbEntity
  8
0
 62
7
100
AcDbSpline
 70
8
 71
3
 72
8
 73
4
 74
0
 40
0
 40
0
 40
0
 40
0
 40
1
 40
1
 40
1
 40
1
 10
26.504969
 20
7.714786
 30
0.0
 10
26.583890
 20
7.677761
 30
0.0
 10
26.643812
 20
7.628557
 30
0.0
 10
26.684735
 20
7.567174
 30
0.0
  0
SPLINE
  5
1d7
100
AcDbEntity
  8
0
 62
7
100
AcDbSpline
 70
8
 71
3
 72
8
 73
4
 74
0
 40
0
 40
0
 40
0
 40
0
 40
1
 40
1
 40
1
 40
1
 10
26.684735
 20
7.567174
 30
0.0
 10
26.725657
 20
7.505791
 30
0.0
 10
26.746118
 20
7.438562
 30
0.0
 10
26.746118
 20
7.365487
 30
0.0
  0
SPLINE
  5
1d8
100
AcDbEntity
  8
0
 62
7
100
AcDbSpline
 70
8
 71
3
 72
8
 73
4
 74
0
 40
0
 40
0
 40
0
 40
0
 40
1
 40
1
 40
1
 40
1
 10
26.746118
 20
7.365487
 30
0.0
 10
26.746118
 20
7.313848
 30
0.0
 10
26.732477
 20
7.259772
 30
0.0
 10
26.705195
 20
7.203261
 30
0.0
  0
LWPOLYLINE
  5
1d9
100
AcDbEntity
  8
0
 62
7
100
AcDbPolyline
 90
3
 70
0
 10
26.705195
 20
8.056777
 30
0.0
 10
26.705195
 20
7.714786
 30
0.0
 10
26.504969
 20
7.714786
 30
0.0
  0
SPLINE
  5
1da
100
AcDbEntity
  8
0
 62
7
100
AcDbSpline
 70
8
 71
3
 72
8
 73
4
 74
0
 40
0
 40
0
 40
0
 40
0
 40
1
 40
1
 40
1
 40
1
 10
26.361743
 20
7.327488
 30
0.0
 10
26.385127
 20
7.374256
 30
0.0
 10
26.396819
 20
7.412742
 30
0.0
 10
26.396819
 20
7.442947
 30
0.0
  0
SPLINE
  5
1db
100
AcDbEntity
  8
0
 62
7
100
AcDbSpline
 70
8
 71
3
 72
8
 73
4
 74
0
 40
0
 40
0
 40
0
 40
0
 40
1
 40
1
 40
1
 40
1
 10
26.396819
 20
7.442947
 30
0.0
 10
26.396819
 20
7.504330
 30
0.0
 10
26.358820
 20
7.556457
 30
0.0
 10
26.282822
 20
7.599327
 30
0.0
  0
SPLINE
  5
1dc
100
AcDbEntity
  8
0
 62
7
100
AcDbSpline
 70
8
 71
3
 72
8
 73
4
 74
0
 40
0
 40
0
 40
0
 40
0
 40
1
 40
1
 40
1
 40
1
 10
26.282822
 20
7.599327
 30
0.0
 10
26.206824
 20
7.641224
 30
0.0
 10
26.057751
 20
7.662172
 30
0.0
 10
25.835603
 20
7.662172
 30
0.0
  0
LWPOLYLINE
  5
1dd
100
AcDbEntity
  8
0
 62
7
100
AcDbPolyline
 90
2
 70
0
 10
26.705195
 20
7.203261
 30
0.0
 10
26.361743
 20
7.327488
 30
0.0
  0
LWPOLYLINE
  5
1de
100
AcDbEntity
  8
0
 62
7
100
AcDbPolyline
 90
5
 70
0
 10
25.835603
 20
7.662172
 30
0.0
 10
25.758143
 20
7.660716
 30
0.0
 10
25.115083
 20
7.660716
 30
0.0
 10
25.115083
 20
8.056777
 30
0.0
 10
26.705195
 20
8.056777
 30
0.0
  0
LWPOLYLINE
  5
1df
100
AcDbEntity
  8
0
 62
7
100
AcDbPolyline
 90
8
 70
1
 10
27.264950
 20
9.388203
 30
0.0
 10
27.264950
 20
8.200004
 30
0.0
 10
26.861577
 20
8.200004
 30
0.0
 10
26.861577
 20
8.591686
 30
0.0
 10
25.115083
 20
8.591686
 30
0.0
 10
25.115083
 20
9.006752
 30
0.0
 10
26.861577
 20
9.006752
 30
0.0
 10
26.861577
 20
9.388203
 30
0.0
  0
LWPOLYLINE
  5
1e0
100
AcDbEntity
  8
0
 62
7
100
AcDbPolyline
 90
13
 70
1
 10
26.705195
 20
12.629810
 30
0.0
 10
26.705195
 20
12.239589
 30
0.0
 10
25.800527
 20
11.919521
 30
0.0
 10
26.705195
 20
11.574607
 30
0.0
 10
26.705195
 20
11.336382
 30
0.0
 10
25.810757
 20
10.998776
 30
0.0
 10
26.705195
 20
10.678707
 30
0.0
 10
26.705195
 20
10.285564
 30
0.0
 10
25.115083
 20
10.865779
 30
0.0
 10
25.115083
 20
11.118619
 30
0.0
 10
26.021213
 20
11.457687
 30
0.0
 10
25.115083
 20
11.806985
 30
0.0
 10
25.115083
 20
12.056902
 30
0.0
  0
SPLINE
  5
1e1
100
AcDbEntity
  8
0
 62
7
100
AcDbSpline
 70
8
 71
3
 72
8
 73
4
 74
0
 40
0
 40
0
 40
0
 40
0
 40
1
 40
1
 40
1
 40
1
 10
25.794681
 20
14.059157
 30
0.0
 10
25.681658
 20
14.040645
 30
0.0
 10
25.591532
 20
13.991441
 30
0.0
 10
25.524303
 20
13.911545
 30
0.0
  0
SPLINE
  5
1e2
100
AcDbEntity
  8
0
 62
7
100
AcDbSpline
 70
8
 71
3
 72
8
 73
4
 74
0
 40
0
 40
0
 40
0
 40
0
 40
1
 40
1
 40
1
 40
1
 10
25.524303
 20
13.911545
 30
0.0
 10
25.458048
 20
13.830676
 30
0.0
 10
25.424921
 20
13.727884
 30
0.0
 10
25.424921
 20
13.603169
 30
0.0
  0
SPLINE
  5
1e3
100
AcDbEntity
  8
0
 62
7
100
AcDbSpline
 70
8
 71
3
 72
8
 73
4
 74
0
 40
0
 40
0
 40
0
 40
0
 40
1
 40
1
 40
1
 40
1
 10
25.424921
 20
13.603169
 30
0.0
 10
25.424921
 20
13.454096
 30
0.0
 10
25.477048
 20
13.325971
 30
0.0
 10
25.581302
 20
13.218794
 30
0.0
  0
LWPOLYLINE
  5
1e4
100
AcDbEntity
  8
0
 62
7
100
AcDbPolyline
 90
2
 70
0
 10
25.794681
 20
12.777422
 30
0.0
 10
25.794681
 20
14.059157
 30
0.0
  0
SPLINE
  5
1e5
100
AcDbEntity
  8
0
 62
7
100
AcDbSpline
 70
8
 71
3
 72
8
 73
4
 74
0
 40
0
 40
0
 40
0
 40
0
 40
1
 40
1
 40
1
 40
1
 10
25.423460
 20
12.882650
 30
0.0
 10
25.304591
 20
12.966442
 30
0.0
 10
25.216414
 20
13.066798
 30
0.0
 10
25.158928
 20
13.183718
 30
0.0
  0
SPLINE
  5
1e6
100
AcDbEntity
  8
0
 62
7
100
AcDbSpline
 70
8
 71
3
 72
8
 73
4
 74
0
 40
0
 40
0
 40
0
 40
0
 40
1
 40
1
 40
1
 40
1
 10
25.158928
 20
13.183718
 30
0.0
 10
25.102417
 20
13.300638
 30
0.0
 10
25.074161
 20
13.439481
 30
0.0
 10
25.074161
 20
13.600246
 30
0.0
  0
SPLINE
  5
1e7
100
AcDbEntity
  8
0
 62
7
100
AcDbSpline
 70
8
 71
3
 72
8
 73
4
 74
0
 40
0
 40
0
 40
0
 40
0
 40
1
 40
1
 40
1
 40
1
 10
25.074161
 20
13.600246
 30
0.0
 10
25.074161
 20
13.849675
 30
0.0
 10
25.152595
 20
14.052824
 30
0.0
 10
25.309463
 20
14.209691
 30
0.0
  0
SPLINE
  5
1e8
100
AcDbEntity
  8
0
 62
7
100
AcDbSpline
 70
8
 71
3
 72
8
 73
4
 74
0
 40
0
 40
0
 40
0
 40
0
 40
1
 40
1
 40
1
 40
1
 10
25.309463
 20
14.209691
 30
0.0
 10
25.467305
 20
14.366559
 30
0.0
 10
25.664607
 20
14.444993
 30
0.0
 10
25.901370
 20
14.444993
 30
0.0
  0
SPLINE
  5
1e9
100
AcDbEntity
  8
0
 62
7
100
AcDbSpline
 70
8
 71
3
 72
8
 73
4
 74
0
 40
0
 40
0
 40
0
 40
0
 40
1
 40
1
 40
1
 40
1
 10
25.901370
 20
14.444993
 30
0.0
 10
26.143979
 20
14.444993
 30
0.0
 10
26.345179
 20
14.367046
 30
0.0
 10
26.504969
 20
14.211153
 30
0.0
  0
SPLINE
  5
1ea
100
AcDbEntity
  8
0
 62
7
100
AcDbSpline
 70
8
 71
3
 72
8
 73
4
 74
0
 40
0
 40
0
 40
0
 40
0
 40
1
 40
1
 40
1
 40
1
 10
26.504969
 20
14.211153
 30
0.0
 10
26.665735
 20
14.054285
 30
0.0
 10
26.746118
 20
13.857957
 30
0.0
 10
26.746118
 20
13.622168
 30
0.0
  0
SPLINE
  5
1eb
100
AcDbEntity
  8
0
 62
7
100
AcDbSpline
 70
8
 71
3
 72
8
 73
4
 74
0
 40
0
 40
0
 40
0
 40
0
 40
1
 40
1
 40
1
 40
1
 10
26.746118
 20
13.622168
 30
0.0
 10
26.746118
 20
13.371765
 30
0.0
 10
26.665735
 20
13.168129
 30
0.0
 10
26.504969
 20
13.011261
 30
0.0
  0
SPLINE
  5
1ec
100
AcDbEntity
  8
0
 62
7
100
AcDbSpline
 70
8
 71
3
 72
8
 73
4
 74
0
 40
0
 40
0
 40
0
 40
0
 40
1
 40
1
 40
1
 40
1
 10
26.504969
 20
13.011261
 30
0.0
 10
26.345179
 20
12.854394
 30
0.0
 10
26.133749
 20
12.775960
 30
0.0
 10
25.870679
 20
12.775960
 30
0.0
  0
LWPOLYLINE
  5
1ed
100
AcDbEntity
  8
0
 62
7
100
AcDbPolyline
 90
2
 70
0
 10
25.581302
 20
13.218794
 30
0.0
 10
25.423460
 20
12.882650
 30
0.0
  0
SPLINE
  5
1ee
100
AcDbEntity
  8
0
 62
7
100
AcDbSpline
 70
8
 71
3
 72
8
 73
4
 74
0
 40
0
 40
0
 40
0
 40
0
 40
1
 40
1
 40
1
 40
1
 10
26.108903
 20
13.177872
 30
0.0
 10
26.197567
 20
13.204179
 30
0.0
 10
26.269668
 20
13.256306
 30
0.0
 10
26.325205
 20
13.334253
 30
0.0
  0
SPLINE
  5
1ef
100
AcDbEntity
  8
0
 62
7
100
AcDbSpline
 70
8
 71
3
 72
8
 73
4
 74
0
 40
0
 40
0
 40
0
 40
0
 40
1
 40
1
 40
1
 40
1
 10
26.325205
 20
13.334253
 30
0.0
 10
26.380742
 20
13.411225
 30
0.0
 10
26.408511
 20
13.500864
 30
0.0
 10
26.408511
 20
13.603169
 30
0.0
  0
SPLINE
  5
1f0
100
AcDbEntity
  8
0
 62
7
100
AcDbSpline
 70
8
 71
3
 72
8
 73
4
 74
0
 40
0
 40
0
 40
0
 40
0
 40
1
 40
1
 40
1
 40
1
 10
26.408511
 20
13.603169
 30
0.0
 10
26.408511
 20
13.714243
 30
0.0
 10
26.377332
 20
13.811676
 30
0.0
 10
26.314975
 20
13.895469
 30
0.0
  0
SPLINE
  5
1f1
100
AcDbEntity
  8
0
 62
7
100
AcDbSpline
 70
8
 71
3
 72
8
 73
4
 74
0
 40
0
 40
0
 40
0
 40
0
 40
1
 40
1
 40
1
 40
1
 10
26.314975
 20
13.895469
 30
0.0
 10
26.276001
 20
13.948083
 30
0.0
 10
26.207311
 20
13.996800
 30
0.0
 10
26.108903
 20
14.041619
 30
0.0
  0
LWPOLYLINE
  5
1f2
100
AcDbEntity
  8
0
 62
7
100
AcDbPolyline
 90
2
 70
0
 10
25.870679
 20
12.775960
 30
0.0
 10
25.794681
 20
12.777422
 30
0.0
  0
LWPOLYLINE
  5
1f3
100
AcDbEntity
  8
0
 62
7
100
AcDbPolyline
 90
2
 70
0
 10
26.108903
 20
14.041619
 30
0.0
 10
26.108903
 20
13.177872
 30
0.0
  0
SPLINE
  5
1f4
100
AcDbEntity
  8
0
 62
7
100
AcDbSpline
 70
8
 71
3
 72
8
 73
4
 74
0
 40
0
 40
0
 40
0
 40
0
 40
1
 40
1
 40
1
 40
1
 10
14.234584
 20
13.784791
 30
0.0
 10
14.234584
 20
13.630413
 30
0.0
 10
14.173257
 20
13.482358
 30
0.0
 10
14.064096
 20
13.373196
 30
0.0
  0
SPLINE
  5
1f5
100
AcDbEntity
  8
0
 62
7
100
AcDbSpline
 70
8
 71
3
 72
8
 73
4
 74
0
 40
0
 40
0
 40
0
 40
0
 40
1
 40
1
 40
1
 40
1
 10
14.064096
 20
13.373196
 30
0.0
 10
13.954934
 20
13.264034
 30
0.0
 10
13.806879
 20
13.202708
 30
0.0
 10
13.652501
 20
13.202708
 30
0.0
  0
SPLINE
  5
1f6
100
AcDbEntity
  8
0
 62
7
100
AcDbSpline
 70
8
 71
3
 72
8
 73
4
 74
0
 40
0
 40
0
 40
0
 40
0
 40
1
 40
1
 40
1
 40
1
 10
13.652501
 20
13.202708
 30
0.0
 10
13.498122
 20
13.202708
 30
0.0
 10
13.350067
 20
13.264034
 30
0.0
 10
13.240905
 20
13.373196
 30
0.0
  0
SPLINE
  5
1f7
100
AcDbEntity
  8
0
 62
7
100
AcDbSpline
 70
8
 71
3
 72
8
 73
4
 74
0
 40
0
 40
0
 40
0
 40
0
 40
1
 40
1
 40
1
 40
1
 10
13.240905
 20
13.373196
 30
0.0
 10
13.131744
 20
13.482358
 30
0.0
 10
13.070417
 20
13.630413
 30
0.0
 10
13.070417
 20
13.784791
 30
0.0
  0
SPLINE
  5
1f8
100
AcDbEntity
  8
0
 62
7
100
AcDbSpline
 70
8
 71
3
 72
8
 73
4
 74
0
 40
0
 40
0
 40
0
 40
0
 40
1
 40
1
 40
1
 40
1
 10
13.070417
 20
13.784791
 30
0.0
 10
13.070417
 20
13.939169
 30
0.0
 10
13.131744
 20
14.087224
 30
0.0
 10
13.240905
 20
14.196386
 30
0.0
  0
SPLINE
  5
1f9
100
AcDbEntity
  8
0
 62
7
100
AcDbSpline
 70
8
 71
3
 72
8
 73
4
 74
0
 40
0
 40
0
 40
0
 40
0
 40
1
 40
1
 40
1
 40
1
 10
13.240905
 20
14.196386
 30
0.0
 10
13.350067
 20
14.305548
 30
0.0
 10
13.498122
 20
14.366874
 30
0.0
 10
13.652501
 20
14.366874
 30
0.0
  0
SPLINE
  5
1fa
100
AcDbEntity
  8
0
 62
7
100
AcDbSpline
 70
8
 71
3
 72
8
 73
4
 74
0
 40
0
 40
0
 40
0
 40
0
 40
1
 40
1
 40
1
 40
1
 10
13.652501
 20
14.366874
 30
0.0
 10
13.806879
 20
14.366874
 30
0.0
 10
13.954934
 20
14.305548
 30
0.0
 10
14.064096
 20
14.196386
 30
0.0
  0
SPLINE
  5
1fb
100
AcDbEntity
  8
0
 62
7
100
AcDbSpline
 70
8
 71
3
 72
8
 73
4
 74
0
 40
0
 40
0
 40
0
 40
0
 40
1
 40
1
 40
1
 40
1
 10
14.064096
 20
14.196386
 30
0.0
 10
14.173257
 20
14.087224
 30
0.0
 10
14.234584
 20
13.939169
 30
0.0
 10
14.234584
 20
13.784791
 30
0.0
  0
LWPOLYLINE
  5
1fc
100
AcDbEntity
  8
0
 62
7
100
AcDbPolyline
 90
10
 70
1
 10
27.264950
 20
16.540784
 30
0.0
 10
27.264950
 20
16.149102
 30
0.0
 10
25.850218
 20
15.226895
 30
0.0
 10
27.264950
 20
15.226895
 30
0.0
 10
27.264950
 20
14.817675
 30
0.0
 10
25.115083
 20
14.817675
 30
0.0
 10
25.115083
 20
15.210819
 30
0.0
 10
26.525432
 20
16.131564
 30
0.0
 10
25.115083
 20
16.131564
 30
0.0
 10
25.115083
 20
16.540784
 30
0.0
  0
LWPOLYLINE
  5
1fd
100
AcDbEntity
  8
0
 62
7
100
AcDbPolyline
 90
1
 70
1
 10
14.234584
 20
13.784791
 30
0.0
  0
SPLINE
  5
1fe
100
AcDbEntity
  8
0
 62
7
100
AcDbSpline
 70
8
 71
3
 72
8
 73
4
 74
0
 40
0
 40
0
 40
0
 40
0
 40
1
 40
1
 40
1
 40
1
 10
17.515417
 20
17.541874
 30
0.0
 10
17.462500
 20
17.912291
 30
0.0
 10
17.277292
 20
18.229791
 30
0.0
 10
16.986250
 20
18.467916
 30
0.0
  0
SPLINE
  5
1ff
100
AcDbEntity
  8
0
 62
7
100
AcDbSpline
 70
8
 71
3
 72
8
 73
4
 74
0
 40
0
 40
0
 40
0
 40
0
 40
1
 40
1
 40
1
 40
1
 10
16.986250
 20
18.467916
 30
0.0
 10
16.695208
 20
18.706041
 30
0.0
 10
16.324792
 20
18.811874
 30
0.0
 10
15.954375
 20
18.758958
 30
0.0
  0
SPLINE
  5
200
100
AcDbEntity
  8
0
 62
7
100
AcDbSpline
 70
8
 71
3
 72
8
 73
4
 74
0
 40
0
 40
0
 40
0
 40
0
 40
1
 40
1
 40
1
 40
1
 10
15.954375
 20
18.758958
 30
0.0
 10
15.583958
 20
18.706041
 30
0.0
 10
15.266458
 20
18.520833
 30
0.0
 10
15.028333
 20
18.229791
 30
0.0
  0
SPLINE
  5
201
100
AcDbEntity
  8
0
 62
7
100
AcDbSpline
 70
8
 71
3
 72
8
 73
4
 74
0
 40
0
 40
0
 40
0
 40
0
 40
1
 40
1
 40
1
 40
1
 10
15.028333
 20
18.229791
 30
0.0
 10
14.790208
 20
17.938749
 30
0.0
 10
14.710833
 20
17.568333
 30
0.0
 10
14.737292
 20
17.171458
 30
0.0
  0
LWPOLYLINE
  5
202
100
AcDbEntity
  8
0
 62
7
100
AcDbPolyline
 90
4
 70
0
 10
17.938750
 20
15.107708
 30
0.0
 10
17.938750
 20
15.107708
 30
0.0
 10
17.938750
 20
15.107708
 30
0.0
 10
17.515417
 20
17.541874
 30
0.0
  0
SPLINE
  5
203
100
AcDbEntity
  8
0
 62
7
100
AcDbSpline
 70
8
 71
3
 72
8
 73
4
 74
0
 40
0
 40
0
 40
0
 40
0
 40
1
 40
1
 40
1
 40
1
 10
8.175625
 20
15.372291
 30
0.0
 10
8.043333
 20
14.102291
 30
0.0
 10
8.440208
 20
12.832291
 30
0.0
 10
9.260417
 20
11.853333
 30
0.0
  0
SPLINE
  5
204
100
AcDbEntity
  8
0
 62
7
100
AcDbSpline
 70
8
 71
3
 72
8
 73
4
 74
0
 40
0
 40
0
 40
0
 40
0
 40
1
 40
1
 40
1
 40
1
 10
9.260417
 20
11.853333
 30
0.0
 10
9.868958
 20
11.112499
 30
0.0
 10
10.662708
 20
10.583333
 30
0.0
 10
11.562292
 20
10.318749
 30
0.0
  0
LWPOLYLINE
  5
205
100
AcDbEntity
  8
0
 62
7
100
AcDbPolyline
 90
4
 70
0
 10
14.737292
 20
17.171458
 30
0.0
 10
14.975417
 20
15.742708
 30
0.0
 10
8.255000
 20
16.589374
 30
0.0
 10
8.175625
 20
15.372291
 30
0.0
  0
SPLINE
  5
206
100
AcDbEntity
  8
0
 62
7
100
AcDbSpline
 70
8
 71
3
 72
8
 73
4
 74
0
 40
0
 40
0
 40
0
 40
0
 40
1
 40
1
 40
1
 40
1
 10
2.513542
 20
10.953749
 30
0.0
 10
2.592917
 20
11.112499
 30
0.0
 10
2.645833
 20
11.297708
 30
0.0
 10
2.645833
 20
11.509374
 30
0.0
  0
SPLINE
  5
207
100
AcDbEntity
  8
0
 62
7
100
AcDbSpline
 70
8
 71
3
 72
8
 73
4
 74
0
 40
0
 40
0
 40
0
 40
0
 40
1
 40
1
 40
1
 40
1
 10
2.645833
 20
11.509374
 30
0.0
 10
2.645833
 20
12.223749
 30
0.0
 10
2.063750
 20
12.832291
 30
0.0
 10
1.322917
 20
12.832291
 30
0.0
  0
SPLINE
  5
208
100
AcDbEntity
  8
0
 62
7
100
AcDbSpline
 70
8
 71
3
 72
8
 73
4
 74
0
 40
0
 40
0
 40
0
 40
0
 40
1
 40
1
 40
1
 40
1
 10
1.322917
 20
12.832291
 30
0.0
 10
0.582083
 20
12.832291
 30
0.0
 10
0.000000
 20
12.250208
 30
0.0
 10
0.000000
 20
11.509374
 30
0.0
  0
SPLINE
  5
209
100
AcDbEntity
  8
0
 62
7
100
AcDbSpline
 70
8
 71
3
 72
8
 73
4
 74
0
 40
0
 40
0
 40
0
 40
0
 40
1
 40
1
 40
1
 40
1
 10
0.000000
 20
11.509374
 30
0.0
 10
0.000000
 20
10.768541
 30
0.0
 10
0.582083
 20
10.186458
 30
0.0
 10
1.322917
 20
10.186458
 30
0.0
  0
SPLINE
  5
20a
100
AcDbEntity
  8
0
 62
7
100
AcDbSpline
 70
8
 71
3
 72
8
 73
4
 74
0
 40
0
 40
0
 40
0
 40
0
 40
1
 40
1
 40
1
 40
1
 10
1.322917
 20
10.186458
 30
0.0
 10
1.561042
 20
10.186458
 30
0.0
 10
1.799167
 20
10.265833
 30
0.0
 10
1.984375
 20
10.371666
 30
0.0
  0
LWPOLYLINE
  5
20b
100
AcDbEntity
  8
0
 62
7
100
AcDbPolyline
 90
4
 70
0
 10
11.562292
 20
10.318749
 30
0.0
 10
11.694583
 20
9.498541
 30
0.0
 10
4.101042
 20
9.498541
 30
0.0
 10
2.513542
 20
10.953749
 30
0.0
  0
SPLINE
  5
20c
100
AcDbEntity
  8
0
 62
7
100
AcDbSpline
 70
8
 71
3
 72
8
 73
4
 74
0
 40
0
 40
0
 40
0
 40
0
 40
1
 40
1
 40
1
 40
1
 10
15.531042
 20
17.303749
 30
0.0
 10
15.504583
 20
17.462499
 30
0.0
 10
15.557500
 20
17.621249
 30
0.0
 10
15.663333
 20
17.753541
 30
0.0
  0
SPLINE
  5
20d
100
AcDbEntity
  8
0
 62
7
100
AcDbSpline
 70
8
 71
3
 72
8
 73
4
 74
0
 40
0
 40
0
 40
0
 40
0
 40
1
 40
1
 40
1
 40
1
 10
15.663333
 20
17.753541
 30
0.0
 10
15.769167
 20
17.885833
 30
0.0
 10
15.901458
 20
17.965208
 30
0.0
 10
16.060208
 20
17.991666
 30
0.0
  0
SPLINE
  5
20e
100
AcDbEntity
  8
0
 62
7
100
AcDbSpline
 70
8
 71
3
 72
8
 73
4
 74
0
 40
0
 40
0
 40
0
 40
0
 40
1
 40
1
 40
1
 40
1
 10
16.060208
 20
17.991666
 30
0.0
 10
16.218958
 20
18.018124
 30
0.0
 10
16.377708
 20
17.965208
 30
0.0
 10
16.510000
 20
17.859374
 30
0.0
  0
SPLINE
  5
20f
100
AcDbEntity
  8
0
 62
7
100
AcDbSpline
 70
8
 71
3
 72
8
 73
4
 74
0
 40
0
 40
0
 40
0
 40
0
 40
1
 40
1
 40
1
 40
1
 10
16.510000
 20
17.859374
 30
0.0
 10
16.642292
 20
17.753541
 30
0.0
 10
16.721667
 20
17.621249
 30
0.0
 10
16.748125
 20
17.436041
 30
0.0
  0
LWPOLYLINE
  5
210
100
AcDbEntity
  8
0
 62
7
100
AcDbPolyline
 90
17
 70
0
 10
1.984375
 20
10.371666
 30
0.0
 10
3.492500
 20
8.995833
 30
0.0
 10
4.921250
 20
0.079374
 30
0.0
 10
7.831667
 20
0.079374
 30
0.0
 10
7.064375
 20
4.974166
 30
0.0
 10
8.255000
 20
4.974166
 30
0.0
 10
9.075208
 20
0.026458
 30
0.0
 10
12.065000
 20
0.026458
 30
0.0
 10
11.271250
 20
4.974166
 30
0.0
 10
12.488333
 20
4.974166
 30
0.0
 10
13.308542
 20
-0.000001
 30
0.0
 10
16.298333
 20
-0.000001
 30
0.0
 10
15.451667
 20
4.841874
 30
0.0
 10
16.642292
 20
4.841874
 30
0.0
 10
17.409583
 20
0.026458
 30
0.0
 10
20.478750
 20
0.026458
 30
0.0
 10
17.938750
 20
15.107708
 30
0.0
  0
LWPOLYLINE
  5
211
100
AcDbEntity
  8
0
 62
7
100
AcDbPolyline
 90
4
 70
0
 10
16.748125
 20
17.436041
 30
0.0
 10
17.092083
 20
15.504583
 30
0.0
 10
15.848542
 20
15.663333
 30
0.0
 10
15.531042
 20
17.303749
 30
0.0
  0
SPLINE
  5
212
100
AcDbEntity
  8
0
 62
7
100
AcDbSpline
 70
8
 71
3
 72
8
 73
4
 74
0
 40
0
 40
0
 40
0
 40
0
 40
1
 40
1
 40
1
 40
1
 10
10.530417
 20
15.531041
 30
0.0
 10
10.477500
 20
15.213541
 30
0.0
 10
10.318750
 20
14.922499
 30
0.0
 10
10.054167
 20
14.710833
 30
0.0
  0
SPLINE
  5
213
100
AcDbEntity
  8
0
 62
7
100
AcDbSpline
 70
8
 71
3
 72
8
 73
4
 74
0
 40
0
 40
0
 40
0
 40
0
 40
1
 40
1
 40
1
 40
1
 10
10.054167
 20
14.710833
 30
0.0
 10
9.763125
 20
14.499166
 30
0.0
 10
9.419167
 20
14.393333
 30
0.0
 10
9.075208
 20
14.446249
 30
0.0
  0
SPLINE
  5
214
100
AcDbEntity
  8
0
 62
7
100
AcDbSpline
 70
8
 71
3
 72
8
 73
4
 74
0
 40
0
 40
0
 40
0
 40
0
 40
1
 40
1
 40
1
 40
1
 10
9.075208
 20
14.446249
 30
0.0
 10
9.048750
 20
14.446249
 30
0.0
 10
8.995833
 20
14.446249
 30
0.0
 10
8.969375
 20
14.446249
 30
0.0
  0
SPLINE
  5
215
100
AcDbEntity
  8
0
 62
7
100
AcDbSpline
 70
8
 71
3
 72
8
 73
4
 74
0
 40
0
 40
0
 40
0
 40
0
 40
1
 40
1
 40
1
 40
1
 10
8.969375
 20
14.446249
 30
0.0
 10
8.942917
 20
14.710833
 30
0.0
 10
8.916458
 20
15.001874
 30
0.0
 10
8.942917
 20
15.292916
 30
0.0
  0
LWPOLYLINE
  5
216
100
AcDbEntity
  8
0
 62
7
100
AcDbPolyline
 90
3
 70
0
 10
8.942917
 20
15.292916
 30
0.0
 10
8.969375
 20
15.716249
 30
0.0
 10
10.530417
 20
15.531041
 30
0.0
  0
SPLINE
  5
217
100
AcDbEntity
  8
0
 62
7
100
AcDbSpline
 70
8
 71
3
 72
8
 73
4
 74
0
 40
0
 40
0
 40
0
 40
0
 40
1
 40
1
 40
1
 40
1
 10
1.349375
 20
10.980208
 30
0.0
 10
1.058333
 20
10.980208
 30
0.0
 10
0.820208
 20
11.218333
 30
0.0
 10
0.820208
 20
11.509374
 30
0.0
  0
SPLINE
  5
218
100
AcDbEntity
  8
0
 62
7
100
AcDbSpline
 70
8
 71
3
 72
8
 73
4
 74
0
 40
0
 40
0
 40
0
 40
0
 40
1
 40
1
 40
1
 40
1
 10
0.820208
 20
11.509374
 30
0.0
 10
0.820208
 20
11.800416
 30
0.0
 10
1.058333
 20
12.038541
 30
0.0
 10
1.349375
 20
12.038541
 30
0.0
  0
SPLINE
  5
219
100
AcDbEntity
  8
0
 62
7
100
AcDbSpline
 70
8
 71
3
 72
8
 73
4
 74
0
 40
0
 40
0
 40
0
 40
0
 40
1
 40
1
 40
1
 40
1
 10
1.349375
 20
12.038541
 30
0.0
 10
1.640417
 20
12.038541
 30
0.0
 10
1.878542
 20
11.800416
 30
0.0
 10
1.878542
 20
11.509374
 30
0.0
  0
SPLINE
  5
21a
100
AcDbEntity
  8
0
 62
7
100
AcDbSpline
 70
8
 71
3
 72
8
 73
4
 74
0
 40
0
 40
0
 40
0
 40
0
 40
1
 40
1
 40
1
 40
1
 10
1.878542
 20
11.509374
 30
0.0
 10
1.878542
 20
11.218333
 30
0.0
 10
1.640417
 20
10.980208
 30
0.0
 10
1.349375
 20
10.980208
 30
0.0
  0
LWPOLYLINE
  5
21b
100
AcDbEntity
  8
0
 62
7
100
AcDbPolyline
 90
1
 70
1
 10
8.942917
 20
15.292916
 30
0.0
  0
LWPOLYLINE
  5
21c
100
AcDbEntity
  8
0
 62
7
100
AcDbPolyline
 90
1
 70
1
 10
1.349375
 20
10.980208
 30
0.0
  0
LWPOLYLINE
  5
21d
100
AcDbEntity
  8
0
 62
7
100
AcDbPolyline
 90
4
 70
1
 10
11.112500
 20
0.793749
 30
0.0
 10
9.736667
 20
0.793749
 30
0.0
 10
9.048750
 20
4.947708
 30
0.0
 10
10.424583
 20
4.947708
 30
0.0
  0
SPLINE
  5
21e
100
AcDbEntity
  8
0
 62
7
100
AcDbSpline
 70
8
 71
3
 72
8
 73
4
 74
0
 40
0
 40
0
 40
0
 40
0
 40
1
 40
1
 40
1
 40
1
 10
4.365625
 20
8.651874
 30
0.0
 10
4.392083
 20
8.651874
 30
0.0
 10
4.392083
 20
8.678333
 30
0.0
 10
4.418542
 20
8.678333
 30
0.0
  0
LWPOLYLINE
  5
21f
100
AcDbEntity
  8
0
 62
7
100
AcDbPolyline
 90
4
 70
0
 10
6.138333
 20
5.741458
 30
0.0
 10
6.905625
 20
0.846666
 30
0.0
 10
5.609167
 20
0.846666
 30
0.0
 10
4.365625
 20
8.651874
 30
0.0
  0
LWPOLYLINE
  5
220
100
AcDbEntity
  8
0
 62
7
100
AcDbPolyline
 90
6
 70
0
 10
4.418542
 20
8.678333
 30
0.0
 10
4.418542
 20
8.678333
 30
0.0
 10
11.853333
 20
8.678333
 30
0.0
 10
12.356042
 20
5.714999
 30
0.0
 10
6.138333
 20
5.714999
 30
0.0
 10
6.138333
 20
5.741458
 30
0.0
  0
SPLINE
  5
221
100
AcDbEntity
  8
0
 62
7
100
AcDbSpline
 70
8
 71
3
 72
8
 73
4
 74
0
 40
0
 40
0
 40
0
 40
0
 40
1
 40
1
 40
1
 40
1
 10
12.382500
 20
10.133541
 30
0.0
 10
12.435417
 20
10.133541
 30
0.0
 10
12.461875
 20
10.107083
 30
0.0
 10
12.514792
 20
10.107083
 30
0.0
  0
SPLINE
  5
222
100
AcDbEntity
  8
0
 62
7
100
AcDbSpline
 70
8
 71
3
 72
8
 73
4
 74
0
 40
0
 40
0
 40
0
 40
0
 40
1
 40
1
 40
1
 40
1
 10
12.514792
 20
10.107083
 30
0.0
 10
12.567708
 20
10.107083
 30
0.0
 10
12.594167
 20
10.107083
 30
0.0
 10
12.647083
 20
10.107083
 30
0.0
  0
SPLINE
  5
223
100
AcDbEntity
  8
0
 62
7
100
AcDbSpline
 70
8
 71
3
 72
8
 73
4
 74
0
 40
0
 40
0
 40
0
 40
0
 40
1
 40
1
 40
1
 40
1
 10
12.647083
 20
10.107083
 30
0.0
 10
13.652500
 20
10.107083
 30
0.0
 10
15.425208
 20
10.689166
 30
0.0
 10
15.610417
 20
12.911666
 30
0.0
  0
SPLINE
  5
224
100
AcDbEntity
  8
0
 62
7
100
AcDbSpline
 70
8
 71
3
 72
8
 73
4
 74
0
 40
0
 40
0
 40
0
 40
0
 40
1
 40
1
 40
1
 40
1
 10
15.610417
 20
12.911666
 30
0.0
 10
15.636875
 20
13.123333
 30
0.0
 10
15.478125
 20
13.334999
 30
0.0
 10
15.240000
 20
13.334999
 30
0.0
  0
SPLINE
  5
225
100
AcDbEntity
  8
0
 62
7
100
AcDbSpline
 70
8
 71
3
 72
8
 73
4
 74
0
 40
0
 40
0
 40
0
 40
0
 40
1
 40
1
 40
1
 40
1
 10
15.240000
 20
13.334999
 30
0.0
 10
15.028333
 20
13.361458
 30
0.0
 10
14.816667
 20
13.202708
 30
0.0
 10
14.816667
 20
12.964583
 30
0.0
  0
SPLINE
  5
226
100
AcDbEntity
  8
0
 62
7
100
AcDbSpline
 70
8
 71
3
 72
8
 73
4
 74
0
 40
0
 40
0
 40
0
 40
0
 40
1
 40
1
 40
1
 40
1
 10
14.816667
 20
12.964583
 30
0.0
 10
14.631458
 20
10.847916
 30
0.0
 10
12.779375
 20
10.874374
 30
0.0
 10
12.567708
 20
10.874374
 30
0.0
  0
SPLINE
  5
227
100
AcDbEntity
  8
0
 62
7
100
AcDbSpline
 70
8
 71
3
 72
8
 73
4
 74
0
 40
0
 40
0
 40
0
 40
0
 40
1
 40
1
 40
1
 40
1
 10
12.567708
 20
10.874374
 30
0.0
 10
11.509375
 20
10.980208
 30
0.0
 10
10.530417
 20
11.482916
 30
0.0
 10
9.842500
 20
12.303124
 30
0.0
  0
SPLINE
  5
228
100
AcDbEntity
  8
0
 62
7
100
AcDbSpline
 70
8
 71
3
 72
8
 73
4
 74
0
 40
0
 40
0
 40
0
 40
0
 40
1
 40
1
 40
1
 40
1
 10
9.842500
 20
12.303124
 30
0.0
 10
9.525000
 20
12.699999
 30
0.0
 10
9.286875
 20
13.123333
 30
0.0
 10
9.128125
 20
13.599583
 30
0.0
  0
SPLINE
  5
229
100
AcDbEntity
  8
0
 62
7
100
AcDbSpline
 70
8
 71
3
 72
8
 73
4
 74
0
 40
0
 40
0
 40
0
 40
0
 40
1
 40
1
 40
1
 40
1
 10
9.128125
 20
13.599583
 30
0.0
 10
9.154583
 20
13.599583
 30
0.0
 10
9.207500
 20
13.599583
 30
0.0
 10
9.233958
 20
13.599583
 30
0.0
  0
SPLINE
  5
22a
100
AcDbEntity
  8
0
 62
7
100
AcDbSpline
 70
8
 71
3
 72
8
 73
4
 74
0
 40
0
 40
0
 40
0
 40
0
 40
1
 40
1
 40
1
 40
1
 10
9.233958
 20
13.599583
 30
0.0
 10
9.710208
 20
13.599583
 30
0.0
 10
10.160000
 20
13.758333
 30
0.0
 10
10.530417
 20
14.049374
 30
0.0
  0
SPLINE
  5
22b
100
AcDbEntity
  8
0
 62
7
100
AcDbSpline
 70
8
 71
3
 72
8
 73
4
 74
0
 40
0
 40
0
 40
0
 40
0
 40
1
 40
1
 40
1
 40
1
 10
10.530417
 20
14.049374
 30
0.0
 10
10.953750
 20
14.393333
 30
0.0
 10
11.218333
 20
14.843124
 30
0.0
 10
11.324167
 20
15.372291
 30
0.0
  0
LWPOLYLINE
  5
22c
100
AcDbEntity
  8
0
 62
7
100
AcDbPolyline
 90
5
 70
0
 10
17.303750
 20
5.635624
 30
0.0
 10
14.499167
 20
5.635624
 30
0.0
 10
15.345833
 20
0.767291
 30
0.0
 10
13.970000
 20
0.767291
 30
0.0
 10
12.382500
 20
10.133541
 30
0.0
  0
LWPOLYLINE
  5
22d
100
AcDbEntity
  8
0
 62
7
100
AcDbPolyline
 90
5
 70
0
 10
11.324167
 20
15.372291
 30
0.0
 10
17.197917
 20
14.631458
 30
0.0
 10
19.526250
 20
0.767291
 30
0.0
 10
18.071042
 20
0.767291
 30
0.0
 10
17.303750
 20
5.635624
 30
0.0
  0
ENDSEC
  0
SECTION
  2
OBJECTS
  0
DICTIONARY
  5
C
330
0
100
AcDbDictionary
  3
ACAD_GROUP
350
D
  3
ACAD_MLINESTYLE
350
17
  0
DICTIONARY
  5
D
330
C
100
AcDbDictionary
  0
DICTIONARY
  5
1A
330
C
100
AcDbDictionary
  0
DICTIONARY
  5
17
330
C
100
AcDbDictionary
  3
STANDARD
350
18
  0
DICTIONARY
  5
19
330
C
100
AcDbDictionary
  0
ENDSEC
  0
EOF
