G04 #@! TF.FileFunction,Soldermask,Top*
%FSLAX46Y46*%
G04 Gerber Fmt 4.6, Leading zero omitted, Abs format (unit mm)*
G04 Created by KiCad (PCBNEW 4.0.5+dfsg1-4) date Sat Sep  8 02:59:27 2018*
%MOMM*%
%LPD*%
G01*
G04 APERTURE LIST*
%ADD10C,0.100000*%
%ADD11O,1.910000X3.410000*%
%ADD12R,3.900000X3.900000*%
%ADD13R,2.100000X2.400000*%
%ADD14R,4.200000X2.400000*%
%ADD15R,1.900000X2.400000*%
%ADD16R,2.350000X1.000000*%
%ADD17R,1.400000X2.100000*%
%ADD18R,2.000000X1.400000*%
%ADD19R,1.670000X1.370000*%
%ADD20R,1.400000X2.000000*%
%ADD21R,1.400000X1.900000*%
%ADD22R,2.400000X2.100000*%
%ADD23R,2.279600X2.279600*%
%ADD24C,2.279600*%
%ADD25C,5.480000*%
%ADD26R,2.127200X2.432000*%
%ADD27O,2.127200X2.432000*%
G04 APERTURE END LIST*
D10*
D11*
X145400000Y-77800000D03*
X147940000Y-77800000D03*
D12*
X119380000Y-84010500D03*
X119380000Y-78010500D03*
X114680000Y-81010500D03*
D13*
X156400000Y-86000000D03*
X156400000Y-90000000D03*
X161200000Y-85800000D03*
X161200000Y-89800000D03*
D14*
X136525000Y-85573000D03*
D15*
X136525000Y-79273000D03*
X134225000Y-79273000D03*
X138825000Y-79273000D03*
D16*
X133900000Y-104315000D03*
X133900000Y-103045000D03*
X133900000Y-101775000D03*
X133900000Y-100505000D03*
X133900000Y-99235000D03*
X133900000Y-97965000D03*
X133900000Y-96695000D03*
X133900000Y-95425000D03*
X133900000Y-94155000D03*
X133900000Y-92885000D03*
X124500000Y-92885000D03*
X124500000Y-94155000D03*
X124500000Y-95425000D03*
X124500000Y-96695000D03*
X124500000Y-97965000D03*
X124500000Y-99235000D03*
X124500000Y-100505000D03*
X124500000Y-101775000D03*
X124500000Y-103045000D03*
X124500000Y-104315000D03*
D17*
X152100000Y-101850000D03*
X152100000Y-108150000D03*
X148300000Y-101850000D03*
X148300000Y-108150000D03*
X152100000Y-89650000D03*
X152100000Y-95950000D03*
X148300000Y-89650000D03*
X148300000Y-95950000D03*
D18*
X117411500Y-117832000D03*
X117411500Y-114832000D03*
X142621000Y-117832000D03*
X142621000Y-114832000D03*
X137604500Y-117832000D03*
X137604500Y-114832000D03*
X132588000Y-117832000D03*
X132588000Y-114832000D03*
X127571500Y-117832000D03*
X127571500Y-114832000D03*
X122618500Y-117832000D03*
X122618500Y-114832000D03*
D19*
X115800000Y-95270000D03*
X115800000Y-94000000D03*
X115800000Y-92730000D03*
X115800000Y-103470000D03*
X115800000Y-102200000D03*
X115800000Y-100930000D03*
D20*
X124500000Y-107000000D03*
X121500000Y-107000000D03*
X131900000Y-107000000D03*
X134900000Y-107000000D03*
D18*
X137400000Y-105300000D03*
X137400000Y-108300000D03*
D20*
X129500000Y-107000000D03*
X126500000Y-107000000D03*
D18*
X130238500Y-79272000D03*
X130238500Y-82272000D03*
X142684500Y-87606000D03*
X142684500Y-84606000D03*
X137400000Y-103100000D03*
X137400000Y-100100000D03*
X165989000Y-86701500D03*
X165989000Y-89701500D03*
X130238500Y-87796500D03*
X130238500Y-84796500D03*
D21*
X172798060Y-105000000D03*
X170799080Y-105000000D03*
X160801640Y-105000000D03*
X160801640Y-92800000D03*
X162800620Y-92800000D03*
X168797560Y-92800000D03*
X166801120Y-92800000D03*
X170799080Y-92800000D03*
X164802140Y-92800000D03*
X168797560Y-105000000D03*
X162800620Y-105000000D03*
X166801120Y-105000000D03*
X164802140Y-105000000D03*
X172798060Y-92800000D03*
D22*
X151923500Y-110871000D03*
X147923500Y-110871000D03*
D23*
X108019860Y-103539740D03*
D24*
X108019860Y-100768600D03*
X108019860Y-98000000D03*
X108019860Y-95231400D03*
X108019860Y-92460260D03*
X105180140Y-102147820D03*
X105180140Y-99379220D03*
X105180140Y-96620780D03*
X105180140Y-93852180D03*
D25*
X106600000Y-110499340D03*
X106600000Y-85500660D03*
D26*
X154051000Y-80073500D03*
D27*
X156591000Y-80073500D03*
X159131000Y-80073500D03*
X161671000Y-80073500D03*
M02*
