G04 #@! TF.FileFunction,Profile,NP*
%FSLAX46Y46*%
G04 Gerber Fmt 4.6, Leading zero omitted, Abs format (unit mm)*
G04 Created by KiCad (PCBNEW 4.0.5+dfsg1-4) date Sat Sep  8 02:59:27 2018*
%MOMM*%
%LPD*%
G01*
G04 APERTURE LIST*
%ADD10C,0.100000*%
G04 APERTURE END LIST*
D10*
X173780300Y-73876859D02*
X174530700Y-74104474D01*
X174530700Y-74104474D02*
X175222300Y-74474118D01*
X175222300Y-74474118D02*
X175828400Y-74971570D01*
X175828400Y-74971570D02*
X176325900Y-75577710D01*
X176325900Y-75577710D02*
X176695500Y-76269250D01*
X176695500Y-76269250D02*
X176923100Y-77019640D01*
X176923100Y-77019640D02*
X177000000Y-77800000D01*
X177000000Y-77800000D02*
X177000000Y-118800000D01*
X177000000Y-118800000D02*
X176923100Y-119580300D01*
X176923100Y-119580300D02*
X176695500Y-120330700D01*
X176695500Y-120330700D02*
X176325900Y-121022300D01*
X176325900Y-121022300D02*
X175828400Y-121628400D01*
X175828400Y-121628400D02*
X175222300Y-122125900D01*
X175222300Y-122125900D02*
X174530700Y-122495500D01*
X174530700Y-122495500D02*
X173780300Y-122723100D01*
X173780300Y-122723100D02*
X173000000Y-122800000D01*
X173000000Y-122800000D02*
X101000000Y-122800000D01*
X101000000Y-122800000D02*
X100219640Y-122723100D01*
X100219640Y-122723100D02*
X99469250Y-122495500D01*
X99469250Y-122495500D02*
X98777710Y-122125900D01*
X98777710Y-122125900D02*
X98171570Y-121628400D01*
X98171570Y-121628400D02*
X97674118Y-121022300D01*
X97674118Y-121022300D02*
X97304474Y-120330700D01*
X97304474Y-120330700D02*
X97076859Y-119580300D01*
X97076859Y-119580300D02*
X97000000Y-118800000D01*
X97000000Y-118800000D02*
X97000000Y-77800000D01*
X97000000Y-77800000D02*
X97076859Y-77019640D01*
X97076859Y-77019640D02*
X97304474Y-76269250D01*
X97304474Y-76269250D02*
X97674118Y-75577710D01*
X97674118Y-75577710D02*
X98171570Y-74971570D01*
X98171570Y-74971570D02*
X98777710Y-74474118D01*
X98777710Y-74474118D02*
X99469250Y-74104474D01*
X99469250Y-74104474D02*
X100219640Y-73876859D01*
X100219640Y-73876859D02*
X100999980Y-73800000D01*
X100999980Y-73800000D02*
X173000000Y-73800000D01*
X173000000Y-73800000D02*
X173780300Y-73876859D01*
X100687850Y-117230700D02*
X100387700Y-117321800D01*
X100387700Y-117321800D02*
X100111080Y-117469600D01*
X100111080Y-117469600D02*
X99868620Y-117668600D01*
X99868620Y-117668600D02*
X99669650Y-117911100D01*
X99669650Y-117911100D02*
X99521790Y-118187700D01*
X99521790Y-118187700D02*
X99430740Y-118487900D01*
X99430740Y-118487900D02*
X99399990Y-118800000D01*
X99399990Y-118800000D02*
X99430740Y-119112100D01*
X99430740Y-119112100D02*
X99521790Y-119412300D01*
X99521790Y-119412300D02*
X99669650Y-119688900D01*
X99669650Y-119688900D02*
X99868620Y-119931400D01*
X99868620Y-119931400D02*
X100111080Y-120130300D01*
X100111080Y-120130300D02*
X100387700Y-120278200D01*
X100387700Y-120278200D02*
X100687850Y-120369200D01*
X100687850Y-120369200D02*
X101000000Y-120400000D01*
X101000000Y-120400000D02*
X101312130Y-120369200D01*
X101312130Y-120369200D02*
X101612290Y-120278200D01*
X101612290Y-120278200D02*
X101888900Y-120130300D01*
X101888900Y-120130300D02*
X102131360Y-119931400D01*
X102131360Y-119931400D02*
X102330340Y-119688900D01*
X102330340Y-119688900D02*
X102478200Y-119412300D01*
X102478200Y-119412300D02*
X102569240Y-119112100D01*
X102569240Y-119112100D02*
X102599990Y-118800000D01*
X102599990Y-118800000D02*
X102569240Y-118487900D01*
X102569240Y-118487900D02*
X102478200Y-118187700D01*
X102478200Y-118187700D02*
X102330340Y-117911100D01*
X102330340Y-117911100D02*
X102131360Y-117668600D01*
X102131360Y-117668600D02*
X101888900Y-117469600D01*
X101888900Y-117469600D02*
X101612290Y-117321800D01*
X101612290Y-117321800D02*
X101312130Y-117230700D01*
X101312130Y-117230700D02*
X100999980Y-117200000D01*
X100999980Y-117200000D02*
X100687850Y-117230700D01*
X172687900Y-117230700D02*
X172387700Y-117321800D01*
X172387700Y-117321800D02*
X172111100Y-117469600D01*
X172111100Y-117469600D02*
X171868600Y-117668600D01*
X171868600Y-117668600D02*
X171669600Y-117911100D01*
X171669600Y-117911100D02*
X171521800Y-118187700D01*
X171521800Y-118187700D02*
X171430700Y-118487900D01*
X171430700Y-118487900D02*
X171400000Y-118800000D01*
X171400000Y-118800000D02*
X171430700Y-119112100D01*
X171430700Y-119112100D02*
X171521800Y-119412300D01*
X171521800Y-119412300D02*
X171669600Y-119688900D01*
X171669600Y-119688900D02*
X171868600Y-119931400D01*
X171868600Y-119931400D02*
X172111100Y-120130300D01*
X172111100Y-120130300D02*
X172387700Y-120278200D01*
X172387700Y-120278200D02*
X172687900Y-120369200D01*
X172687900Y-120369200D02*
X173000000Y-120400000D01*
X173000000Y-120400000D02*
X173312100Y-120369200D01*
X173312100Y-120369200D02*
X173612300Y-120278200D01*
X173612300Y-120278200D02*
X173888900Y-120130300D01*
X173888900Y-120130300D02*
X174131400Y-119931400D01*
X174131400Y-119931400D02*
X174330300Y-119688900D01*
X174330300Y-119688900D02*
X174478200Y-119412300D01*
X174478200Y-119412300D02*
X174569200Y-119112100D01*
X174569200Y-119112100D02*
X174600000Y-118800000D01*
X174600000Y-118800000D02*
X174569200Y-118487900D01*
X174569200Y-118487900D02*
X174478200Y-118187700D01*
X174478200Y-118187700D02*
X174330300Y-117911100D01*
X174330300Y-117911100D02*
X174131400Y-117668600D01*
X174131400Y-117668600D02*
X173888900Y-117469600D01*
X173888900Y-117469600D02*
X173612300Y-117321800D01*
X173612300Y-117321800D02*
X173312100Y-117230700D01*
X173312100Y-117230700D02*
X173000000Y-117200000D01*
X173000000Y-117200000D02*
X172687900Y-117230700D01*
X100687850Y-76230740D02*
X100387700Y-76321790D01*
X100387700Y-76321790D02*
X100111080Y-76469650D01*
X100111080Y-76469650D02*
X99868620Y-76668620D01*
X99868620Y-76668620D02*
X99669650Y-76911080D01*
X99669650Y-76911080D02*
X99521790Y-77187700D01*
X99521790Y-77187700D02*
X99430740Y-77487850D01*
X99430740Y-77487850D02*
X99399990Y-77800000D01*
X99399990Y-77800000D02*
X99430740Y-78112130D01*
X99430740Y-78112130D02*
X99521790Y-78412290D01*
X99521790Y-78412290D02*
X99669650Y-78688900D01*
X99669650Y-78688900D02*
X99868620Y-78931360D01*
X99868620Y-78931360D02*
X100111080Y-79130340D01*
X100111080Y-79130340D02*
X100387700Y-79278200D01*
X100387700Y-79278200D02*
X100687850Y-79369240D01*
X100687850Y-79369240D02*
X101000000Y-79399990D01*
X101000000Y-79399990D02*
X101312130Y-79369240D01*
X101312130Y-79369240D02*
X101612290Y-79278200D01*
X101612290Y-79278200D02*
X101888900Y-79130340D01*
X101888900Y-79130340D02*
X102131360Y-78931360D01*
X102131360Y-78931360D02*
X102330340Y-78688900D01*
X102330340Y-78688900D02*
X102478200Y-78412290D01*
X102478200Y-78412290D02*
X102569240Y-78112130D01*
X102569240Y-78112130D02*
X102599990Y-77800000D01*
X102599990Y-77800000D02*
X102569240Y-77487850D01*
X102569240Y-77487850D02*
X102478200Y-77187700D01*
X102478200Y-77187700D02*
X102330340Y-76911080D01*
X102330340Y-76911080D02*
X102131360Y-76668620D01*
X102131360Y-76668620D02*
X101888900Y-76469650D01*
X101888900Y-76469650D02*
X101612290Y-76321790D01*
X101612290Y-76321790D02*
X101312130Y-76230740D01*
X101312130Y-76230740D02*
X100999980Y-76199990D01*
X100999980Y-76199990D02*
X100687850Y-76230740D01*
X172687900Y-76230740D02*
X172387700Y-76321790D01*
X172387700Y-76321790D02*
X172111100Y-76469650D01*
X172111100Y-76469650D02*
X171868600Y-76668620D01*
X171868600Y-76668620D02*
X171669600Y-76911080D01*
X171669600Y-76911080D02*
X171521800Y-77187700D01*
X171521800Y-77187700D02*
X171430700Y-77487850D01*
X171430700Y-77487850D02*
X171400000Y-77800000D01*
X171400000Y-77800000D02*
X171430700Y-78112130D01*
X171430700Y-78112130D02*
X171521800Y-78412290D01*
X171521800Y-78412290D02*
X171669600Y-78688900D01*
X171669600Y-78688900D02*
X171868600Y-78931360D01*
X171868600Y-78931360D02*
X172111100Y-79130340D01*
X172111100Y-79130340D02*
X172387700Y-79278200D01*
X172387700Y-79278200D02*
X172687900Y-79369240D01*
X172687900Y-79369240D02*
X173000000Y-79399990D01*
X173000000Y-79399990D02*
X173312100Y-79369240D01*
X173312100Y-79369240D02*
X173612300Y-79278200D01*
X173612300Y-79278200D02*
X173888900Y-79130340D01*
X173888900Y-79130340D02*
X174131400Y-78931360D01*
X174131400Y-78931360D02*
X174330300Y-78688900D01*
X174330300Y-78688900D02*
X174478200Y-78412290D01*
X174478200Y-78412290D02*
X174569200Y-78112130D01*
X174569200Y-78112130D02*
X174600000Y-77800000D01*
X174600000Y-77800000D02*
X174569200Y-77487850D01*
X174569200Y-77487850D02*
X174478200Y-77187700D01*
X174478200Y-77187700D02*
X174330300Y-76911080D01*
X174330300Y-76911080D02*
X174131400Y-76668620D01*
X174131400Y-76668620D02*
X173888900Y-76469650D01*
X173888900Y-76469650D02*
X173612300Y-76321790D01*
X173612300Y-76321790D02*
X173312100Y-76230740D01*
X173312100Y-76230740D02*
X173000000Y-76199990D01*
X173000000Y-76199990D02*
X172687900Y-76230740D01*
M02*
