M48
;DRILL file {KiCad 4.0.5+dfsg1-4} date Sat Sep  8 02:59:35 2018
;FORMAT={-:-/ absolute / inch / decimal}
FMAT,2
INCH,TZ
T1C0.016
T2C0.039
T3C0.040
T4C0.130
%
G90
G05
M72
T1
X4.4275Y-3.6525
X4.4488Y-3.8031
X4.4567Y-3.9528
X4.6535Y-3.965
X4.67Y-3.88
X4.7625Y-3.915
X4.8346Y-4.0225
X4.995Y-4.38
X5.0315Y-3.8346
X5.06Y-4.38
X5.1175Y-3.6475
X5.3543Y-4.0236
X5.3875Y-4.4425
X5.4331Y-3.7559
X5.445Y-3.6575
X5.46Y-4.4
X5.5118Y-3.7069
X5.535Y-4.4325
X5.62Y-3.8575
X5.8386Y-3.5984
X5.874Y-4.2677
X6.245Y-3.775
X6.2913Y-4.1339
X6.4475Y-4.04
X6.5088Y-3.5862
X6.54Y-4.0675
X6.5425Y-3.71
X6.725Y-3.7175
T2
X5.7244Y-3.063
X5.8244Y-3.063
T3
X4.141Y-3.695
X4.141Y-3.804
X4.141Y-3.9126
X4.141Y-4.0216
X4.2528Y-3.6402
X4.2528Y-3.7493
X4.2528Y-3.8583
X4.2528Y-3.9673
X4.2528Y-4.0764
X6.065Y-3.1525
X6.165Y-3.1525
X6.265Y-3.1525
X6.365Y-3.1525
T4
X4.1969Y-3.3662
X4.1969Y-4.3504
T2
X4.515Y-3.15G85X4.515Y-3.2288
G05
X4.7394Y-3.0713G85X4.6606Y-3.0713
G05
X4.7394Y-3.3075G85X4.6606Y-3.3075
G05
T0
M30
