G04 #@! TF.FileFunction,Legend,Top*
%FSLAX46Y46*%
G04 Gerber Fmt 4.6, Leading zero omitted, Abs format (unit mm)*
G04 Created by KiCad (PCBNEW 4.0.5+dfsg1-4) date Sat Sep  8 02:59:27 2018*
%MOMM*%
%LPD*%
G01*
G04 APERTURE LIST*
%ADD10C,0.100000*%
%ADD11C,0.300000*%
%ADD12C,0.250000*%
%ADD13C,0.200000*%
%ADD14C,0.120000*%
%ADD15C,0.150000*%
%ADD16C,0.127000*%
%ADD17C,0.010000*%
%ADD18C,0.203200*%
%ADD19C,0.125000*%
%ADD20C,0.101600*%
%ADD21C,0.050800*%
G04 APERTURE END LIST*
D10*
D11*
X154448286Y-82054000D02*
X154305429Y-81982571D01*
X154091143Y-81982571D01*
X153876858Y-82054000D01*
X153734000Y-82196857D01*
X153662572Y-82339714D01*
X153591143Y-82625429D01*
X153591143Y-82839714D01*
X153662572Y-83125429D01*
X153734000Y-83268286D01*
X153876858Y-83411143D01*
X154091143Y-83482571D01*
X154234000Y-83482571D01*
X154448286Y-83411143D01*
X154519715Y-83339714D01*
X154519715Y-82839714D01*
X154234000Y-82839714D01*
X156091143Y-81982571D02*
X156948286Y-81982571D01*
X156519715Y-83482571D02*
X156519715Y-81982571D01*
X159448286Y-83482571D02*
X158948286Y-82768286D01*
X158591143Y-83482571D02*
X158591143Y-81982571D01*
X159162571Y-81982571D01*
X159305429Y-82054000D01*
X159376857Y-82125429D01*
X159448286Y-82268286D01*
X159448286Y-82482571D01*
X159376857Y-82625429D01*
X159305429Y-82696857D01*
X159162571Y-82768286D01*
X158591143Y-82768286D01*
X161019714Y-81982571D02*
X161519714Y-83482571D01*
X162019714Y-81982571D01*
D12*
X151364238Y-118594214D02*
X151263047Y-119403738D01*
X151203523Y-119498976D01*
X151149952Y-119546595D01*
X151048761Y-119594214D01*
X150905904Y-119594214D01*
X150816618Y-119546595D01*
X151286857Y-119213262D02*
X151185666Y-119260881D01*
X150995189Y-119260881D01*
X150905904Y-119213262D01*
X150864237Y-119165643D01*
X150828523Y-119070405D01*
X150864237Y-118784690D01*
X150923761Y-118689452D01*
X150977332Y-118641833D01*
X151078523Y-118594214D01*
X151269000Y-118594214D01*
X151358285Y-118641833D01*
X151757094Y-119260881D02*
X151840428Y-118594214D01*
X151882094Y-118260881D02*
X151828523Y-118308500D01*
X151870190Y-118356119D01*
X151923761Y-118308500D01*
X151882094Y-118260881D01*
X151870190Y-118356119D01*
X152173761Y-118594214D02*
X152554713Y-118594214D01*
X152358284Y-118260881D02*
X152251142Y-119118024D01*
X152286856Y-119213262D01*
X152376141Y-119260881D01*
X152471379Y-119260881D01*
X152804713Y-119260881D02*
X152929713Y-118260881D01*
X153233285Y-119260881D02*
X153298762Y-118737071D01*
X153263047Y-118641833D01*
X153173762Y-118594214D01*
X153030904Y-118594214D01*
X152929713Y-118641833D01*
X152876142Y-118689452D01*
X154221381Y-118594214D02*
X154138047Y-119260881D01*
X153792809Y-118594214D02*
X153727333Y-119118024D01*
X153763047Y-119213262D01*
X153852332Y-119260881D01*
X153995190Y-119260881D01*
X154096381Y-119213262D01*
X154149952Y-119165643D01*
X154614237Y-119260881D02*
X154739237Y-118260881D01*
X154691618Y-118641833D02*
X154792809Y-118594214D01*
X154983286Y-118594214D01*
X155072571Y-118641833D01*
X155114238Y-118689452D01*
X155149952Y-118784690D01*
X155114238Y-119070405D01*
X155054714Y-119165643D01*
X155001143Y-119213262D01*
X154899952Y-119260881D01*
X154709475Y-119260881D01*
X154620190Y-119213262D01*
X155530904Y-119165643D02*
X155572571Y-119213262D01*
X155518999Y-119260881D01*
X155477333Y-119213262D01*
X155530904Y-119165643D01*
X155518999Y-119260881D01*
X156429714Y-119213262D02*
X156328523Y-119260881D01*
X156138046Y-119260881D01*
X156048761Y-119213262D01*
X156007094Y-119165643D01*
X155971380Y-119070405D01*
X156007094Y-118784690D01*
X156066618Y-118689452D01*
X156120189Y-118641833D01*
X156221380Y-118594214D01*
X156411857Y-118594214D01*
X156501142Y-118641833D01*
X156995189Y-119260881D02*
X156905904Y-119213262D01*
X156864237Y-119165643D01*
X156828523Y-119070405D01*
X156864237Y-118784690D01*
X156923761Y-118689452D01*
X156977332Y-118641833D01*
X157078523Y-118594214D01*
X157221381Y-118594214D01*
X157310666Y-118641833D01*
X157352333Y-118689452D01*
X157388047Y-118784690D01*
X157352333Y-119070405D01*
X157292809Y-119165643D01*
X157239238Y-119213262D01*
X157138047Y-119260881D01*
X156995189Y-119260881D01*
X157757094Y-119260881D02*
X157840428Y-118594214D01*
X157828523Y-118689452D02*
X157882094Y-118641833D01*
X157983285Y-118594214D01*
X158126143Y-118594214D01*
X158215428Y-118641833D01*
X158251143Y-118737071D01*
X158185666Y-119260881D01*
X158251143Y-118737071D02*
X158310666Y-118641833D01*
X158411857Y-118594214D01*
X158554714Y-118594214D01*
X158643999Y-118641833D01*
X158679714Y-118737071D01*
X158614237Y-119260881D01*
X159935666Y-118213262D02*
X158917808Y-119498976D01*
X160126142Y-118594214D02*
X160649952Y-118594214D01*
X160042808Y-119260881D01*
X160566618Y-119260881D01*
X161376142Y-119260881D02*
X161441619Y-118737071D01*
X161405904Y-118641833D01*
X161316619Y-118594214D01*
X161126142Y-118594214D01*
X161024951Y-118641833D01*
X161382095Y-119213262D02*
X161280904Y-119260881D01*
X161042808Y-119260881D01*
X160953523Y-119213262D01*
X160917809Y-119118024D01*
X160929713Y-119022786D01*
X160989237Y-118927548D01*
X161090427Y-118879929D01*
X161328523Y-118879929D01*
X161429714Y-118832310D01*
X161852332Y-119260881D02*
X161935666Y-118594214D01*
X161977332Y-118260881D02*
X161923761Y-118308500D01*
X161965428Y-118356119D01*
X162018999Y-118308500D01*
X161977332Y-118260881D01*
X161965428Y-118356119D01*
X162328522Y-119260881D02*
X162453522Y-118260881D01*
X162405903Y-118641833D02*
X162507094Y-118594214D01*
X162697571Y-118594214D01*
X162786856Y-118641833D01*
X162828523Y-118689452D01*
X162864237Y-118784690D01*
X162828523Y-119070405D01*
X162768999Y-119165643D01*
X162715428Y-119213262D01*
X162614237Y-119260881D01*
X162423760Y-119260881D01*
X162334475Y-119213262D01*
X163661856Y-119260881D02*
X163727333Y-118737071D01*
X163691618Y-118641833D01*
X163602333Y-118594214D01*
X163411856Y-118594214D01*
X163310665Y-118641833D01*
X163667809Y-119213262D02*
X163566618Y-119260881D01*
X163328522Y-119260881D01*
X163239237Y-119213262D01*
X163203523Y-119118024D01*
X163215427Y-119022786D01*
X163274951Y-118927548D01*
X163376141Y-118879929D01*
X163614237Y-118879929D01*
X163715428Y-118832310D01*
X164078523Y-118594214D02*
X164459475Y-118594214D01*
X164263046Y-118260881D02*
X164155904Y-119118024D01*
X164191618Y-119213262D01*
X164280903Y-119260881D01*
X164376141Y-119260881D01*
X164667809Y-119213262D02*
X164757094Y-119260881D01*
X164947570Y-119260881D01*
X165048762Y-119213262D01*
X165108286Y-119118024D01*
X165114238Y-119070405D01*
X165078524Y-118975167D01*
X164989237Y-118927548D01*
X164846380Y-118927548D01*
X164757094Y-118879929D01*
X164721380Y-118784690D01*
X164727333Y-118737071D01*
X164786856Y-118641833D01*
X164888047Y-118594214D01*
X165030904Y-118594214D01*
X165120190Y-118641833D01*
X166030905Y-118594214D02*
X165947571Y-119260881D01*
X165602333Y-118594214D02*
X165536857Y-119118024D01*
X165572571Y-119213262D01*
X165661856Y-119260881D01*
X165804714Y-119260881D01*
X165905905Y-119213262D01*
X165959476Y-119165643D01*
X166364238Y-118594214D02*
X166745190Y-118594214D01*
X166548761Y-118260881D02*
X166441619Y-119118024D01*
X166477333Y-119213262D01*
X166566618Y-119260881D01*
X166661856Y-119260881D01*
X167382096Y-119213262D02*
X167280905Y-119260881D01*
X167090428Y-119260881D01*
X167001143Y-119213262D01*
X166965429Y-119118024D01*
X167013048Y-118737071D01*
X167072571Y-118641833D01*
X167173762Y-118594214D01*
X167364239Y-118594214D01*
X167453524Y-118641833D01*
X167489239Y-118737071D01*
X167477334Y-118832310D01*
X166989238Y-118927548D01*
X167995190Y-119260881D02*
X167905905Y-119213262D01*
X167870191Y-119118024D01*
X167977333Y-118260881D01*
X169221382Y-118213262D02*
X168203524Y-119498976D01*
D11*
X103148357Y-78363071D02*
X104005500Y-78363071D01*
X103576929Y-79863071D02*
X103576929Y-78363071D01*
X104505500Y-79863071D02*
X104505500Y-78363071D01*
X105219786Y-79863071D02*
X105219786Y-78363071D01*
X105791214Y-78363071D01*
X105934072Y-78434500D01*
X106005500Y-78505929D01*
X106076929Y-78648786D01*
X106076929Y-78863071D01*
X106005500Y-79005929D01*
X105934072Y-79077357D01*
X105791214Y-79148786D01*
X105219786Y-79148786D01*
X107862643Y-79863071D02*
X107862643Y-78363071D01*
X108434071Y-78363071D01*
X108576929Y-78434500D01*
X108648357Y-78505929D01*
X108719786Y-78648786D01*
X108719786Y-78863071D01*
X108648357Y-79005929D01*
X108576929Y-79077357D01*
X108434071Y-79148786D01*
X107862643Y-79148786D01*
X109648357Y-78363071D02*
X109934071Y-78363071D01*
X110076929Y-78434500D01*
X110219786Y-78577357D01*
X110291214Y-78863071D01*
X110291214Y-79363071D01*
X110219786Y-79648786D01*
X110076929Y-79791643D01*
X109934071Y-79863071D01*
X109648357Y-79863071D01*
X109505500Y-79791643D01*
X109362643Y-79648786D01*
X109291214Y-79363071D01*
X109291214Y-78863071D01*
X109362643Y-78577357D01*
X109505500Y-78434500D01*
X109648357Y-78363071D01*
X110862643Y-79791643D02*
X111076929Y-79863071D01*
X111434072Y-79863071D01*
X111576929Y-79791643D01*
X111648358Y-79720214D01*
X111719786Y-79577357D01*
X111719786Y-79434500D01*
X111648358Y-79291643D01*
X111576929Y-79220214D01*
X111434072Y-79148786D01*
X111148358Y-79077357D01*
X111005500Y-79005929D01*
X110934072Y-78934500D01*
X110862643Y-78791643D01*
X110862643Y-78648786D01*
X110934072Y-78505929D01*
X111005500Y-78434500D01*
X111148358Y-78363071D01*
X111505500Y-78363071D01*
X111719786Y-78434500D01*
D13*
X147400000Y-82200000D02*
X148400000Y-82200000D01*
X144800000Y-82200000D02*
X146000000Y-82200000D01*
X145400000Y-81600000D02*
X145400000Y-82800000D01*
D10*
X114139286Y-95869046D02*
X113389286Y-95869046D01*
X113389286Y-95749999D01*
X113425000Y-95678570D01*
X113496429Y-95630951D01*
X113567857Y-95607142D01*
X113710714Y-95583332D01*
X113817857Y-95583332D01*
X113960714Y-95607142D01*
X114032143Y-95630951D01*
X114103571Y-95678570D01*
X114139286Y-95749999D01*
X114139286Y-95869046D01*
X113389286Y-95440475D02*
X113389286Y-95154761D01*
X114139286Y-95297618D02*
X113389286Y-95297618D01*
X114139286Y-94702380D02*
X113782143Y-94869047D01*
X114139286Y-94988094D02*
X113389286Y-94988094D01*
X113389286Y-94797618D01*
X113425000Y-94749999D01*
X113460714Y-94726190D01*
X113532143Y-94702380D01*
X113639286Y-94702380D01*
X113710714Y-94726190D01*
X113746429Y-94749999D01*
X113782143Y-94797618D01*
X113782143Y-94988094D01*
X114389286Y-93988095D02*
X113317857Y-93988095D01*
X114139286Y-92964286D02*
X113782143Y-93130953D01*
X114139286Y-93250000D02*
X113389286Y-93250000D01*
X113389286Y-93059524D01*
X113425000Y-93011905D01*
X113460714Y-92988096D01*
X113532143Y-92964286D01*
X113639286Y-92964286D01*
X113710714Y-92988096D01*
X113746429Y-93011905D01*
X113782143Y-93059524D01*
X113782143Y-93250000D01*
X113389286Y-92821429D02*
X113389286Y-92535715D01*
X114139286Y-92678572D02*
X113389286Y-92678572D01*
X114103571Y-92392858D02*
X114139286Y-92321429D01*
X114139286Y-92202382D01*
X114103571Y-92154763D01*
X114067857Y-92130953D01*
X113996429Y-92107144D01*
X113925000Y-92107144D01*
X113853571Y-92130953D01*
X113817857Y-92154763D01*
X113782143Y-92202382D01*
X113746429Y-92297620D01*
X113710714Y-92345239D01*
X113675000Y-92369048D01*
X113603571Y-92392858D01*
X113532143Y-92392858D01*
X113460714Y-92369048D01*
X113425000Y-92345239D01*
X113389286Y-92297620D01*
X113389286Y-92178572D01*
X113425000Y-92107144D01*
X114339286Y-104116665D02*
X113589286Y-104116665D01*
X113589286Y-103997618D01*
X113625000Y-103926189D01*
X113696429Y-103878570D01*
X113767857Y-103854761D01*
X113910714Y-103830951D01*
X114017857Y-103830951D01*
X114160714Y-103854761D01*
X114232143Y-103878570D01*
X114303571Y-103926189D01*
X114339286Y-103997618D01*
X114339286Y-104116665D01*
X114303571Y-103640475D02*
X114339286Y-103569046D01*
X114339286Y-103449999D01*
X114303571Y-103402380D01*
X114267857Y-103378570D01*
X114196429Y-103354761D01*
X114125000Y-103354761D01*
X114053571Y-103378570D01*
X114017857Y-103402380D01*
X113982143Y-103449999D01*
X113946429Y-103545237D01*
X113910714Y-103592856D01*
X113875000Y-103616665D01*
X113803571Y-103640475D01*
X113732143Y-103640475D01*
X113660714Y-103616665D01*
X113625000Y-103592856D01*
X113589286Y-103545237D01*
X113589286Y-103426189D01*
X113625000Y-103354761D01*
X114339286Y-102854761D02*
X113982143Y-103021428D01*
X114339286Y-103140475D02*
X113589286Y-103140475D01*
X113589286Y-102949999D01*
X113625000Y-102902380D01*
X113660714Y-102878571D01*
X113732143Y-102854761D01*
X113839286Y-102854761D01*
X113910714Y-102878571D01*
X113946429Y-102902380D01*
X113982143Y-102949999D01*
X113982143Y-103140475D01*
X114589286Y-102140476D02*
X113517857Y-102140476D01*
X114267857Y-101116667D02*
X114303571Y-101140477D01*
X114339286Y-101211905D01*
X114339286Y-101259524D01*
X114303571Y-101330953D01*
X114232143Y-101378572D01*
X114160714Y-101402381D01*
X114017857Y-101426191D01*
X113910714Y-101426191D01*
X113767857Y-101402381D01*
X113696429Y-101378572D01*
X113625000Y-101330953D01*
X113589286Y-101259524D01*
X113589286Y-101211905D01*
X113625000Y-101140477D01*
X113660714Y-101116667D01*
X113589286Y-100973810D02*
X113589286Y-100688096D01*
X114339286Y-100830953D02*
X113589286Y-100830953D01*
X114303571Y-100545239D02*
X114339286Y-100473810D01*
X114339286Y-100354763D01*
X114303571Y-100307144D01*
X114267857Y-100283334D01*
X114196429Y-100259525D01*
X114125000Y-100259525D01*
X114053571Y-100283334D01*
X114017857Y-100307144D01*
X113982143Y-100354763D01*
X113946429Y-100450001D01*
X113910714Y-100497620D01*
X113875000Y-100521429D01*
X113803571Y-100545239D01*
X113732143Y-100545239D01*
X113660714Y-100521429D01*
X113625000Y-100497620D01*
X113589286Y-100450001D01*
X113589286Y-100330953D01*
X113625000Y-100259525D01*
D11*
X165857143Y-82450000D02*
X165714286Y-82378571D01*
X165500000Y-82378571D01*
X165285715Y-82450000D01*
X165142857Y-82592857D01*
X165071429Y-82735714D01*
X165000000Y-83021429D01*
X165000000Y-83235714D01*
X165071429Y-83521429D01*
X165142857Y-83664286D01*
X165285715Y-83807143D01*
X165500000Y-83878571D01*
X165642857Y-83878571D01*
X165857143Y-83807143D01*
X165928572Y-83735714D01*
X165928572Y-83235714D01*
X165642857Y-83235714D01*
X166571429Y-83878571D02*
X166571429Y-82378571D01*
X167428572Y-83878571D01*
X167428572Y-82378571D01*
X168142858Y-83878571D02*
X168142858Y-82378571D01*
X168500001Y-82378571D01*
X168714286Y-82450000D01*
X168857144Y-82592857D01*
X168928572Y-82735714D01*
X169000001Y-83021429D01*
X169000001Y-83235714D01*
X168928572Y-83521429D01*
X168857144Y-83664286D01*
X168714286Y-83807143D01*
X168500001Y-83878571D01*
X168142858Y-83878571D01*
D14*
X149210000Y-76530000D02*
X144130000Y-76530000D01*
X149210000Y-80970000D02*
X144130000Y-80970000D01*
X144130000Y-74630000D02*
X149210000Y-74630000D01*
X144130000Y-74630000D02*
X144130000Y-80970000D01*
X149210000Y-74630000D02*
X149210000Y-80970000D01*
X114780000Y-79010500D02*
X114780000Y-70210500D01*
X114780000Y-70210500D02*
X123980000Y-70210500D01*
X117480000Y-84910500D02*
X114780000Y-84910500D01*
X114780000Y-84910500D02*
X114780000Y-83010500D01*
X123980000Y-70210500D02*
X123980000Y-84910500D01*
X123980000Y-84910500D02*
X121380000Y-84910500D01*
X155330000Y-89000000D02*
X155330000Y-87000000D01*
X157470000Y-87000000D02*
X157470000Y-89000000D01*
X160130000Y-88800000D02*
X160130000Y-86800000D01*
X162270000Y-86800000D02*
X162270000Y-88800000D01*
X133115000Y-84333000D02*
X134375000Y-84333000D01*
X139935000Y-84333000D02*
X138675000Y-84333000D01*
X133115000Y-80573000D02*
X133115000Y-84333000D01*
X139935000Y-78323000D02*
X139935000Y-84333000D01*
D15*
X133075000Y-105175000D02*
X133075000Y-104925000D01*
X125325000Y-105175000D02*
X125325000Y-104840000D01*
X125325000Y-92025000D02*
X125325000Y-92360000D01*
X133075000Y-92025000D02*
X133075000Y-92360000D01*
X133075000Y-105175000D02*
X125325000Y-105175000D01*
X133075000Y-92025000D02*
X125325000Y-92025000D01*
X133075000Y-104925000D02*
X134875000Y-104925000D01*
D14*
X147900000Y-103300000D02*
X147450000Y-103750000D01*
X147900000Y-106700000D02*
X147450000Y-106250000D01*
X152500000Y-106700000D02*
X152950000Y-106250000D01*
X152500000Y-103300000D02*
X152950000Y-103750000D01*
X151200000Y-107750000D02*
X149200000Y-107750000D01*
X147450000Y-103750000D02*
X147450000Y-106250000D01*
X151200000Y-102250000D02*
X149200000Y-102250000D01*
X152950000Y-103750000D02*
X152950000Y-106250000D01*
X147900000Y-91100000D02*
X147450000Y-91550000D01*
X147900000Y-94500000D02*
X147450000Y-94050000D01*
X152500000Y-94500000D02*
X152950000Y-94050000D01*
X152500000Y-91100000D02*
X152950000Y-91550000D01*
X151200000Y-95550000D02*
X149200000Y-95550000D01*
X147450000Y-91550000D02*
X147450000Y-94050000D01*
X151200000Y-90050000D02*
X149200000Y-90050000D01*
X152950000Y-91550000D02*
X152950000Y-94050000D01*
D10*
X117157500Y-116586000D02*
X117665500Y-116586000D01*
X117411500Y-116205000D02*
X117411500Y-115951000D01*
X117411500Y-116586000D02*
X117411500Y-116840000D01*
X117665500Y-116205000D02*
X117411500Y-116586000D01*
X117157500Y-116205000D02*
X117665500Y-116205000D01*
X117411500Y-116586000D02*
X117157500Y-116205000D01*
D14*
X116351500Y-118532000D02*
X118471500Y-118532000D01*
X116351500Y-115332000D02*
X116351500Y-118532000D01*
X118471500Y-118532000D02*
X118471500Y-115332000D01*
D10*
X142367000Y-116586000D02*
X142875000Y-116586000D01*
X142621000Y-116205000D02*
X142621000Y-115951000D01*
X142621000Y-116586000D02*
X142621000Y-116840000D01*
X142875000Y-116205000D02*
X142621000Y-116586000D01*
X142367000Y-116205000D02*
X142875000Y-116205000D01*
X142621000Y-116586000D02*
X142367000Y-116205000D01*
D14*
X141561000Y-118532000D02*
X143681000Y-118532000D01*
X141561000Y-115332000D02*
X141561000Y-118532000D01*
X143681000Y-118532000D02*
X143681000Y-115332000D01*
D10*
X137350500Y-116586000D02*
X137858500Y-116586000D01*
X137604500Y-116205000D02*
X137604500Y-115951000D01*
X137604500Y-116586000D02*
X137604500Y-116840000D01*
X137858500Y-116205000D02*
X137604500Y-116586000D01*
X137350500Y-116205000D02*
X137858500Y-116205000D01*
X137604500Y-116586000D02*
X137350500Y-116205000D01*
D14*
X136544500Y-118532000D02*
X138664500Y-118532000D01*
X136544500Y-115332000D02*
X136544500Y-118532000D01*
X138664500Y-118532000D02*
X138664500Y-115332000D01*
D10*
X132334000Y-116586000D02*
X132842000Y-116586000D01*
X132588000Y-116205000D02*
X132588000Y-115951000D01*
X132588000Y-116586000D02*
X132588000Y-116840000D01*
X132842000Y-116205000D02*
X132588000Y-116586000D01*
X132334000Y-116205000D02*
X132842000Y-116205000D01*
X132588000Y-116586000D02*
X132334000Y-116205000D01*
D14*
X131528000Y-118532000D02*
X133648000Y-118532000D01*
X131528000Y-115332000D02*
X131528000Y-118532000D01*
X133648000Y-118532000D02*
X133648000Y-115332000D01*
D10*
X127317500Y-116586000D02*
X127825500Y-116586000D01*
X127571500Y-116205000D02*
X127571500Y-115951000D01*
X127571500Y-116586000D02*
X127571500Y-116840000D01*
X127825500Y-116205000D02*
X127571500Y-116586000D01*
X127317500Y-116205000D02*
X127825500Y-116205000D01*
X127571500Y-116586000D02*
X127317500Y-116205000D01*
D14*
X126511500Y-118532000D02*
X128631500Y-118532000D01*
X126511500Y-115332000D02*
X126511500Y-118532000D01*
X128631500Y-118532000D02*
X128631500Y-115332000D01*
D10*
X122364500Y-116586000D02*
X122872500Y-116586000D01*
X122618500Y-116205000D02*
X122618500Y-115951000D01*
X122618500Y-116586000D02*
X122618500Y-116840000D01*
X122872500Y-116205000D02*
X122618500Y-116586000D01*
X122364500Y-116205000D02*
X122872500Y-116205000D01*
X122618500Y-116586000D02*
X122364500Y-116205000D01*
D14*
X121558500Y-118532000D02*
X123678500Y-118532000D01*
X121558500Y-115332000D02*
X121558500Y-118532000D01*
X123678500Y-118532000D02*
X123678500Y-115332000D01*
X116690000Y-95910000D02*
X116690000Y-92090000D01*
X116690000Y-92090000D02*
X114910000Y-92090000D01*
X114910000Y-92090000D02*
X114910000Y-95910000D01*
X116690000Y-95910000D02*
X114910000Y-95910000D01*
X116690000Y-104110000D02*
X116690000Y-100290000D01*
X116690000Y-100290000D02*
X114910000Y-100290000D01*
X114910000Y-100290000D02*
X114910000Y-104110000D01*
X116690000Y-104110000D02*
X114910000Y-104110000D01*
X122000000Y-108020000D02*
X124000000Y-108020000D01*
X124000000Y-105980000D02*
X122000000Y-105980000D01*
X134400000Y-105980000D02*
X132400000Y-105980000D01*
X132400000Y-108020000D02*
X134400000Y-108020000D01*
X138420000Y-107800000D02*
X138420000Y-105800000D01*
X136380000Y-105800000D02*
X136380000Y-107800000D01*
X127000000Y-108020000D02*
X129000000Y-108020000D01*
X129000000Y-105980000D02*
X127000000Y-105980000D01*
X131258500Y-81772000D02*
X131258500Y-79772000D01*
X129218500Y-79772000D02*
X129218500Y-81772000D01*
X141664500Y-85106000D02*
X141664500Y-87106000D01*
X143704500Y-87106000D02*
X143704500Y-85106000D01*
X136380000Y-100600000D02*
X136380000Y-102600000D01*
X138420000Y-102600000D02*
X138420000Y-100600000D01*
X167009000Y-89201500D02*
X167009000Y-87201500D01*
X164969000Y-87201500D02*
X164969000Y-89201500D01*
X129218500Y-85296500D02*
X129218500Y-87296500D01*
X131258500Y-87296500D02*
X131258500Y-85296500D01*
D15*
X159400000Y-92800000D02*
X159400000Y-105000000D01*
X159400000Y-105000000D02*
X160150000Y-105000000D01*
X160150000Y-105000000D02*
X160150000Y-104100000D01*
X160150000Y-104100000D02*
X161450000Y-104100000D01*
X161450000Y-104100000D02*
X161450000Y-105000000D01*
X161450000Y-105000000D02*
X162150000Y-105000000D01*
X159400000Y-92800000D02*
X160150000Y-92800000D01*
D16*
X176798560Y-92801280D02*
X176798560Y-104998360D01*
X176798560Y-104998360D02*
X173598160Y-104998360D01*
X176798560Y-92801280D02*
X173598160Y-92801280D01*
D15*
X148923500Y-109796000D02*
X150923500Y-109796000D01*
X150923500Y-111946000D02*
X148923500Y-111946000D01*
D17*
G36*
X164132036Y-110074927D02*
X164244618Y-110672118D01*
X164660031Y-110843365D01*
X165075445Y-111014612D01*
X165573802Y-110675733D01*
X165713369Y-110581377D01*
X165839529Y-110497130D01*
X165946396Y-110426838D01*
X166028083Y-110374347D01*
X166078702Y-110343504D01*
X166092487Y-110336853D01*
X166117321Y-110353958D01*
X166170389Y-110401244D01*
X166245741Y-110472672D01*
X166337430Y-110562200D01*
X166439508Y-110663789D01*
X166546027Y-110771398D01*
X166651037Y-110878987D01*
X166748592Y-110980515D01*
X166832743Y-111069941D01*
X166897541Y-111141226D01*
X166937038Y-111188328D01*
X166946481Y-111204092D01*
X166932892Y-111233153D01*
X166894794Y-111296821D01*
X166836194Y-111388867D01*
X166761098Y-111503064D01*
X166673509Y-111633184D01*
X166622755Y-111707401D01*
X166530246Y-111842922D01*
X166448041Y-111965216D01*
X166380131Y-112068195D01*
X166330501Y-112145773D01*
X166303141Y-112191861D01*
X166299030Y-112201547D01*
X166308350Y-112229074D01*
X166333755Y-112293228D01*
X166371412Y-112384990D01*
X166417487Y-112495339D01*
X166468147Y-112615255D01*
X166519560Y-112735719D01*
X166567890Y-112847709D01*
X166609307Y-112942207D01*
X166639975Y-113010192D01*
X166656062Y-113042643D01*
X166657012Y-113043920D01*
X166682273Y-113050117D01*
X166749546Y-113063940D01*
X166851861Y-113084032D01*
X166982242Y-113109034D01*
X167133717Y-113137586D01*
X167222094Y-113154051D01*
X167383953Y-113184869D01*
X167530150Y-113214194D01*
X167653288Y-113240421D01*
X167745970Y-113261946D01*
X167800802Y-113277165D01*
X167811824Y-113281993D01*
X167822619Y-113314674D01*
X167831330Y-113388485D01*
X167837961Y-113494792D01*
X167842519Y-113624967D01*
X167845010Y-113770376D01*
X167845439Y-113922390D01*
X167843812Y-114072377D01*
X167840136Y-114211706D01*
X167834416Y-114331745D01*
X167826658Y-114423865D01*
X167816869Y-114479432D01*
X167810997Y-114491000D01*
X167775900Y-114504865D01*
X167701529Y-114524688D01*
X167597724Y-114548139D01*
X167474320Y-114572891D01*
X167431242Y-114580898D01*
X167223548Y-114618941D01*
X167059485Y-114649579D01*
X166933631Y-114674029D01*
X166840566Y-114693509D01*
X166774868Y-114709236D01*
X166731118Y-114722428D01*
X166703893Y-114734304D01*
X166687773Y-114746080D01*
X166685518Y-114748408D01*
X166663004Y-114785900D01*
X166628659Y-114858865D01*
X166585912Y-114958367D01*
X166538193Y-115075473D01*
X166488931Y-115201248D01*
X166441556Y-115326757D01*
X166399496Y-115443065D01*
X166366181Y-115541239D01*
X166345042Y-115612343D01*
X166339506Y-115647442D01*
X166339967Y-115648672D01*
X166358724Y-115677361D01*
X166401277Y-115740485D01*
X166463154Y-115831473D01*
X166539883Y-115943755D01*
X166626992Y-116070760D01*
X166651799Y-116106853D01*
X166740253Y-116237703D01*
X166818089Y-116357091D01*
X166881067Y-116458162D01*
X166924946Y-116534059D01*
X166945486Y-116577927D01*
X166946481Y-116583317D01*
X166929223Y-116611644D01*
X166881536Y-116667761D01*
X166809551Y-116745637D01*
X166719398Y-116839240D01*
X166617206Y-116942541D01*
X166509106Y-117049506D01*
X166401229Y-117154106D01*
X166299705Y-117250309D01*
X166210663Y-117332084D01*
X166140234Y-117393400D01*
X166094548Y-117428226D01*
X166081910Y-117433912D01*
X166052492Y-117420520D01*
X165992262Y-117384399D01*
X165911030Y-117331636D01*
X165848531Y-117289167D01*
X165735286Y-117211240D01*
X165601175Y-117119484D01*
X165466656Y-117027875D01*
X165394334Y-116978846D01*
X165149539Y-116813270D01*
X164944051Y-116924375D01*
X164850437Y-116973048D01*
X164770831Y-117010881D01*
X164716968Y-117032458D01*
X164703258Y-117035461D01*
X164686771Y-117013293D01*
X164654246Y-116950649D01*
X164608109Y-116853309D01*
X164550791Y-116727049D01*
X164484717Y-116577650D01*
X164412316Y-116410888D01*
X164336017Y-116232542D01*
X164258247Y-116048391D01*
X164181435Y-115864212D01*
X164108007Y-115685785D01*
X164040393Y-115518887D01*
X163981021Y-115369297D01*
X163932317Y-115242793D01*
X163896711Y-115145154D01*
X163876631Y-115082157D01*
X163873401Y-115060521D01*
X163898997Y-115032924D01*
X163955039Y-114988125D01*
X164029812Y-114935434D01*
X164036088Y-114931265D01*
X164229346Y-114776569D01*
X164385175Y-114596091D01*
X164502225Y-114395602D01*
X164579146Y-114180874D01*
X164614587Y-113957677D01*
X164607198Y-113731781D01*
X164555628Y-113508959D01*
X164458527Y-113294979D01*
X164429959Y-113248164D01*
X164281369Y-113059118D01*
X164105828Y-112907312D01*
X163909411Y-112793534D01*
X163698194Y-112718575D01*
X163478254Y-112683222D01*
X163255664Y-112688267D01*
X163036502Y-112734499D01*
X162826843Y-112822706D01*
X162632762Y-112953679D01*
X162572727Y-113006837D01*
X162419936Y-113173239D01*
X162308598Y-113348412D01*
X162232224Y-113544766D01*
X162189688Y-113739217D01*
X162179187Y-113957842D01*
X162214201Y-114177552D01*
X162291174Y-114390920D01*
X162406548Y-114590522D01*
X162556766Y-114768929D01*
X162738274Y-114918717D01*
X162762128Y-114934506D01*
X162837702Y-114986212D01*
X162895152Y-115031012D01*
X162922618Y-115059617D01*
X162923018Y-115060521D01*
X162917121Y-115091464D01*
X162893746Y-115161691D01*
X162855322Y-115265425D01*
X162804278Y-115396890D01*
X162743043Y-115550307D01*
X162674045Y-115719901D01*
X162599714Y-115899893D01*
X162522479Y-116084508D01*
X162444769Y-116267968D01*
X162369012Y-116444496D01*
X162297638Y-116608314D01*
X162233075Y-116753647D01*
X162177753Y-116874717D01*
X162134101Y-116965747D01*
X162104547Y-117020960D01*
X162092645Y-117035461D01*
X162056278Y-117024169D01*
X161988231Y-116993885D01*
X161900237Y-116950020D01*
X161851851Y-116924375D01*
X161646364Y-116813270D01*
X161401569Y-116978846D01*
X161276607Y-117063670D01*
X161139796Y-117157016D01*
X161011589Y-117244908D01*
X160947372Y-117289167D01*
X160857052Y-117349818D01*
X160780572Y-117397881D01*
X160727908Y-117427270D01*
X160710803Y-117433482D01*
X160685906Y-117416723D01*
X160630806Y-117369936D01*
X160550844Y-117297980D01*
X160451361Y-117205712D01*
X160337701Y-117097990D01*
X160265816Y-117028826D01*
X160140052Y-116905257D01*
X160031364Y-116794734D01*
X159944146Y-116701985D01*
X159882790Y-116631737D01*
X159851692Y-116588720D01*
X159848709Y-116579990D01*
X159862554Y-116546784D01*
X159900813Y-116479642D01*
X159959242Y-116385363D01*
X160033598Y-116270745D01*
X160119636Y-116142583D01*
X160144103Y-116106853D01*
X160233255Y-115976989D01*
X160313239Y-115860069D01*
X160379581Y-115762662D01*
X160427812Y-115691339D01*
X160453458Y-115652670D01*
X160455936Y-115648672D01*
X160452230Y-115617855D01*
X160432562Y-115550099D01*
X160400361Y-115454339D01*
X160359056Y-115339509D01*
X160312076Y-115214544D01*
X160262850Y-115088379D01*
X160214809Y-114969948D01*
X160171382Y-114868185D01*
X160135997Y-114792026D01*
X160112085Y-114750404D01*
X160110385Y-114748408D01*
X160095763Y-114736513D01*
X160071066Y-114724750D01*
X160030873Y-114711901D01*
X159969764Y-114696749D01*
X159882318Y-114678076D01*
X159763113Y-114654665D01*
X159606728Y-114625297D01*
X159407744Y-114588755D01*
X159364661Y-114580898D01*
X159236971Y-114556227D01*
X159125654Y-114532093D01*
X159040546Y-114510824D01*
X158991484Y-114494748D01*
X158984906Y-114491000D01*
X158974065Y-114457773D01*
X158965254Y-114383521D01*
X158958477Y-114276876D01*
X158953741Y-114146467D01*
X158951051Y-114000927D01*
X158950414Y-113848886D01*
X158951835Y-113698976D01*
X158955321Y-113559828D01*
X158960877Y-113440072D01*
X158968509Y-113348341D01*
X158978223Y-113293266D01*
X158984079Y-113281993D01*
X159016681Y-113270623D01*
X159090919Y-113252124D01*
X159199397Y-113228102D01*
X159334718Y-113200162D01*
X159489486Y-113169908D01*
X159573808Y-113154051D01*
X159733797Y-113124144D01*
X159876468Y-113097050D01*
X159994849Y-113074131D01*
X160081966Y-113056743D01*
X160130846Y-113046247D01*
X160138891Y-113043920D01*
X160152488Y-113017686D01*
X160181230Y-112954495D01*
X160221286Y-112863377D01*
X160268825Y-112753357D01*
X160320016Y-112633465D01*
X160371027Y-112512727D01*
X160418027Y-112400171D01*
X160457185Y-112304826D01*
X160484670Y-112235717D01*
X160496650Y-112201874D01*
X160496873Y-112200395D01*
X160483292Y-112173697D01*
X160445216Y-112112260D01*
X160386648Y-112022189D01*
X160311589Y-111909590D01*
X160224041Y-111780570D01*
X160173148Y-111706461D01*
X160080410Y-111570577D01*
X159998042Y-111447209D01*
X159930062Y-111342597D01*
X159880489Y-111262983D01*
X159853343Y-111214607D01*
X159849422Y-111203762D01*
X159866276Y-111178520D01*
X159912869Y-111124624D01*
X159983249Y-111048113D01*
X160071466Y-110955023D01*
X160171566Y-110851395D01*
X160277599Y-110743264D01*
X160383612Y-110636670D01*
X160483653Y-110537650D01*
X160571771Y-110452242D01*
X160642014Y-110386485D01*
X160688429Y-110346416D01*
X160703957Y-110336853D01*
X160729240Y-110350300D01*
X160789712Y-110388075D01*
X160879493Y-110446335D01*
X160992704Y-110521234D01*
X161123464Y-110608925D01*
X161222100Y-110675733D01*
X161720458Y-111014612D01*
X162135871Y-110843365D01*
X162551285Y-110672118D01*
X162663867Y-110074927D01*
X162776450Y-109477735D01*
X164019453Y-109477735D01*
X164132036Y-110074927D01*
X164132036Y-110074927D01*
G37*
X164132036Y-110074927D02*
X164244618Y-110672118D01*
X164660031Y-110843365D01*
X165075445Y-111014612D01*
X165573802Y-110675733D01*
X165713369Y-110581377D01*
X165839529Y-110497130D01*
X165946396Y-110426838D01*
X166028083Y-110374347D01*
X166078702Y-110343504D01*
X166092487Y-110336853D01*
X166117321Y-110353958D01*
X166170389Y-110401244D01*
X166245741Y-110472672D01*
X166337430Y-110562200D01*
X166439508Y-110663789D01*
X166546027Y-110771398D01*
X166651037Y-110878987D01*
X166748592Y-110980515D01*
X166832743Y-111069941D01*
X166897541Y-111141226D01*
X166937038Y-111188328D01*
X166946481Y-111204092D01*
X166932892Y-111233153D01*
X166894794Y-111296821D01*
X166836194Y-111388867D01*
X166761098Y-111503064D01*
X166673509Y-111633184D01*
X166622755Y-111707401D01*
X166530246Y-111842922D01*
X166448041Y-111965216D01*
X166380131Y-112068195D01*
X166330501Y-112145773D01*
X166303141Y-112191861D01*
X166299030Y-112201547D01*
X166308350Y-112229074D01*
X166333755Y-112293228D01*
X166371412Y-112384990D01*
X166417487Y-112495339D01*
X166468147Y-112615255D01*
X166519560Y-112735719D01*
X166567890Y-112847709D01*
X166609307Y-112942207D01*
X166639975Y-113010192D01*
X166656062Y-113042643D01*
X166657012Y-113043920D01*
X166682273Y-113050117D01*
X166749546Y-113063940D01*
X166851861Y-113084032D01*
X166982242Y-113109034D01*
X167133717Y-113137586D01*
X167222094Y-113154051D01*
X167383953Y-113184869D01*
X167530150Y-113214194D01*
X167653288Y-113240421D01*
X167745970Y-113261946D01*
X167800802Y-113277165D01*
X167811824Y-113281993D01*
X167822619Y-113314674D01*
X167831330Y-113388485D01*
X167837961Y-113494792D01*
X167842519Y-113624967D01*
X167845010Y-113770376D01*
X167845439Y-113922390D01*
X167843812Y-114072377D01*
X167840136Y-114211706D01*
X167834416Y-114331745D01*
X167826658Y-114423865D01*
X167816869Y-114479432D01*
X167810997Y-114491000D01*
X167775900Y-114504865D01*
X167701529Y-114524688D01*
X167597724Y-114548139D01*
X167474320Y-114572891D01*
X167431242Y-114580898D01*
X167223548Y-114618941D01*
X167059485Y-114649579D01*
X166933631Y-114674029D01*
X166840566Y-114693509D01*
X166774868Y-114709236D01*
X166731118Y-114722428D01*
X166703893Y-114734304D01*
X166687773Y-114746080D01*
X166685518Y-114748408D01*
X166663004Y-114785900D01*
X166628659Y-114858865D01*
X166585912Y-114958367D01*
X166538193Y-115075473D01*
X166488931Y-115201248D01*
X166441556Y-115326757D01*
X166399496Y-115443065D01*
X166366181Y-115541239D01*
X166345042Y-115612343D01*
X166339506Y-115647442D01*
X166339967Y-115648672D01*
X166358724Y-115677361D01*
X166401277Y-115740485D01*
X166463154Y-115831473D01*
X166539883Y-115943755D01*
X166626992Y-116070760D01*
X166651799Y-116106853D01*
X166740253Y-116237703D01*
X166818089Y-116357091D01*
X166881067Y-116458162D01*
X166924946Y-116534059D01*
X166945486Y-116577927D01*
X166946481Y-116583317D01*
X166929223Y-116611644D01*
X166881536Y-116667761D01*
X166809551Y-116745637D01*
X166719398Y-116839240D01*
X166617206Y-116942541D01*
X166509106Y-117049506D01*
X166401229Y-117154106D01*
X166299705Y-117250309D01*
X166210663Y-117332084D01*
X166140234Y-117393400D01*
X166094548Y-117428226D01*
X166081910Y-117433912D01*
X166052492Y-117420520D01*
X165992262Y-117384399D01*
X165911030Y-117331636D01*
X165848531Y-117289167D01*
X165735286Y-117211240D01*
X165601175Y-117119484D01*
X165466656Y-117027875D01*
X165394334Y-116978846D01*
X165149539Y-116813270D01*
X164944051Y-116924375D01*
X164850437Y-116973048D01*
X164770831Y-117010881D01*
X164716968Y-117032458D01*
X164703258Y-117035461D01*
X164686771Y-117013293D01*
X164654246Y-116950649D01*
X164608109Y-116853309D01*
X164550791Y-116727049D01*
X164484717Y-116577650D01*
X164412316Y-116410888D01*
X164336017Y-116232542D01*
X164258247Y-116048391D01*
X164181435Y-115864212D01*
X164108007Y-115685785D01*
X164040393Y-115518887D01*
X163981021Y-115369297D01*
X163932317Y-115242793D01*
X163896711Y-115145154D01*
X163876631Y-115082157D01*
X163873401Y-115060521D01*
X163898997Y-115032924D01*
X163955039Y-114988125D01*
X164029812Y-114935434D01*
X164036088Y-114931265D01*
X164229346Y-114776569D01*
X164385175Y-114596091D01*
X164502225Y-114395602D01*
X164579146Y-114180874D01*
X164614587Y-113957677D01*
X164607198Y-113731781D01*
X164555628Y-113508959D01*
X164458527Y-113294979D01*
X164429959Y-113248164D01*
X164281369Y-113059118D01*
X164105828Y-112907312D01*
X163909411Y-112793534D01*
X163698194Y-112718575D01*
X163478254Y-112683222D01*
X163255664Y-112688267D01*
X163036502Y-112734499D01*
X162826843Y-112822706D01*
X162632762Y-112953679D01*
X162572727Y-113006837D01*
X162419936Y-113173239D01*
X162308598Y-113348412D01*
X162232224Y-113544766D01*
X162189688Y-113739217D01*
X162179187Y-113957842D01*
X162214201Y-114177552D01*
X162291174Y-114390920D01*
X162406548Y-114590522D01*
X162556766Y-114768929D01*
X162738274Y-114918717D01*
X162762128Y-114934506D01*
X162837702Y-114986212D01*
X162895152Y-115031012D01*
X162922618Y-115059617D01*
X162923018Y-115060521D01*
X162917121Y-115091464D01*
X162893746Y-115161691D01*
X162855322Y-115265425D01*
X162804278Y-115396890D01*
X162743043Y-115550307D01*
X162674045Y-115719901D01*
X162599714Y-115899893D01*
X162522479Y-116084508D01*
X162444769Y-116267968D01*
X162369012Y-116444496D01*
X162297638Y-116608314D01*
X162233075Y-116753647D01*
X162177753Y-116874717D01*
X162134101Y-116965747D01*
X162104547Y-117020960D01*
X162092645Y-117035461D01*
X162056278Y-117024169D01*
X161988231Y-116993885D01*
X161900237Y-116950020D01*
X161851851Y-116924375D01*
X161646364Y-116813270D01*
X161401569Y-116978846D01*
X161276607Y-117063670D01*
X161139796Y-117157016D01*
X161011589Y-117244908D01*
X160947372Y-117289167D01*
X160857052Y-117349818D01*
X160780572Y-117397881D01*
X160727908Y-117427270D01*
X160710803Y-117433482D01*
X160685906Y-117416723D01*
X160630806Y-117369936D01*
X160550844Y-117297980D01*
X160451361Y-117205712D01*
X160337701Y-117097990D01*
X160265816Y-117028826D01*
X160140052Y-116905257D01*
X160031364Y-116794734D01*
X159944146Y-116701985D01*
X159882790Y-116631737D01*
X159851692Y-116588720D01*
X159848709Y-116579990D01*
X159862554Y-116546784D01*
X159900813Y-116479642D01*
X159959242Y-116385363D01*
X160033598Y-116270745D01*
X160119636Y-116142583D01*
X160144103Y-116106853D01*
X160233255Y-115976989D01*
X160313239Y-115860069D01*
X160379581Y-115762662D01*
X160427812Y-115691339D01*
X160453458Y-115652670D01*
X160455936Y-115648672D01*
X160452230Y-115617855D01*
X160432562Y-115550099D01*
X160400361Y-115454339D01*
X160359056Y-115339509D01*
X160312076Y-115214544D01*
X160262850Y-115088379D01*
X160214809Y-114969948D01*
X160171382Y-114868185D01*
X160135997Y-114792026D01*
X160112085Y-114750404D01*
X160110385Y-114748408D01*
X160095763Y-114736513D01*
X160071066Y-114724750D01*
X160030873Y-114711901D01*
X159969764Y-114696749D01*
X159882318Y-114678076D01*
X159763113Y-114654665D01*
X159606728Y-114625297D01*
X159407744Y-114588755D01*
X159364661Y-114580898D01*
X159236971Y-114556227D01*
X159125654Y-114532093D01*
X159040546Y-114510824D01*
X158991484Y-114494748D01*
X158984906Y-114491000D01*
X158974065Y-114457773D01*
X158965254Y-114383521D01*
X158958477Y-114276876D01*
X158953741Y-114146467D01*
X158951051Y-114000927D01*
X158950414Y-113848886D01*
X158951835Y-113698976D01*
X158955321Y-113559828D01*
X158960877Y-113440072D01*
X158968509Y-113348341D01*
X158978223Y-113293266D01*
X158984079Y-113281993D01*
X159016681Y-113270623D01*
X159090919Y-113252124D01*
X159199397Y-113228102D01*
X159334718Y-113200162D01*
X159489486Y-113169908D01*
X159573808Y-113154051D01*
X159733797Y-113124144D01*
X159876468Y-113097050D01*
X159994849Y-113074131D01*
X160081966Y-113056743D01*
X160130846Y-113046247D01*
X160138891Y-113043920D01*
X160152488Y-113017686D01*
X160181230Y-112954495D01*
X160221286Y-112863377D01*
X160268825Y-112753357D01*
X160320016Y-112633465D01*
X160371027Y-112512727D01*
X160418027Y-112400171D01*
X160457185Y-112304826D01*
X160484670Y-112235717D01*
X160496650Y-112201874D01*
X160496873Y-112200395D01*
X160483292Y-112173697D01*
X160445216Y-112112260D01*
X160386648Y-112022189D01*
X160311589Y-111909590D01*
X160224041Y-111780570D01*
X160173148Y-111706461D01*
X160080410Y-111570577D01*
X159998042Y-111447209D01*
X159930062Y-111342597D01*
X159880489Y-111262983D01*
X159853343Y-111214607D01*
X159849422Y-111203762D01*
X159866276Y-111178520D01*
X159912869Y-111124624D01*
X159983249Y-111048113D01*
X160071466Y-110955023D01*
X160171566Y-110851395D01*
X160277599Y-110743264D01*
X160383612Y-110636670D01*
X160483653Y-110537650D01*
X160571771Y-110452242D01*
X160642014Y-110386485D01*
X160688429Y-110346416D01*
X160703957Y-110336853D01*
X160729240Y-110350300D01*
X160789712Y-110388075D01*
X160879493Y-110446335D01*
X160992704Y-110521234D01*
X161123464Y-110608925D01*
X161222100Y-110675733D01*
X161720458Y-111014612D01*
X162135871Y-110843365D01*
X162551285Y-110672118D01*
X162663867Y-110074927D01*
X162776450Y-109477735D01*
X164019453Y-109477735D01*
X164132036Y-110074927D01*
D18*
X109399080Y-113397480D02*
X104060000Y-113397480D01*
X104057460Y-113397480D02*
X97100400Y-113397480D01*
X109399080Y-82602520D02*
X104060000Y-82602520D01*
X104060000Y-82602520D02*
X97100400Y-82602520D01*
X96381580Y-106128000D02*
X91301580Y-106128000D01*
X97100400Y-113397480D02*
X97100400Y-82602520D01*
X96381580Y-89872000D02*
X91301580Y-89872000D01*
X90793580Y-105620000D02*
X90793580Y-90380000D01*
X109399080Y-113397480D02*
X109399080Y-82602520D01*
X90793580Y-105620000D02*
G75*
G03X91301580Y-106128000I508000J0D01*
G01*
X91301580Y-89872000D02*
G75*
G03X90793580Y-90380000I0J-508000D01*
G01*
X97014040Y-106760460D02*
G75*
G03X96381580Y-106128000I-632460J0D01*
G01*
X96381580Y-89874540D02*
G75*
G03X97016580Y-89239540I0J635000D01*
G01*
D15*
X155321000Y-81343500D02*
X162941000Y-81343500D01*
X155321000Y-78803500D02*
X162941000Y-78803500D01*
X152501000Y-78523500D02*
X154051000Y-78523500D01*
X162941000Y-81343500D02*
X162941000Y-78803500D01*
X155321000Y-78803500D02*
X155321000Y-81343500D01*
X154051000Y-81623500D02*
X152501000Y-81623500D01*
X152501000Y-81623500D02*
X152501000Y-78523500D01*
X146266667Y-74852381D02*
X146266667Y-75566667D01*
X146219047Y-75709524D01*
X146123809Y-75804762D01*
X145980952Y-75852381D01*
X145885714Y-75852381D01*
X146647619Y-74852381D02*
X147266667Y-74852381D01*
X146933333Y-75233333D01*
X147076191Y-75233333D01*
X147171429Y-75280952D01*
X147219048Y-75328571D01*
X147266667Y-75423810D01*
X147266667Y-75661905D01*
X147219048Y-75757143D01*
X147171429Y-75804762D01*
X147076191Y-75852381D01*
X146790476Y-75852381D01*
X146695238Y-75804762D01*
X146647619Y-75757143D01*
X150333334Y-74852381D02*
X149857143Y-74852381D01*
X149809524Y-75328571D01*
X149857143Y-75280952D01*
X149952381Y-75233333D01*
X150190477Y-75233333D01*
X150285715Y-75280952D01*
X150333334Y-75328571D01*
X150380953Y-75423810D01*
X150380953Y-75661905D01*
X150333334Y-75757143D01*
X150285715Y-75804762D01*
X150190477Y-75852381D01*
X149952381Y-75852381D01*
X149857143Y-75804762D01*
X149809524Y-75757143D01*
X150809524Y-75471429D02*
X151571429Y-75471429D01*
X151952381Y-74852381D02*
X152619048Y-74852381D01*
X152190476Y-75852381D01*
X152857143Y-74852381D02*
X153190476Y-75852381D01*
X153523810Y-74852381D01*
X154619048Y-75852381D02*
X154619048Y-74852381D01*
X154857143Y-74852381D01*
X155000001Y-74900000D01*
X155095239Y-74995238D01*
X155142858Y-75090476D01*
X155190477Y-75280952D01*
X155190477Y-75423810D01*
X155142858Y-75614286D01*
X155095239Y-75709524D01*
X155000001Y-75804762D01*
X154857143Y-75852381D01*
X154619048Y-75852381D01*
X156190477Y-75757143D02*
X156142858Y-75804762D01*
X156000001Y-75852381D01*
X155904763Y-75852381D01*
X155761905Y-75804762D01*
X155666667Y-75709524D01*
X155619048Y-75614286D01*
X155571429Y-75423810D01*
X155571429Y-75280952D01*
X155619048Y-75090476D01*
X155666667Y-74995238D01*
X155761905Y-74900000D01*
X155904763Y-74852381D01*
X156000001Y-74852381D01*
X156142858Y-74900000D01*
X156190477Y-74947619D01*
X113082381Y-75893833D02*
X113796667Y-75893833D01*
X113939524Y-75941453D01*
X114034762Y-76036691D01*
X114082381Y-76179548D01*
X114082381Y-76274786D01*
X113415714Y-74989071D02*
X114082381Y-74989071D01*
X113034762Y-75227167D02*
X113749048Y-75465262D01*
X113749048Y-74846214D01*
X158702381Y-88166666D02*
X158226190Y-88500000D01*
X158702381Y-88738095D02*
X157702381Y-88738095D01*
X157702381Y-88357142D01*
X157750000Y-88261904D01*
X157797619Y-88214285D01*
X157892857Y-88166666D01*
X158035714Y-88166666D01*
X158130952Y-88214285D01*
X158178571Y-88261904D01*
X158226190Y-88357142D01*
X158226190Y-88738095D01*
X158702381Y-87214285D02*
X158702381Y-87785714D01*
X158702381Y-87500000D02*
X157702381Y-87500000D01*
X157845238Y-87595238D01*
X157940476Y-87690476D01*
X157988095Y-87785714D01*
X163502381Y-87966666D02*
X163026190Y-88300000D01*
X163502381Y-88538095D02*
X162502381Y-88538095D01*
X162502381Y-88157142D01*
X162550000Y-88061904D01*
X162597619Y-88014285D01*
X162692857Y-87966666D01*
X162835714Y-87966666D01*
X162930952Y-88014285D01*
X162978571Y-88061904D01*
X163026190Y-88157142D01*
X163026190Y-88538095D01*
X162597619Y-87585714D02*
X162550000Y-87538095D01*
X162502381Y-87442857D01*
X162502381Y-87204761D01*
X162550000Y-87109523D01*
X162597619Y-87061904D01*
X162692857Y-87014285D01*
X162788095Y-87014285D01*
X162930952Y-87061904D01*
X163502381Y-87633333D01*
X163502381Y-87014285D01*
X135763095Y-83081881D02*
X135763095Y-83891405D01*
X135810714Y-83986643D01*
X135858333Y-84034262D01*
X135953571Y-84081881D01*
X136144048Y-84081881D01*
X136239286Y-84034262D01*
X136286905Y-83986643D01*
X136334524Y-83891405D01*
X136334524Y-83081881D01*
X137334524Y-84081881D02*
X136763095Y-84081881D01*
X137048809Y-84081881D02*
X137048809Y-83081881D01*
X136953571Y-83224738D01*
X136858333Y-83319976D01*
X136763095Y-83367595D01*
X128238095Y-89252381D02*
X128238095Y-90061905D01*
X128285714Y-90157143D01*
X128333333Y-90204762D01*
X128428571Y-90252381D01*
X128619048Y-90252381D01*
X128714286Y-90204762D01*
X128761905Y-90157143D01*
X128809524Y-90061905D01*
X128809524Y-89252381D01*
X129238095Y-89347619D02*
X129285714Y-89300000D01*
X129380952Y-89252381D01*
X129619048Y-89252381D01*
X129714286Y-89300000D01*
X129761905Y-89347619D01*
X129809524Y-89442857D01*
X129809524Y-89538095D01*
X129761905Y-89680952D01*
X129190476Y-90252381D01*
X129809524Y-90252381D01*
X154354762Y-106333333D02*
X154402381Y-106190476D01*
X154402381Y-105952380D01*
X154354762Y-105857142D01*
X154307143Y-105809523D01*
X154211905Y-105761904D01*
X154116667Y-105761904D01*
X154021429Y-105809523D01*
X153973810Y-105857142D01*
X153926190Y-105952380D01*
X153878571Y-106142857D01*
X153830952Y-106238095D01*
X153783333Y-106285714D01*
X153688095Y-106333333D01*
X153592857Y-106333333D01*
X153497619Y-106285714D01*
X153450000Y-106238095D01*
X153402381Y-106142857D01*
X153402381Y-105904761D01*
X153450000Y-105761904D01*
X153402381Y-105428571D02*
X154402381Y-105190476D01*
X153688095Y-104999999D01*
X154402381Y-104809523D01*
X153402381Y-104571428D01*
X153497619Y-104238095D02*
X153450000Y-104190476D01*
X153402381Y-104095238D01*
X153402381Y-103857142D01*
X153450000Y-103761904D01*
X153497619Y-103714285D01*
X153592857Y-103666666D01*
X153688095Y-103666666D01*
X153830952Y-103714285D01*
X154402381Y-104285714D01*
X154402381Y-103666666D01*
X146902381Y-106452381D02*
X146426190Y-106785715D01*
X146902381Y-107023810D02*
X145902381Y-107023810D01*
X145902381Y-106642857D01*
X145950000Y-106547619D01*
X145997619Y-106500000D01*
X146092857Y-106452381D01*
X146235714Y-106452381D01*
X146330952Y-106500000D01*
X146378571Y-106547619D01*
X146426190Y-106642857D01*
X146426190Y-107023810D01*
X146378571Y-106023810D02*
X146378571Y-105690476D01*
X146902381Y-105547619D02*
X146902381Y-106023810D01*
X145902381Y-106023810D01*
X145902381Y-105547619D01*
X146854762Y-105166667D02*
X146902381Y-105023810D01*
X146902381Y-104785714D01*
X146854762Y-104690476D01*
X146807143Y-104642857D01*
X146711905Y-104595238D01*
X146616667Y-104595238D01*
X146521429Y-104642857D01*
X146473810Y-104690476D01*
X146426190Y-104785714D01*
X146378571Y-104976191D01*
X146330952Y-105071429D01*
X146283333Y-105119048D01*
X146188095Y-105166667D01*
X146092857Y-105166667D01*
X145997619Y-105119048D01*
X145950000Y-105071429D01*
X145902381Y-104976191D01*
X145902381Y-104738095D01*
X145950000Y-104595238D01*
X146378571Y-104166667D02*
X146378571Y-103833333D01*
X146902381Y-103690476D02*
X146902381Y-104166667D01*
X145902381Y-104166667D01*
X145902381Y-103690476D01*
X145902381Y-103404762D02*
X145902381Y-102833333D01*
X146902381Y-103119048D02*
X145902381Y-103119048D01*
X154354762Y-94133333D02*
X154402381Y-93990476D01*
X154402381Y-93752380D01*
X154354762Y-93657142D01*
X154307143Y-93609523D01*
X154211905Y-93561904D01*
X154116667Y-93561904D01*
X154021429Y-93609523D01*
X153973810Y-93657142D01*
X153926190Y-93752380D01*
X153878571Y-93942857D01*
X153830952Y-94038095D01*
X153783333Y-94085714D01*
X153688095Y-94133333D01*
X153592857Y-94133333D01*
X153497619Y-94085714D01*
X153450000Y-94038095D01*
X153402381Y-93942857D01*
X153402381Y-93704761D01*
X153450000Y-93561904D01*
X153402381Y-93228571D02*
X154402381Y-92990476D01*
X153688095Y-92799999D01*
X154402381Y-92609523D01*
X153402381Y-92371428D01*
X154402381Y-91466666D02*
X154402381Y-92038095D01*
X154402381Y-91752381D02*
X153402381Y-91752381D01*
X153545238Y-91847619D01*
X153640476Y-91942857D01*
X153688095Y-92038095D01*
X146902381Y-96085714D02*
X145902381Y-96085714D01*
X145902381Y-95704761D01*
X145950000Y-95609523D01*
X145997619Y-95561904D01*
X146092857Y-95514285D01*
X146235714Y-95514285D01*
X146330952Y-95561904D01*
X146378571Y-95609523D01*
X146426190Y-95704761D01*
X146426190Y-96085714D01*
X146902381Y-94514285D02*
X146426190Y-94847619D01*
X146902381Y-95085714D02*
X145902381Y-95085714D01*
X145902381Y-94704761D01*
X145950000Y-94609523D01*
X145997619Y-94561904D01*
X146092857Y-94514285D01*
X146235714Y-94514285D01*
X146330952Y-94561904D01*
X146378571Y-94609523D01*
X146426190Y-94704761D01*
X146426190Y-95085714D01*
X145902381Y-93895238D02*
X145902381Y-93704761D01*
X145950000Y-93609523D01*
X146045238Y-93514285D01*
X146235714Y-93466666D01*
X146569048Y-93466666D01*
X146759524Y-93514285D01*
X146854762Y-93609523D01*
X146902381Y-93704761D01*
X146902381Y-93895238D01*
X146854762Y-93990476D01*
X146759524Y-94085714D01*
X146569048Y-94133333D01*
X146235714Y-94133333D01*
X146045238Y-94085714D01*
X145950000Y-93990476D01*
X145902381Y-93895238D01*
X145950000Y-92514285D02*
X145902381Y-92609523D01*
X145902381Y-92752380D01*
X145950000Y-92895238D01*
X146045238Y-92990476D01*
X146140476Y-93038095D01*
X146330952Y-93085714D01*
X146473810Y-93085714D01*
X146664286Y-93038095D01*
X146759524Y-92990476D01*
X146854762Y-92895238D01*
X146902381Y-92752380D01*
X146902381Y-92657142D01*
X146854762Y-92514285D01*
X146807143Y-92466666D01*
X146473810Y-92466666D01*
X146473810Y-92657142D01*
X146902381Y-91466666D02*
X146426190Y-91800000D01*
X146902381Y-92038095D02*
X145902381Y-92038095D01*
X145902381Y-91657142D01*
X145950000Y-91561904D01*
X145997619Y-91514285D01*
X146092857Y-91466666D01*
X146235714Y-91466666D01*
X146330952Y-91514285D01*
X146378571Y-91561904D01*
X146426190Y-91657142D01*
X146426190Y-92038095D01*
X146616667Y-91085714D02*
X146616667Y-90609523D01*
X146902381Y-91180952D02*
X145902381Y-90847619D01*
X146902381Y-90514285D01*
X146902381Y-90180952D02*
X145902381Y-90180952D01*
X146616667Y-89847618D01*
X145902381Y-89514285D01*
X146902381Y-89514285D01*
X119763881Y-118641524D02*
X118763881Y-118641524D01*
X118763881Y-118260571D01*
X118811500Y-118165333D01*
X118859119Y-118117714D01*
X118954357Y-118070095D01*
X119097214Y-118070095D01*
X119192452Y-118117714D01*
X119240071Y-118165333D01*
X119287690Y-118260571D01*
X119287690Y-118641524D01*
X118763881Y-117451048D02*
X118763881Y-117260571D01*
X118811500Y-117165333D01*
X118906738Y-117070095D01*
X119097214Y-117022476D01*
X119430548Y-117022476D01*
X119621024Y-117070095D01*
X119716262Y-117165333D01*
X119763881Y-117260571D01*
X119763881Y-117451048D01*
X119716262Y-117546286D01*
X119621024Y-117641524D01*
X119430548Y-117689143D01*
X119097214Y-117689143D01*
X118906738Y-117641524D01*
X118811500Y-117546286D01*
X118763881Y-117451048D01*
X118763881Y-116689143D02*
X119763881Y-116451048D01*
X119049595Y-116260571D01*
X119763881Y-116070095D01*
X118763881Y-115832000D01*
X119240071Y-115451048D02*
X119240071Y-115117714D01*
X119763881Y-114974857D02*
X119763881Y-115451048D01*
X118763881Y-115451048D01*
X118763881Y-114974857D01*
X119763881Y-113974857D02*
X119287690Y-114308191D01*
X119763881Y-114546286D02*
X118763881Y-114546286D01*
X118763881Y-114165333D01*
X118811500Y-114070095D01*
X118859119Y-114022476D01*
X118954357Y-113974857D01*
X119097214Y-113974857D01*
X119192452Y-114022476D01*
X119240071Y-114070095D01*
X119287690Y-114165333D01*
X119287690Y-114546286D01*
X144973381Y-119355810D02*
X143973381Y-119355810D01*
X143973381Y-119117715D01*
X144021000Y-118974857D01*
X144116238Y-118879619D01*
X144211476Y-118832000D01*
X144401952Y-118784381D01*
X144544810Y-118784381D01*
X144735286Y-118832000D01*
X144830524Y-118879619D01*
X144925762Y-118974857D01*
X144973381Y-119117715D01*
X144973381Y-119355810D01*
X143973381Y-118498667D02*
X143973381Y-117927238D01*
X144973381Y-118212953D02*
X143973381Y-118212953D01*
X144973381Y-117022476D02*
X144497190Y-117355810D01*
X144973381Y-117593905D02*
X143973381Y-117593905D01*
X143973381Y-117212952D01*
X144021000Y-117117714D01*
X144068619Y-117070095D01*
X144163857Y-117022476D01*
X144306714Y-117022476D01*
X144401952Y-117070095D01*
X144449571Y-117117714D01*
X144497190Y-117212952D01*
X144497190Y-117593905D01*
X143925762Y-115879619D02*
X145211476Y-116736762D01*
X144973381Y-114974857D02*
X144497190Y-115308191D01*
X144973381Y-115546286D02*
X143973381Y-115546286D01*
X143973381Y-115165333D01*
X144021000Y-115070095D01*
X144068619Y-115022476D01*
X144163857Y-114974857D01*
X144306714Y-114974857D01*
X144401952Y-115022476D01*
X144449571Y-115070095D01*
X144497190Y-115165333D01*
X144497190Y-115546286D01*
X143973381Y-114689143D02*
X143973381Y-114117714D01*
X144973381Y-114403429D02*
X143973381Y-114403429D01*
X144925762Y-113832000D02*
X144973381Y-113689143D01*
X144973381Y-113451047D01*
X144925762Y-113355809D01*
X144878143Y-113308190D01*
X144782905Y-113260571D01*
X144687667Y-113260571D01*
X144592429Y-113308190D01*
X144544810Y-113355809D01*
X144497190Y-113451047D01*
X144449571Y-113641524D01*
X144401952Y-113736762D01*
X144354333Y-113784381D01*
X144259095Y-113832000D01*
X144163857Y-113832000D01*
X144068619Y-113784381D01*
X144021000Y-113736762D01*
X143973381Y-113641524D01*
X143973381Y-113403428D01*
X144021000Y-113260571D01*
X139956881Y-119451048D02*
X138956881Y-119451048D01*
X138956881Y-119212953D01*
X139004500Y-119070095D01*
X139099738Y-118974857D01*
X139194976Y-118927238D01*
X139385452Y-118879619D01*
X139528310Y-118879619D01*
X139718786Y-118927238D01*
X139814024Y-118974857D01*
X139909262Y-119070095D01*
X139956881Y-119212953D01*
X139956881Y-119451048D01*
X139909262Y-118498667D02*
X139956881Y-118355810D01*
X139956881Y-118117714D01*
X139909262Y-118022476D01*
X139861643Y-117974857D01*
X139766405Y-117927238D01*
X139671167Y-117927238D01*
X139575929Y-117974857D01*
X139528310Y-118022476D01*
X139480690Y-118117714D01*
X139433071Y-118308191D01*
X139385452Y-118403429D01*
X139337833Y-118451048D01*
X139242595Y-118498667D01*
X139147357Y-118498667D01*
X139052119Y-118451048D01*
X139004500Y-118403429D01*
X138956881Y-118308191D01*
X138956881Y-118070095D01*
X139004500Y-117927238D01*
X139956881Y-116927238D02*
X139480690Y-117260572D01*
X139956881Y-117498667D02*
X138956881Y-117498667D01*
X138956881Y-117117714D01*
X139004500Y-117022476D01*
X139052119Y-116974857D01*
X139147357Y-116927238D01*
X139290214Y-116927238D01*
X139385452Y-116974857D01*
X139433071Y-117022476D01*
X139480690Y-117117714D01*
X139480690Y-117498667D01*
X138909262Y-115784381D02*
X140194976Y-116641524D01*
X139861643Y-114879619D02*
X139909262Y-114927238D01*
X139956881Y-115070095D01*
X139956881Y-115165333D01*
X139909262Y-115308191D01*
X139814024Y-115403429D01*
X139718786Y-115451048D01*
X139528310Y-115498667D01*
X139385452Y-115498667D01*
X139194976Y-115451048D01*
X139099738Y-115403429D01*
X139004500Y-115308191D01*
X138956881Y-115165333D01*
X138956881Y-115070095D01*
X139004500Y-114927238D01*
X139052119Y-114879619D01*
X138956881Y-114593905D02*
X138956881Y-114022476D01*
X139956881Y-114308191D02*
X138956881Y-114308191D01*
X139909262Y-113736762D02*
X139956881Y-113593905D01*
X139956881Y-113355809D01*
X139909262Y-113260571D01*
X139861643Y-113212952D01*
X139766405Y-113165333D01*
X139671167Y-113165333D01*
X139575929Y-113212952D01*
X139528310Y-113260571D01*
X139480690Y-113355809D01*
X139433071Y-113546286D01*
X139385452Y-113641524D01*
X139337833Y-113689143D01*
X139242595Y-113736762D01*
X139147357Y-113736762D01*
X139052119Y-113689143D01*
X139004500Y-113641524D01*
X138956881Y-113546286D01*
X138956881Y-113308190D01*
X139004500Y-113165333D01*
X134845143Y-118641523D02*
X134892762Y-118689142D01*
X134940381Y-118831999D01*
X134940381Y-118927237D01*
X134892762Y-119070095D01*
X134797524Y-119165333D01*
X134702286Y-119212952D01*
X134511810Y-119260571D01*
X134368952Y-119260571D01*
X134178476Y-119212952D01*
X134083238Y-119165333D01*
X133988000Y-119070095D01*
X133940381Y-118927237D01*
X133940381Y-118831999D01*
X133988000Y-118689142D01*
X134035619Y-118641523D01*
X134654667Y-118260571D02*
X134654667Y-117784380D01*
X134940381Y-118355809D02*
X133940381Y-118022476D01*
X134940381Y-117689142D01*
X134940381Y-116784380D02*
X134464190Y-117117714D01*
X134940381Y-117355809D02*
X133940381Y-117355809D01*
X133940381Y-116974856D01*
X133988000Y-116879618D01*
X134035619Y-116831999D01*
X134130857Y-116784380D01*
X134273714Y-116784380D01*
X134368952Y-116831999D01*
X134416571Y-116879618D01*
X134464190Y-116974856D01*
X134464190Y-117355809D01*
X134940381Y-115784380D02*
X134464190Y-116117714D01*
X134940381Y-116355809D02*
X133940381Y-116355809D01*
X133940381Y-115974856D01*
X133988000Y-115879618D01*
X134035619Y-115831999D01*
X134130857Y-115784380D01*
X134273714Y-115784380D01*
X134368952Y-115831999D01*
X134416571Y-115879618D01*
X134464190Y-115974856D01*
X134464190Y-116355809D01*
X134940381Y-115355809D02*
X133940381Y-115355809D01*
X134416571Y-114879619D02*
X134416571Y-114546285D01*
X134940381Y-114403428D02*
X134940381Y-114879619D01*
X133940381Y-114879619D01*
X133940381Y-114403428D01*
X134940381Y-113403428D02*
X134464190Y-113736762D01*
X134940381Y-113974857D02*
X133940381Y-113974857D01*
X133940381Y-113593904D01*
X133988000Y-113498666D01*
X134035619Y-113451047D01*
X134130857Y-113403428D01*
X134273714Y-113403428D01*
X134368952Y-113451047D01*
X134416571Y-113498666D01*
X134464190Y-113593904D01*
X134464190Y-113974857D01*
X129923881Y-117403428D02*
X129447690Y-117736762D01*
X129923881Y-117974857D02*
X128923881Y-117974857D01*
X128923881Y-117593904D01*
X128971500Y-117498666D01*
X129019119Y-117451047D01*
X129114357Y-117403428D01*
X129257214Y-117403428D01*
X129352452Y-117451047D01*
X129400071Y-117498666D01*
X129447690Y-117593904D01*
X129447690Y-117974857D01*
X129400071Y-116974857D02*
X129400071Y-116641523D01*
X129923881Y-116498666D02*
X129923881Y-116974857D01*
X128923881Y-116974857D01*
X128923881Y-116498666D01*
X129828643Y-115498666D02*
X129876262Y-115546285D01*
X129923881Y-115689142D01*
X129923881Y-115784380D01*
X129876262Y-115927238D01*
X129781024Y-116022476D01*
X129685786Y-116070095D01*
X129495310Y-116117714D01*
X129352452Y-116117714D01*
X129161976Y-116070095D01*
X129066738Y-116022476D01*
X128971500Y-115927238D01*
X128923881Y-115784380D01*
X128923881Y-115689142D01*
X128971500Y-115546285D01*
X129019119Y-115498666D01*
X128923881Y-115212952D02*
X129923881Y-114879619D01*
X128923881Y-114546285D01*
X123970881Y-118284381D02*
X123970881Y-117712952D01*
X124970881Y-117998667D02*
X123970881Y-117998667D01*
X123970881Y-117474857D02*
X124970881Y-116808190D01*
X123970881Y-116808190D02*
X124970881Y-117474857D01*
X124970881Y-116427238D02*
X123970881Y-116427238D01*
X124685167Y-116093904D01*
X123970881Y-115760571D01*
X124970881Y-115760571D01*
X124970881Y-115284381D02*
X123970881Y-115284381D01*
X123970881Y-114951048D02*
X123970881Y-114379619D01*
X124970881Y-114665334D02*
X123970881Y-114665334D01*
X116952381Y-94333333D02*
X117666667Y-94333333D01*
X117809524Y-94380953D01*
X117904762Y-94476191D01*
X117952381Y-94619048D01*
X117952381Y-94714286D01*
X116952381Y-93380952D02*
X116952381Y-93857143D01*
X117428571Y-93904762D01*
X117380952Y-93857143D01*
X117333333Y-93761905D01*
X117333333Y-93523809D01*
X117380952Y-93428571D01*
X117428571Y-93380952D01*
X117523810Y-93333333D01*
X117761905Y-93333333D01*
X117857143Y-93380952D01*
X117904762Y-93428571D01*
X117952381Y-93523809D01*
X117952381Y-93761905D01*
X117904762Y-93857143D01*
X117857143Y-93904762D01*
X116952381Y-102533333D02*
X117666667Y-102533333D01*
X117809524Y-102580953D01*
X117904762Y-102676191D01*
X117952381Y-102819048D01*
X117952381Y-102914286D01*
X116952381Y-101628571D02*
X116952381Y-101819048D01*
X117000000Y-101914286D01*
X117047619Y-101961905D01*
X117190476Y-102057143D01*
X117380952Y-102104762D01*
X117761905Y-102104762D01*
X117857143Y-102057143D01*
X117904762Y-102009524D01*
X117952381Y-101914286D01*
X117952381Y-101723809D01*
X117904762Y-101628571D01*
X117857143Y-101580952D01*
X117761905Y-101533333D01*
X117523810Y-101533333D01*
X117428571Y-101580952D01*
X117380952Y-101628571D01*
X117333333Y-101723809D01*
X117333333Y-101914286D01*
X117380952Y-102009524D01*
X117428571Y-102057143D01*
X117523810Y-102104762D01*
D19*
X122916667Y-107178571D02*
X122892857Y-107202381D01*
X122821429Y-107226190D01*
X122773810Y-107226190D01*
X122702381Y-107202381D01*
X122654762Y-107154762D01*
X122630953Y-107107143D01*
X122607143Y-107011905D01*
X122607143Y-106940476D01*
X122630953Y-106845238D01*
X122654762Y-106797619D01*
X122702381Y-106750000D01*
X122773810Y-106726190D01*
X122821429Y-106726190D01*
X122892857Y-106750000D01*
X122916667Y-106773810D01*
X123392857Y-107226190D02*
X123107143Y-107226190D01*
X123250000Y-107226190D02*
X123250000Y-106726190D01*
X123202381Y-106797619D01*
X123154762Y-106845238D01*
X123107143Y-106869048D01*
X133316667Y-107178571D02*
X133292857Y-107202381D01*
X133221429Y-107226190D01*
X133173810Y-107226190D01*
X133102381Y-107202381D01*
X133054762Y-107154762D01*
X133030953Y-107107143D01*
X133007143Y-107011905D01*
X133007143Y-106940476D01*
X133030953Y-106845238D01*
X133054762Y-106797619D01*
X133102381Y-106750000D01*
X133173810Y-106726190D01*
X133221429Y-106726190D01*
X133292857Y-106750000D01*
X133316667Y-106773810D01*
X133507143Y-106773810D02*
X133530953Y-106750000D01*
X133578572Y-106726190D01*
X133697619Y-106726190D01*
X133745238Y-106750000D01*
X133769048Y-106773810D01*
X133792857Y-106821429D01*
X133792857Y-106869048D01*
X133769048Y-106940476D01*
X133483334Y-107226190D01*
X133792857Y-107226190D01*
X137578571Y-106883333D02*
X137602381Y-106907143D01*
X137626190Y-106978571D01*
X137626190Y-107026190D01*
X137602381Y-107097619D01*
X137554762Y-107145238D01*
X137507143Y-107169047D01*
X137411905Y-107192857D01*
X137340476Y-107192857D01*
X137245238Y-107169047D01*
X137197619Y-107145238D01*
X137150000Y-107097619D01*
X137126190Y-107026190D01*
X137126190Y-106978571D01*
X137150000Y-106907143D01*
X137173810Y-106883333D01*
X137126190Y-106716666D02*
X137126190Y-106407143D01*
X137316667Y-106573809D01*
X137316667Y-106502381D01*
X137340476Y-106454762D01*
X137364286Y-106430952D01*
X137411905Y-106407143D01*
X137530952Y-106407143D01*
X137578571Y-106430952D01*
X137602381Y-106454762D01*
X137626190Y-106502381D01*
X137626190Y-106645238D01*
X137602381Y-106692857D01*
X137578571Y-106716666D01*
X127916667Y-107178571D02*
X127892857Y-107202381D01*
X127821429Y-107226190D01*
X127773810Y-107226190D01*
X127702381Y-107202381D01*
X127654762Y-107154762D01*
X127630953Y-107107143D01*
X127607143Y-107011905D01*
X127607143Y-106940476D01*
X127630953Y-106845238D01*
X127654762Y-106797619D01*
X127702381Y-106750000D01*
X127773810Y-106726190D01*
X127821429Y-106726190D01*
X127892857Y-106750000D01*
X127916667Y-106773810D01*
X128345238Y-106892857D02*
X128345238Y-107226190D01*
X128226191Y-106702381D02*
X128107143Y-107059524D01*
X128416667Y-107059524D01*
X130417071Y-80855333D02*
X130440881Y-80879143D01*
X130464690Y-80950571D01*
X130464690Y-80998190D01*
X130440881Y-81069619D01*
X130393262Y-81117238D01*
X130345643Y-81141047D01*
X130250405Y-81164857D01*
X130178976Y-81164857D01*
X130083738Y-81141047D01*
X130036119Y-81117238D01*
X129988500Y-81069619D01*
X129964690Y-80998190D01*
X129964690Y-80950571D01*
X129988500Y-80879143D01*
X130012310Y-80855333D01*
X129964690Y-80402952D02*
X129964690Y-80641047D01*
X130202786Y-80664857D01*
X130178976Y-80641047D01*
X130155167Y-80593428D01*
X130155167Y-80474381D01*
X130178976Y-80426762D01*
X130202786Y-80402952D01*
X130250405Y-80379143D01*
X130369452Y-80379143D01*
X130417071Y-80402952D01*
X130440881Y-80426762D01*
X130464690Y-80474381D01*
X130464690Y-80593428D01*
X130440881Y-80641047D01*
X130417071Y-80664857D01*
X142601167Y-86284571D02*
X142577357Y-86308381D01*
X142505929Y-86332190D01*
X142458310Y-86332190D01*
X142386881Y-86308381D01*
X142339262Y-86260762D01*
X142315453Y-86213143D01*
X142291643Y-86117905D01*
X142291643Y-86046476D01*
X142315453Y-85951238D01*
X142339262Y-85903619D01*
X142386881Y-85856000D01*
X142458310Y-85832190D01*
X142505929Y-85832190D01*
X142577357Y-85856000D01*
X142601167Y-85879810D01*
X142767834Y-85832190D02*
X143101167Y-85832190D01*
X142886881Y-86332190D01*
X137578571Y-101683333D02*
X137602381Y-101707143D01*
X137626190Y-101778571D01*
X137626190Y-101826190D01*
X137602381Y-101897619D01*
X137554762Y-101945238D01*
X137507143Y-101969047D01*
X137411905Y-101992857D01*
X137340476Y-101992857D01*
X137245238Y-101969047D01*
X137197619Y-101945238D01*
X137150000Y-101897619D01*
X137126190Y-101826190D01*
X137126190Y-101778571D01*
X137150000Y-101707143D01*
X137173810Y-101683333D01*
X137340476Y-101397619D02*
X137316667Y-101445238D01*
X137292857Y-101469047D01*
X137245238Y-101492857D01*
X137221429Y-101492857D01*
X137173810Y-101469047D01*
X137150000Y-101445238D01*
X137126190Y-101397619D01*
X137126190Y-101302381D01*
X137150000Y-101254762D01*
X137173810Y-101230952D01*
X137221429Y-101207143D01*
X137245238Y-101207143D01*
X137292857Y-101230952D01*
X137316667Y-101254762D01*
X137340476Y-101302381D01*
X137340476Y-101397619D01*
X137364286Y-101445238D01*
X137388095Y-101469047D01*
X137435714Y-101492857D01*
X137530952Y-101492857D01*
X137578571Y-101469047D01*
X137602381Y-101445238D01*
X137626190Y-101397619D01*
X137626190Y-101302381D01*
X137602381Y-101254762D01*
X137578571Y-101230952D01*
X137530952Y-101207143D01*
X137435714Y-101207143D01*
X137388095Y-101230952D01*
X137364286Y-101254762D01*
X137340476Y-101302381D01*
X166167571Y-88284833D02*
X166191381Y-88308643D01*
X166215190Y-88380071D01*
X166215190Y-88427690D01*
X166191381Y-88499119D01*
X166143762Y-88546738D01*
X166096143Y-88570547D01*
X166000905Y-88594357D01*
X165929476Y-88594357D01*
X165834238Y-88570547D01*
X165786619Y-88546738D01*
X165739000Y-88499119D01*
X165715190Y-88427690D01*
X165715190Y-88380071D01*
X165739000Y-88308643D01*
X165762810Y-88284833D01*
X166215190Y-88046738D02*
X166215190Y-87951500D01*
X166191381Y-87903881D01*
X166167571Y-87880071D01*
X166096143Y-87832452D01*
X166000905Y-87808643D01*
X165810429Y-87808643D01*
X165762810Y-87832452D01*
X165739000Y-87856262D01*
X165715190Y-87903881D01*
X165715190Y-87999119D01*
X165739000Y-88046738D01*
X165762810Y-88070547D01*
X165810429Y-88094357D01*
X165929476Y-88094357D01*
X165977095Y-88070547D01*
X166000905Y-88046738D01*
X166024714Y-87999119D01*
X166024714Y-87903881D01*
X166000905Y-87856262D01*
X165977095Y-87832452D01*
X165929476Y-87808643D01*
X130155167Y-86475071D02*
X130131357Y-86498881D01*
X130059929Y-86522690D01*
X130012310Y-86522690D01*
X129940881Y-86498881D01*
X129893262Y-86451262D01*
X129869453Y-86403643D01*
X129845643Y-86308405D01*
X129845643Y-86236976D01*
X129869453Y-86141738D01*
X129893262Y-86094119D01*
X129940881Y-86046500D01*
X130012310Y-86022690D01*
X130059929Y-86022690D01*
X130131357Y-86046500D01*
X130155167Y-86070310D01*
X130583738Y-86022690D02*
X130488500Y-86022690D01*
X130440881Y-86046500D01*
X130417072Y-86070310D01*
X130369453Y-86141738D01*
X130345643Y-86236976D01*
X130345643Y-86427452D01*
X130369453Y-86475071D01*
X130393262Y-86498881D01*
X130440881Y-86522690D01*
X130536119Y-86522690D01*
X130583738Y-86498881D01*
X130607548Y-86475071D01*
X130631357Y-86427452D01*
X130631357Y-86308405D01*
X130607548Y-86260786D01*
X130583738Y-86236976D01*
X130536119Y-86213167D01*
X130440881Y-86213167D01*
X130393262Y-86236976D01*
X130369453Y-86260786D01*
X130345643Y-86308405D01*
D20*
X154904524Y-100167619D02*
X155932619Y-100167619D01*
X156053571Y-100107143D01*
X156114048Y-100046667D01*
X156174524Y-99925714D01*
X156174524Y-99683810D01*
X156114048Y-99562857D01*
X156053571Y-99502381D01*
X155932619Y-99441905D01*
X154904524Y-99441905D01*
X154904524Y-98958095D02*
X154904524Y-98171905D01*
X155388333Y-98595238D01*
X155388333Y-98413810D01*
X155448810Y-98292857D01*
X155509286Y-98232381D01*
X155630238Y-98171905D01*
X155932619Y-98171905D01*
X156053571Y-98232381D01*
X156114048Y-98292857D01*
X156174524Y-98413810D01*
X156174524Y-98776667D01*
X156114048Y-98897619D01*
X156053571Y-98958095D01*
X158309286Y-102707619D02*
X158309286Y-102284286D01*
X158974524Y-102102857D02*
X158974524Y-102707619D01*
X157704524Y-102707619D01*
X157704524Y-102102857D01*
X158914048Y-101619047D02*
X158974524Y-101437619D01*
X158974524Y-101135238D01*
X158914048Y-101014285D01*
X158853571Y-100953809D01*
X158732619Y-100893333D01*
X158611667Y-100893333D01*
X158490714Y-100953809D01*
X158430238Y-101014285D01*
X158369762Y-101135238D01*
X158309286Y-101377142D01*
X158248810Y-101498095D01*
X158188333Y-101558571D01*
X158067381Y-101619047D01*
X157946429Y-101619047D01*
X157825476Y-101558571D01*
X157765000Y-101498095D01*
X157704524Y-101377142D01*
X157704524Y-101074762D01*
X157765000Y-100893333D01*
X158974524Y-100349047D02*
X157704524Y-100349047D01*
X157704524Y-99865238D01*
X157765000Y-99744285D01*
X157825476Y-99683809D01*
X157946429Y-99623333D01*
X158127857Y-99623333D01*
X158248810Y-99683809D01*
X158309286Y-99744285D01*
X158369762Y-99865238D01*
X158369762Y-100349047D01*
X158490714Y-99079047D02*
X158490714Y-98111428D01*
X157704524Y-97264761D02*
X157704524Y-97143809D01*
X157765000Y-97022857D01*
X157825476Y-96962380D01*
X157946429Y-96901904D01*
X158188333Y-96841428D01*
X158490714Y-96841428D01*
X158732619Y-96901904D01*
X158853571Y-96962380D01*
X158914048Y-97022857D01*
X158974524Y-97143809D01*
X158974524Y-97264761D01*
X158914048Y-97385714D01*
X158853571Y-97446190D01*
X158732619Y-97506666D01*
X158490714Y-97567142D01*
X158188333Y-97567142D01*
X157946429Y-97506666D01*
X157825476Y-97446190D01*
X157765000Y-97385714D01*
X157704524Y-97264761D01*
X157704524Y-96418094D02*
X157704524Y-95631904D01*
X158188333Y-96055237D01*
X158188333Y-95873809D01*
X158248810Y-95752856D01*
X158309286Y-95692380D01*
X158430238Y-95631904D01*
X158732619Y-95631904D01*
X158853571Y-95692380D01*
X158914048Y-95752856D01*
X158974524Y-95873809D01*
X158974524Y-96236666D01*
X158914048Y-96357618D01*
X158853571Y-96418094D01*
D15*
X149756834Y-113623381D02*
X149423500Y-113147190D01*
X149185405Y-113623381D02*
X149185405Y-112623381D01*
X149566358Y-112623381D01*
X149661596Y-112671000D01*
X149709215Y-112718619D01*
X149756834Y-112813857D01*
X149756834Y-112956714D01*
X149709215Y-113051952D01*
X149661596Y-113099571D01*
X149566358Y-113147190D01*
X149185405Y-113147190D01*
X150090167Y-112623381D02*
X150709215Y-112623381D01*
X150375881Y-113004333D01*
X150518739Y-113004333D01*
X150613977Y-113051952D01*
X150661596Y-113099571D01*
X150709215Y-113194810D01*
X150709215Y-113432905D01*
X150661596Y-113528143D01*
X150613977Y-113575762D01*
X150518739Y-113623381D01*
X150233024Y-113623381D01*
X150137786Y-113575762D01*
X150090167Y-113528143D01*
D21*
X103555508Y-97914487D02*
X103845793Y-97914487D01*
X103903850Y-97933839D01*
X103942555Y-97972544D01*
X103961908Y-98030601D01*
X103961908Y-98069306D01*
X103594212Y-97740315D02*
X103574860Y-97720963D01*
X103555508Y-97682258D01*
X103555508Y-97585496D01*
X103574860Y-97546792D01*
X103594212Y-97527439D01*
X103632917Y-97508087D01*
X103671622Y-97508087D01*
X103729679Y-97527439D01*
X103961908Y-97759668D01*
X103961908Y-97508087D01*
D15*
X148403381Y-80406833D02*
X149117667Y-80406833D01*
X149260524Y-80454453D01*
X149355762Y-80549691D01*
X149403381Y-80692548D01*
X149403381Y-80787786D01*
X149403381Y-79406833D02*
X149403381Y-79978262D01*
X149403381Y-79692548D02*
X148403381Y-79692548D01*
X148546238Y-79787786D01*
X148641476Y-79883024D01*
X148689095Y-79978262D01*
M02*
