G04 #@! TF.FileFunction,Copper,L1,Top,Signal*
%FSLAX46Y46*%
G04 Gerber Fmt 4.6, Leading zero omitted, Abs format (unit mm)*
G04 Created by KiCad (PCBNEW 4.0.5+dfsg1-4) date Sat Sep  8 02:59:27 2018*
%MOMM*%
%LPD*%
G01*
G04 APERTURE LIST*
%ADD10C,0.100000*%
%ADD11O,1.510000X3.010000*%
%ADD12R,3.500000X3.500000*%
%ADD13R,1.700000X2.000000*%
%ADD14R,3.800000X2.000000*%
%ADD15R,1.500000X2.000000*%
%ADD16R,1.950000X0.600000*%
%ADD17R,1.000000X1.700000*%
%ADD18R,1.600000X1.000000*%
%ADD19R,1.270000X0.970000*%
%ADD20R,1.000000X1.600000*%
%ADD21R,1.000000X1.500000*%
%ADD22R,2.000000X1.700000*%
%ADD23R,1.879600X1.879600*%
%ADD24C,1.879600*%
%ADD25C,5.080000*%
%ADD26R,1.727200X2.032000*%
%ADD27O,1.727200X2.032000*%
%ADD28C,0.600000*%
%ADD29C,0.450000*%
%ADD30C,0.400000*%
%ADD31C,0.250000*%
%ADD32C,0.500000*%
%ADD33C,0.254000*%
G04 APERTURE END LIST*
D10*
D11*
X145400000Y-77800000D03*
X147940000Y-77800000D03*
D12*
X119380000Y-84010500D03*
X119380000Y-78010500D03*
X114680000Y-81010500D03*
D13*
X156400000Y-86000000D03*
X156400000Y-90000000D03*
X161200000Y-85800000D03*
X161200000Y-89800000D03*
D14*
X136525000Y-85573000D03*
D15*
X136525000Y-79273000D03*
X134225000Y-79273000D03*
X138825000Y-79273000D03*
D16*
X133900000Y-104315000D03*
X133900000Y-103045000D03*
X133900000Y-101775000D03*
X133900000Y-100505000D03*
X133900000Y-99235000D03*
X133900000Y-97965000D03*
X133900000Y-96695000D03*
X133900000Y-95425000D03*
X133900000Y-94155000D03*
X133900000Y-92885000D03*
X124500000Y-92885000D03*
X124500000Y-94155000D03*
X124500000Y-95425000D03*
X124500000Y-96695000D03*
X124500000Y-97965000D03*
X124500000Y-99235000D03*
X124500000Y-100505000D03*
X124500000Y-101775000D03*
X124500000Y-103045000D03*
X124500000Y-104315000D03*
D17*
X152100000Y-101850000D03*
X152100000Y-108150000D03*
X148300000Y-101850000D03*
X148300000Y-108150000D03*
X152100000Y-89650000D03*
X152100000Y-95950000D03*
X148300000Y-89650000D03*
X148300000Y-95950000D03*
D18*
X117411500Y-117832000D03*
X117411500Y-114832000D03*
X142621000Y-117832000D03*
X142621000Y-114832000D03*
X137604500Y-117832000D03*
X137604500Y-114832000D03*
X132588000Y-117832000D03*
X132588000Y-114832000D03*
X127571500Y-117832000D03*
X127571500Y-114832000D03*
X122618500Y-117832000D03*
X122618500Y-114832000D03*
D19*
X115800000Y-95270000D03*
X115800000Y-94000000D03*
X115800000Y-92730000D03*
X115800000Y-103470000D03*
X115800000Y-102200000D03*
X115800000Y-100930000D03*
D20*
X124500000Y-107000000D03*
X121500000Y-107000000D03*
X131900000Y-107000000D03*
X134900000Y-107000000D03*
D18*
X137400000Y-105300000D03*
X137400000Y-108300000D03*
D20*
X129500000Y-107000000D03*
X126500000Y-107000000D03*
D18*
X130238500Y-79272000D03*
X130238500Y-82272000D03*
X142684500Y-87606000D03*
X142684500Y-84606000D03*
X137400000Y-103100000D03*
X137400000Y-100100000D03*
X165989000Y-86701500D03*
X165989000Y-89701500D03*
X130238500Y-87796500D03*
X130238500Y-84796500D03*
D21*
X172798060Y-105000000D03*
X170799080Y-105000000D03*
X160801640Y-105000000D03*
X160801640Y-92800000D03*
X162800620Y-92800000D03*
X168797560Y-92800000D03*
X166801120Y-92800000D03*
X170799080Y-92800000D03*
X164802140Y-92800000D03*
X168797560Y-105000000D03*
X162800620Y-105000000D03*
X166801120Y-105000000D03*
X164802140Y-105000000D03*
X172798060Y-92800000D03*
D22*
X151923500Y-110871000D03*
X147923500Y-110871000D03*
D23*
X108019860Y-103539740D03*
D24*
X108019860Y-100768600D03*
X108019860Y-98000000D03*
X108019860Y-95231400D03*
X108019860Y-92460260D03*
X105180140Y-102147820D03*
X105180140Y-99379220D03*
X105180140Y-96620780D03*
X105180140Y-93852180D03*
D25*
X106600000Y-110499340D03*
X106600000Y-85500660D03*
D26*
X154051000Y-80073500D03*
D27*
X156591000Y-80073500D03*
X159131000Y-80073500D03*
X161671000Y-80073500D03*
D28*
X122800000Y-102171500D03*
X165322250Y-91090750D03*
X136000000Y-102200000D03*
X148300000Y-91400000D03*
X149200000Y-108400000D03*
X159800000Y-105000000D03*
X163766500Y-102616000D03*
X126873000Y-111252000D03*
X127800000Y-97400000D03*
X142748000Y-97980500D03*
X129984500Y-92646500D03*
X166116000Y-103314500D03*
X128524000Y-111252000D03*
X166179500Y-94234000D03*
X158623000Y-95885000D03*
X136842500Y-112839500D03*
X138000000Y-95400000D03*
X170815000Y-94424500D03*
X140589000Y-112585500D03*
X140000000Y-94155000D03*
X120967500Y-99441000D03*
X138684000Y-111760000D03*
X138303000Y-92900500D03*
X112458500Y-92773500D03*
X118200000Y-100711000D03*
X118618000Y-98552000D03*
X113000000Y-96600000D03*
X113200000Y-100400000D03*
D29*
X161200000Y-83656000D02*
X161200000Y-85800000D01*
X165989000Y-86701500D02*
X172045500Y-86701500D01*
X172798060Y-87454060D02*
X172798060Y-92800000D01*
X172045500Y-86701500D02*
X172798060Y-87454060D01*
X130238500Y-87796500D02*
X124357000Y-87796500D01*
X122793500Y-94155000D02*
X124500000Y-94155000D01*
X121983500Y-93345000D02*
X122793500Y-94155000D01*
X121983500Y-90170000D02*
X121983500Y-93345000D01*
X124357000Y-87796500D02*
X121983500Y-90170000D01*
X136525000Y-85573000D02*
X139294000Y-85573000D01*
X141327000Y-87606000D02*
X142684500Y-87606000D01*
X139294000Y-85573000D02*
X141327000Y-87606000D01*
X130238500Y-87796500D02*
X131596000Y-87796500D01*
X133819500Y-85573000D02*
X136525000Y-85573000D01*
X131596000Y-87796500D02*
X133819500Y-85573000D01*
X136525000Y-79273000D02*
X136525000Y-85573000D01*
X117400000Y-114820500D02*
X117400000Y-113200000D01*
X124200000Y-108800000D02*
X124199540Y-108800000D01*
X124200000Y-110400000D02*
X124200000Y-108800000D01*
X123400000Y-111200000D02*
X124200000Y-110400000D01*
X119400000Y-111200000D02*
X123400000Y-111200000D01*
X117400000Y-113200000D02*
X119400000Y-111200000D01*
X117400000Y-114820500D02*
X117411500Y-114832000D01*
X136271000Y-109600000D02*
X146652500Y-109600000D01*
X146652500Y-109600000D02*
X147923500Y-110871000D01*
D30*
X124500000Y-94155000D02*
X125383500Y-94155000D01*
D29*
X125783500Y-103045000D02*
X124500000Y-103045000D01*
D30*
X126428500Y-102400000D02*
X125783500Y-103045000D01*
X126428500Y-95200000D02*
X126428500Y-102400000D01*
X125383500Y-94155000D02*
X126428500Y-95200000D01*
D29*
X161200000Y-85800000D02*
X164600000Y-85800000D01*
D30*
X164600000Y-85800000D02*
X165400000Y-86600000D01*
D29*
X156400000Y-86000000D02*
X161000000Y-86000000D01*
D30*
X161000000Y-86000000D02*
X161200000Y-85800000D01*
D29*
X142600000Y-87799540D02*
X146000460Y-87799540D01*
X147800000Y-86000000D02*
X156400000Y-86000000D01*
D30*
X146000460Y-87799540D02*
X147800000Y-86000000D01*
D29*
X124600000Y-109600000D02*
X136271000Y-109600000D01*
X124199540Y-108800000D02*
X124199540Y-109199540D01*
X124199540Y-109199540D02*
X124600000Y-109600000D01*
D30*
X136271000Y-109600000D02*
X136400000Y-109600000D01*
X136400000Y-109600000D02*
X137400000Y-108600000D01*
X124199540Y-107000000D02*
X124199540Y-108800000D01*
D29*
X124500000Y-104315000D02*
X124500000Y-106699540D01*
D30*
X124500000Y-106699540D02*
X124199540Y-107000000D01*
D29*
X124500000Y-103045000D02*
X124500000Y-104315000D01*
D31*
X156600000Y-85800000D02*
X156400000Y-86000000D01*
X124500000Y-106699540D02*
X124199540Y-107000000D01*
D29*
X161720000Y-80600000D02*
X161720000Y-83136000D01*
X161720000Y-83136000D02*
X161200000Y-83656000D01*
D32*
X161720000Y-79720000D02*
X161720000Y-80600000D01*
D31*
X164802140Y-92800000D02*
X164802140Y-91610860D01*
X165989000Y-90424000D02*
X165989000Y-89701500D01*
X164802140Y-91610860D02*
X165322250Y-91090750D01*
X165322250Y-91090750D02*
X165989000Y-90424000D01*
X139225000Y-78873000D02*
X138825000Y-79273000D01*
X138875000Y-79223000D02*
X138825000Y-79273000D01*
X124500000Y-101775000D02*
X123025000Y-101775000D01*
X122800000Y-102000000D02*
X122800000Y-102171500D01*
X122800000Y-102171500D02*
X122800000Y-102200000D01*
X123025000Y-101775000D02*
X122800000Y-102000000D01*
X137400000Y-102999540D02*
X136799540Y-102999540D01*
X136799540Y-102999540D02*
X136000000Y-102200000D01*
X148300000Y-108150000D02*
X148950000Y-108150000D01*
X148950000Y-108150000D02*
X149200000Y-108400000D01*
X160801640Y-105000000D02*
X159800000Y-105000000D01*
X148300000Y-107500000D02*
X148300000Y-108150000D01*
X148300000Y-96700000D02*
X148300000Y-95950000D01*
X148300000Y-95950000D02*
X148300000Y-91400000D01*
X148300000Y-91400000D02*
X148300000Y-89650000D01*
X148394000Y-77346000D02*
X147940000Y-77800000D01*
X139124540Y-78973460D02*
X138825000Y-79273000D01*
X133900000Y-101775000D02*
X132025000Y-101775000D01*
X131600000Y-102200000D02*
X131600000Y-106599540D01*
X132025000Y-101775000D02*
X131600000Y-102200000D01*
X131600000Y-106599540D02*
X132000460Y-107000000D01*
X133900000Y-104315000D02*
X133900000Y-106100460D01*
X133900000Y-106100460D02*
X134799540Y-107000000D01*
X133900000Y-103045000D02*
X135045000Y-103045000D01*
X135800460Y-105400460D02*
X137400000Y-105400460D01*
X135400000Y-105000000D02*
X135800460Y-105400460D01*
X135400000Y-103400000D02*
X135400000Y-105000000D01*
X135045000Y-103045000D02*
X135400000Y-103400000D01*
X133945000Y-103000000D02*
X133900000Y-103045000D01*
X129399540Y-107000000D02*
X129399540Y-105800460D01*
X130600000Y-105000000D02*
X130600000Y-102200000D01*
X130200000Y-105400000D02*
X130600000Y-105000000D01*
X129800000Y-105400000D02*
X130200000Y-105400000D01*
X129399540Y-105800460D02*
X129800000Y-105400000D01*
X133900000Y-100505000D02*
X132295000Y-100505000D01*
X132295000Y-100505000D02*
X130600000Y-102200000D01*
X129399540Y-107000000D02*
X129399540Y-106400460D01*
X126600460Y-105600000D02*
X126600460Y-105199540D01*
X129800000Y-104000000D02*
X129800000Y-101000000D01*
X129200000Y-104600000D02*
X129800000Y-104000000D01*
X127200000Y-104600000D02*
X129200000Y-104600000D01*
X126600460Y-105199540D02*
X127200000Y-104600000D01*
X133900000Y-99235000D02*
X131565000Y-99235000D01*
X131565000Y-99235000D02*
X129800000Y-101000000D01*
X126600460Y-105600000D02*
X126600460Y-107000000D01*
X126600460Y-106199540D02*
X126600460Y-107000000D01*
D32*
X119380000Y-84010500D02*
X122872500Y-84010500D01*
X127611000Y-79272000D02*
X130238500Y-79272000D01*
X122872500Y-84010500D02*
X127611000Y-79272000D01*
X145400000Y-77800000D02*
X142951000Y-77800000D01*
X134225000Y-77420500D02*
X134225000Y-79273000D01*
X135001000Y-76644500D02*
X134225000Y-77420500D01*
X141795500Y-76644500D02*
X135001000Y-76644500D01*
X142951000Y-77800000D02*
X141795500Y-76644500D01*
X130238500Y-79272000D02*
X134224000Y-79272000D01*
X134224000Y-79272000D02*
X134225000Y-79273000D01*
X145400000Y-77800000D02*
X145400000Y-76800000D01*
X134225000Y-79273000D02*
X133675000Y-79273000D01*
X145100000Y-77500000D02*
X145400000Y-77800000D01*
D31*
X145100000Y-77500000D02*
X145400000Y-77800000D01*
X145300000Y-77700000D02*
X145400000Y-77800000D01*
X133900000Y-97965000D02*
X136965000Y-97965000D01*
X137400000Y-98400000D02*
X137400000Y-100200460D01*
X136965000Y-97965000D02*
X137400000Y-98400000D01*
X133935000Y-98000000D02*
X133900000Y-97965000D01*
X164802140Y-105000000D02*
X164802140Y-103270640D01*
X164802140Y-103270640D02*
X164147500Y-102616000D01*
X164147500Y-102616000D02*
X163766500Y-102616000D01*
X142303500Y-97091500D02*
X142303500Y-97103500D01*
X141895000Y-96695000D02*
X142303500Y-97103500D01*
X133900000Y-96695000D02*
X141895000Y-96695000D01*
X142748000Y-97536000D02*
X142303500Y-97091500D01*
X122618500Y-114832000D02*
X122618500Y-113855500D01*
X125158500Y-112966500D02*
X126873000Y-111252000D01*
X123507500Y-112966500D02*
X125158500Y-112966500D01*
X122618500Y-113855500D02*
X123507500Y-112966500D01*
X133900000Y-96695000D02*
X128705000Y-96695000D01*
X128000000Y-97400000D02*
X127800000Y-97400000D01*
X128705000Y-96695000D02*
X128000000Y-97400000D01*
X123200000Y-114600000D02*
X123400000Y-114600000D01*
X122600000Y-115200000D02*
X123200000Y-114600000D01*
X142748000Y-97980500D02*
X142748000Y-97548000D01*
X142748000Y-97548000D02*
X142748000Y-97536000D01*
X124500000Y-92885000D02*
X129746000Y-92885000D01*
X129746000Y-92885000D02*
X129984500Y-92646500D01*
X166801120Y-105000000D02*
X166801120Y-103999620D01*
X166801120Y-103999620D02*
X166116000Y-103314500D01*
X127571500Y-114832000D02*
X127571500Y-112204500D01*
X127571500Y-112204500D02*
X128524000Y-111252000D01*
X124615000Y-93000000D02*
X124500000Y-92885000D01*
X124500000Y-92885000D02*
X125600000Y-92885000D01*
X125600000Y-92885000D02*
X125725000Y-92885000D01*
X140652500Y-95425000D02*
X143113500Y-95425000D01*
X156718000Y-97726500D02*
X156781500Y-97726500D01*
X155765500Y-98679000D02*
X156718000Y-97726500D01*
X146367500Y-98679000D02*
X155765500Y-98679000D01*
X143113500Y-95425000D02*
X146367500Y-98679000D01*
X166801120Y-92800000D02*
X166801120Y-93612380D01*
X166801120Y-93612380D02*
X166179500Y-94234000D01*
X158623000Y-95885000D02*
X156781500Y-97726500D01*
X137600000Y-95425000D02*
X140652500Y-95425000D01*
X132588000Y-114832000D02*
X132588000Y-113982500D01*
X136334500Y-113347500D02*
X136842500Y-112839500D01*
X133223000Y-113347500D02*
X136334500Y-113347500D01*
X132588000Y-113982500D02*
X133223000Y-113347500D01*
X137600000Y-95425000D02*
X137975000Y-95425000D01*
X137975000Y-95425000D02*
X138000000Y-95400000D01*
X133900000Y-95425000D02*
X137600000Y-95425000D01*
X170799080Y-92800000D02*
X170799080Y-94408580D01*
X170799080Y-94408580D02*
X170815000Y-94424500D01*
X142621000Y-114832000D02*
X141438500Y-114832000D01*
X140589000Y-113982500D02*
X140589000Y-112585500D01*
X141438500Y-114832000D02*
X140589000Y-113982500D01*
X133900000Y-94155000D02*
X140000000Y-94155000D01*
X121173500Y-99235000D02*
X124500000Y-99235000D01*
X120967500Y-99441000D02*
X121173500Y-99235000D01*
X108019860Y-100768600D02*
X109431400Y-100768600D01*
X119705000Y-100505000D02*
X124500000Y-100505000D01*
X118800000Y-99600000D02*
X119705000Y-100505000D01*
X110600000Y-99600000D02*
X118800000Y-99600000D01*
X109431400Y-100768600D02*
X110600000Y-99600000D01*
X108019860Y-98000000D02*
X117800000Y-98000000D01*
X119105000Y-96695000D02*
X124500000Y-96695000D01*
X117800000Y-98000000D02*
X119105000Y-96695000D01*
X108019860Y-95231400D02*
X115761400Y-95231400D01*
X115761400Y-95231400D02*
X115800000Y-95270000D01*
X108226260Y-95025000D02*
X108019860Y-95231400D01*
X156400000Y-90000000D02*
X156400000Y-92800000D01*
X160801640Y-92800000D02*
X156400000Y-92800000D01*
X156400000Y-92800000D02*
X152100000Y-92800000D01*
X152100000Y-92800000D02*
X152200000Y-92800000D01*
X152200000Y-92800000D02*
X152100000Y-92800000D01*
X152100000Y-89650000D02*
X152100000Y-92800000D01*
X152100000Y-92800000D02*
X152100000Y-95950000D01*
X152400000Y-95650000D02*
X152100000Y-95950000D01*
X156400000Y-90000000D02*
X155800000Y-90000000D01*
X160800000Y-92798360D02*
X160801640Y-92800000D01*
X152200000Y-96050000D02*
X152100000Y-95950000D01*
X161200000Y-89800000D02*
X162200000Y-89800000D01*
X162800620Y-90400620D02*
X162800620Y-92800000D01*
X162200000Y-89800000D02*
X162800620Y-90400620D01*
X158178500Y-95059500D02*
X157670500Y-95059500D01*
X141922500Y-92900500D02*
X138303000Y-92900500D01*
X146748500Y-97726500D02*
X141922500Y-92900500D01*
X155003500Y-97726500D02*
X146748500Y-97726500D01*
X157670500Y-95059500D02*
X155003500Y-97726500D01*
X167830500Y-95059500D02*
X168797560Y-94092440D01*
X158178500Y-95059500D02*
X167830500Y-95059500D01*
X137604500Y-114832000D02*
X137604500Y-113284000D01*
X137604500Y-113284000D02*
X138684000Y-112204500D01*
X138684000Y-112204500D02*
X138684000Y-111760000D01*
X138112500Y-92900500D02*
X138112500Y-92885000D01*
X138303000Y-92900500D02*
X138287500Y-92885000D01*
X138287500Y-92885000D02*
X138128000Y-92885000D01*
X138128000Y-92885000D02*
X138112500Y-92900500D01*
X133900000Y-92885000D02*
X138112500Y-92885000D01*
X168797560Y-94092440D02*
X168797560Y-92800000D01*
X112502000Y-92730000D02*
X115800000Y-92730000D01*
X112458500Y-92773500D02*
X112502000Y-92730000D01*
X115800000Y-92730000D02*
X115800000Y-94000000D01*
X115800000Y-94000000D02*
X117800000Y-94000000D01*
X117800000Y-94000000D02*
X119225000Y-95425000D01*
X119225000Y-95425000D02*
X124500000Y-95425000D01*
X105180140Y-102147820D02*
X111652180Y-102147820D01*
X112974360Y-103470000D02*
X115800000Y-103470000D01*
X111652180Y-102147820D02*
X112974360Y-103470000D01*
X117348000Y-102200000D02*
X118200000Y-101348000D01*
X118200000Y-101348000D02*
X118200000Y-100711000D01*
X122745500Y-97965000D02*
X119205000Y-97965000D01*
X124500000Y-97965000D02*
X122745500Y-97965000D01*
X119205000Y-97965000D02*
X118618000Y-98552000D01*
X105180140Y-96620780D02*
X112979220Y-96620780D01*
X112979220Y-96620780D02*
X113000000Y-96600000D01*
X113000000Y-96600000D02*
X112979220Y-96620780D01*
X114000000Y-100930000D02*
X113730000Y-100930000D01*
X113730000Y-100930000D02*
X113200000Y-100400000D01*
X114000000Y-100930000D02*
X115800000Y-100930000D01*
X115800000Y-100930000D02*
X115800000Y-102200000D01*
X117348000Y-102200000D02*
X115800000Y-102200000D01*
X105180140Y-96620780D02*
X104379220Y-96620780D01*
X152100000Y-101850000D02*
X152100000Y-108150000D01*
X152100000Y-108150000D02*
X169726000Y-108150000D01*
X169726000Y-108150000D02*
X170799080Y-107076920D01*
X170799080Y-107076920D02*
X170799080Y-105000000D01*
X151923500Y-110871000D02*
X151923500Y-108326500D01*
X151923500Y-108326500D02*
X152100000Y-108150000D01*
X151923500Y-110871000D02*
X151923500Y-111665000D01*
X152450000Y-102200000D02*
X152100000Y-101850000D01*
D33*
G36*
X116995000Y-77724750D02*
X117153750Y-77883500D01*
X119253000Y-77883500D01*
X119253000Y-77863500D01*
X119507000Y-77863500D01*
X119507000Y-77883500D01*
X121606250Y-77883500D01*
X121765000Y-77724750D01*
X121765000Y-76327000D01*
X134066921Y-76327000D01*
X133599210Y-76794710D01*
X133407367Y-77081825D01*
X133399664Y-77120552D01*
X133339999Y-77420500D01*
X133340000Y-77420505D01*
X133340000Y-77650962D01*
X133239683Y-77669838D01*
X133023559Y-77808910D01*
X132878569Y-78021110D01*
X132827560Y-78273000D01*
X132827560Y-78387000D01*
X131545344Y-78387000D01*
X131502590Y-78320559D01*
X131290390Y-78175569D01*
X131038500Y-78124560D01*
X129438500Y-78124560D01*
X129203183Y-78168838D01*
X128987059Y-78307910D01*
X128933019Y-78387000D01*
X127611005Y-78387000D01*
X127611000Y-78386999D01*
X127328516Y-78443190D01*
X127272325Y-78454367D01*
X126985210Y-78646210D01*
X126985208Y-78646213D01*
X122505920Y-83125500D01*
X121777440Y-83125500D01*
X121777440Y-82260500D01*
X121733162Y-82025183D01*
X121594090Y-81809059D01*
X121381890Y-81664069D01*
X121130000Y-81613060D01*
X117630000Y-81613060D01*
X117394683Y-81657338D01*
X117178559Y-81796410D01*
X117065000Y-81962609D01*
X117065000Y-81296250D01*
X116906250Y-81137500D01*
X114807000Y-81137500D01*
X114807000Y-83236750D01*
X114965750Y-83395500D01*
X116556310Y-83395500D01*
X116789699Y-83298827D01*
X116968327Y-83120198D01*
X116982560Y-83085837D01*
X116982560Y-85760500D01*
X117026838Y-85995817D01*
X117165910Y-86211941D01*
X117378110Y-86356931D01*
X117630000Y-86407940D01*
X121130000Y-86407940D01*
X121365317Y-86363662D01*
X121581441Y-86224590D01*
X121726431Y-86012390D01*
X121777440Y-85760500D01*
X121777440Y-85082250D01*
X128803500Y-85082250D01*
X128803500Y-85422809D01*
X128900173Y-85656198D01*
X129078801Y-85834827D01*
X129312190Y-85931500D01*
X129952750Y-85931500D01*
X130111500Y-85772750D01*
X130111500Y-84923500D01*
X130365500Y-84923500D01*
X130365500Y-85772750D01*
X130524250Y-85931500D01*
X131164810Y-85931500D01*
X131398199Y-85834827D01*
X131576827Y-85656198D01*
X131673500Y-85422809D01*
X131673500Y-85082250D01*
X131514750Y-84923500D01*
X130365500Y-84923500D01*
X130111500Y-84923500D01*
X128962250Y-84923500D01*
X128803500Y-85082250D01*
X121777440Y-85082250D01*
X121777440Y-84895500D01*
X122872495Y-84895500D01*
X122872500Y-84895501D01*
X123154984Y-84839310D01*
X123211175Y-84828133D01*
X123498290Y-84636290D01*
X123964388Y-84170191D01*
X128803500Y-84170191D01*
X128803500Y-84510750D01*
X128962250Y-84669500D01*
X130111500Y-84669500D01*
X130111500Y-83820250D01*
X130365500Y-83820250D01*
X130365500Y-84669500D01*
X131514750Y-84669500D01*
X131673500Y-84510750D01*
X131673500Y-84170191D01*
X131576827Y-83936802D01*
X131398199Y-83758173D01*
X131164810Y-83661500D01*
X130524250Y-83661500D01*
X130365500Y-83820250D01*
X130111500Y-83820250D01*
X129952750Y-83661500D01*
X129312190Y-83661500D01*
X129078801Y-83758173D01*
X128900173Y-83936802D01*
X128803500Y-84170191D01*
X123964388Y-84170191D01*
X125576829Y-82557750D01*
X128803500Y-82557750D01*
X128803500Y-82898309D01*
X128900173Y-83131698D01*
X129078801Y-83310327D01*
X129312190Y-83407000D01*
X129952750Y-83407000D01*
X130111500Y-83248250D01*
X130111500Y-82399000D01*
X130365500Y-82399000D01*
X130365500Y-83248250D01*
X130524250Y-83407000D01*
X131164810Y-83407000D01*
X131398199Y-83310327D01*
X131576827Y-83131698D01*
X131673500Y-82898309D01*
X131673500Y-82557750D01*
X131514750Y-82399000D01*
X130365500Y-82399000D01*
X130111500Y-82399000D01*
X128962250Y-82399000D01*
X128803500Y-82557750D01*
X125576829Y-82557750D01*
X126488888Y-81645691D01*
X128803500Y-81645691D01*
X128803500Y-81986250D01*
X128962250Y-82145000D01*
X130111500Y-82145000D01*
X130111500Y-81295750D01*
X130365500Y-81295750D01*
X130365500Y-82145000D01*
X131514750Y-82145000D01*
X131673500Y-81986250D01*
X131673500Y-81645691D01*
X131576827Y-81412302D01*
X131398199Y-81233673D01*
X131164810Y-81137000D01*
X130524250Y-81137000D01*
X130365500Y-81295750D01*
X130111500Y-81295750D01*
X129952750Y-81137000D01*
X129312190Y-81137000D01*
X129078801Y-81233673D01*
X128900173Y-81412302D01*
X128803500Y-81645691D01*
X126488888Y-81645691D01*
X127977579Y-80157000D01*
X128931656Y-80157000D01*
X128974410Y-80223441D01*
X129186610Y-80368431D01*
X129438500Y-80419440D01*
X131038500Y-80419440D01*
X131273817Y-80375162D01*
X131489941Y-80236090D01*
X131543981Y-80157000D01*
X132827560Y-80157000D01*
X132827560Y-80273000D01*
X132871838Y-80508317D01*
X133010910Y-80724441D01*
X133223110Y-80869431D01*
X133475000Y-80920440D01*
X134975000Y-80920440D01*
X135210317Y-80876162D01*
X135376477Y-80769241D01*
X135523110Y-80869431D01*
X135665000Y-80898164D01*
X135665000Y-83925560D01*
X134625000Y-83925560D01*
X134389683Y-83969838D01*
X134173559Y-84108910D01*
X134028569Y-84321110D01*
X133977560Y-84573000D01*
X133977560Y-84713000D01*
X133819500Y-84713000D01*
X133490392Y-84778464D01*
X133273330Y-84923500D01*
X133211388Y-84964888D01*
X131400780Y-86775496D01*
X131290390Y-86700069D01*
X131038500Y-86649060D01*
X129438500Y-86649060D01*
X129203183Y-86693338D01*
X128987059Y-86832410D01*
X128915937Y-86936500D01*
X124357000Y-86936500D01*
X124027892Y-87001964D01*
X123777259Y-87169431D01*
X123748888Y-87188388D01*
X121375388Y-89561888D01*
X121188964Y-89840892D01*
X121123500Y-90170000D01*
X121123500Y-93345000D01*
X121188964Y-93674108D01*
X121337981Y-93897128D01*
X121375388Y-93953112D01*
X122087276Y-94665000D01*
X119539802Y-94665000D01*
X118337401Y-93462599D01*
X118090839Y-93297852D01*
X117800000Y-93240000D01*
X117077377Y-93240000D01*
X117082440Y-93215000D01*
X117082440Y-92245000D01*
X117038162Y-92009683D01*
X116899090Y-91793559D01*
X116686890Y-91648569D01*
X116435000Y-91597560D01*
X115165000Y-91597560D01*
X114929683Y-91641838D01*
X114713559Y-91780910D01*
X114584359Y-91970000D01*
X112961594Y-91970000D01*
X112645299Y-91838662D01*
X112273333Y-91838338D01*
X111929557Y-91980383D01*
X111666308Y-92243173D01*
X111523662Y-92586701D01*
X111523338Y-92958667D01*
X111665383Y-93302443D01*
X111928173Y-93565692D01*
X112271701Y-93708338D01*
X112643667Y-93708662D01*
X112987443Y-93566617D01*
X113064194Y-93490000D01*
X114522623Y-93490000D01*
X114517560Y-93515000D01*
X114517560Y-94471400D01*
X109409770Y-94471400D01*
X109355689Y-94340513D01*
X108913077Y-93897128D01*
X108804417Y-93852009D01*
X108857937Y-93829840D01*
X108949223Y-93569228D01*
X108019860Y-92639865D01*
X107090497Y-93569228D01*
X107181783Y-93829840D01*
X107237978Y-93850531D01*
X107128973Y-93895571D01*
X106685588Y-94338183D01*
X106445334Y-94916779D01*
X106444787Y-95543273D01*
X106575978Y-95860780D01*
X106570050Y-95860780D01*
X106515969Y-95729893D01*
X106073357Y-95286508D01*
X105953296Y-95236654D01*
X106071027Y-95188009D01*
X106514412Y-94745397D01*
X106754666Y-94166801D01*
X106755213Y-93540307D01*
X106656071Y-93300365D01*
X106910892Y-93389623D01*
X107840255Y-92460260D01*
X108199465Y-92460260D01*
X109128828Y-93389623D01*
X109389440Y-93298337D01*
X109605905Y-92710427D01*
X109580909Y-92084432D01*
X109389440Y-91622183D01*
X109128828Y-91530897D01*
X108199465Y-92460260D01*
X107840255Y-92460260D01*
X106910892Y-91530897D01*
X106650280Y-91622183D01*
X106433815Y-92210093D01*
X106458811Y-92836088D01*
X106506916Y-92952224D01*
X106073357Y-92517908D01*
X105494761Y-92277654D01*
X104868267Y-92277107D01*
X104289253Y-92516351D01*
X103845868Y-92958963D01*
X103605614Y-93537559D01*
X103605067Y-94164053D01*
X103844311Y-94743067D01*
X104286923Y-95186452D01*
X104406984Y-95236306D01*
X104289253Y-95284951D01*
X103845868Y-95727563D01*
X103605614Y-96306159D01*
X103605067Y-96932653D01*
X103844311Y-97511667D01*
X104286923Y-97955052D01*
X104394720Y-97999813D01*
X104289253Y-98043391D01*
X103845868Y-98486003D01*
X103605614Y-99064599D01*
X103605067Y-99691093D01*
X103844311Y-100270107D01*
X104286923Y-100713492D01*
X104406984Y-100763346D01*
X104289253Y-100811991D01*
X103845868Y-101254603D01*
X103605614Y-101833199D01*
X103605067Y-102459693D01*
X103844311Y-103038707D01*
X104286923Y-103482092D01*
X104865519Y-103722346D01*
X105492013Y-103722893D01*
X106071027Y-103483649D01*
X106432620Y-103122686D01*
X106432620Y-104479540D01*
X106476898Y-104714857D01*
X106615970Y-104930981D01*
X106828170Y-105075971D01*
X107080060Y-105126980D01*
X108959660Y-105126980D01*
X109194977Y-105082702D01*
X109411101Y-104943630D01*
X109556091Y-104731430D01*
X109607100Y-104479540D01*
X109607100Y-102907820D01*
X111337378Y-102907820D01*
X112436959Y-104007401D01*
X112683521Y-104172148D01*
X112974360Y-104230000D01*
X114587373Y-104230000D01*
X114700910Y-104406441D01*
X114913110Y-104551431D01*
X115165000Y-104602440D01*
X116435000Y-104602440D01*
X116670317Y-104558162D01*
X116886441Y-104419090D01*
X117031431Y-104206890D01*
X117082440Y-103955000D01*
X117082440Y-102985000D01*
X117077736Y-102960000D01*
X117348000Y-102960000D01*
X117638839Y-102902148D01*
X117885401Y-102737401D01*
X118737401Y-101885401D01*
X118902148Y-101638839D01*
X118960000Y-101348000D01*
X118960000Y-101273463D01*
X118992192Y-101241327D01*
X119102023Y-100976825D01*
X119167599Y-101042401D01*
X119414160Y-101207148D01*
X119705000Y-101265000D01*
X122924666Y-101265000D01*
X122890000Y-101348690D01*
X122890000Y-101489250D01*
X123048750Y-101648000D01*
X124373000Y-101648000D01*
X124373000Y-101628000D01*
X124627000Y-101628000D01*
X124627000Y-101648000D01*
X124647000Y-101648000D01*
X124647000Y-101902000D01*
X124627000Y-101902000D01*
X124627000Y-101922000D01*
X124373000Y-101922000D01*
X124373000Y-101902000D01*
X123048750Y-101902000D01*
X122890000Y-102060750D01*
X122890000Y-102201310D01*
X122979806Y-102418122D01*
X122928569Y-102493110D01*
X122877560Y-102745000D01*
X122877560Y-103345000D01*
X122921838Y-103580317D01*
X122985678Y-103679528D01*
X122928569Y-103763110D01*
X122877560Y-104015000D01*
X122877560Y-104615000D01*
X122921838Y-104850317D01*
X123060910Y-105066441D01*
X123273110Y-105211431D01*
X123525000Y-105262440D01*
X123640000Y-105262440D01*
X123640000Y-105677069D01*
X123548559Y-105735910D01*
X123403569Y-105948110D01*
X123352560Y-106200000D01*
X123352560Y-107800000D01*
X123364540Y-107863668D01*
X123364540Y-108674317D01*
X123339540Y-108800000D01*
X123339540Y-109199540D01*
X123340000Y-109201853D01*
X123340000Y-110043776D01*
X123043776Y-110340000D01*
X119400000Y-110340000D01*
X119070892Y-110405464D01*
X118809439Y-110580161D01*
X118791888Y-110591888D01*
X116791888Y-112591888D01*
X116605464Y-112870892D01*
X116540000Y-113200000D01*
X116540000Y-113698014D01*
X116376183Y-113728838D01*
X116160059Y-113867910D01*
X116015069Y-114080110D01*
X115964060Y-114332000D01*
X115964060Y-115332000D01*
X116008338Y-115567317D01*
X116147410Y-115783441D01*
X116359610Y-115928431D01*
X116611500Y-115979440D01*
X118211500Y-115979440D01*
X118446817Y-115935162D01*
X118662941Y-115796090D01*
X118807931Y-115583890D01*
X118858940Y-115332000D01*
X118858940Y-114332000D01*
X118814662Y-114096683D01*
X118675590Y-113880559D01*
X118463390Y-113735569D01*
X118260000Y-113694381D01*
X118260000Y-113556224D01*
X119756224Y-112060000D01*
X123400000Y-112060000D01*
X123729108Y-111994536D01*
X124008112Y-111808112D01*
X124808112Y-111008112D01*
X124835660Y-110966883D01*
X124994536Y-110729108D01*
X125048065Y-110460000D01*
X126342938Y-110460000D01*
X126080808Y-110721673D01*
X125938162Y-111065201D01*
X125938121Y-111112077D01*
X124843698Y-112206500D01*
X123507500Y-112206500D01*
X123216661Y-112264352D01*
X122970099Y-112429099D01*
X122081099Y-113318099D01*
X121916352Y-113564661D01*
X121892502Y-113684560D01*
X121818500Y-113684560D01*
X121583183Y-113728838D01*
X121367059Y-113867910D01*
X121222069Y-114080110D01*
X121171060Y-114332000D01*
X121171060Y-115332000D01*
X121215338Y-115567317D01*
X121354410Y-115783441D01*
X121566610Y-115928431D01*
X121818500Y-115979440D01*
X123418500Y-115979440D01*
X123653817Y-115935162D01*
X123869941Y-115796090D01*
X124014931Y-115583890D01*
X124065940Y-115332000D01*
X124065940Y-114945028D01*
X124102148Y-114890839D01*
X124160000Y-114600000D01*
X124102148Y-114309161D01*
X124045765Y-114224777D01*
X124021662Y-114096683D01*
X123882590Y-113880559D01*
X123755250Y-113793552D01*
X123822302Y-113726500D01*
X125158500Y-113726500D01*
X125449339Y-113668648D01*
X125695901Y-113503901D01*
X126811500Y-112388302D01*
X126811500Y-113684560D01*
X126771500Y-113684560D01*
X126536183Y-113728838D01*
X126320059Y-113867910D01*
X126175069Y-114080110D01*
X126124060Y-114332000D01*
X126124060Y-115332000D01*
X126168338Y-115567317D01*
X126307410Y-115783441D01*
X126519610Y-115928431D01*
X126771500Y-115979440D01*
X128371500Y-115979440D01*
X128606817Y-115935162D01*
X128822941Y-115796090D01*
X128967931Y-115583890D01*
X129018940Y-115332000D01*
X129018940Y-114332000D01*
X131140560Y-114332000D01*
X131140560Y-115332000D01*
X131184838Y-115567317D01*
X131323910Y-115783441D01*
X131536110Y-115928431D01*
X131788000Y-115979440D01*
X133388000Y-115979440D01*
X133623317Y-115935162D01*
X133839441Y-115796090D01*
X133984431Y-115583890D01*
X134035440Y-115332000D01*
X134035440Y-114332000D01*
X133993197Y-114107500D01*
X136202522Y-114107500D01*
X136157060Y-114332000D01*
X136157060Y-115332000D01*
X136201338Y-115567317D01*
X136340410Y-115783441D01*
X136552610Y-115928431D01*
X136804500Y-115979440D01*
X138404500Y-115979440D01*
X138639817Y-115935162D01*
X138855941Y-115796090D01*
X139000931Y-115583890D01*
X139051940Y-115332000D01*
X139051940Y-114332000D01*
X139007662Y-114096683D01*
X138868590Y-113880559D01*
X138656390Y-113735569D01*
X138404500Y-113684560D01*
X138364500Y-113684560D01*
X138364500Y-113598802D01*
X139192635Y-112770667D01*
X139653838Y-112770667D01*
X139795883Y-113114443D01*
X139829000Y-113147618D01*
X139829000Y-113982500D01*
X139886852Y-114273339D01*
X140051599Y-114519901D01*
X140901099Y-115369401D01*
X141147660Y-115534148D01*
X141195914Y-115543746D01*
X141214083Y-115547360D01*
X141217838Y-115567317D01*
X141356910Y-115783441D01*
X141569110Y-115928431D01*
X141821000Y-115979440D01*
X143421000Y-115979440D01*
X143656317Y-115935162D01*
X143872441Y-115796090D01*
X144017431Y-115583890D01*
X144068440Y-115332000D01*
X144068440Y-114332000D01*
X144024162Y-114096683D01*
X143885090Y-113880559D01*
X143672890Y-113735569D01*
X143421000Y-113684560D01*
X141821000Y-113684560D01*
X141585683Y-113728838D01*
X141478871Y-113797569D01*
X141349000Y-113667698D01*
X141349000Y-113147963D01*
X141381192Y-113115827D01*
X141523838Y-112772299D01*
X141524162Y-112400333D01*
X141382117Y-112056557D01*
X141119327Y-111793308D01*
X140775799Y-111650662D01*
X140403833Y-111650338D01*
X140060057Y-111792383D01*
X139796808Y-112055173D01*
X139654162Y-112398701D01*
X139653838Y-112770667D01*
X139192635Y-112770667D01*
X139221401Y-112741901D01*
X139386148Y-112495339D01*
X139414722Y-112351690D01*
X139476192Y-112290327D01*
X139618838Y-111946799D01*
X139619162Y-111574833D01*
X139477117Y-111231057D01*
X139214327Y-110967808D01*
X138870799Y-110825162D01*
X138498833Y-110824838D01*
X138155057Y-110966883D01*
X137891808Y-111229673D01*
X137749162Y-111573201D01*
X137748838Y-111945167D01*
X137783834Y-112029864D01*
X137569437Y-112244261D01*
X137372827Y-112047308D01*
X137029299Y-111904662D01*
X136657333Y-111904338D01*
X136313557Y-112046383D01*
X136050308Y-112309173D01*
X135934736Y-112587500D01*
X133223000Y-112587500D01*
X132932161Y-112645352D01*
X132685599Y-112810099D01*
X132050599Y-113445099D01*
X131890597Y-113684560D01*
X131788000Y-113684560D01*
X131552683Y-113728838D01*
X131336559Y-113867910D01*
X131191569Y-114080110D01*
X131140560Y-114332000D01*
X129018940Y-114332000D01*
X128974662Y-114096683D01*
X128835590Y-113880559D01*
X128623390Y-113735569D01*
X128371500Y-113684560D01*
X128331500Y-113684560D01*
X128331500Y-112519302D01*
X128663680Y-112187122D01*
X128709167Y-112187162D01*
X129052943Y-112045117D01*
X129316192Y-111782327D01*
X129458838Y-111438799D01*
X129459162Y-111066833D01*
X129317117Y-110723057D01*
X129054519Y-110460000D01*
X146276060Y-110460000D01*
X146276060Y-111721000D01*
X146320338Y-111956317D01*
X146459410Y-112172441D01*
X146671610Y-112317431D01*
X146923500Y-112368440D01*
X148923500Y-112368440D01*
X149158817Y-112324162D01*
X149374941Y-112185090D01*
X149519931Y-111972890D01*
X149570940Y-111721000D01*
X149570940Y-110021000D01*
X149526662Y-109785683D01*
X149387590Y-109569559D01*
X149233650Y-109464376D01*
X149338327Y-109359698D01*
X149435000Y-109126309D01*
X149435000Y-108435750D01*
X149276250Y-108277000D01*
X148427000Y-108277000D01*
X148427000Y-108297000D01*
X148173000Y-108297000D01*
X148173000Y-108277000D01*
X147323750Y-108277000D01*
X147165000Y-108435750D01*
X147165000Y-108928003D01*
X147152335Y-108919540D01*
X146981608Y-108805464D01*
X146652500Y-108740000D01*
X138847440Y-108740000D01*
X138847440Y-107800000D01*
X138803162Y-107564683D01*
X138664090Y-107348559D01*
X138451890Y-107203569D01*
X138304349Y-107173691D01*
X147165000Y-107173691D01*
X147165000Y-107864250D01*
X147323750Y-108023000D01*
X148173000Y-108023000D01*
X148173000Y-106823750D01*
X148427000Y-106823750D01*
X148427000Y-108023000D01*
X149276250Y-108023000D01*
X149435000Y-107864250D01*
X149435000Y-107173691D01*
X149338327Y-106940302D01*
X149159699Y-106761673D01*
X148926310Y-106665000D01*
X148585750Y-106665000D01*
X148427000Y-106823750D01*
X148173000Y-106823750D01*
X148014250Y-106665000D01*
X147673690Y-106665000D01*
X147440301Y-106761673D01*
X147261673Y-106940302D01*
X147165000Y-107173691D01*
X138304349Y-107173691D01*
X138200000Y-107152560D01*
X136600000Y-107152560D01*
X136364683Y-107196838D01*
X136148559Y-107335910D01*
X136047440Y-107483903D01*
X136047440Y-106200000D01*
X136040000Y-106160460D01*
X136077365Y-106160460D01*
X136135910Y-106251441D01*
X136348110Y-106396431D01*
X136600000Y-106447440D01*
X138200000Y-106447440D01*
X138435317Y-106403162D01*
X138651441Y-106264090D01*
X138796431Y-106051890D01*
X138847440Y-105800000D01*
X138847440Y-104800000D01*
X138803162Y-104564683D01*
X138664090Y-104348559D01*
X138451890Y-104203569D01*
X138418510Y-104196809D01*
X138559699Y-104138327D01*
X138738327Y-103959698D01*
X138835000Y-103726309D01*
X138835000Y-103385750D01*
X138676250Y-103227000D01*
X137527000Y-103227000D01*
X137527000Y-103247000D01*
X137273000Y-103247000D01*
X137273000Y-103227000D01*
X137253000Y-103227000D01*
X137253000Y-102973000D01*
X137273000Y-102973000D01*
X137273000Y-102123750D01*
X137527000Y-102123750D01*
X137527000Y-102973000D01*
X138676250Y-102973000D01*
X138835000Y-102814250D01*
X138835000Y-102473691D01*
X138738327Y-102240302D01*
X138633776Y-102135750D01*
X147165000Y-102135750D01*
X147165000Y-102826309D01*
X147261673Y-103059698D01*
X147440301Y-103238327D01*
X147673690Y-103335000D01*
X148014250Y-103335000D01*
X148173000Y-103176250D01*
X148173000Y-101977000D01*
X148427000Y-101977000D01*
X148427000Y-103176250D01*
X148585750Y-103335000D01*
X148926310Y-103335000D01*
X149159699Y-103238327D01*
X149338327Y-103059698D01*
X149435000Y-102826309D01*
X149435000Y-102135750D01*
X149276250Y-101977000D01*
X148427000Y-101977000D01*
X148173000Y-101977000D01*
X147323750Y-101977000D01*
X147165000Y-102135750D01*
X138633776Y-102135750D01*
X138559699Y-102061673D01*
X138326310Y-101965000D01*
X137685750Y-101965000D01*
X137527000Y-102123750D01*
X137273000Y-102123750D01*
X137114250Y-101965000D01*
X136473690Y-101965000D01*
X136240301Y-102061673D01*
X136061673Y-102240302D01*
X135965000Y-102473691D01*
X135965000Y-102814250D01*
X136123748Y-102972998D01*
X136011167Y-102972998D01*
X135937401Y-102862599D01*
X135582401Y-102507599D01*
X135421443Y-102400050D01*
X135471431Y-102326890D01*
X135522440Y-102075000D01*
X135522440Y-101475000D01*
X135478162Y-101239683D01*
X135414322Y-101140472D01*
X135471431Y-101056890D01*
X135522440Y-100805000D01*
X135522440Y-100205000D01*
X135478162Y-99969683D01*
X135414322Y-99870472D01*
X135471431Y-99786890D01*
X135522440Y-99535000D01*
X135522440Y-98935000D01*
X135482926Y-98725000D01*
X136640000Y-98725000D01*
X136640000Y-98952560D01*
X136600000Y-98952560D01*
X136364683Y-98996838D01*
X136148559Y-99135910D01*
X136003569Y-99348110D01*
X135952560Y-99600000D01*
X135952560Y-100600000D01*
X135996838Y-100835317D01*
X136135910Y-101051441D01*
X136348110Y-101196431D01*
X136600000Y-101247440D01*
X138200000Y-101247440D01*
X138435317Y-101203162D01*
X138651441Y-101064090D01*
X138781535Y-100873691D01*
X147165000Y-100873691D01*
X147165000Y-101564250D01*
X147323750Y-101723000D01*
X148173000Y-101723000D01*
X148173000Y-100523750D01*
X148427000Y-100523750D01*
X148427000Y-101723000D01*
X149276250Y-101723000D01*
X149435000Y-101564250D01*
X149435000Y-100873691D01*
X149338327Y-100640302D01*
X149159699Y-100461673D01*
X148926310Y-100365000D01*
X148585750Y-100365000D01*
X148427000Y-100523750D01*
X148173000Y-100523750D01*
X148014250Y-100365000D01*
X147673690Y-100365000D01*
X147440301Y-100461673D01*
X147261673Y-100640302D01*
X147165000Y-100873691D01*
X138781535Y-100873691D01*
X138796431Y-100851890D01*
X138847440Y-100600000D01*
X138847440Y-99600000D01*
X138803162Y-99364683D01*
X138664090Y-99148559D01*
X138451890Y-99003569D01*
X138200000Y-98952560D01*
X138160000Y-98952560D01*
X138160000Y-98400000D01*
X138102148Y-98109161D01*
X137937401Y-97862599D01*
X137529802Y-97455000D01*
X141580198Y-97455000D01*
X141766099Y-97640901D01*
X141802263Y-97665065D01*
X141847707Y-97710509D01*
X141813162Y-97793701D01*
X141812838Y-98165667D01*
X141954883Y-98509443D01*
X142217673Y-98772692D01*
X142561201Y-98915338D01*
X142933167Y-98915662D01*
X143276943Y-98773617D01*
X143540192Y-98510827D01*
X143682838Y-98167299D01*
X143683162Y-97795333D01*
X143541117Y-97451557D01*
X143478782Y-97389113D01*
X143450148Y-97245161D01*
X143285401Y-96998599D01*
X142840901Y-96554099D01*
X142804737Y-96529935D01*
X142459802Y-96185000D01*
X142798698Y-96185000D01*
X145830099Y-99216401D01*
X146076661Y-99381148D01*
X146367500Y-99439000D01*
X155765500Y-99439000D01*
X156056339Y-99381148D01*
X156302901Y-99216401D01*
X157127534Y-98391768D01*
X157318901Y-98263901D01*
X158762680Y-96820122D01*
X158808167Y-96820162D01*
X159151943Y-96678117D01*
X159238110Y-96592100D01*
X159194502Y-104964839D01*
X159204250Y-105014300D01*
X159232474Y-105056072D01*
X159274725Y-105083573D01*
X159321500Y-105092500D01*
X159666640Y-105092500D01*
X159666640Y-105127002D01*
X159825388Y-105127002D01*
X159666640Y-105285750D01*
X159666640Y-105876309D01*
X159763313Y-106109698D01*
X159941941Y-106288327D01*
X160175330Y-106385000D01*
X160515890Y-106385000D01*
X160674640Y-106226250D01*
X160674640Y-105127000D01*
X160654640Y-105127000D01*
X160654640Y-105092500D01*
X160948640Y-105092500D01*
X160948640Y-105127000D01*
X160928640Y-105127000D01*
X160928640Y-106226250D01*
X161087390Y-106385000D01*
X161427950Y-106385000D01*
X161661339Y-106288327D01*
X161801955Y-106147710D01*
X161836530Y-106201441D01*
X162048730Y-106346431D01*
X162300620Y-106397440D01*
X163300620Y-106397440D01*
X163535937Y-106353162D01*
X163752061Y-106214090D01*
X163800537Y-106143144D01*
X163838050Y-106201441D01*
X164050250Y-106346431D01*
X164302140Y-106397440D01*
X165302140Y-106397440D01*
X165537457Y-106353162D01*
X165753581Y-106214090D01*
X165800749Y-106145058D01*
X165837030Y-106201441D01*
X166049230Y-106346431D01*
X166301120Y-106397440D01*
X167301120Y-106397440D01*
X167536437Y-106353162D01*
X167752561Y-106214090D01*
X167798420Y-106146972D01*
X167833470Y-106201441D01*
X168045670Y-106346431D01*
X168297560Y-106397440D01*
X169297560Y-106397440D01*
X169532877Y-106353162D01*
X169749001Y-106214090D01*
X169797477Y-106143144D01*
X169834990Y-106201441D01*
X170039080Y-106340890D01*
X170039080Y-106762118D01*
X169411198Y-107390000D01*
X153247440Y-107390000D01*
X153247440Y-107300000D01*
X153203162Y-107064683D01*
X153064090Y-106848559D01*
X152860000Y-106709110D01*
X152860000Y-103287279D01*
X153051441Y-103164090D01*
X153196431Y-102951890D01*
X153247440Y-102700000D01*
X153247440Y-101000000D01*
X153203162Y-100764683D01*
X153064090Y-100548559D01*
X152851890Y-100403569D01*
X152600000Y-100352560D01*
X151600000Y-100352560D01*
X151364683Y-100396838D01*
X151148559Y-100535910D01*
X151003569Y-100748110D01*
X150952560Y-101000000D01*
X150952560Y-102700000D01*
X150996838Y-102935317D01*
X151135910Y-103151441D01*
X151340000Y-103290890D01*
X151340000Y-106712721D01*
X151148559Y-106835910D01*
X151003569Y-107048110D01*
X150952560Y-107300000D01*
X150952560Y-109000000D01*
X150996838Y-109235317D01*
X151085795Y-109373560D01*
X150923500Y-109373560D01*
X150688183Y-109417838D01*
X150472059Y-109556910D01*
X150327069Y-109769110D01*
X150276060Y-110021000D01*
X150276060Y-111721000D01*
X150320338Y-111956317D01*
X150459410Y-112172441D01*
X150671610Y-112317431D01*
X150923500Y-112368440D01*
X151639156Y-112368440D01*
X151923500Y-112425000D01*
X152207844Y-112368440D01*
X152923500Y-112368440D01*
X153158817Y-112324162D01*
X153374941Y-112185090D01*
X153519931Y-111972890D01*
X153570940Y-111721000D01*
X153570940Y-110021000D01*
X153526662Y-109785683D01*
X153387590Y-109569559D01*
X153175390Y-109424569D01*
X153090228Y-109407323D01*
X153196431Y-109251890D01*
X153247440Y-109000000D01*
X153247440Y-108910000D01*
X169726000Y-108910000D01*
X170016839Y-108852148D01*
X170263401Y-108687401D01*
X171336481Y-107614321D01*
X171501228Y-107367760D01*
X171559080Y-107076920D01*
X171559080Y-106337279D01*
X171750521Y-106214090D01*
X171797689Y-106145058D01*
X171833970Y-106201441D01*
X172046170Y-106346431D01*
X172298060Y-106397440D01*
X173298060Y-106397440D01*
X173533377Y-106353162D01*
X173749501Y-106214090D01*
X173894491Y-106001890D01*
X173945500Y-105750000D01*
X173945500Y-105092500D01*
X174498000Y-105092500D01*
X174498000Y-117083319D01*
X174323440Y-116940072D01*
X174263912Y-116908256D01*
X174211729Y-116865442D01*
X173935129Y-116717642D01*
X173870640Y-116698089D01*
X173811215Y-116666317D01*
X173511016Y-116575217D01*
X173443796Y-116568589D01*
X173379157Y-116548990D01*
X173067057Y-116518290D01*
X173000000Y-116524903D01*
X172932943Y-116518290D01*
X172620843Y-116548990D01*
X172556204Y-116568589D01*
X172488984Y-116575217D01*
X172188784Y-116666317D01*
X172129358Y-116698089D01*
X172064871Y-116717642D01*
X171788271Y-116865442D01*
X171736089Y-116908255D01*
X171676559Y-116940072D01*
X171434060Y-117139072D01*
X171391242Y-117191242D01*
X171339072Y-117234060D01*
X171140072Y-117476560D01*
X171108256Y-117536088D01*
X171065442Y-117588271D01*
X170917642Y-117864871D01*
X170898089Y-117929360D01*
X170866317Y-117988785D01*
X170775217Y-118288984D01*
X170768589Y-118356204D01*
X170748990Y-118420843D01*
X170718290Y-118732943D01*
X170724903Y-118800000D01*
X170718290Y-118867057D01*
X170748990Y-119179157D01*
X170768589Y-119243796D01*
X170775217Y-119311016D01*
X170866317Y-119611215D01*
X170898089Y-119670640D01*
X170917642Y-119735129D01*
X171065442Y-120011729D01*
X171108256Y-120063912D01*
X171140072Y-120123440D01*
X171259521Y-120269000D01*
X102740430Y-120269000D01*
X102859889Y-120123414D01*
X102891667Y-120063949D01*
X102934443Y-120011831D01*
X103082303Y-119735231D01*
X103101901Y-119670633D01*
X103133719Y-119611096D01*
X103224759Y-119310896D01*
X103231363Y-119243790D01*
X103250939Y-119179265D01*
X103281689Y-118867165D01*
X103275076Y-118800000D01*
X103281689Y-118732835D01*
X103250939Y-118420735D01*
X103231363Y-118356210D01*
X103224759Y-118289104D01*
X103172794Y-118117750D01*
X115976500Y-118117750D01*
X115976500Y-118458309D01*
X116073173Y-118691698D01*
X116251801Y-118870327D01*
X116485190Y-118967000D01*
X117125750Y-118967000D01*
X117284500Y-118808250D01*
X117284500Y-117959000D01*
X117538500Y-117959000D01*
X117538500Y-118808250D01*
X117697250Y-118967000D01*
X118337810Y-118967000D01*
X118571199Y-118870327D01*
X118749827Y-118691698D01*
X118846500Y-118458309D01*
X118846500Y-118117750D01*
X121183500Y-118117750D01*
X121183500Y-118458309D01*
X121280173Y-118691698D01*
X121458801Y-118870327D01*
X121692190Y-118967000D01*
X122332750Y-118967000D01*
X122491500Y-118808250D01*
X122491500Y-117959000D01*
X122745500Y-117959000D01*
X122745500Y-118808250D01*
X122904250Y-118967000D01*
X123544810Y-118967000D01*
X123778199Y-118870327D01*
X123956827Y-118691698D01*
X124053500Y-118458309D01*
X124053500Y-118117750D01*
X126136500Y-118117750D01*
X126136500Y-118458309D01*
X126233173Y-118691698D01*
X126411801Y-118870327D01*
X126645190Y-118967000D01*
X127285750Y-118967000D01*
X127444500Y-118808250D01*
X127444500Y-117959000D01*
X127698500Y-117959000D01*
X127698500Y-118808250D01*
X127857250Y-118967000D01*
X128497810Y-118967000D01*
X128731199Y-118870327D01*
X128909827Y-118691698D01*
X129006500Y-118458309D01*
X129006500Y-118117750D01*
X131153000Y-118117750D01*
X131153000Y-118458309D01*
X131249673Y-118691698D01*
X131428301Y-118870327D01*
X131661690Y-118967000D01*
X132302250Y-118967000D01*
X132461000Y-118808250D01*
X132461000Y-117959000D01*
X132715000Y-117959000D01*
X132715000Y-118808250D01*
X132873750Y-118967000D01*
X133514310Y-118967000D01*
X133747699Y-118870327D01*
X133926327Y-118691698D01*
X134023000Y-118458309D01*
X134023000Y-118117750D01*
X136169500Y-118117750D01*
X136169500Y-118458309D01*
X136266173Y-118691698D01*
X136444801Y-118870327D01*
X136678190Y-118967000D01*
X137318750Y-118967000D01*
X137477500Y-118808250D01*
X137477500Y-117959000D01*
X137731500Y-117959000D01*
X137731500Y-118808250D01*
X137890250Y-118967000D01*
X138530810Y-118967000D01*
X138764199Y-118870327D01*
X138942827Y-118691698D01*
X139039500Y-118458309D01*
X139039500Y-118117750D01*
X141186000Y-118117750D01*
X141186000Y-118458309D01*
X141282673Y-118691698D01*
X141461301Y-118870327D01*
X141694690Y-118967000D01*
X142335250Y-118967000D01*
X142494000Y-118808250D01*
X142494000Y-117959000D01*
X142748000Y-117959000D01*
X142748000Y-118808250D01*
X142906750Y-118967000D01*
X143547310Y-118967000D01*
X143780699Y-118870327D01*
X143959327Y-118691698D01*
X144056000Y-118458309D01*
X144056000Y-118117750D01*
X143897250Y-117959000D01*
X142748000Y-117959000D01*
X142494000Y-117959000D01*
X141344750Y-117959000D01*
X141186000Y-118117750D01*
X139039500Y-118117750D01*
X138880750Y-117959000D01*
X137731500Y-117959000D01*
X137477500Y-117959000D01*
X136328250Y-117959000D01*
X136169500Y-118117750D01*
X134023000Y-118117750D01*
X133864250Y-117959000D01*
X132715000Y-117959000D01*
X132461000Y-117959000D01*
X131311750Y-117959000D01*
X131153000Y-118117750D01*
X129006500Y-118117750D01*
X128847750Y-117959000D01*
X127698500Y-117959000D01*
X127444500Y-117959000D01*
X126295250Y-117959000D01*
X126136500Y-118117750D01*
X124053500Y-118117750D01*
X123894750Y-117959000D01*
X122745500Y-117959000D01*
X122491500Y-117959000D01*
X121342250Y-117959000D01*
X121183500Y-118117750D01*
X118846500Y-118117750D01*
X118687750Y-117959000D01*
X117538500Y-117959000D01*
X117284500Y-117959000D01*
X116135250Y-117959000D01*
X115976500Y-118117750D01*
X103172794Y-118117750D01*
X103133719Y-117988904D01*
X103101901Y-117929367D01*
X103082303Y-117864769D01*
X102934443Y-117588169D01*
X102891667Y-117536051D01*
X102859889Y-117476586D01*
X102660909Y-117234086D01*
X102626316Y-117205691D01*
X115976500Y-117205691D01*
X115976500Y-117546250D01*
X116135250Y-117705000D01*
X117284500Y-117705000D01*
X117284500Y-116855750D01*
X117538500Y-116855750D01*
X117538500Y-117705000D01*
X118687750Y-117705000D01*
X118846500Y-117546250D01*
X118846500Y-117205691D01*
X121183500Y-117205691D01*
X121183500Y-117546250D01*
X121342250Y-117705000D01*
X122491500Y-117705000D01*
X122491500Y-116855750D01*
X122745500Y-116855750D01*
X122745500Y-117705000D01*
X123894750Y-117705000D01*
X124053500Y-117546250D01*
X124053500Y-117205691D01*
X126136500Y-117205691D01*
X126136500Y-117546250D01*
X126295250Y-117705000D01*
X127444500Y-117705000D01*
X127444500Y-116855750D01*
X127698500Y-116855750D01*
X127698500Y-117705000D01*
X128847750Y-117705000D01*
X129006500Y-117546250D01*
X129006500Y-117205691D01*
X131153000Y-117205691D01*
X131153000Y-117546250D01*
X131311750Y-117705000D01*
X132461000Y-117705000D01*
X132461000Y-116855750D01*
X132715000Y-116855750D01*
X132715000Y-117705000D01*
X133864250Y-117705000D01*
X134023000Y-117546250D01*
X134023000Y-117205691D01*
X136169500Y-117205691D01*
X136169500Y-117546250D01*
X136328250Y-117705000D01*
X137477500Y-117705000D01*
X137477500Y-116855750D01*
X137731500Y-116855750D01*
X137731500Y-117705000D01*
X138880750Y-117705000D01*
X139039500Y-117546250D01*
X139039500Y-117205691D01*
X141186000Y-117205691D01*
X141186000Y-117546250D01*
X141344750Y-117705000D01*
X142494000Y-117705000D01*
X142494000Y-116855750D01*
X142748000Y-116855750D01*
X142748000Y-117705000D01*
X143897250Y-117705000D01*
X144056000Y-117546250D01*
X144056000Y-117205691D01*
X143959327Y-116972302D01*
X143780699Y-116793673D01*
X143547310Y-116697000D01*
X142906750Y-116697000D01*
X142748000Y-116855750D01*
X142494000Y-116855750D01*
X142335250Y-116697000D01*
X141694690Y-116697000D01*
X141461301Y-116793673D01*
X141282673Y-116972302D01*
X141186000Y-117205691D01*
X139039500Y-117205691D01*
X138942827Y-116972302D01*
X138764199Y-116793673D01*
X138530810Y-116697000D01*
X137890250Y-116697000D01*
X137731500Y-116855750D01*
X137477500Y-116855750D01*
X137318750Y-116697000D01*
X136678190Y-116697000D01*
X136444801Y-116793673D01*
X136266173Y-116972302D01*
X136169500Y-117205691D01*
X134023000Y-117205691D01*
X133926327Y-116972302D01*
X133747699Y-116793673D01*
X133514310Y-116697000D01*
X132873750Y-116697000D01*
X132715000Y-116855750D01*
X132461000Y-116855750D01*
X132302250Y-116697000D01*
X131661690Y-116697000D01*
X131428301Y-116793673D01*
X131249673Y-116972302D01*
X131153000Y-117205691D01*
X129006500Y-117205691D01*
X128909827Y-116972302D01*
X128731199Y-116793673D01*
X128497810Y-116697000D01*
X127857250Y-116697000D01*
X127698500Y-116855750D01*
X127444500Y-116855750D01*
X127285750Y-116697000D01*
X126645190Y-116697000D01*
X126411801Y-116793673D01*
X126233173Y-116972302D01*
X126136500Y-117205691D01*
X124053500Y-117205691D01*
X123956827Y-116972302D01*
X123778199Y-116793673D01*
X123544810Y-116697000D01*
X122904250Y-116697000D01*
X122745500Y-116855750D01*
X122491500Y-116855750D01*
X122332750Y-116697000D01*
X121692190Y-116697000D01*
X121458801Y-116793673D01*
X121280173Y-116972302D01*
X121183500Y-117205691D01*
X118846500Y-117205691D01*
X118749827Y-116972302D01*
X118571199Y-116793673D01*
X118337810Y-116697000D01*
X117697250Y-116697000D01*
X117538500Y-116855750D01*
X117284500Y-116855750D01*
X117125750Y-116697000D01*
X116485190Y-116697000D01*
X116251801Y-116793673D01*
X116073173Y-116972302D01*
X115976500Y-117205691D01*
X102626316Y-117205691D01*
X102608751Y-117191274D01*
X102565943Y-117139107D01*
X102323483Y-116940107D01*
X102263926Y-116908270D01*
X102211720Y-116865438D01*
X101935110Y-116717638D01*
X101870640Y-116698091D01*
X101811230Y-116666325D01*
X101511070Y-116575225D01*
X101443834Y-116568593D01*
X101379176Y-116548989D01*
X101067026Y-116518289D01*
X100999975Y-116524903D01*
X100932929Y-116518290D01*
X100620799Y-116548989D01*
X100556141Y-116568594D01*
X100488904Y-116575226D01*
X100188754Y-116666327D01*
X100129355Y-116698088D01*
X100064890Y-116717632D01*
X99788269Y-116865433D01*
X99736055Y-116908270D01*
X99676497Y-116940108D01*
X99441000Y-117133392D01*
X99441000Y-112764084D01*
X104514862Y-112764084D01*
X104801431Y-113190924D01*
X105968363Y-113674322D01*
X107231457Y-113674358D01*
X108398417Y-113191025D01*
X108398569Y-113190924D01*
X108685138Y-112764084D01*
X106600000Y-110678945D01*
X104514862Y-112764084D01*
X99441000Y-112764084D01*
X99441000Y-111130797D01*
X103424982Y-111130797D01*
X103908315Y-112297757D01*
X103908416Y-112297909D01*
X104335256Y-112584478D01*
X106420395Y-110499340D01*
X106779605Y-110499340D01*
X108864744Y-112584478D01*
X109291584Y-112297909D01*
X109774982Y-111130977D01*
X109775018Y-109867883D01*
X109291685Y-108700923D01*
X109291584Y-108700771D01*
X108864744Y-108414202D01*
X106779605Y-110499340D01*
X106420395Y-110499340D01*
X104335256Y-108414202D01*
X103908416Y-108700771D01*
X103425018Y-109867703D01*
X103424982Y-111130797D01*
X99441000Y-111130797D01*
X99441000Y-108234596D01*
X104514862Y-108234596D01*
X106600000Y-110319735D01*
X108685138Y-108234596D01*
X108398569Y-107807756D01*
X107231637Y-107324358D01*
X105968543Y-107324322D01*
X104801583Y-107807655D01*
X104801431Y-107807756D01*
X104514862Y-108234596D01*
X99441000Y-108234596D01*
X99441000Y-107285750D01*
X120365000Y-107285750D01*
X120365000Y-107926310D01*
X120461673Y-108159699D01*
X120640302Y-108338327D01*
X120873691Y-108435000D01*
X121214250Y-108435000D01*
X121373000Y-108276250D01*
X121373000Y-107127000D01*
X121627000Y-107127000D01*
X121627000Y-108276250D01*
X121785750Y-108435000D01*
X122126309Y-108435000D01*
X122359698Y-108338327D01*
X122538327Y-108159699D01*
X122635000Y-107926310D01*
X122635000Y-107285750D01*
X122476250Y-107127000D01*
X121627000Y-107127000D01*
X121373000Y-107127000D01*
X120523750Y-107127000D01*
X120365000Y-107285750D01*
X99441000Y-107285750D01*
X99441000Y-106073690D01*
X120365000Y-106073690D01*
X120365000Y-106714250D01*
X120523750Y-106873000D01*
X121373000Y-106873000D01*
X121373000Y-105723750D01*
X121627000Y-105723750D01*
X121627000Y-106873000D01*
X122476250Y-106873000D01*
X122635000Y-106714250D01*
X122635000Y-106073690D01*
X122538327Y-105840301D01*
X122359698Y-105661673D01*
X122126309Y-105565000D01*
X121785750Y-105565000D01*
X121627000Y-105723750D01*
X121373000Y-105723750D01*
X121214250Y-105565000D01*
X120873691Y-105565000D01*
X120640302Y-105661673D01*
X120461673Y-105840301D01*
X120365000Y-106073690D01*
X99441000Y-106073690D01*
X99441000Y-91351292D01*
X107090497Y-91351292D01*
X108019860Y-92280655D01*
X108949223Y-91351292D01*
X108857937Y-91090680D01*
X108270027Y-90874215D01*
X107644032Y-90899211D01*
X107181783Y-91090680D01*
X107090497Y-91351292D01*
X99441000Y-91351292D01*
X99441000Y-87765404D01*
X104514862Y-87765404D01*
X104801431Y-88192244D01*
X105968363Y-88675642D01*
X107231457Y-88675678D01*
X108398417Y-88192345D01*
X108398569Y-88192244D01*
X108685138Y-87765404D01*
X106600000Y-85680265D01*
X104514862Y-87765404D01*
X99441000Y-87765404D01*
X99441000Y-86132117D01*
X103424982Y-86132117D01*
X103908315Y-87299077D01*
X103908416Y-87299229D01*
X104335256Y-87585798D01*
X106420395Y-85500660D01*
X106779605Y-85500660D01*
X108864744Y-87585798D01*
X109291584Y-87299229D01*
X109774982Y-86132297D01*
X109775018Y-84869203D01*
X109291685Y-83702243D01*
X109291584Y-83702091D01*
X108864744Y-83415522D01*
X106779605Y-85500660D01*
X106420395Y-85500660D01*
X104335256Y-83415522D01*
X103908416Y-83702091D01*
X103425018Y-84869023D01*
X103424982Y-86132117D01*
X99441000Y-86132117D01*
X99441000Y-83235916D01*
X104514862Y-83235916D01*
X106600000Y-85321055D01*
X108685138Y-83235916D01*
X108398569Y-82809076D01*
X107231637Y-82325678D01*
X105968543Y-82325642D01*
X104801583Y-82808975D01*
X104801431Y-82809076D01*
X104514862Y-83235916D01*
X99441000Y-83235916D01*
X99441000Y-81296250D01*
X112295000Y-81296250D01*
X112295000Y-82886809D01*
X112391673Y-83120198D01*
X112570301Y-83298827D01*
X112803690Y-83395500D01*
X114394250Y-83395500D01*
X114553000Y-83236750D01*
X114553000Y-81137500D01*
X112453750Y-81137500D01*
X112295000Y-81296250D01*
X99441000Y-81296250D01*
X99441000Y-79466567D01*
X99676523Y-79659854D01*
X99736018Y-79691655D01*
X99788167Y-79734453D01*
X100064787Y-79882313D01*
X100129361Y-79901902D01*
X100188874Y-79933710D01*
X100489024Y-80024750D01*
X100556150Y-80031359D01*
X100620695Y-80050940D01*
X100932846Y-80081690D01*
X101000000Y-80075077D01*
X101067159Y-80081690D01*
X101379289Y-80050940D01*
X101443830Y-80031360D01*
X101510950Y-80024752D01*
X101811110Y-79933712D01*
X101870631Y-79901900D01*
X101935212Y-79882308D01*
X102211822Y-79734448D01*
X102263966Y-79691652D01*
X102323457Y-79659854D01*
X102565917Y-79460874D01*
X102608719Y-79408719D01*
X102660874Y-79365917D01*
X102851044Y-79134191D01*
X112295000Y-79134191D01*
X112295000Y-80724750D01*
X112453750Y-80883500D01*
X114553000Y-80883500D01*
X114553000Y-78784250D01*
X114807000Y-78784250D01*
X114807000Y-80883500D01*
X116906250Y-80883500D01*
X117065000Y-80724750D01*
X117065000Y-80055804D01*
X117091673Y-80120198D01*
X117270301Y-80298827D01*
X117503690Y-80395500D01*
X119094250Y-80395500D01*
X119253000Y-80236750D01*
X119253000Y-78137500D01*
X119507000Y-78137500D01*
X119507000Y-80236750D01*
X119665750Y-80395500D01*
X121256310Y-80395500D01*
X121489699Y-80298827D01*
X121668327Y-80120198D01*
X121765000Y-79886809D01*
X121765000Y-78296250D01*
X121606250Y-78137500D01*
X119507000Y-78137500D01*
X119253000Y-78137500D01*
X117153750Y-78137500D01*
X116995000Y-78296250D01*
X116995000Y-78965196D01*
X116968327Y-78900802D01*
X116789699Y-78722173D01*
X116556310Y-78625500D01*
X114965750Y-78625500D01*
X114807000Y-78784250D01*
X114553000Y-78784250D01*
X114394250Y-78625500D01*
X112803690Y-78625500D01*
X112570301Y-78722173D01*
X112391673Y-78900802D01*
X112295000Y-79134191D01*
X102851044Y-79134191D01*
X102859854Y-79123457D01*
X102891652Y-79063966D01*
X102934448Y-79011822D01*
X103082308Y-78735212D01*
X103101900Y-78670631D01*
X103133712Y-78611110D01*
X103224752Y-78310950D01*
X103231360Y-78243829D01*
X103250940Y-78179289D01*
X103281690Y-77867159D01*
X103275077Y-77800000D01*
X103281690Y-77732846D01*
X103250940Y-77420695D01*
X103231359Y-77356150D01*
X103224750Y-77289024D01*
X103133710Y-76988874D01*
X103101902Y-76929361D01*
X103082313Y-76864787D01*
X102934453Y-76588167D01*
X102891655Y-76536018D01*
X102859854Y-76476523D01*
X102737145Y-76327000D01*
X116995000Y-76327000D01*
X116995000Y-77724750D01*
X116995000Y-77724750D01*
G37*
X116995000Y-77724750D02*
X117153750Y-77883500D01*
X119253000Y-77883500D01*
X119253000Y-77863500D01*
X119507000Y-77863500D01*
X119507000Y-77883500D01*
X121606250Y-77883500D01*
X121765000Y-77724750D01*
X121765000Y-76327000D01*
X134066921Y-76327000D01*
X133599210Y-76794710D01*
X133407367Y-77081825D01*
X133399664Y-77120552D01*
X133339999Y-77420500D01*
X133340000Y-77420505D01*
X133340000Y-77650962D01*
X133239683Y-77669838D01*
X133023559Y-77808910D01*
X132878569Y-78021110D01*
X132827560Y-78273000D01*
X132827560Y-78387000D01*
X131545344Y-78387000D01*
X131502590Y-78320559D01*
X131290390Y-78175569D01*
X131038500Y-78124560D01*
X129438500Y-78124560D01*
X129203183Y-78168838D01*
X128987059Y-78307910D01*
X128933019Y-78387000D01*
X127611005Y-78387000D01*
X127611000Y-78386999D01*
X127328516Y-78443190D01*
X127272325Y-78454367D01*
X126985210Y-78646210D01*
X126985208Y-78646213D01*
X122505920Y-83125500D01*
X121777440Y-83125500D01*
X121777440Y-82260500D01*
X121733162Y-82025183D01*
X121594090Y-81809059D01*
X121381890Y-81664069D01*
X121130000Y-81613060D01*
X117630000Y-81613060D01*
X117394683Y-81657338D01*
X117178559Y-81796410D01*
X117065000Y-81962609D01*
X117065000Y-81296250D01*
X116906250Y-81137500D01*
X114807000Y-81137500D01*
X114807000Y-83236750D01*
X114965750Y-83395500D01*
X116556310Y-83395500D01*
X116789699Y-83298827D01*
X116968327Y-83120198D01*
X116982560Y-83085837D01*
X116982560Y-85760500D01*
X117026838Y-85995817D01*
X117165910Y-86211941D01*
X117378110Y-86356931D01*
X117630000Y-86407940D01*
X121130000Y-86407940D01*
X121365317Y-86363662D01*
X121581441Y-86224590D01*
X121726431Y-86012390D01*
X121777440Y-85760500D01*
X121777440Y-85082250D01*
X128803500Y-85082250D01*
X128803500Y-85422809D01*
X128900173Y-85656198D01*
X129078801Y-85834827D01*
X129312190Y-85931500D01*
X129952750Y-85931500D01*
X130111500Y-85772750D01*
X130111500Y-84923500D01*
X130365500Y-84923500D01*
X130365500Y-85772750D01*
X130524250Y-85931500D01*
X131164810Y-85931500D01*
X131398199Y-85834827D01*
X131576827Y-85656198D01*
X131673500Y-85422809D01*
X131673500Y-85082250D01*
X131514750Y-84923500D01*
X130365500Y-84923500D01*
X130111500Y-84923500D01*
X128962250Y-84923500D01*
X128803500Y-85082250D01*
X121777440Y-85082250D01*
X121777440Y-84895500D01*
X122872495Y-84895500D01*
X122872500Y-84895501D01*
X123154984Y-84839310D01*
X123211175Y-84828133D01*
X123498290Y-84636290D01*
X123964388Y-84170191D01*
X128803500Y-84170191D01*
X128803500Y-84510750D01*
X128962250Y-84669500D01*
X130111500Y-84669500D01*
X130111500Y-83820250D01*
X130365500Y-83820250D01*
X130365500Y-84669500D01*
X131514750Y-84669500D01*
X131673500Y-84510750D01*
X131673500Y-84170191D01*
X131576827Y-83936802D01*
X131398199Y-83758173D01*
X131164810Y-83661500D01*
X130524250Y-83661500D01*
X130365500Y-83820250D01*
X130111500Y-83820250D01*
X129952750Y-83661500D01*
X129312190Y-83661500D01*
X129078801Y-83758173D01*
X128900173Y-83936802D01*
X128803500Y-84170191D01*
X123964388Y-84170191D01*
X125576829Y-82557750D01*
X128803500Y-82557750D01*
X128803500Y-82898309D01*
X128900173Y-83131698D01*
X129078801Y-83310327D01*
X129312190Y-83407000D01*
X129952750Y-83407000D01*
X130111500Y-83248250D01*
X130111500Y-82399000D01*
X130365500Y-82399000D01*
X130365500Y-83248250D01*
X130524250Y-83407000D01*
X131164810Y-83407000D01*
X131398199Y-83310327D01*
X131576827Y-83131698D01*
X131673500Y-82898309D01*
X131673500Y-82557750D01*
X131514750Y-82399000D01*
X130365500Y-82399000D01*
X130111500Y-82399000D01*
X128962250Y-82399000D01*
X128803500Y-82557750D01*
X125576829Y-82557750D01*
X126488888Y-81645691D01*
X128803500Y-81645691D01*
X128803500Y-81986250D01*
X128962250Y-82145000D01*
X130111500Y-82145000D01*
X130111500Y-81295750D01*
X130365500Y-81295750D01*
X130365500Y-82145000D01*
X131514750Y-82145000D01*
X131673500Y-81986250D01*
X131673500Y-81645691D01*
X131576827Y-81412302D01*
X131398199Y-81233673D01*
X131164810Y-81137000D01*
X130524250Y-81137000D01*
X130365500Y-81295750D01*
X130111500Y-81295750D01*
X129952750Y-81137000D01*
X129312190Y-81137000D01*
X129078801Y-81233673D01*
X128900173Y-81412302D01*
X128803500Y-81645691D01*
X126488888Y-81645691D01*
X127977579Y-80157000D01*
X128931656Y-80157000D01*
X128974410Y-80223441D01*
X129186610Y-80368431D01*
X129438500Y-80419440D01*
X131038500Y-80419440D01*
X131273817Y-80375162D01*
X131489941Y-80236090D01*
X131543981Y-80157000D01*
X132827560Y-80157000D01*
X132827560Y-80273000D01*
X132871838Y-80508317D01*
X133010910Y-80724441D01*
X133223110Y-80869431D01*
X133475000Y-80920440D01*
X134975000Y-80920440D01*
X135210317Y-80876162D01*
X135376477Y-80769241D01*
X135523110Y-80869431D01*
X135665000Y-80898164D01*
X135665000Y-83925560D01*
X134625000Y-83925560D01*
X134389683Y-83969838D01*
X134173559Y-84108910D01*
X134028569Y-84321110D01*
X133977560Y-84573000D01*
X133977560Y-84713000D01*
X133819500Y-84713000D01*
X133490392Y-84778464D01*
X133273330Y-84923500D01*
X133211388Y-84964888D01*
X131400780Y-86775496D01*
X131290390Y-86700069D01*
X131038500Y-86649060D01*
X129438500Y-86649060D01*
X129203183Y-86693338D01*
X128987059Y-86832410D01*
X128915937Y-86936500D01*
X124357000Y-86936500D01*
X124027892Y-87001964D01*
X123777259Y-87169431D01*
X123748888Y-87188388D01*
X121375388Y-89561888D01*
X121188964Y-89840892D01*
X121123500Y-90170000D01*
X121123500Y-93345000D01*
X121188964Y-93674108D01*
X121337981Y-93897128D01*
X121375388Y-93953112D01*
X122087276Y-94665000D01*
X119539802Y-94665000D01*
X118337401Y-93462599D01*
X118090839Y-93297852D01*
X117800000Y-93240000D01*
X117077377Y-93240000D01*
X117082440Y-93215000D01*
X117082440Y-92245000D01*
X117038162Y-92009683D01*
X116899090Y-91793559D01*
X116686890Y-91648569D01*
X116435000Y-91597560D01*
X115165000Y-91597560D01*
X114929683Y-91641838D01*
X114713559Y-91780910D01*
X114584359Y-91970000D01*
X112961594Y-91970000D01*
X112645299Y-91838662D01*
X112273333Y-91838338D01*
X111929557Y-91980383D01*
X111666308Y-92243173D01*
X111523662Y-92586701D01*
X111523338Y-92958667D01*
X111665383Y-93302443D01*
X111928173Y-93565692D01*
X112271701Y-93708338D01*
X112643667Y-93708662D01*
X112987443Y-93566617D01*
X113064194Y-93490000D01*
X114522623Y-93490000D01*
X114517560Y-93515000D01*
X114517560Y-94471400D01*
X109409770Y-94471400D01*
X109355689Y-94340513D01*
X108913077Y-93897128D01*
X108804417Y-93852009D01*
X108857937Y-93829840D01*
X108949223Y-93569228D01*
X108019860Y-92639865D01*
X107090497Y-93569228D01*
X107181783Y-93829840D01*
X107237978Y-93850531D01*
X107128973Y-93895571D01*
X106685588Y-94338183D01*
X106445334Y-94916779D01*
X106444787Y-95543273D01*
X106575978Y-95860780D01*
X106570050Y-95860780D01*
X106515969Y-95729893D01*
X106073357Y-95286508D01*
X105953296Y-95236654D01*
X106071027Y-95188009D01*
X106514412Y-94745397D01*
X106754666Y-94166801D01*
X106755213Y-93540307D01*
X106656071Y-93300365D01*
X106910892Y-93389623D01*
X107840255Y-92460260D01*
X108199465Y-92460260D01*
X109128828Y-93389623D01*
X109389440Y-93298337D01*
X109605905Y-92710427D01*
X109580909Y-92084432D01*
X109389440Y-91622183D01*
X109128828Y-91530897D01*
X108199465Y-92460260D01*
X107840255Y-92460260D01*
X106910892Y-91530897D01*
X106650280Y-91622183D01*
X106433815Y-92210093D01*
X106458811Y-92836088D01*
X106506916Y-92952224D01*
X106073357Y-92517908D01*
X105494761Y-92277654D01*
X104868267Y-92277107D01*
X104289253Y-92516351D01*
X103845868Y-92958963D01*
X103605614Y-93537559D01*
X103605067Y-94164053D01*
X103844311Y-94743067D01*
X104286923Y-95186452D01*
X104406984Y-95236306D01*
X104289253Y-95284951D01*
X103845868Y-95727563D01*
X103605614Y-96306159D01*
X103605067Y-96932653D01*
X103844311Y-97511667D01*
X104286923Y-97955052D01*
X104394720Y-97999813D01*
X104289253Y-98043391D01*
X103845868Y-98486003D01*
X103605614Y-99064599D01*
X103605067Y-99691093D01*
X103844311Y-100270107D01*
X104286923Y-100713492D01*
X104406984Y-100763346D01*
X104289253Y-100811991D01*
X103845868Y-101254603D01*
X103605614Y-101833199D01*
X103605067Y-102459693D01*
X103844311Y-103038707D01*
X104286923Y-103482092D01*
X104865519Y-103722346D01*
X105492013Y-103722893D01*
X106071027Y-103483649D01*
X106432620Y-103122686D01*
X106432620Y-104479540D01*
X106476898Y-104714857D01*
X106615970Y-104930981D01*
X106828170Y-105075971D01*
X107080060Y-105126980D01*
X108959660Y-105126980D01*
X109194977Y-105082702D01*
X109411101Y-104943630D01*
X109556091Y-104731430D01*
X109607100Y-104479540D01*
X109607100Y-102907820D01*
X111337378Y-102907820D01*
X112436959Y-104007401D01*
X112683521Y-104172148D01*
X112974360Y-104230000D01*
X114587373Y-104230000D01*
X114700910Y-104406441D01*
X114913110Y-104551431D01*
X115165000Y-104602440D01*
X116435000Y-104602440D01*
X116670317Y-104558162D01*
X116886441Y-104419090D01*
X117031431Y-104206890D01*
X117082440Y-103955000D01*
X117082440Y-102985000D01*
X117077736Y-102960000D01*
X117348000Y-102960000D01*
X117638839Y-102902148D01*
X117885401Y-102737401D01*
X118737401Y-101885401D01*
X118902148Y-101638839D01*
X118960000Y-101348000D01*
X118960000Y-101273463D01*
X118992192Y-101241327D01*
X119102023Y-100976825D01*
X119167599Y-101042401D01*
X119414160Y-101207148D01*
X119705000Y-101265000D01*
X122924666Y-101265000D01*
X122890000Y-101348690D01*
X122890000Y-101489250D01*
X123048750Y-101648000D01*
X124373000Y-101648000D01*
X124373000Y-101628000D01*
X124627000Y-101628000D01*
X124627000Y-101648000D01*
X124647000Y-101648000D01*
X124647000Y-101902000D01*
X124627000Y-101902000D01*
X124627000Y-101922000D01*
X124373000Y-101922000D01*
X124373000Y-101902000D01*
X123048750Y-101902000D01*
X122890000Y-102060750D01*
X122890000Y-102201310D01*
X122979806Y-102418122D01*
X122928569Y-102493110D01*
X122877560Y-102745000D01*
X122877560Y-103345000D01*
X122921838Y-103580317D01*
X122985678Y-103679528D01*
X122928569Y-103763110D01*
X122877560Y-104015000D01*
X122877560Y-104615000D01*
X122921838Y-104850317D01*
X123060910Y-105066441D01*
X123273110Y-105211431D01*
X123525000Y-105262440D01*
X123640000Y-105262440D01*
X123640000Y-105677069D01*
X123548559Y-105735910D01*
X123403569Y-105948110D01*
X123352560Y-106200000D01*
X123352560Y-107800000D01*
X123364540Y-107863668D01*
X123364540Y-108674317D01*
X123339540Y-108800000D01*
X123339540Y-109199540D01*
X123340000Y-109201853D01*
X123340000Y-110043776D01*
X123043776Y-110340000D01*
X119400000Y-110340000D01*
X119070892Y-110405464D01*
X118809439Y-110580161D01*
X118791888Y-110591888D01*
X116791888Y-112591888D01*
X116605464Y-112870892D01*
X116540000Y-113200000D01*
X116540000Y-113698014D01*
X116376183Y-113728838D01*
X116160059Y-113867910D01*
X116015069Y-114080110D01*
X115964060Y-114332000D01*
X115964060Y-115332000D01*
X116008338Y-115567317D01*
X116147410Y-115783441D01*
X116359610Y-115928431D01*
X116611500Y-115979440D01*
X118211500Y-115979440D01*
X118446817Y-115935162D01*
X118662941Y-115796090D01*
X118807931Y-115583890D01*
X118858940Y-115332000D01*
X118858940Y-114332000D01*
X118814662Y-114096683D01*
X118675590Y-113880559D01*
X118463390Y-113735569D01*
X118260000Y-113694381D01*
X118260000Y-113556224D01*
X119756224Y-112060000D01*
X123400000Y-112060000D01*
X123729108Y-111994536D01*
X124008112Y-111808112D01*
X124808112Y-111008112D01*
X124835660Y-110966883D01*
X124994536Y-110729108D01*
X125048065Y-110460000D01*
X126342938Y-110460000D01*
X126080808Y-110721673D01*
X125938162Y-111065201D01*
X125938121Y-111112077D01*
X124843698Y-112206500D01*
X123507500Y-112206500D01*
X123216661Y-112264352D01*
X122970099Y-112429099D01*
X122081099Y-113318099D01*
X121916352Y-113564661D01*
X121892502Y-113684560D01*
X121818500Y-113684560D01*
X121583183Y-113728838D01*
X121367059Y-113867910D01*
X121222069Y-114080110D01*
X121171060Y-114332000D01*
X121171060Y-115332000D01*
X121215338Y-115567317D01*
X121354410Y-115783441D01*
X121566610Y-115928431D01*
X121818500Y-115979440D01*
X123418500Y-115979440D01*
X123653817Y-115935162D01*
X123869941Y-115796090D01*
X124014931Y-115583890D01*
X124065940Y-115332000D01*
X124065940Y-114945028D01*
X124102148Y-114890839D01*
X124160000Y-114600000D01*
X124102148Y-114309161D01*
X124045765Y-114224777D01*
X124021662Y-114096683D01*
X123882590Y-113880559D01*
X123755250Y-113793552D01*
X123822302Y-113726500D01*
X125158500Y-113726500D01*
X125449339Y-113668648D01*
X125695901Y-113503901D01*
X126811500Y-112388302D01*
X126811500Y-113684560D01*
X126771500Y-113684560D01*
X126536183Y-113728838D01*
X126320059Y-113867910D01*
X126175069Y-114080110D01*
X126124060Y-114332000D01*
X126124060Y-115332000D01*
X126168338Y-115567317D01*
X126307410Y-115783441D01*
X126519610Y-115928431D01*
X126771500Y-115979440D01*
X128371500Y-115979440D01*
X128606817Y-115935162D01*
X128822941Y-115796090D01*
X128967931Y-115583890D01*
X129018940Y-115332000D01*
X129018940Y-114332000D01*
X131140560Y-114332000D01*
X131140560Y-115332000D01*
X131184838Y-115567317D01*
X131323910Y-115783441D01*
X131536110Y-115928431D01*
X131788000Y-115979440D01*
X133388000Y-115979440D01*
X133623317Y-115935162D01*
X133839441Y-115796090D01*
X133984431Y-115583890D01*
X134035440Y-115332000D01*
X134035440Y-114332000D01*
X133993197Y-114107500D01*
X136202522Y-114107500D01*
X136157060Y-114332000D01*
X136157060Y-115332000D01*
X136201338Y-115567317D01*
X136340410Y-115783441D01*
X136552610Y-115928431D01*
X136804500Y-115979440D01*
X138404500Y-115979440D01*
X138639817Y-115935162D01*
X138855941Y-115796090D01*
X139000931Y-115583890D01*
X139051940Y-115332000D01*
X139051940Y-114332000D01*
X139007662Y-114096683D01*
X138868590Y-113880559D01*
X138656390Y-113735569D01*
X138404500Y-113684560D01*
X138364500Y-113684560D01*
X138364500Y-113598802D01*
X139192635Y-112770667D01*
X139653838Y-112770667D01*
X139795883Y-113114443D01*
X139829000Y-113147618D01*
X139829000Y-113982500D01*
X139886852Y-114273339D01*
X140051599Y-114519901D01*
X140901099Y-115369401D01*
X141147660Y-115534148D01*
X141195914Y-115543746D01*
X141214083Y-115547360D01*
X141217838Y-115567317D01*
X141356910Y-115783441D01*
X141569110Y-115928431D01*
X141821000Y-115979440D01*
X143421000Y-115979440D01*
X143656317Y-115935162D01*
X143872441Y-115796090D01*
X144017431Y-115583890D01*
X144068440Y-115332000D01*
X144068440Y-114332000D01*
X144024162Y-114096683D01*
X143885090Y-113880559D01*
X143672890Y-113735569D01*
X143421000Y-113684560D01*
X141821000Y-113684560D01*
X141585683Y-113728838D01*
X141478871Y-113797569D01*
X141349000Y-113667698D01*
X141349000Y-113147963D01*
X141381192Y-113115827D01*
X141523838Y-112772299D01*
X141524162Y-112400333D01*
X141382117Y-112056557D01*
X141119327Y-111793308D01*
X140775799Y-111650662D01*
X140403833Y-111650338D01*
X140060057Y-111792383D01*
X139796808Y-112055173D01*
X139654162Y-112398701D01*
X139653838Y-112770667D01*
X139192635Y-112770667D01*
X139221401Y-112741901D01*
X139386148Y-112495339D01*
X139414722Y-112351690D01*
X139476192Y-112290327D01*
X139618838Y-111946799D01*
X139619162Y-111574833D01*
X139477117Y-111231057D01*
X139214327Y-110967808D01*
X138870799Y-110825162D01*
X138498833Y-110824838D01*
X138155057Y-110966883D01*
X137891808Y-111229673D01*
X137749162Y-111573201D01*
X137748838Y-111945167D01*
X137783834Y-112029864D01*
X137569437Y-112244261D01*
X137372827Y-112047308D01*
X137029299Y-111904662D01*
X136657333Y-111904338D01*
X136313557Y-112046383D01*
X136050308Y-112309173D01*
X135934736Y-112587500D01*
X133223000Y-112587500D01*
X132932161Y-112645352D01*
X132685599Y-112810099D01*
X132050599Y-113445099D01*
X131890597Y-113684560D01*
X131788000Y-113684560D01*
X131552683Y-113728838D01*
X131336559Y-113867910D01*
X131191569Y-114080110D01*
X131140560Y-114332000D01*
X129018940Y-114332000D01*
X128974662Y-114096683D01*
X128835590Y-113880559D01*
X128623390Y-113735569D01*
X128371500Y-113684560D01*
X128331500Y-113684560D01*
X128331500Y-112519302D01*
X128663680Y-112187122D01*
X128709167Y-112187162D01*
X129052943Y-112045117D01*
X129316192Y-111782327D01*
X129458838Y-111438799D01*
X129459162Y-111066833D01*
X129317117Y-110723057D01*
X129054519Y-110460000D01*
X146276060Y-110460000D01*
X146276060Y-111721000D01*
X146320338Y-111956317D01*
X146459410Y-112172441D01*
X146671610Y-112317431D01*
X146923500Y-112368440D01*
X148923500Y-112368440D01*
X149158817Y-112324162D01*
X149374941Y-112185090D01*
X149519931Y-111972890D01*
X149570940Y-111721000D01*
X149570940Y-110021000D01*
X149526662Y-109785683D01*
X149387590Y-109569559D01*
X149233650Y-109464376D01*
X149338327Y-109359698D01*
X149435000Y-109126309D01*
X149435000Y-108435750D01*
X149276250Y-108277000D01*
X148427000Y-108277000D01*
X148427000Y-108297000D01*
X148173000Y-108297000D01*
X148173000Y-108277000D01*
X147323750Y-108277000D01*
X147165000Y-108435750D01*
X147165000Y-108928003D01*
X147152335Y-108919540D01*
X146981608Y-108805464D01*
X146652500Y-108740000D01*
X138847440Y-108740000D01*
X138847440Y-107800000D01*
X138803162Y-107564683D01*
X138664090Y-107348559D01*
X138451890Y-107203569D01*
X138304349Y-107173691D01*
X147165000Y-107173691D01*
X147165000Y-107864250D01*
X147323750Y-108023000D01*
X148173000Y-108023000D01*
X148173000Y-106823750D01*
X148427000Y-106823750D01*
X148427000Y-108023000D01*
X149276250Y-108023000D01*
X149435000Y-107864250D01*
X149435000Y-107173691D01*
X149338327Y-106940302D01*
X149159699Y-106761673D01*
X148926310Y-106665000D01*
X148585750Y-106665000D01*
X148427000Y-106823750D01*
X148173000Y-106823750D01*
X148014250Y-106665000D01*
X147673690Y-106665000D01*
X147440301Y-106761673D01*
X147261673Y-106940302D01*
X147165000Y-107173691D01*
X138304349Y-107173691D01*
X138200000Y-107152560D01*
X136600000Y-107152560D01*
X136364683Y-107196838D01*
X136148559Y-107335910D01*
X136047440Y-107483903D01*
X136047440Y-106200000D01*
X136040000Y-106160460D01*
X136077365Y-106160460D01*
X136135910Y-106251441D01*
X136348110Y-106396431D01*
X136600000Y-106447440D01*
X138200000Y-106447440D01*
X138435317Y-106403162D01*
X138651441Y-106264090D01*
X138796431Y-106051890D01*
X138847440Y-105800000D01*
X138847440Y-104800000D01*
X138803162Y-104564683D01*
X138664090Y-104348559D01*
X138451890Y-104203569D01*
X138418510Y-104196809D01*
X138559699Y-104138327D01*
X138738327Y-103959698D01*
X138835000Y-103726309D01*
X138835000Y-103385750D01*
X138676250Y-103227000D01*
X137527000Y-103227000D01*
X137527000Y-103247000D01*
X137273000Y-103247000D01*
X137273000Y-103227000D01*
X137253000Y-103227000D01*
X137253000Y-102973000D01*
X137273000Y-102973000D01*
X137273000Y-102123750D01*
X137527000Y-102123750D01*
X137527000Y-102973000D01*
X138676250Y-102973000D01*
X138835000Y-102814250D01*
X138835000Y-102473691D01*
X138738327Y-102240302D01*
X138633776Y-102135750D01*
X147165000Y-102135750D01*
X147165000Y-102826309D01*
X147261673Y-103059698D01*
X147440301Y-103238327D01*
X147673690Y-103335000D01*
X148014250Y-103335000D01*
X148173000Y-103176250D01*
X148173000Y-101977000D01*
X148427000Y-101977000D01*
X148427000Y-103176250D01*
X148585750Y-103335000D01*
X148926310Y-103335000D01*
X149159699Y-103238327D01*
X149338327Y-103059698D01*
X149435000Y-102826309D01*
X149435000Y-102135750D01*
X149276250Y-101977000D01*
X148427000Y-101977000D01*
X148173000Y-101977000D01*
X147323750Y-101977000D01*
X147165000Y-102135750D01*
X138633776Y-102135750D01*
X138559699Y-102061673D01*
X138326310Y-101965000D01*
X137685750Y-101965000D01*
X137527000Y-102123750D01*
X137273000Y-102123750D01*
X137114250Y-101965000D01*
X136473690Y-101965000D01*
X136240301Y-102061673D01*
X136061673Y-102240302D01*
X135965000Y-102473691D01*
X135965000Y-102814250D01*
X136123748Y-102972998D01*
X136011167Y-102972998D01*
X135937401Y-102862599D01*
X135582401Y-102507599D01*
X135421443Y-102400050D01*
X135471431Y-102326890D01*
X135522440Y-102075000D01*
X135522440Y-101475000D01*
X135478162Y-101239683D01*
X135414322Y-101140472D01*
X135471431Y-101056890D01*
X135522440Y-100805000D01*
X135522440Y-100205000D01*
X135478162Y-99969683D01*
X135414322Y-99870472D01*
X135471431Y-99786890D01*
X135522440Y-99535000D01*
X135522440Y-98935000D01*
X135482926Y-98725000D01*
X136640000Y-98725000D01*
X136640000Y-98952560D01*
X136600000Y-98952560D01*
X136364683Y-98996838D01*
X136148559Y-99135910D01*
X136003569Y-99348110D01*
X135952560Y-99600000D01*
X135952560Y-100600000D01*
X135996838Y-100835317D01*
X136135910Y-101051441D01*
X136348110Y-101196431D01*
X136600000Y-101247440D01*
X138200000Y-101247440D01*
X138435317Y-101203162D01*
X138651441Y-101064090D01*
X138781535Y-100873691D01*
X147165000Y-100873691D01*
X147165000Y-101564250D01*
X147323750Y-101723000D01*
X148173000Y-101723000D01*
X148173000Y-100523750D01*
X148427000Y-100523750D01*
X148427000Y-101723000D01*
X149276250Y-101723000D01*
X149435000Y-101564250D01*
X149435000Y-100873691D01*
X149338327Y-100640302D01*
X149159699Y-100461673D01*
X148926310Y-100365000D01*
X148585750Y-100365000D01*
X148427000Y-100523750D01*
X148173000Y-100523750D01*
X148014250Y-100365000D01*
X147673690Y-100365000D01*
X147440301Y-100461673D01*
X147261673Y-100640302D01*
X147165000Y-100873691D01*
X138781535Y-100873691D01*
X138796431Y-100851890D01*
X138847440Y-100600000D01*
X138847440Y-99600000D01*
X138803162Y-99364683D01*
X138664090Y-99148559D01*
X138451890Y-99003569D01*
X138200000Y-98952560D01*
X138160000Y-98952560D01*
X138160000Y-98400000D01*
X138102148Y-98109161D01*
X137937401Y-97862599D01*
X137529802Y-97455000D01*
X141580198Y-97455000D01*
X141766099Y-97640901D01*
X141802263Y-97665065D01*
X141847707Y-97710509D01*
X141813162Y-97793701D01*
X141812838Y-98165667D01*
X141954883Y-98509443D01*
X142217673Y-98772692D01*
X142561201Y-98915338D01*
X142933167Y-98915662D01*
X143276943Y-98773617D01*
X143540192Y-98510827D01*
X143682838Y-98167299D01*
X143683162Y-97795333D01*
X143541117Y-97451557D01*
X143478782Y-97389113D01*
X143450148Y-97245161D01*
X143285401Y-96998599D01*
X142840901Y-96554099D01*
X142804737Y-96529935D01*
X142459802Y-96185000D01*
X142798698Y-96185000D01*
X145830099Y-99216401D01*
X146076661Y-99381148D01*
X146367500Y-99439000D01*
X155765500Y-99439000D01*
X156056339Y-99381148D01*
X156302901Y-99216401D01*
X157127534Y-98391768D01*
X157318901Y-98263901D01*
X158762680Y-96820122D01*
X158808167Y-96820162D01*
X159151943Y-96678117D01*
X159238110Y-96592100D01*
X159194502Y-104964839D01*
X159204250Y-105014300D01*
X159232474Y-105056072D01*
X159274725Y-105083573D01*
X159321500Y-105092500D01*
X159666640Y-105092500D01*
X159666640Y-105127002D01*
X159825388Y-105127002D01*
X159666640Y-105285750D01*
X159666640Y-105876309D01*
X159763313Y-106109698D01*
X159941941Y-106288327D01*
X160175330Y-106385000D01*
X160515890Y-106385000D01*
X160674640Y-106226250D01*
X160674640Y-105127000D01*
X160654640Y-105127000D01*
X160654640Y-105092500D01*
X160948640Y-105092500D01*
X160948640Y-105127000D01*
X160928640Y-105127000D01*
X160928640Y-106226250D01*
X161087390Y-106385000D01*
X161427950Y-106385000D01*
X161661339Y-106288327D01*
X161801955Y-106147710D01*
X161836530Y-106201441D01*
X162048730Y-106346431D01*
X162300620Y-106397440D01*
X163300620Y-106397440D01*
X163535937Y-106353162D01*
X163752061Y-106214090D01*
X163800537Y-106143144D01*
X163838050Y-106201441D01*
X164050250Y-106346431D01*
X164302140Y-106397440D01*
X165302140Y-106397440D01*
X165537457Y-106353162D01*
X165753581Y-106214090D01*
X165800749Y-106145058D01*
X165837030Y-106201441D01*
X166049230Y-106346431D01*
X166301120Y-106397440D01*
X167301120Y-106397440D01*
X167536437Y-106353162D01*
X167752561Y-106214090D01*
X167798420Y-106146972D01*
X167833470Y-106201441D01*
X168045670Y-106346431D01*
X168297560Y-106397440D01*
X169297560Y-106397440D01*
X169532877Y-106353162D01*
X169749001Y-106214090D01*
X169797477Y-106143144D01*
X169834990Y-106201441D01*
X170039080Y-106340890D01*
X170039080Y-106762118D01*
X169411198Y-107390000D01*
X153247440Y-107390000D01*
X153247440Y-107300000D01*
X153203162Y-107064683D01*
X153064090Y-106848559D01*
X152860000Y-106709110D01*
X152860000Y-103287279D01*
X153051441Y-103164090D01*
X153196431Y-102951890D01*
X153247440Y-102700000D01*
X153247440Y-101000000D01*
X153203162Y-100764683D01*
X153064090Y-100548559D01*
X152851890Y-100403569D01*
X152600000Y-100352560D01*
X151600000Y-100352560D01*
X151364683Y-100396838D01*
X151148559Y-100535910D01*
X151003569Y-100748110D01*
X150952560Y-101000000D01*
X150952560Y-102700000D01*
X150996838Y-102935317D01*
X151135910Y-103151441D01*
X151340000Y-103290890D01*
X151340000Y-106712721D01*
X151148559Y-106835910D01*
X151003569Y-107048110D01*
X150952560Y-107300000D01*
X150952560Y-109000000D01*
X150996838Y-109235317D01*
X151085795Y-109373560D01*
X150923500Y-109373560D01*
X150688183Y-109417838D01*
X150472059Y-109556910D01*
X150327069Y-109769110D01*
X150276060Y-110021000D01*
X150276060Y-111721000D01*
X150320338Y-111956317D01*
X150459410Y-112172441D01*
X150671610Y-112317431D01*
X150923500Y-112368440D01*
X151639156Y-112368440D01*
X151923500Y-112425000D01*
X152207844Y-112368440D01*
X152923500Y-112368440D01*
X153158817Y-112324162D01*
X153374941Y-112185090D01*
X153519931Y-111972890D01*
X153570940Y-111721000D01*
X153570940Y-110021000D01*
X153526662Y-109785683D01*
X153387590Y-109569559D01*
X153175390Y-109424569D01*
X153090228Y-109407323D01*
X153196431Y-109251890D01*
X153247440Y-109000000D01*
X153247440Y-108910000D01*
X169726000Y-108910000D01*
X170016839Y-108852148D01*
X170263401Y-108687401D01*
X171336481Y-107614321D01*
X171501228Y-107367760D01*
X171559080Y-107076920D01*
X171559080Y-106337279D01*
X171750521Y-106214090D01*
X171797689Y-106145058D01*
X171833970Y-106201441D01*
X172046170Y-106346431D01*
X172298060Y-106397440D01*
X173298060Y-106397440D01*
X173533377Y-106353162D01*
X173749501Y-106214090D01*
X173894491Y-106001890D01*
X173945500Y-105750000D01*
X173945500Y-105092500D01*
X174498000Y-105092500D01*
X174498000Y-117083319D01*
X174323440Y-116940072D01*
X174263912Y-116908256D01*
X174211729Y-116865442D01*
X173935129Y-116717642D01*
X173870640Y-116698089D01*
X173811215Y-116666317D01*
X173511016Y-116575217D01*
X173443796Y-116568589D01*
X173379157Y-116548990D01*
X173067057Y-116518290D01*
X173000000Y-116524903D01*
X172932943Y-116518290D01*
X172620843Y-116548990D01*
X172556204Y-116568589D01*
X172488984Y-116575217D01*
X172188784Y-116666317D01*
X172129358Y-116698089D01*
X172064871Y-116717642D01*
X171788271Y-116865442D01*
X171736089Y-116908255D01*
X171676559Y-116940072D01*
X171434060Y-117139072D01*
X171391242Y-117191242D01*
X171339072Y-117234060D01*
X171140072Y-117476560D01*
X171108256Y-117536088D01*
X171065442Y-117588271D01*
X170917642Y-117864871D01*
X170898089Y-117929360D01*
X170866317Y-117988785D01*
X170775217Y-118288984D01*
X170768589Y-118356204D01*
X170748990Y-118420843D01*
X170718290Y-118732943D01*
X170724903Y-118800000D01*
X170718290Y-118867057D01*
X170748990Y-119179157D01*
X170768589Y-119243796D01*
X170775217Y-119311016D01*
X170866317Y-119611215D01*
X170898089Y-119670640D01*
X170917642Y-119735129D01*
X171065442Y-120011729D01*
X171108256Y-120063912D01*
X171140072Y-120123440D01*
X171259521Y-120269000D01*
X102740430Y-120269000D01*
X102859889Y-120123414D01*
X102891667Y-120063949D01*
X102934443Y-120011831D01*
X103082303Y-119735231D01*
X103101901Y-119670633D01*
X103133719Y-119611096D01*
X103224759Y-119310896D01*
X103231363Y-119243790D01*
X103250939Y-119179265D01*
X103281689Y-118867165D01*
X103275076Y-118800000D01*
X103281689Y-118732835D01*
X103250939Y-118420735D01*
X103231363Y-118356210D01*
X103224759Y-118289104D01*
X103172794Y-118117750D01*
X115976500Y-118117750D01*
X115976500Y-118458309D01*
X116073173Y-118691698D01*
X116251801Y-118870327D01*
X116485190Y-118967000D01*
X117125750Y-118967000D01*
X117284500Y-118808250D01*
X117284500Y-117959000D01*
X117538500Y-117959000D01*
X117538500Y-118808250D01*
X117697250Y-118967000D01*
X118337810Y-118967000D01*
X118571199Y-118870327D01*
X118749827Y-118691698D01*
X118846500Y-118458309D01*
X118846500Y-118117750D01*
X121183500Y-118117750D01*
X121183500Y-118458309D01*
X121280173Y-118691698D01*
X121458801Y-118870327D01*
X121692190Y-118967000D01*
X122332750Y-118967000D01*
X122491500Y-118808250D01*
X122491500Y-117959000D01*
X122745500Y-117959000D01*
X122745500Y-118808250D01*
X122904250Y-118967000D01*
X123544810Y-118967000D01*
X123778199Y-118870327D01*
X123956827Y-118691698D01*
X124053500Y-118458309D01*
X124053500Y-118117750D01*
X126136500Y-118117750D01*
X126136500Y-118458309D01*
X126233173Y-118691698D01*
X126411801Y-118870327D01*
X126645190Y-118967000D01*
X127285750Y-118967000D01*
X127444500Y-118808250D01*
X127444500Y-117959000D01*
X127698500Y-117959000D01*
X127698500Y-118808250D01*
X127857250Y-118967000D01*
X128497810Y-118967000D01*
X128731199Y-118870327D01*
X128909827Y-118691698D01*
X129006500Y-118458309D01*
X129006500Y-118117750D01*
X131153000Y-118117750D01*
X131153000Y-118458309D01*
X131249673Y-118691698D01*
X131428301Y-118870327D01*
X131661690Y-118967000D01*
X132302250Y-118967000D01*
X132461000Y-118808250D01*
X132461000Y-117959000D01*
X132715000Y-117959000D01*
X132715000Y-118808250D01*
X132873750Y-118967000D01*
X133514310Y-118967000D01*
X133747699Y-118870327D01*
X133926327Y-118691698D01*
X134023000Y-118458309D01*
X134023000Y-118117750D01*
X136169500Y-118117750D01*
X136169500Y-118458309D01*
X136266173Y-118691698D01*
X136444801Y-118870327D01*
X136678190Y-118967000D01*
X137318750Y-118967000D01*
X137477500Y-118808250D01*
X137477500Y-117959000D01*
X137731500Y-117959000D01*
X137731500Y-118808250D01*
X137890250Y-118967000D01*
X138530810Y-118967000D01*
X138764199Y-118870327D01*
X138942827Y-118691698D01*
X139039500Y-118458309D01*
X139039500Y-118117750D01*
X141186000Y-118117750D01*
X141186000Y-118458309D01*
X141282673Y-118691698D01*
X141461301Y-118870327D01*
X141694690Y-118967000D01*
X142335250Y-118967000D01*
X142494000Y-118808250D01*
X142494000Y-117959000D01*
X142748000Y-117959000D01*
X142748000Y-118808250D01*
X142906750Y-118967000D01*
X143547310Y-118967000D01*
X143780699Y-118870327D01*
X143959327Y-118691698D01*
X144056000Y-118458309D01*
X144056000Y-118117750D01*
X143897250Y-117959000D01*
X142748000Y-117959000D01*
X142494000Y-117959000D01*
X141344750Y-117959000D01*
X141186000Y-118117750D01*
X139039500Y-118117750D01*
X138880750Y-117959000D01*
X137731500Y-117959000D01*
X137477500Y-117959000D01*
X136328250Y-117959000D01*
X136169500Y-118117750D01*
X134023000Y-118117750D01*
X133864250Y-117959000D01*
X132715000Y-117959000D01*
X132461000Y-117959000D01*
X131311750Y-117959000D01*
X131153000Y-118117750D01*
X129006500Y-118117750D01*
X128847750Y-117959000D01*
X127698500Y-117959000D01*
X127444500Y-117959000D01*
X126295250Y-117959000D01*
X126136500Y-118117750D01*
X124053500Y-118117750D01*
X123894750Y-117959000D01*
X122745500Y-117959000D01*
X122491500Y-117959000D01*
X121342250Y-117959000D01*
X121183500Y-118117750D01*
X118846500Y-118117750D01*
X118687750Y-117959000D01*
X117538500Y-117959000D01*
X117284500Y-117959000D01*
X116135250Y-117959000D01*
X115976500Y-118117750D01*
X103172794Y-118117750D01*
X103133719Y-117988904D01*
X103101901Y-117929367D01*
X103082303Y-117864769D01*
X102934443Y-117588169D01*
X102891667Y-117536051D01*
X102859889Y-117476586D01*
X102660909Y-117234086D01*
X102626316Y-117205691D01*
X115976500Y-117205691D01*
X115976500Y-117546250D01*
X116135250Y-117705000D01*
X117284500Y-117705000D01*
X117284500Y-116855750D01*
X117538500Y-116855750D01*
X117538500Y-117705000D01*
X118687750Y-117705000D01*
X118846500Y-117546250D01*
X118846500Y-117205691D01*
X121183500Y-117205691D01*
X121183500Y-117546250D01*
X121342250Y-117705000D01*
X122491500Y-117705000D01*
X122491500Y-116855750D01*
X122745500Y-116855750D01*
X122745500Y-117705000D01*
X123894750Y-117705000D01*
X124053500Y-117546250D01*
X124053500Y-117205691D01*
X126136500Y-117205691D01*
X126136500Y-117546250D01*
X126295250Y-117705000D01*
X127444500Y-117705000D01*
X127444500Y-116855750D01*
X127698500Y-116855750D01*
X127698500Y-117705000D01*
X128847750Y-117705000D01*
X129006500Y-117546250D01*
X129006500Y-117205691D01*
X131153000Y-117205691D01*
X131153000Y-117546250D01*
X131311750Y-117705000D01*
X132461000Y-117705000D01*
X132461000Y-116855750D01*
X132715000Y-116855750D01*
X132715000Y-117705000D01*
X133864250Y-117705000D01*
X134023000Y-117546250D01*
X134023000Y-117205691D01*
X136169500Y-117205691D01*
X136169500Y-117546250D01*
X136328250Y-117705000D01*
X137477500Y-117705000D01*
X137477500Y-116855750D01*
X137731500Y-116855750D01*
X137731500Y-117705000D01*
X138880750Y-117705000D01*
X139039500Y-117546250D01*
X139039500Y-117205691D01*
X141186000Y-117205691D01*
X141186000Y-117546250D01*
X141344750Y-117705000D01*
X142494000Y-117705000D01*
X142494000Y-116855750D01*
X142748000Y-116855750D01*
X142748000Y-117705000D01*
X143897250Y-117705000D01*
X144056000Y-117546250D01*
X144056000Y-117205691D01*
X143959327Y-116972302D01*
X143780699Y-116793673D01*
X143547310Y-116697000D01*
X142906750Y-116697000D01*
X142748000Y-116855750D01*
X142494000Y-116855750D01*
X142335250Y-116697000D01*
X141694690Y-116697000D01*
X141461301Y-116793673D01*
X141282673Y-116972302D01*
X141186000Y-117205691D01*
X139039500Y-117205691D01*
X138942827Y-116972302D01*
X138764199Y-116793673D01*
X138530810Y-116697000D01*
X137890250Y-116697000D01*
X137731500Y-116855750D01*
X137477500Y-116855750D01*
X137318750Y-116697000D01*
X136678190Y-116697000D01*
X136444801Y-116793673D01*
X136266173Y-116972302D01*
X136169500Y-117205691D01*
X134023000Y-117205691D01*
X133926327Y-116972302D01*
X133747699Y-116793673D01*
X133514310Y-116697000D01*
X132873750Y-116697000D01*
X132715000Y-116855750D01*
X132461000Y-116855750D01*
X132302250Y-116697000D01*
X131661690Y-116697000D01*
X131428301Y-116793673D01*
X131249673Y-116972302D01*
X131153000Y-117205691D01*
X129006500Y-117205691D01*
X128909827Y-116972302D01*
X128731199Y-116793673D01*
X128497810Y-116697000D01*
X127857250Y-116697000D01*
X127698500Y-116855750D01*
X127444500Y-116855750D01*
X127285750Y-116697000D01*
X126645190Y-116697000D01*
X126411801Y-116793673D01*
X126233173Y-116972302D01*
X126136500Y-117205691D01*
X124053500Y-117205691D01*
X123956827Y-116972302D01*
X123778199Y-116793673D01*
X123544810Y-116697000D01*
X122904250Y-116697000D01*
X122745500Y-116855750D01*
X122491500Y-116855750D01*
X122332750Y-116697000D01*
X121692190Y-116697000D01*
X121458801Y-116793673D01*
X121280173Y-116972302D01*
X121183500Y-117205691D01*
X118846500Y-117205691D01*
X118749827Y-116972302D01*
X118571199Y-116793673D01*
X118337810Y-116697000D01*
X117697250Y-116697000D01*
X117538500Y-116855750D01*
X117284500Y-116855750D01*
X117125750Y-116697000D01*
X116485190Y-116697000D01*
X116251801Y-116793673D01*
X116073173Y-116972302D01*
X115976500Y-117205691D01*
X102626316Y-117205691D01*
X102608751Y-117191274D01*
X102565943Y-117139107D01*
X102323483Y-116940107D01*
X102263926Y-116908270D01*
X102211720Y-116865438D01*
X101935110Y-116717638D01*
X101870640Y-116698091D01*
X101811230Y-116666325D01*
X101511070Y-116575225D01*
X101443834Y-116568593D01*
X101379176Y-116548989D01*
X101067026Y-116518289D01*
X100999975Y-116524903D01*
X100932929Y-116518290D01*
X100620799Y-116548989D01*
X100556141Y-116568594D01*
X100488904Y-116575226D01*
X100188754Y-116666327D01*
X100129355Y-116698088D01*
X100064890Y-116717632D01*
X99788269Y-116865433D01*
X99736055Y-116908270D01*
X99676497Y-116940108D01*
X99441000Y-117133392D01*
X99441000Y-112764084D01*
X104514862Y-112764084D01*
X104801431Y-113190924D01*
X105968363Y-113674322D01*
X107231457Y-113674358D01*
X108398417Y-113191025D01*
X108398569Y-113190924D01*
X108685138Y-112764084D01*
X106600000Y-110678945D01*
X104514862Y-112764084D01*
X99441000Y-112764084D01*
X99441000Y-111130797D01*
X103424982Y-111130797D01*
X103908315Y-112297757D01*
X103908416Y-112297909D01*
X104335256Y-112584478D01*
X106420395Y-110499340D01*
X106779605Y-110499340D01*
X108864744Y-112584478D01*
X109291584Y-112297909D01*
X109774982Y-111130977D01*
X109775018Y-109867883D01*
X109291685Y-108700923D01*
X109291584Y-108700771D01*
X108864744Y-108414202D01*
X106779605Y-110499340D01*
X106420395Y-110499340D01*
X104335256Y-108414202D01*
X103908416Y-108700771D01*
X103425018Y-109867703D01*
X103424982Y-111130797D01*
X99441000Y-111130797D01*
X99441000Y-108234596D01*
X104514862Y-108234596D01*
X106600000Y-110319735D01*
X108685138Y-108234596D01*
X108398569Y-107807756D01*
X107231637Y-107324358D01*
X105968543Y-107324322D01*
X104801583Y-107807655D01*
X104801431Y-107807756D01*
X104514862Y-108234596D01*
X99441000Y-108234596D01*
X99441000Y-107285750D01*
X120365000Y-107285750D01*
X120365000Y-107926310D01*
X120461673Y-108159699D01*
X120640302Y-108338327D01*
X120873691Y-108435000D01*
X121214250Y-108435000D01*
X121373000Y-108276250D01*
X121373000Y-107127000D01*
X121627000Y-107127000D01*
X121627000Y-108276250D01*
X121785750Y-108435000D01*
X122126309Y-108435000D01*
X122359698Y-108338327D01*
X122538327Y-108159699D01*
X122635000Y-107926310D01*
X122635000Y-107285750D01*
X122476250Y-107127000D01*
X121627000Y-107127000D01*
X121373000Y-107127000D01*
X120523750Y-107127000D01*
X120365000Y-107285750D01*
X99441000Y-107285750D01*
X99441000Y-106073690D01*
X120365000Y-106073690D01*
X120365000Y-106714250D01*
X120523750Y-106873000D01*
X121373000Y-106873000D01*
X121373000Y-105723750D01*
X121627000Y-105723750D01*
X121627000Y-106873000D01*
X122476250Y-106873000D01*
X122635000Y-106714250D01*
X122635000Y-106073690D01*
X122538327Y-105840301D01*
X122359698Y-105661673D01*
X122126309Y-105565000D01*
X121785750Y-105565000D01*
X121627000Y-105723750D01*
X121373000Y-105723750D01*
X121214250Y-105565000D01*
X120873691Y-105565000D01*
X120640302Y-105661673D01*
X120461673Y-105840301D01*
X120365000Y-106073690D01*
X99441000Y-106073690D01*
X99441000Y-91351292D01*
X107090497Y-91351292D01*
X108019860Y-92280655D01*
X108949223Y-91351292D01*
X108857937Y-91090680D01*
X108270027Y-90874215D01*
X107644032Y-90899211D01*
X107181783Y-91090680D01*
X107090497Y-91351292D01*
X99441000Y-91351292D01*
X99441000Y-87765404D01*
X104514862Y-87765404D01*
X104801431Y-88192244D01*
X105968363Y-88675642D01*
X107231457Y-88675678D01*
X108398417Y-88192345D01*
X108398569Y-88192244D01*
X108685138Y-87765404D01*
X106600000Y-85680265D01*
X104514862Y-87765404D01*
X99441000Y-87765404D01*
X99441000Y-86132117D01*
X103424982Y-86132117D01*
X103908315Y-87299077D01*
X103908416Y-87299229D01*
X104335256Y-87585798D01*
X106420395Y-85500660D01*
X106779605Y-85500660D01*
X108864744Y-87585798D01*
X109291584Y-87299229D01*
X109774982Y-86132297D01*
X109775018Y-84869203D01*
X109291685Y-83702243D01*
X109291584Y-83702091D01*
X108864744Y-83415522D01*
X106779605Y-85500660D01*
X106420395Y-85500660D01*
X104335256Y-83415522D01*
X103908416Y-83702091D01*
X103425018Y-84869023D01*
X103424982Y-86132117D01*
X99441000Y-86132117D01*
X99441000Y-83235916D01*
X104514862Y-83235916D01*
X106600000Y-85321055D01*
X108685138Y-83235916D01*
X108398569Y-82809076D01*
X107231637Y-82325678D01*
X105968543Y-82325642D01*
X104801583Y-82808975D01*
X104801431Y-82809076D01*
X104514862Y-83235916D01*
X99441000Y-83235916D01*
X99441000Y-81296250D01*
X112295000Y-81296250D01*
X112295000Y-82886809D01*
X112391673Y-83120198D01*
X112570301Y-83298827D01*
X112803690Y-83395500D01*
X114394250Y-83395500D01*
X114553000Y-83236750D01*
X114553000Y-81137500D01*
X112453750Y-81137500D01*
X112295000Y-81296250D01*
X99441000Y-81296250D01*
X99441000Y-79466567D01*
X99676523Y-79659854D01*
X99736018Y-79691655D01*
X99788167Y-79734453D01*
X100064787Y-79882313D01*
X100129361Y-79901902D01*
X100188874Y-79933710D01*
X100489024Y-80024750D01*
X100556150Y-80031359D01*
X100620695Y-80050940D01*
X100932846Y-80081690D01*
X101000000Y-80075077D01*
X101067159Y-80081690D01*
X101379289Y-80050940D01*
X101443830Y-80031360D01*
X101510950Y-80024752D01*
X101811110Y-79933712D01*
X101870631Y-79901900D01*
X101935212Y-79882308D01*
X102211822Y-79734448D01*
X102263966Y-79691652D01*
X102323457Y-79659854D01*
X102565917Y-79460874D01*
X102608719Y-79408719D01*
X102660874Y-79365917D01*
X102851044Y-79134191D01*
X112295000Y-79134191D01*
X112295000Y-80724750D01*
X112453750Y-80883500D01*
X114553000Y-80883500D01*
X114553000Y-78784250D01*
X114807000Y-78784250D01*
X114807000Y-80883500D01*
X116906250Y-80883500D01*
X117065000Y-80724750D01*
X117065000Y-80055804D01*
X117091673Y-80120198D01*
X117270301Y-80298827D01*
X117503690Y-80395500D01*
X119094250Y-80395500D01*
X119253000Y-80236750D01*
X119253000Y-78137500D01*
X119507000Y-78137500D01*
X119507000Y-80236750D01*
X119665750Y-80395500D01*
X121256310Y-80395500D01*
X121489699Y-80298827D01*
X121668327Y-80120198D01*
X121765000Y-79886809D01*
X121765000Y-78296250D01*
X121606250Y-78137500D01*
X119507000Y-78137500D01*
X119253000Y-78137500D01*
X117153750Y-78137500D01*
X116995000Y-78296250D01*
X116995000Y-78965196D01*
X116968327Y-78900802D01*
X116789699Y-78722173D01*
X116556310Y-78625500D01*
X114965750Y-78625500D01*
X114807000Y-78784250D01*
X114553000Y-78784250D01*
X114394250Y-78625500D01*
X112803690Y-78625500D01*
X112570301Y-78722173D01*
X112391673Y-78900802D01*
X112295000Y-79134191D01*
X102851044Y-79134191D01*
X102859854Y-79123457D01*
X102891652Y-79063966D01*
X102934448Y-79011822D01*
X103082308Y-78735212D01*
X103101900Y-78670631D01*
X103133712Y-78611110D01*
X103224752Y-78310950D01*
X103231360Y-78243829D01*
X103250940Y-78179289D01*
X103281690Y-77867159D01*
X103275077Y-77800000D01*
X103281690Y-77732846D01*
X103250940Y-77420695D01*
X103231359Y-77356150D01*
X103224750Y-77289024D01*
X103133710Y-76988874D01*
X103101902Y-76929361D01*
X103082313Y-76864787D01*
X102934453Y-76588167D01*
X102891655Y-76536018D01*
X102859854Y-76476523D01*
X102737145Y-76327000D01*
X116995000Y-76327000D01*
X116995000Y-77724750D01*
G36*
X140718888Y-88214112D02*
X140997892Y-88400536D01*
X141327000Y-88466000D01*
X141361569Y-88466000D01*
X141420410Y-88557441D01*
X141632610Y-88702431D01*
X141884500Y-88753440D01*
X143484500Y-88753440D01*
X143719817Y-88709162D01*
X143774940Y-88673691D01*
X147165000Y-88673691D01*
X147165000Y-89364250D01*
X147323750Y-89523000D01*
X148173000Y-89523000D01*
X148173000Y-88323750D01*
X148427000Y-88323750D01*
X148427000Y-89523000D01*
X149276250Y-89523000D01*
X149435000Y-89364250D01*
X149435000Y-88673691D01*
X149338327Y-88440302D01*
X149159699Y-88261673D01*
X148926310Y-88165000D01*
X148585750Y-88165000D01*
X148427000Y-88323750D01*
X148173000Y-88323750D01*
X148014250Y-88165000D01*
X147673690Y-88165000D01*
X147440301Y-88261673D01*
X147261673Y-88440302D01*
X147165000Y-88673691D01*
X143774940Y-88673691D01*
X143796932Y-88659540D01*
X146000460Y-88659540D01*
X146329568Y-88594076D01*
X146608572Y-88407652D01*
X146679767Y-88301101D01*
X148120868Y-86860000D01*
X154902560Y-86860000D01*
X154902560Y-87000000D01*
X154946838Y-87235317D01*
X155085910Y-87451441D01*
X155298110Y-87596431D01*
X155550000Y-87647440D01*
X157250000Y-87647440D01*
X157485317Y-87603162D01*
X157701441Y-87464090D01*
X157846431Y-87251890D01*
X157897440Y-87000000D01*
X157897440Y-86860000D01*
X159713850Y-86860000D01*
X159746838Y-87035317D01*
X159885910Y-87251441D01*
X160098110Y-87396431D01*
X160350000Y-87447440D01*
X162050000Y-87447440D01*
X162285317Y-87403162D01*
X162501441Y-87264090D01*
X162646431Y-87051890D01*
X162697440Y-86800000D01*
X162697440Y-86660000D01*
X164279132Y-86660000D01*
X164541560Y-86922428D01*
X164541560Y-87201500D01*
X164585838Y-87436817D01*
X164724910Y-87652941D01*
X164937110Y-87797931D01*
X165189000Y-87848940D01*
X166789000Y-87848940D01*
X167024317Y-87804662D01*
X167240441Y-87665590D01*
X167311563Y-87561500D01*
X171689276Y-87561500D01*
X171938060Y-87810284D01*
X171938060Y-91527069D01*
X171846619Y-91585910D01*
X171799451Y-91654942D01*
X171763170Y-91598559D01*
X171550970Y-91453569D01*
X171299080Y-91402560D01*
X170299080Y-91402560D01*
X170063763Y-91446838D01*
X169847639Y-91585910D01*
X169799163Y-91656856D01*
X169761650Y-91598559D01*
X169549450Y-91453569D01*
X169297560Y-91402560D01*
X168297560Y-91402560D01*
X168062243Y-91446838D01*
X167846119Y-91585910D01*
X167800260Y-91653028D01*
X167765210Y-91598559D01*
X167553010Y-91453569D01*
X167301120Y-91402560D01*
X166301120Y-91402560D01*
X166065803Y-91446838D01*
X165849679Y-91585910D01*
X165803565Y-91653400D01*
X165661839Y-91511673D01*
X165428450Y-91415000D01*
X165087890Y-91415000D01*
X164929140Y-91573750D01*
X164929140Y-92646500D01*
X164675140Y-92646500D01*
X164675140Y-91573750D01*
X164516390Y-91415000D01*
X164175830Y-91415000D01*
X163942441Y-91511673D01*
X163800279Y-91653835D01*
X163764710Y-91598559D01*
X163560620Y-91459110D01*
X163560620Y-90400620D01*
X163502768Y-90109781D01*
X163420896Y-89987250D01*
X164554000Y-89987250D01*
X164554000Y-90327809D01*
X164650673Y-90561198D01*
X164829301Y-90739827D01*
X165062690Y-90836500D01*
X165703250Y-90836500D01*
X165862000Y-90677750D01*
X165862000Y-89828500D01*
X166116000Y-89828500D01*
X166116000Y-90677750D01*
X166274750Y-90836500D01*
X166915310Y-90836500D01*
X167148699Y-90739827D01*
X167327327Y-90561198D01*
X167424000Y-90327809D01*
X167424000Y-89987250D01*
X167265250Y-89828500D01*
X166116000Y-89828500D01*
X165862000Y-89828500D01*
X164712750Y-89828500D01*
X164554000Y-89987250D01*
X163420896Y-89987250D01*
X163338021Y-89863219D01*
X162737401Y-89262599D01*
X162697440Y-89235898D01*
X162697440Y-89075191D01*
X164554000Y-89075191D01*
X164554000Y-89415750D01*
X164712750Y-89574500D01*
X165862000Y-89574500D01*
X165862000Y-88725250D01*
X166116000Y-88725250D01*
X166116000Y-89574500D01*
X167265250Y-89574500D01*
X167424000Y-89415750D01*
X167424000Y-89075191D01*
X167327327Y-88841802D01*
X167148699Y-88663173D01*
X166915310Y-88566500D01*
X166274750Y-88566500D01*
X166116000Y-88725250D01*
X165862000Y-88725250D01*
X165703250Y-88566500D01*
X165062690Y-88566500D01*
X164829301Y-88663173D01*
X164650673Y-88841802D01*
X164554000Y-89075191D01*
X162697440Y-89075191D01*
X162697440Y-88800000D01*
X162653162Y-88564683D01*
X162514090Y-88348559D01*
X162301890Y-88203569D01*
X162050000Y-88152560D01*
X160350000Y-88152560D01*
X160114683Y-88196838D01*
X159898559Y-88335910D01*
X159753569Y-88548110D01*
X159702560Y-88800000D01*
X159702560Y-90800000D01*
X159746838Y-91035317D01*
X159885910Y-91251441D01*
X160098110Y-91396431D01*
X160211828Y-91419459D01*
X160066323Y-91446838D01*
X159850199Y-91585910D01*
X159705209Y-91798110D01*
X159656225Y-92040000D01*
X157160000Y-92040000D01*
X157160000Y-91647440D01*
X157250000Y-91647440D01*
X157485317Y-91603162D01*
X157701441Y-91464090D01*
X157846431Y-91251890D01*
X157897440Y-91000000D01*
X157897440Y-89000000D01*
X157853162Y-88764683D01*
X157714090Y-88548559D01*
X157501890Y-88403569D01*
X157250000Y-88352560D01*
X155550000Y-88352560D01*
X155314683Y-88396838D01*
X155098559Y-88535910D01*
X154953569Y-88748110D01*
X154902560Y-89000000D01*
X154902560Y-91000000D01*
X154946838Y-91235317D01*
X155085910Y-91451441D01*
X155298110Y-91596431D01*
X155550000Y-91647440D01*
X155640000Y-91647440D01*
X155640000Y-92040000D01*
X152860000Y-92040000D01*
X152860000Y-91087279D01*
X153051441Y-90964090D01*
X153196431Y-90751890D01*
X153247440Y-90500000D01*
X153247440Y-88800000D01*
X153203162Y-88564683D01*
X153064090Y-88348559D01*
X152851890Y-88203569D01*
X152600000Y-88152560D01*
X151600000Y-88152560D01*
X151364683Y-88196838D01*
X151148559Y-88335910D01*
X151003569Y-88548110D01*
X150952560Y-88800000D01*
X150952560Y-90500000D01*
X150996838Y-90735317D01*
X151135910Y-90951441D01*
X151340000Y-91090890D01*
X151340000Y-94512721D01*
X151148559Y-94635910D01*
X151003569Y-94848110D01*
X150952560Y-95100000D01*
X150952560Y-96800000D01*
X150983889Y-96966500D01*
X149418352Y-96966500D01*
X149435000Y-96926309D01*
X149435000Y-96235750D01*
X149276250Y-96077000D01*
X148427000Y-96077000D01*
X148427000Y-96097000D01*
X148173000Y-96097000D01*
X148173000Y-96077000D01*
X147323750Y-96077000D01*
X147165000Y-96235750D01*
X147165000Y-96926309D01*
X147181648Y-96966500D01*
X147063302Y-96966500D01*
X145070493Y-94973691D01*
X147165000Y-94973691D01*
X147165000Y-95664250D01*
X147323750Y-95823000D01*
X148173000Y-95823000D01*
X148173000Y-94623750D01*
X148427000Y-94623750D01*
X148427000Y-95823000D01*
X149276250Y-95823000D01*
X149435000Y-95664250D01*
X149435000Y-94973691D01*
X149338327Y-94740302D01*
X149159699Y-94561673D01*
X148926310Y-94465000D01*
X148585750Y-94465000D01*
X148427000Y-94623750D01*
X148173000Y-94623750D01*
X148014250Y-94465000D01*
X147673690Y-94465000D01*
X147440301Y-94561673D01*
X147261673Y-94740302D01*
X147165000Y-94973691D01*
X145070493Y-94973691D01*
X142459901Y-92363099D01*
X142213339Y-92198352D01*
X141922500Y-92140500D01*
X138865463Y-92140500D01*
X138833327Y-92108308D01*
X138489799Y-91965662D01*
X138117833Y-91965338D01*
X137774057Y-92107383D01*
X137756409Y-92125000D01*
X135326563Y-92125000D01*
X135126890Y-91988569D01*
X134875000Y-91937560D01*
X132925000Y-91937560D01*
X132689683Y-91981838D01*
X132473559Y-92120910D01*
X132328569Y-92333110D01*
X132277560Y-92585000D01*
X132277560Y-93185000D01*
X132321838Y-93420317D01*
X132385678Y-93519528D01*
X132328569Y-93603110D01*
X132277560Y-93855000D01*
X132277560Y-94455000D01*
X132321838Y-94690317D01*
X132385678Y-94789528D01*
X132328569Y-94873110D01*
X132277560Y-95125000D01*
X132277560Y-95725000D01*
X132317074Y-95935000D01*
X128705000Y-95935000D01*
X128414161Y-95992852D01*
X128167599Y-96157599D01*
X127860146Y-96465052D01*
X127614833Y-96464838D01*
X127271057Y-96606883D01*
X127263500Y-96614427D01*
X127263500Y-95200000D01*
X127199939Y-94880459D01*
X127018934Y-94609566D01*
X126089545Y-93680177D01*
X126082926Y-93645000D01*
X129746000Y-93645000D01*
X130036839Y-93587148D01*
X130045212Y-93581554D01*
X130169667Y-93581662D01*
X130513443Y-93439617D01*
X130776692Y-93176827D01*
X130919338Y-92833299D01*
X130919662Y-92461333D01*
X130777617Y-92117557D01*
X130514827Y-91854308D01*
X130171299Y-91711662D01*
X129799333Y-91711338D01*
X129455557Y-91853383D01*
X129192308Y-92116173D01*
X129188643Y-92125000D01*
X125926563Y-92125000D01*
X125726890Y-91988569D01*
X125475000Y-91937560D01*
X123525000Y-91937560D01*
X123289683Y-91981838D01*
X123073559Y-92120910D01*
X122928569Y-92333110D01*
X122877560Y-92585000D01*
X122877560Y-93022836D01*
X122843500Y-92988776D01*
X122843500Y-90526224D01*
X123433974Y-89935750D01*
X147165000Y-89935750D01*
X147165000Y-90626309D01*
X147261673Y-90859698D01*
X147440301Y-91038327D01*
X147673690Y-91135000D01*
X148014250Y-91135000D01*
X148173000Y-90976250D01*
X148173000Y-89777000D01*
X148427000Y-89777000D01*
X148427000Y-90976250D01*
X148585750Y-91135000D01*
X148926310Y-91135000D01*
X149159699Y-91038327D01*
X149338327Y-90859698D01*
X149435000Y-90626309D01*
X149435000Y-89935750D01*
X149276250Y-89777000D01*
X148427000Y-89777000D01*
X148173000Y-89777000D01*
X147323750Y-89777000D01*
X147165000Y-89935750D01*
X123433974Y-89935750D01*
X124713224Y-88656500D01*
X128915569Y-88656500D01*
X128974410Y-88747941D01*
X129186610Y-88892931D01*
X129438500Y-88943940D01*
X131038500Y-88943940D01*
X131273817Y-88899662D01*
X131489941Y-88760590D01*
X131561063Y-88656500D01*
X131596000Y-88656500D01*
X131925108Y-88591036D01*
X132204112Y-88404612D01*
X133986771Y-86621953D01*
X134021838Y-86808317D01*
X134160910Y-87024441D01*
X134373110Y-87169431D01*
X134625000Y-87220440D01*
X138425000Y-87220440D01*
X138660317Y-87176162D01*
X138876441Y-87037090D01*
X139021431Y-86824890D01*
X139072440Y-86573000D01*
X139072440Y-86567664D01*
X140718888Y-88214112D01*
X140718888Y-88214112D01*
G37*
X140718888Y-88214112D02*
X140997892Y-88400536D01*
X141327000Y-88466000D01*
X141361569Y-88466000D01*
X141420410Y-88557441D01*
X141632610Y-88702431D01*
X141884500Y-88753440D01*
X143484500Y-88753440D01*
X143719817Y-88709162D01*
X143774940Y-88673691D01*
X147165000Y-88673691D01*
X147165000Y-89364250D01*
X147323750Y-89523000D01*
X148173000Y-89523000D01*
X148173000Y-88323750D01*
X148427000Y-88323750D01*
X148427000Y-89523000D01*
X149276250Y-89523000D01*
X149435000Y-89364250D01*
X149435000Y-88673691D01*
X149338327Y-88440302D01*
X149159699Y-88261673D01*
X148926310Y-88165000D01*
X148585750Y-88165000D01*
X148427000Y-88323750D01*
X148173000Y-88323750D01*
X148014250Y-88165000D01*
X147673690Y-88165000D01*
X147440301Y-88261673D01*
X147261673Y-88440302D01*
X147165000Y-88673691D01*
X143774940Y-88673691D01*
X143796932Y-88659540D01*
X146000460Y-88659540D01*
X146329568Y-88594076D01*
X146608572Y-88407652D01*
X146679767Y-88301101D01*
X148120868Y-86860000D01*
X154902560Y-86860000D01*
X154902560Y-87000000D01*
X154946838Y-87235317D01*
X155085910Y-87451441D01*
X155298110Y-87596431D01*
X155550000Y-87647440D01*
X157250000Y-87647440D01*
X157485317Y-87603162D01*
X157701441Y-87464090D01*
X157846431Y-87251890D01*
X157897440Y-87000000D01*
X157897440Y-86860000D01*
X159713850Y-86860000D01*
X159746838Y-87035317D01*
X159885910Y-87251441D01*
X160098110Y-87396431D01*
X160350000Y-87447440D01*
X162050000Y-87447440D01*
X162285317Y-87403162D01*
X162501441Y-87264090D01*
X162646431Y-87051890D01*
X162697440Y-86800000D01*
X162697440Y-86660000D01*
X164279132Y-86660000D01*
X164541560Y-86922428D01*
X164541560Y-87201500D01*
X164585838Y-87436817D01*
X164724910Y-87652941D01*
X164937110Y-87797931D01*
X165189000Y-87848940D01*
X166789000Y-87848940D01*
X167024317Y-87804662D01*
X167240441Y-87665590D01*
X167311563Y-87561500D01*
X171689276Y-87561500D01*
X171938060Y-87810284D01*
X171938060Y-91527069D01*
X171846619Y-91585910D01*
X171799451Y-91654942D01*
X171763170Y-91598559D01*
X171550970Y-91453569D01*
X171299080Y-91402560D01*
X170299080Y-91402560D01*
X170063763Y-91446838D01*
X169847639Y-91585910D01*
X169799163Y-91656856D01*
X169761650Y-91598559D01*
X169549450Y-91453569D01*
X169297560Y-91402560D01*
X168297560Y-91402560D01*
X168062243Y-91446838D01*
X167846119Y-91585910D01*
X167800260Y-91653028D01*
X167765210Y-91598559D01*
X167553010Y-91453569D01*
X167301120Y-91402560D01*
X166301120Y-91402560D01*
X166065803Y-91446838D01*
X165849679Y-91585910D01*
X165803565Y-91653400D01*
X165661839Y-91511673D01*
X165428450Y-91415000D01*
X165087890Y-91415000D01*
X164929140Y-91573750D01*
X164929140Y-92646500D01*
X164675140Y-92646500D01*
X164675140Y-91573750D01*
X164516390Y-91415000D01*
X164175830Y-91415000D01*
X163942441Y-91511673D01*
X163800279Y-91653835D01*
X163764710Y-91598559D01*
X163560620Y-91459110D01*
X163560620Y-90400620D01*
X163502768Y-90109781D01*
X163420896Y-89987250D01*
X164554000Y-89987250D01*
X164554000Y-90327809D01*
X164650673Y-90561198D01*
X164829301Y-90739827D01*
X165062690Y-90836500D01*
X165703250Y-90836500D01*
X165862000Y-90677750D01*
X165862000Y-89828500D01*
X166116000Y-89828500D01*
X166116000Y-90677750D01*
X166274750Y-90836500D01*
X166915310Y-90836500D01*
X167148699Y-90739827D01*
X167327327Y-90561198D01*
X167424000Y-90327809D01*
X167424000Y-89987250D01*
X167265250Y-89828500D01*
X166116000Y-89828500D01*
X165862000Y-89828500D01*
X164712750Y-89828500D01*
X164554000Y-89987250D01*
X163420896Y-89987250D01*
X163338021Y-89863219D01*
X162737401Y-89262599D01*
X162697440Y-89235898D01*
X162697440Y-89075191D01*
X164554000Y-89075191D01*
X164554000Y-89415750D01*
X164712750Y-89574500D01*
X165862000Y-89574500D01*
X165862000Y-88725250D01*
X166116000Y-88725250D01*
X166116000Y-89574500D01*
X167265250Y-89574500D01*
X167424000Y-89415750D01*
X167424000Y-89075191D01*
X167327327Y-88841802D01*
X167148699Y-88663173D01*
X166915310Y-88566500D01*
X166274750Y-88566500D01*
X166116000Y-88725250D01*
X165862000Y-88725250D01*
X165703250Y-88566500D01*
X165062690Y-88566500D01*
X164829301Y-88663173D01*
X164650673Y-88841802D01*
X164554000Y-89075191D01*
X162697440Y-89075191D01*
X162697440Y-88800000D01*
X162653162Y-88564683D01*
X162514090Y-88348559D01*
X162301890Y-88203569D01*
X162050000Y-88152560D01*
X160350000Y-88152560D01*
X160114683Y-88196838D01*
X159898559Y-88335910D01*
X159753569Y-88548110D01*
X159702560Y-88800000D01*
X159702560Y-90800000D01*
X159746838Y-91035317D01*
X159885910Y-91251441D01*
X160098110Y-91396431D01*
X160211828Y-91419459D01*
X160066323Y-91446838D01*
X159850199Y-91585910D01*
X159705209Y-91798110D01*
X159656225Y-92040000D01*
X157160000Y-92040000D01*
X157160000Y-91647440D01*
X157250000Y-91647440D01*
X157485317Y-91603162D01*
X157701441Y-91464090D01*
X157846431Y-91251890D01*
X157897440Y-91000000D01*
X157897440Y-89000000D01*
X157853162Y-88764683D01*
X157714090Y-88548559D01*
X157501890Y-88403569D01*
X157250000Y-88352560D01*
X155550000Y-88352560D01*
X155314683Y-88396838D01*
X155098559Y-88535910D01*
X154953569Y-88748110D01*
X154902560Y-89000000D01*
X154902560Y-91000000D01*
X154946838Y-91235317D01*
X155085910Y-91451441D01*
X155298110Y-91596431D01*
X155550000Y-91647440D01*
X155640000Y-91647440D01*
X155640000Y-92040000D01*
X152860000Y-92040000D01*
X152860000Y-91087279D01*
X153051441Y-90964090D01*
X153196431Y-90751890D01*
X153247440Y-90500000D01*
X153247440Y-88800000D01*
X153203162Y-88564683D01*
X153064090Y-88348559D01*
X152851890Y-88203569D01*
X152600000Y-88152560D01*
X151600000Y-88152560D01*
X151364683Y-88196838D01*
X151148559Y-88335910D01*
X151003569Y-88548110D01*
X150952560Y-88800000D01*
X150952560Y-90500000D01*
X150996838Y-90735317D01*
X151135910Y-90951441D01*
X151340000Y-91090890D01*
X151340000Y-94512721D01*
X151148559Y-94635910D01*
X151003569Y-94848110D01*
X150952560Y-95100000D01*
X150952560Y-96800000D01*
X150983889Y-96966500D01*
X149418352Y-96966500D01*
X149435000Y-96926309D01*
X149435000Y-96235750D01*
X149276250Y-96077000D01*
X148427000Y-96077000D01*
X148427000Y-96097000D01*
X148173000Y-96097000D01*
X148173000Y-96077000D01*
X147323750Y-96077000D01*
X147165000Y-96235750D01*
X147165000Y-96926309D01*
X147181648Y-96966500D01*
X147063302Y-96966500D01*
X145070493Y-94973691D01*
X147165000Y-94973691D01*
X147165000Y-95664250D01*
X147323750Y-95823000D01*
X148173000Y-95823000D01*
X148173000Y-94623750D01*
X148427000Y-94623750D01*
X148427000Y-95823000D01*
X149276250Y-95823000D01*
X149435000Y-95664250D01*
X149435000Y-94973691D01*
X149338327Y-94740302D01*
X149159699Y-94561673D01*
X148926310Y-94465000D01*
X148585750Y-94465000D01*
X148427000Y-94623750D01*
X148173000Y-94623750D01*
X148014250Y-94465000D01*
X147673690Y-94465000D01*
X147440301Y-94561673D01*
X147261673Y-94740302D01*
X147165000Y-94973691D01*
X145070493Y-94973691D01*
X142459901Y-92363099D01*
X142213339Y-92198352D01*
X141922500Y-92140500D01*
X138865463Y-92140500D01*
X138833327Y-92108308D01*
X138489799Y-91965662D01*
X138117833Y-91965338D01*
X137774057Y-92107383D01*
X137756409Y-92125000D01*
X135326563Y-92125000D01*
X135126890Y-91988569D01*
X134875000Y-91937560D01*
X132925000Y-91937560D01*
X132689683Y-91981838D01*
X132473559Y-92120910D01*
X132328569Y-92333110D01*
X132277560Y-92585000D01*
X132277560Y-93185000D01*
X132321838Y-93420317D01*
X132385678Y-93519528D01*
X132328569Y-93603110D01*
X132277560Y-93855000D01*
X132277560Y-94455000D01*
X132321838Y-94690317D01*
X132385678Y-94789528D01*
X132328569Y-94873110D01*
X132277560Y-95125000D01*
X132277560Y-95725000D01*
X132317074Y-95935000D01*
X128705000Y-95935000D01*
X128414161Y-95992852D01*
X128167599Y-96157599D01*
X127860146Y-96465052D01*
X127614833Y-96464838D01*
X127271057Y-96606883D01*
X127263500Y-96614427D01*
X127263500Y-95200000D01*
X127199939Y-94880459D01*
X127018934Y-94609566D01*
X126089545Y-93680177D01*
X126082926Y-93645000D01*
X129746000Y-93645000D01*
X130036839Y-93587148D01*
X130045212Y-93581554D01*
X130169667Y-93581662D01*
X130513443Y-93439617D01*
X130776692Y-93176827D01*
X130919338Y-92833299D01*
X130919662Y-92461333D01*
X130777617Y-92117557D01*
X130514827Y-91854308D01*
X130171299Y-91711662D01*
X129799333Y-91711338D01*
X129455557Y-91853383D01*
X129192308Y-92116173D01*
X129188643Y-92125000D01*
X125926563Y-92125000D01*
X125726890Y-91988569D01*
X125475000Y-91937560D01*
X123525000Y-91937560D01*
X123289683Y-91981838D01*
X123073559Y-92120910D01*
X122928569Y-92333110D01*
X122877560Y-92585000D01*
X122877560Y-93022836D01*
X122843500Y-92988776D01*
X122843500Y-90526224D01*
X123433974Y-89935750D01*
X147165000Y-89935750D01*
X147165000Y-90626309D01*
X147261673Y-90859698D01*
X147440301Y-91038327D01*
X147673690Y-91135000D01*
X148014250Y-91135000D01*
X148173000Y-90976250D01*
X148173000Y-89777000D01*
X148427000Y-89777000D01*
X148427000Y-90976250D01*
X148585750Y-91135000D01*
X148926310Y-91135000D01*
X149159699Y-91038327D01*
X149338327Y-90859698D01*
X149435000Y-90626309D01*
X149435000Y-89935750D01*
X149276250Y-89777000D01*
X148427000Y-89777000D01*
X148173000Y-89777000D01*
X147323750Y-89777000D01*
X147165000Y-89935750D01*
X123433974Y-89935750D01*
X124713224Y-88656500D01*
X128915569Y-88656500D01*
X128974410Y-88747941D01*
X129186610Y-88892931D01*
X129438500Y-88943940D01*
X131038500Y-88943940D01*
X131273817Y-88899662D01*
X131489941Y-88760590D01*
X131561063Y-88656500D01*
X131596000Y-88656500D01*
X131925108Y-88591036D01*
X132204112Y-88404612D01*
X133986771Y-86621953D01*
X134021838Y-86808317D01*
X134160910Y-87024441D01*
X134373110Y-87169431D01*
X134625000Y-87220440D01*
X138425000Y-87220440D01*
X138660317Y-87176162D01*
X138876441Y-87037090D01*
X139021431Y-86824890D01*
X139072440Y-86573000D01*
X139072440Y-86567664D01*
X140718888Y-88214112D01*
G36*
X171140107Y-76476497D02*
X171108268Y-76536058D01*
X171065433Y-76588269D01*
X170917633Y-76864889D01*
X170898089Y-76929353D01*
X170866327Y-76988754D01*
X170775227Y-77288904D01*
X170768594Y-77356142D01*
X170748989Y-77420804D01*
X170718289Y-77732954D01*
X170724902Y-77800000D01*
X170718289Y-77867051D01*
X170748989Y-78179180D01*
X170768593Y-78243837D01*
X170775225Y-78311070D01*
X170866325Y-78611230D01*
X170898091Y-78670640D01*
X170917638Y-78735110D01*
X171065438Y-79011720D01*
X171108270Y-79063926D01*
X171140107Y-79123483D01*
X171339107Y-79365943D01*
X171391274Y-79408751D01*
X171434086Y-79460909D01*
X171676586Y-79659889D01*
X171736051Y-79691667D01*
X171788169Y-79734443D01*
X172064769Y-79882303D01*
X172129367Y-79901901D01*
X172188904Y-79933719D01*
X172489104Y-80024759D01*
X172556210Y-80031363D01*
X172620735Y-80050939D01*
X172932835Y-80081689D01*
X173000000Y-80075076D01*
X173067165Y-80081689D01*
X173379265Y-80050939D01*
X173443790Y-80031363D01*
X173510896Y-80024759D01*
X173811096Y-79933719D01*
X173870633Y-79901901D01*
X173935231Y-79882303D01*
X174211831Y-79734443D01*
X174263949Y-79691667D01*
X174323414Y-79659889D01*
X174498000Y-79516635D01*
X174498000Y-92646500D01*
X173945500Y-92646500D01*
X173945500Y-92050000D01*
X173901222Y-91814683D01*
X173762150Y-91598559D01*
X173658060Y-91527437D01*
X173658060Y-87454065D01*
X173658061Y-87454060D01*
X173592597Y-87124953D01*
X173406172Y-86845948D01*
X172653612Y-86093388D01*
X172649797Y-86090839D01*
X172374608Y-85906964D01*
X172045500Y-85841500D01*
X167311931Y-85841500D01*
X167253090Y-85750059D01*
X167040890Y-85605069D01*
X166789000Y-85554060D01*
X165534928Y-85554060D01*
X165279307Y-85298439D01*
X165208112Y-85191888D01*
X164929108Y-85005464D01*
X164600000Y-84940000D01*
X162697440Y-84940000D01*
X162697440Y-84800000D01*
X162653162Y-84564683D01*
X162514090Y-84348559D01*
X162301890Y-84203569D01*
X162060000Y-84154585D01*
X162060000Y-84012224D01*
X162328112Y-83744112D01*
X162446004Y-83567673D01*
X162514536Y-83465108D01*
X162580000Y-83136000D01*
X162580000Y-81418590D01*
X162730670Y-81317915D01*
X163055526Y-80831734D01*
X163169600Y-80258245D01*
X163169600Y-79888755D01*
X163055526Y-79315266D01*
X162730670Y-78829085D01*
X162244489Y-78504229D01*
X161671000Y-78390155D01*
X161097511Y-78504229D01*
X160611330Y-78829085D01*
X160401000Y-79143866D01*
X160190670Y-78829085D01*
X159704489Y-78504229D01*
X159131000Y-78390155D01*
X158557511Y-78504229D01*
X158071330Y-78829085D01*
X157861000Y-79143866D01*
X157650670Y-78829085D01*
X157164489Y-78504229D01*
X156591000Y-78390155D01*
X156017511Y-78504229D01*
X155531330Y-78829085D01*
X155516500Y-78851280D01*
X155452927Y-78697802D01*
X155274299Y-78519173D01*
X155040910Y-78422500D01*
X154336750Y-78422500D01*
X154178000Y-78581250D01*
X154178000Y-79946500D01*
X154198000Y-79946500D01*
X154198000Y-80200500D01*
X154178000Y-80200500D01*
X154178000Y-81565750D01*
X154336750Y-81724500D01*
X155040910Y-81724500D01*
X155274299Y-81627827D01*
X155452927Y-81449198D01*
X155516500Y-81295720D01*
X155531330Y-81317915D01*
X156017511Y-81642771D01*
X156591000Y-81756845D01*
X157164489Y-81642771D01*
X157650670Y-81317915D01*
X157861000Y-81003134D01*
X158071330Y-81317915D01*
X158557511Y-81642771D01*
X159131000Y-81756845D01*
X159704489Y-81642771D01*
X160190670Y-81317915D01*
X160401000Y-81003134D01*
X160611330Y-81317915D01*
X160860000Y-81484071D01*
X160860000Y-82779776D01*
X160591888Y-83047888D01*
X160405464Y-83326892D01*
X160340000Y-83656000D01*
X160340000Y-84154442D01*
X160114683Y-84196838D01*
X159898559Y-84335910D01*
X159753569Y-84548110D01*
X159702560Y-84800000D01*
X159702560Y-85140000D01*
X157897440Y-85140000D01*
X157897440Y-85000000D01*
X157853162Y-84764683D01*
X157714090Y-84548559D01*
X157501890Y-84403569D01*
X157250000Y-84352560D01*
X155550000Y-84352560D01*
X155314683Y-84396838D01*
X155098559Y-84535910D01*
X154953569Y-84748110D01*
X154902560Y-85000000D01*
X154902560Y-85140000D01*
X147800000Y-85140000D01*
X147470892Y-85205464D01*
X147191888Y-85391888D01*
X147120693Y-85498439D01*
X145679592Y-86939540D01*
X144100618Y-86939540D01*
X144087662Y-86870683D01*
X143948590Y-86654559D01*
X143736390Y-86509569D01*
X143484500Y-86458560D01*
X141884500Y-86458560D01*
X141649183Y-86502838D01*
X141521940Y-86584716D01*
X139902112Y-84964888D01*
X139840170Y-84923500D01*
X139792653Y-84891750D01*
X141249500Y-84891750D01*
X141249500Y-85232309D01*
X141346173Y-85465698D01*
X141524801Y-85644327D01*
X141758190Y-85741000D01*
X142398750Y-85741000D01*
X142557500Y-85582250D01*
X142557500Y-84733000D01*
X142811500Y-84733000D01*
X142811500Y-85582250D01*
X142970250Y-85741000D01*
X143610810Y-85741000D01*
X143844199Y-85644327D01*
X144022827Y-85465698D01*
X144119500Y-85232309D01*
X144119500Y-84891750D01*
X143960750Y-84733000D01*
X142811500Y-84733000D01*
X142557500Y-84733000D01*
X141408250Y-84733000D01*
X141249500Y-84891750D01*
X139792653Y-84891750D01*
X139623108Y-84778464D01*
X139294000Y-84713000D01*
X139072440Y-84713000D01*
X139072440Y-84573000D01*
X139028162Y-84337683D01*
X138889090Y-84121559D01*
X138681460Y-83979691D01*
X141249500Y-83979691D01*
X141249500Y-84320250D01*
X141408250Y-84479000D01*
X142557500Y-84479000D01*
X142557500Y-83629750D01*
X142811500Y-83629750D01*
X142811500Y-84479000D01*
X143960750Y-84479000D01*
X144119500Y-84320250D01*
X144119500Y-83979691D01*
X144022827Y-83746302D01*
X143844199Y-83567673D01*
X143610810Y-83471000D01*
X142970250Y-83471000D01*
X142811500Y-83629750D01*
X142557500Y-83629750D01*
X142398750Y-83471000D01*
X141758190Y-83471000D01*
X141524801Y-83567673D01*
X141346173Y-83746302D01*
X141249500Y-83979691D01*
X138681460Y-83979691D01*
X138676890Y-83976569D01*
X138425000Y-83925560D01*
X137385000Y-83925560D01*
X137385000Y-80899742D01*
X137510317Y-80876162D01*
X137674492Y-80770518D01*
X137715301Y-80811327D01*
X137948690Y-80908000D01*
X138539250Y-80908000D01*
X138698000Y-80749250D01*
X138698000Y-79400000D01*
X138952000Y-79400000D01*
X138952000Y-80749250D01*
X139110750Y-80908000D01*
X139701310Y-80908000D01*
X139934699Y-80811327D01*
X140113327Y-80632698D01*
X140210000Y-80399309D01*
X140210000Y-80359250D01*
X152552400Y-80359250D01*
X152552400Y-81215809D01*
X152649073Y-81449198D01*
X152827701Y-81627827D01*
X153061090Y-81724500D01*
X153765250Y-81724500D01*
X153924000Y-81565750D01*
X153924000Y-80200500D01*
X152711150Y-80200500D01*
X152552400Y-80359250D01*
X140210000Y-80359250D01*
X140210000Y-79558750D01*
X140051250Y-79400000D01*
X138952000Y-79400000D01*
X138698000Y-79400000D01*
X138678000Y-79400000D01*
X138678000Y-79146000D01*
X138698000Y-79146000D01*
X138698000Y-77796750D01*
X138952000Y-77796750D01*
X138952000Y-79146000D01*
X140051250Y-79146000D01*
X140210000Y-78987250D01*
X140210000Y-78146691D01*
X140113327Y-77913302D01*
X139934699Y-77734673D01*
X139701310Y-77638000D01*
X139110750Y-77638000D01*
X138952000Y-77796750D01*
X138698000Y-77796750D01*
X138539250Y-77638000D01*
X137948690Y-77638000D01*
X137715301Y-77734673D01*
X137673340Y-77776634D01*
X137526890Y-77676569D01*
X137275000Y-77625560D01*
X135775000Y-77625560D01*
X135539683Y-77669838D01*
X135373523Y-77776759D01*
X135226890Y-77676569D01*
X135221585Y-77675495D01*
X135367579Y-77529500D01*
X141428920Y-77529500D01*
X142325208Y-78425787D01*
X142325210Y-78425790D01*
X142612325Y-78617633D01*
X142651875Y-78625500D01*
X142951000Y-78685001D01*
X142951005Y-78685000D01*
X144028514Y-78685000D01*
X144115807Y-79123855D01*
X144417122Y-79574803D01*
X144868070Y-79876118D01*
X145400000Y-79981925D01*
X145931930Y-79876118D01*
X146382878Y-79574803D01*
X146682751Y-79126013D01*
X146704408Y-79199263D01*
X147046924Y-79622681D01*
X147525403Y-79882793D01*
X147598029Y-79897277D01*
X147813000Y-79774683D01*
X147813000Y-77927000D01*
X148067000Y-77927000D01*
X148067000Y-79774683D01*
X148281971Y-79897277D01*
X148354597Y-79882793D01*
X148833076Y-79622681D01*
X149175592Y-79199263D01*
X149254847Y-78931191D01*
X152552400Y-78931191D01*
X152552400Y-79787750D01*
X152711150Y-79946500D01*
X153924000Y-79946500D01*
X153924000Y-78581250D01*
X153765250Y-78422500D01*
X153061090Y-78422500D01*
X152827701Y-78519173D01*
X152649073Y-78697802D01*
X152552400Y-78931191D01*
X149254847Y-78931191D01*
X149330000Y-78677000D01*
X149330000Y-77927000D01*
X148067000Y-77927000D01*
X147813000Y-77927000D01*
X147793000Y-77927000D01*
X147793000Y-77673000D01*
X147813000Y-77673000D01*
X147813000Y-77653000D01*
X148067000Y-77653000D01*
X148067000Y-77673000D01*
X149330000Y-77673000D01*
X149330000Y-76923000D01*
X149175592Y-76400737D01*
X149115944Y-76327000D01*
X171262807Y-76327000D01*
X171140107Y-76476497D01*
X171140107Y-76476497D01*
G37*
X171140107Y-76476497D02*
X171108268Y-76536058D01*
X171065433Y-76588269D01*
X170917633Y-76864889D01*
X170898089Y-76929353D01*
X170866327Y-76988754D01*
X170775227Y-77288904D01*
X170768594Y-77356142D01*
X170748989Y-77420804D01*
X170718289Y-77732954D01*
X170724902Y-77800000D01*
X170718289Y-77867051D01*
X170748989Y-78179180D01*
X170768593Y-78243837D01*
X170775225Y-78311070D01*
X170866325Y-78611230D01*
X170898091Y-78670640D01*
X170917638Y-78735110D01*
X171065438Y-79011720D01*
X171108270Y-79063926D01*
X171140107Y-79123483D01*
X171339107Y-79365943D01*
X171391274Y-79408751D01*
X171434086Y-79460909D01*
X171676586Y-79659889D01*
X171736051Y-79691667D01*
X171788169Y-79734443D01*
X172064769Y-79882303D01*
X172129367Y-79901901D01*
X172188904Y-79933719D01*
X172489104Y-80024759D01*
X172556210Y-80031363D01*
X172620735Y-80050939D01*
X172932835Y-80081689D01*
X173000000Y-80075076D01*
X173067165Y-80081689D01*
X173379265Y-80050939D01*
X173443790Y-80031363D01*
X173510896Y-80024759D01*
X173811096Y-79933719D01*
X173870633Y-79901901D01*
X173935231Y-79882303D01*
X174211831Y-79734443D01*
X174263949Y-79691667D01*
X174323414Y-79659889D01*
X174498000Y-79516635D01*
X174498000Y-92646500D01*
X173945500Y-92646500D01*
X173945500Y-92050000D01*
X173901222Y-91814683D01*
X173762150Y-91598559D01*
X173658060Y-91527437D01*
X173658060Y-87454065D01*
X173658061Y-87454060D01*
X173592597Y-87124953D01*
X173406172Y-86845948D01*
X172653612Y-86093388D01*
X172649797Y-86090839D01*
X172374608Y-85906964D01*
X172045500Y-85841500D01*
X167311931Y-85841500D01*
X167253090Y-85750059D01*
X167040890Y-85605069D01*
X166789000Y-85554060D01*
X165534928Y-85554060D01*
X165279307Y-85298439D01*
X165208112Y-85191888D01*
X164929108Y-85005464D01*
X164600000Y-84940000D01*
X162697440Y-84940000D01*
X162697440Y-84800000D01*
X162653162Y-84564683D01*
X162514090Y-84348559D01*
X162301890Y-84203569D01*
X162060000Y-84154585D01*
X162060000Y-84012224D01*
X162328112Y-83744112D01*
X162446004Y-83567673D01*
X162514536Y-83465108D01*
X162580000Y-83136000D01*
X162580000Y-81418590D01*
X162730670Y-81317915D01*
X163055526Y-80831734D01*
X163169600Y-80258245D01*
X163169600Y-79888755D01*
X163055526Y-79315266D01*
X162730670Y-78829085D01*
X162244489Y-78504229D01*
X161671000Y-78390155D01*
X161097511Y-78504229D01*
X160611330Y-78829085D01*
X160401000Y-79143866D01*
X160190670Y-78829085D01*
X159704489Y-78504229D01*
X159131000Y-78390155D01*
X158557511Y-78504229D01*
X158071330Y-78829085D01*
X157861000Y-79143866D01*
X157650670Y-78829085D01*
X157164489Y-78504229D01*
X156591000Y-78390155D01*
X156017511Y-78504229D01*
X155531330Y-78829085D01*
X155516500Y-78851280D01*
X155452927Y-78697802D01*
X155274299Y-78519173D01*
X155040910Y-78422500D01*
X154336750Y-78422500D01*
X154178000Y-78581250D01*
X154178000Y-79946500D01*
X154198000Y-79946500D01*
X154198000Y-80200500D01*
X154178000Y-80200500D01*
X154178000Y-81565750D01*
X154336750Y-81724500D01*
X155040910Y-81724500D01*
X155274299Y-81627827D01*
X155452927Y-81449198D01*
X155516500Y-81295720D01*
X155531330Y-81317915D01*
X156017511Y-81642771D01*
X156591000Y-81756845D01*
X157164489Y-81642771D01*
X157650670Y-81317915D01*
X157861000Y-81003134D01*
X158071330Y-81317915D01*
X158557511Y-81642771D01*
X159131000Y-81756845D01*
X159704489Y-81642771D01*
X160190670Y-81317915D01*
X160401000Y-81003134D01*
X160611330Y-81317915D01*
X160860000Y-81484071D01*
X160860000Y-82779776D01*
X160591888Y-83047888D01*
X160405464Y-83326892D01*
X160340000Y-83656000D01*
X160340000Y-84154442D01*
X160114683Y-84196838D01*
X159898559Y-84335910D01*
X159753569Y-84548110D01*
X159702560Y-84800000D01*
X159702560Y-85140000D01*
X157897440Y-85140000D01*
X157897440Y-85000000D01*
X157853162Y-84764683D01*
X157714090Y-84548559D01*
X157501890Y-84403569D01*
X157250000Y-84352560D01*
X155550000Y-84352560D01*
X155314683Y-84396838D01*
X155098559Y-84535910D01*
X154953569Y-84748110D01*
X154902560Y-85000000D01*
X154902560Y-85140000D01*
X147800000Y-85140000D01*
X147470892Y-85205464D01*
X147191888Y-85391888D01*
X147120693Y-85498439D01*
X145679592Y-86939540D01*
X144100618Y-86939540D01*
X144087662Y-86870683D01*
X143948590Y-86654559D01*
X143736390Y-86509569D01*
X143484500Y-86458560D01*
X141884500Y-86458560D01*
X141649183Y-86502838D01*
X141521940Y-86584716D01*
X139902112Y-84964888D01*
X139840170Y-84923500D01*
X139792653Y-84891750D01*
X141249500Y-84891750D01*
X141249500Y-85232309D01*
X141346173Y-85465698D01*
X141524801Y-85644327D01*
X141758190Y-85741000D01*
X142398750Y-85741000D01*
X142557500Y-85582250D01*
X142557500Y-84733000D01*
X142811500Y-84733000D01*
X142811500Y-85582250D01*
X142970250Y-85741000D01*
X143610810Y-85741000D01*
X143844199Y-85644327D01*
X144022827Y-85465698D01*
X144119500Y-85232309D01*
X144119500Y-84891750D01*
X143960750Y-84733000D01*
X142811500Y-84733000D01*
X142557500Y-84733000D01*
X141408250Y-84733000D01*
X141249500Y-84891750D01*
X139792653Y-84891750D01*
X139623108Y-84778464D01*
X139294000Y-84713000D01*
X139072440Y-84713000D01*
X139072440Y-84573000D01*
X139028162Y-84337683D01*
X138889090Y-84121559D01*
X138681460Y-83979691D01*
X141249500Y-83979691D01*
X141249500Y-84320250D01*
X141408250Y-84479000D01*
X142557500Y-84479000D01*
X142557500Y-83629750D01*
X142811500Y-83629750D01*
X142811500Y-84479000D01*
X143960750Y-84479000D01*
X144119500Y-84320250D01*
X144119500Y-83979691D01*
X144022827Y-83746302D01*
X143844199Y-83567673D01*
X143610810Y-83471000D01*
X142970250Y-83471000D01*
X142811500Y-83629750D01*
X142557500Y-83629750D01*
X142398750Y-83471000D01*
X141758190Y-83471000D01*
X141524801Y-83567673D01*
X141346173Y-83746302D01*
X141249500Y-83979691D01*
X138681460Y-83979691D01*
X138676890Y-83976569D01*
X138425000Y-83925560D01*
X137385000Y-83925560D01*
X137385000Y-80899742D01*
X137510317Y-80876162D01*
X137674492Y-80770518D01*
X137715301Y-80811327D01*
X137948690Y-80908000D01*
X138539250Y-80908000D01*
X138698000Y-80749250D01*
X138698000Y-79400000D01*
X138952000Y-79400000D01*
X138952000Y-80749250D01*
X139110750Y-80908000D01*
X139701310Y-80908000D01*
X139934699Y-80811327D01*
X140113327Y-80632698D01*
X140210000Y-80399309D01*
X140210000Y-80359250D01*
X152552400Y-80359250D01*
X152552400Y-81215809D01*
X152649073Y-81449198D01*
X152827701Y-81627827D01*
X153061090Y-81724500D01*
X153765250Y-81724500D01*
X153924000Y-81565750D01*
X153924000Y-80200500D01*
X152711150Y-80200500D01*
X152552400Y-80359250D01*
X140210000Y-80359250D01*
X140210000Y-79558750D01*
X140051250Y-79400000D01*
X138952000Y-79400000D01*
X138698000Y-79400000D01*
X138678000Y-79400000D01*
X138678000Y-79146000D01*
X138698000Y-79146000D01*
X138698000Y-77796750D01*
X138952000Y-77796750D01*
X138952000Y-79146000D01*
X140051250Y-79146000D01*
X140210000Y-78987250D01*
X140210000Y-78146691D01*
X140113327Y-77913302D01*
X139934699Y-77734673D01*
X139701310Y-77638000D01*
X139110750Y-77638000D01*
X138952000Y-77796750D01*
X138698000Y-77796750D01*
X138539250Y-77638000D01*
X137948690Y-77638000D01*
X137715301Y-77734673D01*
X137673340Y-77776634D01*
X137526890Y-77676569D01*
X137275000Y-77625560D01*
X135775000Y-77625560D01*
X135539683Y-77669838D01*
X135373523Y-77776759D01*
X135226890Y-77676569D01*
X135221585Y-77675495D01*
X135367579Y-77529500D01*
X141428920Y-77529500D01*
X142325208Y-78425787D01*
X142325210Y-78425790D01*
X142612325Y-78617633D01*
X142651875Y-78625500D01*
X142951000Y-78685001D01*
X142951005Y-78685000D01*
X144028514Y-78685000D01*
X144115807Y-79123855D01*
X144417122Y-79574803D01*
X144868070Y-79876118D01*
X145400000Y-79981925D01*
X145931930Y-79876118D01*
X146382878Y-79574803D01*
X146682751Y-79126013D01*
X146704408Y-79199263D01*
X147046924Y-79622681D01*
X147525403Y-79882793D01*
X147598029Y-79897277D01*
X147813000Y-79774683D01*
X147813000Y-77927000D01*
X148067000Y-77927000D01*
X148067000Y-79774683D01*
X148281971Y-79897277D01*
X148354597Y-79882793D01*
X148833076Y-79622681D01*
X149175592Y-79199263D01*
X149254847Y-78931191D01*
X152552400Y-78931191D01*
X152552400Y-79787750D01*
X152711150Y-79946500D01*
X153924000Y-79946500D01*
X153924000Y-78581250D01*
X153765250Y-78422500D01*
X153061090Y-78422500D01*
X152827701Y-78519173D01*
X152649073Y-78697802D01*
X152552400Y-78931191D01*
X149254847Y-78931191D01*
X149330000Y-78677000D01*
X149330000Y-77927000D01*
X148067000Y-77927000D01*
X147813000Y-77927000D01*
X147793000Y-77927000D01*
X147793000Y-77673000D01*
X147813000Y-77673000D01*
X147813000Y-77653000D01*
X148067000Y-77653000D01*
X148067000Y-77673000D01*
X149330000Y-77673000D01*
X149330000Y-76923000D01*
X149175592Y-76400737D01*
X149115944Y-76327000D01*
X171262807Y-76327000D01*
X171140107Y-76476497D01*
M02*
